<svg xmlns="http://www.w3.org/2000/svg" width="525" height="318.145" viewBox="0 0 525 318.145">
  <g id="banner-princiapal" transform="translate(363.18 743.982)">
    <g id="Group_54112" data-name="Group 54112" transform="translate(-363.18 -743.982)">
      <g id="Group_54108" data-name="Group 54108" transform="translate(1.386 16.779)">
        <g id="Group_54083" data-name="Group 54083" transform="translate(0 22.138)">
          <g id="Group_54082" data-name="Group 54082">
            <path id="Path_101102" data-name="Path 101102" d="M-311.292-589.226a5.644,5.644,0,0,1-.735-.048l-7.727-1a5.712,5.712,0,0,1-4.928-6.39l1.123-8.693a4.211,4.211,0,0,0-2.249-4.246c-.86-.448-1.715-.939-2.54-1.459a4.18,4.18,0,0,0-4.764.221l-6.942,5.353a5.67,5.67,0,0,1-4.215,1.14,5.667,5.667,0,0,1-3.787-2.174l-4.758-6.169a5.713,5.713,0,0,1,1.033-8l6.941-5.353a4.179,4.179,0,0,0,1.424-4.552c-.292-.925-.549-1.877-.765-2.827a4.213,4.213,0,0,0-3.536-3.255l-8.693-1.123a5.711,5.711,0,0,1-4.928-6.389l1-7.727a5.666,5.666,0,0,1,2.174-3.786,5.678,5.678,0,0,1,4.215-1.14l8.693,1.123a4.21,4.21,0,0,0,4.247-2.249c.451-.866.941-1.721,1.459-2.541a4.179,4.179,0,0,0-.222-4.764l-5.352-6.94a5.669,5.669,0,0,1-1.14-4.215,5.668,5.668,0,0,1,2.174-3.787l6.169-4.758a5.713,5.713,0,0,1,8,1.034l5.352,6.94a4.181,4.181,0,0,0,4.551,1.425c.926-.293,1.877-.549,2.828-.766a4.211,4.211,0,0,0,3.255-3.536l1.123-8.693a5.714,5.714,0,0,1,6.391-4.928l7.726,1a5.713,5.713,0,0,1,4.928,6.389l-1.124,8.693a4.211,4.211,0,0,0,2.249,4.247c.86.448,1.715.939,2.541,1.459a4.179,4.179,0,0,0,4.765-.221l6.941-5.353a5.713,5.713,0,0,1,8,1.034l4.758,6.169a5.713,5.713,0,0,1-1.034,8l-6.94,5.353a4.181,4.181,0,0,0-1.425,4.552c.292.928.55,1.88.765,2.828a4.211,4.211,0,0,0,3.536,3.254l8.692,1.123a5.668,5.668,0,0,1,3.787,2.174,5.669,5.669,0,0,1,1.141,4.215l-1,7.727a5.667,5.667,0,0,1-2.174,3.787,5.664,5.664,0,0,1-4.215,1.141l-8.693-1.123a4.206,4.206,0,0,0-4.248,2.249c-.452.867-.943,1.722-1.458,2.541a4.179,4.179,0,0,0,.221,4.764l5.352,6.94a5.669,5.669,0,0,1,1.141,4.215,5.665,5.665,0,0,1-2.175,3.787l-6.169,4.758a5.713,5.713,0,0,1-8-1.034l-5.351-6.94a4.183,4.183,0,0,0-4.553-1.425c-.922.291-1.874.549-2.827.765a4.21,4.21,0,0,0-3.255,3.536l-1.123,8.693A5.716,5.716,0,0,1-311.292-589.226Zm-19.278-24.016a5.7,5.7,0,0,1,3.045.877c.79.5,1.609.967,2.431,1.4a5.76,5.76,0,0,1,3.068,5.814l-1.124,8.693a4.167,4.167,0,0,0,3.594,4.661l7.727,1a4.167,4.167,0,0,0,4.661-3.6l1.123-8.692a5.763,5.763,0,0,1,4.444-4.844c.912-.208,1.823-.453,2.705-.732a5.731,5.731,0,0,1,6.239,1.954l5.351,6.941a4.169,4.169,0,0,0,5.839.754l6.169-4.758a4.135,4.135,0,0,0,1.586-2.762,4.134,4.134,0,0,0-.833-3.075l-5.352-6.94a5.73,5.73,0,0,1-.3-6.53c.494-.783.963-1.6,1.4-2.431a5.765,5.765,0,0,1,5.813-3.066l8.693,1.123a4.13,4.13,0,0,0,3.075-.832,4.134,4.134,0,0,0,1.586-2.763l1-7.727a4.138,4.138,0,0,0-.833-3.075,4.131,4.131,0,0,0-2.762-1.586l-8.692-1.123a5.762,5.762,0,0,1-4.845-4.443c-.2-.907-.451-1.817-.732-2.705a5.729,5.729,0,0,1,1.955-6.238l6.94-5.353a4.167,4.167,0,0,0,.754-5.837l-4.758-6.169a4.165,4.165,0,0,0-5.837-.755l-6.942,5.353a5.727,5.727,0,0,1-6.529.3c-.79-.5-1.607-.967-2.431-1.4a5.76,5.76,0,0,1-3.066-5.813l1.124-8.693a4.168,4.168,0,0,0-3.6-4.661l-7.726-1a4.167,4.167,0,0,0-4.661,3.6l-1.123,8.692a5.762,5.762,0,0,1-4.444,4.844c-.911.207-1.821.453-2.706.732a5.728,5.728,0,0,1-6.238-1.955L-331.14-683a4.167,4.167,0,0,0-5.838-.754L-343.147-679a4.136,4.136,0,0,0-1.586,2.763,4.14,4.14,0,0,0,.833,3.075l5.352,6.94a5.727,5.727,0,0,1,.3,6.53c-.494.785-.964,1.6-1.4,2.431a5.761,5.761,0,0,1-5.813,3.066l-8.693-1.123a4.132,4.132,0,0,0-3.075.832,4.134,4.134,0,0,0-1.586,2.762l-1,7.727a4.167,4.167,0,0,0,3.594,4.661l8.693,1.123a5.762,5.762,0,0,1,4.844,4.444c.207.91.453,1.82.732,2.705a5.728,5.728,0,0,1-1.955,6.238l-6.94,5.353a4.167,4.167,0,0,0-.753,5.837l4.758,6.169a4.134,4.134,0,0,0,2.762,1.586,4.132,4.132,0,0,0,3.075-.832l6.941-5.353A5.7,5.7,0,0,1-330.57-613.242Zm52.649-63.434h0Zm-31.27,62.451a27.144,27.144,0,0,1-21.548-10.567,27,27,0,0,1-5.432-20.075A27,27,0,0,1-325.816-662.9a26.991,26.991,0,0,1,20.076-5.432,27,27,0,0,1,18.035,10.355,27,27,0,0,1,5.431,20.075,27,27,0,0,1-10.355,18.036h0A27.04,27.04,0,0,1-309.191-614.225Zm-.084-52.8a25.437,25.437,0,0,0-15.6,5.339,25.463,25.463,0,0,0-9.767,17.011,25.462,25.462,0,0,0,5.124,18.934,25.659,25.659,0,0,0,35.946,4.644h0a25.658,25.658,0,0,0,4.643-35.946,25.461,25.461,0,0,0-17.011-9.767A26.005,26.005,0,0,0-309.276-667.02Zm16.176,46.539h0Z" transform="translate(361.383 693.547)" fill="#c7f9cc"/>
          </g>
        </g>
        <g id="Group_54093" data-name="Group 54093" transform="translate(11.684 130.272)">
          <g id="Group_54084" data-name="Group 54084" transform="translate(7.435 7.435)">
            <path id="Path_101103" data-name="Path 101103" d="M-291.3-453.172a45.353,45.353,0,0,1-45.3-45.3,45.353,45.353,0,0,1,45.3-45.3,45.353,45.353,0,0,1,45.3,45.3A45.353,45.353,0,0,1-291.3-453.172Zm0-89.061a43.809,43.809,0,0,0-43.758,43.759A43.809,43.809,0,0,0-291.3-454.715a43.808,43.808,0,0,0,43.758-43.759A43.808,43.808,0,0,0-291.3-542.233Z" transform="translate(336.606 543.776)" fill="#c7f9cc"/>
          </g>
          <g id="Group_54088" data-name="Group 54088">
            <g id="Group_54085" data-name="Group 54085" transform="translate(7.435 7.435)">
              <path id="Path_101104" data-name="Path 101104" d="M-291.3-453.172a45.353,45.353,0,0,1-45.3-45.3,45.353,45.353,0,0,1,45.3-45.3,45.353,45.353,0,0,1,45.3,45.3A45.353,45.353,0,0,1-291.3-453.172Zm0-89.061a43.809,43.809,0,0,0-43.758,43.759A43.809,43.809,0,0,0-291.3-454.715a43.808,43.808,0,0,0,43.758-43.759A43.808,43.808,0,0,0-291.3-542.233Z" transform="translate(336.606 543.776)" fill="#c7f9cc"/>
            </g>
            <g id="Group_54086" data-name="Group 54086">
              <path id="Path_101105" data-name="Path 101105" d="M-293.5-447.937a52.8,52.8,0,0,1-52.736-52.737A52.8,52.8,0,0,1-293.5-553.411a52.8,52.8,0,0,1,52.736,52.736,52.8,52.8,0,0,1-11.547,32.929,6.84,6.84,0,0,1,1.28.987h0l5.866,5.747-9.8,9.8-5.765-5.647a6.833,6.833,0,0,1-1.2-1.584A52.186,52.186,0,0,1-293.5-447.937Zm0-103.93A51.251,51.251,0,0,0-344.7-500.675,51.251,51.251,0,0,0-293.5-449.481a50.681,50.681,0,0,0,31.389-10.767l.827-.644.369.98a5.326,5.326,0,0,0,1.267,1.951l4.674,4.577,7.616-7.617-4.752-4.655h0a5.386,5.386,0,0,0-1.7-1.123l-.965-.4.667-.8a51.25,51.25,0,0,0,11.8-32.691A51.251,51.251,0,0,0-293.5-551.868Zm0,96.5a45.353,45.353,0,0,1-45.3-45.3,45.353,45.353,0,0,1,45.3-45.3,45.353,45.353,0,0,1,45.3,45.3A45.353,45.353,0,0,1-293.5-455.372Zm0-89.061a43.809,43.809,0,0,0-43.758,43.759A43.809,43.809,0,0,0-293.5-456.915a43.808,43.808,0,0,0,43.758-43.759A43.808,43.808,0,0,0-293.5-544.433Z" transform="translate(346.241 553.411)" fill="#c7f9cc"/>
            </g>
            <g id="Group_54087" data-name="Group 54087" transform="translate(89.744 90.13)">
              <path id="Path_101106" data-name="Path 101106" d="M-220.735-415.041a2.272,2.272,0,0,1-1.616-.669l-6.918-6.919a2.284,2.284,0,0,1,0-3.229l10.081-10.081a2.287,2.287,0,0,1,3.229,0l6.918,6.919a2.269,2.269,0,0,1,.67,1.615,2.273,2.273,0,0,1-.67,1.616l-10.08,10.08A2.268,2.268,0,0,1-220.735-415.041Zm3.162-20.024a.743.743,0,0,0-.524.216l-10.081,10.081a.741.741,0,0,0,0,1.047l6.919,6.919a.757.757,0,0,0,1.047,0l10.08-10.081a.735.735,0,0,0,.218-.524.736.736,0,0,0-.218-.524l-6.918-6.919A.743.743,0,0,0-217.573-435.064Z" transform="translate(229.937 436.607)" fill="#c7f9cc"/>
            </g>
          </g>
          <g id="Group_54089" data-name="Group 54089" transform="translate(92.663 92.753)">
            <path id="Path_101107" data-name="Path 101107" d="M-182-378.17a10.181,10.181,0,0,1-7.285-3.049l-36.594-36.993c-.684-.69-.066-1.729,1.4-3.529a88.3,88.3,0,0,1,8.685-8.91c3.057-2.7,3.884-2.879,4.489-2.265l36.594,36.992a10.49,10.49,0,0,1,0,14.7A10.182,10.182,0,0,1-182-378.17Zm-42.524-40.867,36.336,36.732A8.645,8.645,0,0,0-182-379.713a8.647,8.647,0,0,0,6.188-2.592,8.94,8.94,0,0,0,0-12.534l-36.322-36.716a17.347,17.347,0,0,0-2.644,2.061,87.8,87.8,0,0,0-8.509,8.726A11.579,11.579,0,0,0-224.52-419.037ZM-212.4-431.83l0,0Z" transform="translate(226.154 433.207)" fill="#c7f9cc"/>
          </g>
          <g id="Group_54090" data-name="Group 54090" transform="translate(135.252 134.58)">
            <path id="Path_101108" data-name="Path 101108" d="M-167.489-372.056a3.477,3.477,0,0,1-3.472-3.472A3.476,3.476,0,0,1-167.489-379a3.476,3.476,0,0,1,3.472,3.472A3.476,3.476,0,0,1-167.489-372.056Zm0-5.4a1.931,1.931,0,0,0-1.929,1.929,1.931,1.931,0,0,0,1.929,1.929,1.931,1.931,0,0,0,1.929-1.929A1.931,1.931,0,0,0-167.489-377.458Z" transform="translate(170.961 379.001)" fill="#c7f9cc"/>
          </g>
          <g id="Group_54091" data-name="Group 54091" transform="translate(109.606 104.123)">
            <line id="Line_144" data-name="Line 144" x2="24.238" y2="24.238" transform="translate(0.772 0.772)" fill="#c7f9cc"/>
            <path id="Path_101109" data-name="Path 101109" d="M-179.186-392.69a.77.77,0,0,1-.546-.226l-24.238-24.239a.771.771,0,0,1,0-1.091.771.771,0,0,1,1.091,0l24.238,24.238a.772.772,0,0,1,0,1.091A.771.771,0,0,1-179.186-392.69Z" transform="translate(204.196 418.472)" fill="#c7f9cc"/>
          </g>
          <g id="Group_54092" data-name="Group 54092" transform="translate(34.99 17.478)">
            <path id="Path_101110" data-name="Path 101110" d="M-255.115-516.437a.77.77,0,0,1-.577-.258c-18.986-21.329-43.832-8.993-44.08-8.865a.773.773,0,0,1-1.039-.336.772.772,0,0,1,.336-1.039c.259-.132,26.163-13,45.937,9.213a.772.772,0,0,1-.063,1.09A.768.768,0,0,1-255.115-516.437Z" transform="translate(300.896 530.76)" fill="#c7f9cc"/>
          </g>
        </g>
        <g id="Group_54094" data-name="Group 54094" transform="translate(96.018 81.171)">
          <path id="Path_101111" data-name="Path 101111" d="M-190.5-611.408l-3.355,4.6a3.206,3.206,0,0,1-3.475,1.192q-.9-.257-1.81-.437a3.225,3.225,0,0,1-2.573-2.654l-.882-5.627A3.205,3.205,0,0,0-206.261-617l-5,.783a3.206,3.206,0,0,0-2.671,3.664l.881,5.627a3.225,3.225,0,0,1-1.638,3.314q-.811.45-1.59.97a3.206,3.206,0,0,1-3.672-.072l-4.6-3.355a3.206,3.206,0,0,0-4.479.7l-2.982,4.091a3.205,3.205,0,0,0,.7,4.479l4.6,3.355a3.208,3.208,0,0,1,1.192,3.475q-.257.9-.438,1.81a3.225,3.225,0,0,1-2.654,2.573l-5.627.881a3.206,3.206,0,0,0-2.671,3.664l.783,5a3.206,3.206,0,0,0,3.664,2.671l5.627-.881a3.225,3.225,0,0,1,3.314,1.638q.45.811.97,1.59a3.207,3.207,0,0,1-.072,3.672l-3.355,4.6a3.206,3.206,0,0,0,.7,4.479l4.091,2.982a3.206,3.206,0,0,0,4.479-.7l3.355-4.6a3.206,3.206,0,0,1,3.475-1.192q.9.257,1.81.438a3.225,3.225,0,0,1,2.573,2.654l.882,5.627a3.2,3.2,0,0,0,3.663,2.671l5-.783a3.206,3.206,0,0,0,2.671-3.664l-.881-5.627a3.225,3.225,0,0,1,1.638-3.314q.811-.45,1.59-.97a3.206,3.206,0,0,1,3.672.072l4.6,3.355a3.206,3.206,0,0,0,4.479-.7l2.982-4.091a3.205,3.205,0,0,0-.7-4.479l-4.6-3.355a3.206,3.206,0,0,1-1.192-3.475q.257-.9.438-1.81a3.225,3.225,0,0,1,2.654-2.573l5.627-.882a3.2,3.2,0,0,0,2.671-3.663l-.783-5a3.206,3.206,0,0,0-3.664-2.671l-5.627.881a3.225,3.225,0,0,1-3.314-1.638q-.45-.811-.97-1.59a3.206,3.206,0,0,1,.072-3.672l3.355-4.6a3.206,3.206,0,0,0-.7-4.479l-4.09-2.982A3.206,3.206,0,0,0-190.5-611.408Zm.759,37.815a17.155,17.155,0,0,1-23.968,3.756,17.155,17.155,0,0,1-3.756-23.968,17.155,17.155,0,0,1,23.968-3.756A17.155,17.155,0,0,1-189.744-573.593Z" transform="translate(236.949 617.043)" fill="#ffc94a"/>
        </g>
        <g id="Group_54095" data-name="Group 54095" transform="translate(455.382 96.646)">
          <path id="Path_101112" data-name="Path 101112" d="M265.038-528.757a3.947,3.947,0,0,1-2.335-.765,3.959,3.959,0,0,1-1.587-2.6l-.881-5.627a2.466,2.466,0,0,0-1.961-2.018c-.633-.126-1.263-.278-1.872-.452a2.451,2.451,0,0,0-2.639.9l-3.355,4.6a3.946,3.946,0,0,1-2.6,1.586,3.954,3.954,0,0,1-2.958-.716l-4.09-2.982a3.982,3.982,0,0,1-.871-5.557l3.355-4.6a2.445,2.445,0,0,0,.055-2.789c-.355-.53-.693-1.083-1-1.644a2.464,2.464,0,0,0-2.521-1.252l-5.626.882a3.955,3.955,0,0,1-2.959-.715,3.948,3.948,0,0,1-1.586-2.6l-.784-5a3.95,3.95,0,0,1,.716-2.959,3.95,3.95,0,0,1,2.6-1.586l5.626-.882a2.466,2.466,0,0,0,2.018-1.962c.124-.629.277-1.259.451-1.872a2.444,2.444,0,0,0-.9-2.639l-4.6-3.355a3.953,3.953,0,0,1-1.586-2.6,3.954,3.954,0,0,1,.716-2.959l2.982-4.09a3.984,3.984,0,0,1,5.557-.87l4.6,3.355a2.443,2.443,0,0,0,2.789.054c.529-.354,1.083-.692,1.644-1a2.462,2.462,0,0,0,1.25-2.519l-.881-5.627a3.954,3.954,0,0,1,.716-2.959,3.95,3.95,0,0,1,2.6-1.586l5-.783a3.974,3.974,0,0,1,4.546,3.313l.882,5.627a2.464,2.464,0,0,0,1.961,2.017c.626.124,1.255.276,1.872.452a2.442,2.442,0,0,0,2.639-.9l3.355-4.6a3.952,3.952,0,0,1,2.6-1.586,3.952,3.952,0,0,1,2.958.715l4.091,2.982a3.982,3.982,0,0,1,.87,5.557l-3.355,4.6a2.446,2.446,0,0,0-.054,2.789c.353.528.691,1.081,1,1.644a2.468,2.468,0,0,0,2.52,1.251l5.627-.881a3.942,3.942,0,0,1,2.958.715,3.949,3.949,0,0,1,1.586,2.6l.784,5a3.95,3.95,0,0,1-.716,2.959,3.952,3.952,0,0,1-2.6,1.586l-5.626.882A2.465,2.465,0,0,0,286-558.26c-.124.629-.277,1.259-.451,1.872a2.441,2.441,0,0,0,.9,2.638l4.6,3.356a3.949,3.949,0,0,1,1.587,2.6,3.951,3.951,0,0,1-.717,2.959l-2.982,4.09a3.979,3.979,0,0,1-5.557.871l-4.6-3.355a2.446,2.446,0,0,0-2.789-.054c-.527.353-1.08.691-1.644,1a2.461,2.461,0,0,0-1.25,2.519l.88,5.627a3.982,3.982,0,0,1-3.313,4.546l-5,.784A4.073,4.073,0,0,1,265.038-528.757Zm-9.3-13.1a3.961,3.961,0,0,1,1.087.153c.569.164,1.157.306,1.749.424a4.012,4.012,0,0,1,3.185,3.291l.882,5.626a2.417,2.417,0,0,0,.971,1.591,2.408,2.408,0,0,0,1.811.438l5-.784a2.436,2.436,0,0,0,2.028-2.781l-.881-5.628a4.013,4.013,0,0,1,2.026-4.107c.526-.292,1.043-.608,1.535-.938a4,4,0,0,1,4.556.09l4.6,3.356a2.439,2.439,0,0,0,3.4-.534l2.982-4.09a2.42,2.42,0,0,0,.438-1.812,2.414,2.414,0,0,0-.97-1.59l-4.6-3.355a3.993,3.993,0,0,1-1.479-4.31c.164-.572.306-1.161.423-1.748a4.014,4.014,0,0,1,3.292-3.185l5.626-.881a2.419,2.419,0,0,0,1.59-.971,2.412,2.412,0,0,0,.438-1.81l-.783-5a2.417,2.417,0,0,0-.971-1.59,2.413,2.413,0,0,0-1.811-.438l-5.626.882a4.011,4.011,0,0,1-4.108-2.026c-.292-.526-.607-1.042-.938-1.535a3.993,3.993,0,0,1,.09-4.556l3.355-4.6a2.438,2.438,0,0,0-.533-3.4l-4.09-2.982a2.419,2.419,0,0,0-1.811-.437,2.419,2.419,0,0,0-1.59.97h0l-3.355,4.6a3.991,3.991,0,0,1-4.31,1.479c-.576-.164-1.165-.306-1.749-.423a4.013,4.013,0,0,1-3.185-3.292l-.881-5.626a2.437,2.437,0,0,0-2.783-2.029l-5,.784a2.415,2.415,0,0,0-1.59.971,2.414,2.414,0,0,0-.437,1.811l.881,5.627a4.015,4.015,0,0,1-2.026,4.108c-.523.29-1.039.606-1.535.938a4,4,0,0,1-4.557-.09l-4.6-3.355a2.439,2.439,0,0,0-3.4.533L235.1-580a2.421,2.421,0,0,0-.438,1.812,2.415,2.415,0,0,0,.971,1.59l4.6,3.355a4,4,0,0,1,1.479,4.31c-.164.572-.306,1.161-.423,1.748A4.015,4.015,0,0,1,238-564l-5.626.881a2.417,2.417,0,0,0-1.59.971,2.416,2.416,0,0,0-.438,1.81l.784,5a2.416,2.416,0,0,0,.971,1.59,2.414,2.414,0,0,0,1.81.438l5.627-.881a4.011,4.011,0,0,1,4.108,2.026c.291.523.607,1.04.938,1.535a3.993,3.993,0,0,1-.09,4.556l-3.355,4.6a2.438,2.438,0,0,0,.532,3.4l4.091,2.982a2.44,2.44,0,0,0,1.811.438,2.422,2.422,0,0,0,1.59-.97l3.355-4.6A3.991,3.991,0,0,1,255.739-541.853Zm20.25-48.729h0Zm-13.125,45.627a17.829,17.829,0,0,1-10.537-3.434,17.945,17.945,0,0,1-3.925-25.046,17.806,17.806,0,0,1,11.71-7.149,17.807,17.807,0,0,1,13.335,3.225,17.81,17.81,0,0,1,7.15,11.71,17.806,17.806,0,0,1-3.225,13.335A17.913,17.913,0,0,1,262.863-544.954Zm.058-34.305a16.539,16.539,0,0,0-2.57.2,16.276,16.276,0,0,0-10.7,6.533,16.274,16.274,0,0,0-2.947,12.187,16.279,16.279,0,0,0,6.534,10.7,16.4,16.4,0,0,0,22.89-3.587,16.278,16.278,0,0,0,2.947-12.187,16.279,16.279,0,0,0-6.534-10.7A16.263,16.263,0,0,0,262.921-579.259Z" transform="translate(-228.771 596.989)" fill="#c7f9cc"/>
        </g>
        <g id="Group_54096" data-name="Group 54096" transform="translate(226.913 80.399)">
          <path id="Path_101113" data-name="Path 101113" d="M-31.047-549.812a3.947,3.947,0,0,1-2.334-.764,3.952,3.952,0,0,1-1.586-2.6l-.881-5.626a2.467,2.467,0,0,0-1.961-2.017c-.627-.124-1.257-.277-1.873-.453a2.445,2.445,0,0,0-2.64.905l-3.354,4.6a3.982,3.982,0,0,1-5.557.87l-4.09-2.982a3.982,3.982,0,0,1-.871-5.557l3.355-4.6a2.446,2.446,0,0,0,.054-2.789c-.359-.537-.7-1.09-1-1.644a2.463,2.463,0,0,0-2.52-1.25l-5.626.881a3.977,3.977,0,0,1-4.546-3.313l-.784-5a3.951,3.951,0,0,1,.716-2.959,3.95,3.95,0,0,1,2.6-1.586l5.627-.882a2.466,2.466,0,0,0,2.017-1.961c.123-.624.276-1.253.452-1.871a2.445,2.445,0,0,0-.9-2.64l-4.6-3.355a3.982,3.982,0,0,1-.87-5.557l2.983-4.091a3.948,3.948,0,0,1,2.6-1.586,3.957,3.957,0,0,1,2.959.716l4.6,3.354a2.444,2.444,0,0,0,2.789.055c.532-.356,1.085-.693,1.644-1a2.467,2.467,0,0,0,1.25-2.521l-.882-5.626a3.984,3.984,0,0,1,3.313-4.546l5-.783a3.977,3.977,0,0,1,4.544,3.313l.882,5.627a2.466,2.466,0,0,0,1.961,2.016c.627.124,1.256.277,1.872.453a2.443,2.443,0,0,0,2.638-.905l3.356-4.6a3.983,3.983,0,0,1,5.557-.871l4.09,2.982a3.953,3.953,0,0,1,1.587,2.6,3.948,3.948,0,0,1-.717,2.958l-3.354,4.6a2.445,2.445,0,0,0-.055,2.789c.353.529.692,1.082,1,1.644a2.466,2.466,0,0,0,2.521,1.252l5.626-.882a3.976,3.976,0,0,1,4.546,3.313l.784,5a3.984,3.984,0,0,1-3.315,4.545l-5.626.882a2.465,2.465,0,0,0-2.017,1.961c-.123.622-.276,1.252-.452,1.871a2.445,2.445,0,0,0,.9,2.64l4.6,3.354a3.982,3.982,0,0,1,.87,5.557L-7.147-561.8a3.954,3.954,0,0,1-2.6,1.587,3.963,3.963,0,0,1-2.958-.716l-4.6-3.355a2.445,2.445,0,0,0-2.789-.054c-.533.357-1.086.694-1.644,1a2.465,2.465,0,0,0-1.25,2.519l.881,5.627a3.953,3.953,0,0,1-.715,2.959,3.954,3.954,0,0,1-2.6,1.586l-5,.784A4.068,4.068,0,0,1-31.047-549.812Zm-9.3-13.095a3.934,3.934,0,0,1,1.088.153c.575.164,1.164.306,1.748.422a4.018,4.018,0,0,1,3.187,3.292l.881,5.627a2.416,2.416,0,0,0,.971,1.59,2.411,2.411,0,0,0,1.809.438l5-.783a2.42,2.42,0,0,0,1.591-.971,2.412,2.412,0,0,0,.438-1.81l-.882-5.627a4.015,4.015,0,0,1,2.026-4.108c.521-.289,1.038-.6,1.536-.938a3.993,3.993,0,0,1,4.555.09l4.6,3.355a2.413,2.413,0,0,0,1.81.437,2.42,2.42,0,0,0,1.591-.97l2.982-4.091a2.437,2.437,0,0,0-.533-3.4l-4.6-3.355a4,4,0,0,1-1.48-4.31c.166-.579.307-1.167.424-1.748A4.012,4.012,0,0,1-8.31-582.8l5.626-.882a2.437,2.437,0,0,0,2.029-2.782l-.783-5a2.436,2.436,0,0,0-2.783-2.028l-5.626.881a4.01,4.01,0,0,1-4.108-2.026c-.292-.525-.607-1.042-.938-1.536a4,4,0,0,1,.09-4.555l3.356-4.6a2.418,2.418,0,0,0,.438-1.811,2.418,2.418,0,0,0-.97-1.59l-4.09-2.983a2.44,2.44,0,0,0-3.4.533h0l-3.355,4.6a4,4,0,0,1-4.31,1.479c-.575-.164-1.164-.307-1.749-.423a4.017,4.017,0,0,1-3.186-3.292l-.881-5.627a2.44,2.44,0,0,0-2.782-2.029l-5,.784a2.436,2.436,0,0,0-2.028,2.782l.882,5.627a4.017,4.017,0,0,1-2.026,4.108c-.522.29-1.039.606-1.536.938a3.992,3.992,0,0,1-4.555-.09l-4.6-3.355a2.417,2.417,0,0,0-1.811-.438,2.42,2.42,0,0,0-1.59.971l-2.982,4.091a2.437,2.437,0,0,0,.532,3.4l4.6,3.355a4,4,0,0,1,1.48,4.31c-.165.577-.308,1.165-.424,1.748a4.014,4.014,0,0,1-3.291,3.185l-5.627.881a2.423,2.423,0,0,0-1.59.971,2.417,2.417,0,0,0-.438,1.812l.783,5a2.441,2.441,0,0,0,2.783,2.029l5.626-.882a4.011,4.011,0,0,1,4.108,2.026c.287.518.6,1.034.938,1.536a3.993,3.993,0,0,1-.09,4.555l-3.356,4.6a2.438,2.438,0,0,0,.533,3.4l4.09,2.982a2.438,2.438,0,0,0,3.4-.533l3.355-4.6A3.994,3.994,0,0,1-40.346-562.907ZM-20.1-611.636h0Zm-13.126,45.628a17.831,17.831,0,0,1-10.537-3.435,17.8,17.8,0,0,1-7.149-11.71,17.805,17.805,0,0,1,3.225-13.335,17.945,17.945,0,0,1,25.045-3.924,17.947,17.947,0,0,1,3.924,25.046h0A17.915,17.915,0,0,1-33.222-566.008Zm.046-34.3a16.373,16.373,0,0,0-13.26,6.726,16.274,16.274,0,0,0-2.947,12.187,16.274,16.274,0,0,0,6.533,10.7,16.4,16.4,0,0,0,22.89-3.586h0a16.4,16.4,0,0,0-3.587-22.89A16.3,16.3,0,0,0-33.176-600.3Zm13.839,26.483h0Z" transform="translate(67.314 618.044)" fill="#c7f9cc"/>
        </g>
        <path id="Path_101114" data-name="Path 101114" d="M69.5-516.972a5.816,5.816,0,0,1-1.111-.107L60.55-518.6a5.785,5.785,0,0,1-3.721-2.461,5.788,5.788,0,0,1-.891-4.371l1.711-8.82a4.307,4.307,0,0,0-2-4.486c-.854-.515-1.7-1.073-2.5-1.657A4.337,4.337,0,0,0,48.2-540.5l-7.447,5.026a5.8,5.8,0,0,1-4.371.892,5.8,5.8,0,0,1-3.722-2.461l-4.469-6.619a5.788,5.788,0,0,1-.89-4.371,5.794,5.794,0,0,1,2.461-3.722l7.447-5.026a4.337,4.337,0,0,0,1.75-4.629c-.238-.965-.441-1.954-.6-2.941a4.3,4.3,0,0,0-3.414-3.53l-8.82-1.711a5.8,5.8,0,0,1-3.722-2.461,5.788,5.788,0,0,1-.89-4.371l1.521-7.841a5.833,5.833,0,0,1,6.832-4.613l8.82,1.711a4.3,4.3,0,0,0,4.485-2c.516-.853,1.073-1.7,1.657-2.5a4.337,4.337,0,0,0,.106-4.948l-5.027-7.446a5.837,5.837,0,0,1,1.57-8.093l6.619-4.469a5.785,5.785,0,0,1,4.371-.891,5.79,5.79,0,0,1,3.721,2.461l5.028,7.446a4.338,4.338,0,0,0,4.627,1.751c.965-.238,1.955-.44,2.942-.6a4.3,4.3,0,0,0,3.529-3.414l1.711-8.819a5.785,5.785,0,0,1,2.46-3.722,5.792,5.792,0,0,1,4.371-.891l7.841,1.52a5.836,5.836,0,0,1,4.612,6.833l-1.711,8.82a4.3,4.3,0,0,0,2,4.486c.857.517,1.7,1.074,2.5,1.656a4.34,4.34,0,0,0,4.947.107l7.447-5.027a5.784,5.784,0,0,1,4.371-.891,5.789,5.789,0,0,1,3.722,2.461l4.469,6.619a5.787,5.787,0,0,1,.89,4.371,5.8,5.8,0,0,1-2.461,3.722L112.04-583.6a4.337,4.337,0,0,0-1.75,4.629c.238.965.441,1.955.6,2.941A4.3,4.3,0,0,0,114.3-572.5l8.82,1.711a5.8,5.8,0,0,1,3.722,2.461,5.789,5.789,0,0,1,.89,4.371l-1.521,7.841a5.832,5.832,0,0,1-6.832,4.612l-8.82-1.71a4.3,4.3,0,0,0-4.486,2c-.512.849-1.069,1.691-1.656,2.5a4.336,4.336,0,0,0-.106,4.948l5.026,7.447a5.8,5.8,0,0,1,.892,4.371,5.8,5.8,0,0,1-2.462,3.722l-6.619,4.468a5.8,5.8,0,0,1-4.371.891,5.788,5.788,0,0,1-3.722-2.461l-5.027-7.447a4.338,4.338,0,0,0-4.627-1.75c-.965.238-1.955.44-2.942.6a4.306,4.306,0,0,0-3.53,3.414l-1.711,8.82A5.839,5.839,0,0,1,69.5-516.972ZM50.583-542.766a5.923,5.923,0,0,1,3.468,1.12c.773.559,1.58,1.092,2.4,1.586a5.854,5.854,0,0,1,2.715,6.1l-1.711,8.82a4.26,4.26,0,0,0,.656,3.214,4.26,4.26,0,0,0,2.735,1.81l7.841,1.521a4.29,4.29,0,0,0,5.023-3.391l1.711-8.82a5.853,5.853,0,0,1,4.8-4.644c.945-.153,1.893-.346,2.816-.575a5.891,5.891,0,0,1,6.278,2.385l5.027,7.447a4.257,4.257,0,0,0,2.736,1.809,4.255,4.255,0,0,0,3.214-.655l6.619-4.468a4.29,4.29,0,0,0,1.154-5.95l-5.027-7.447a5.885,5.885,0,0,1,.136-6.714c.562-.778,1.094-1.584,1.585-2.4a5.858,5.858,0,0,1,6.1-2.715l8.82,1.711a4.29,4.29,0,0,0,5.024-3.391l1.52-7.841a4.26,4.26,0,0,0-.655-3.214,4.26,4.26,0,0,0-2.736-1.809l-8.82-1.711a5.853,5.853,0,0,1-4.644-4.8c-.152-.944-.346-1.892-.574-2.816a5.888,5.888,0,0,1,2.385-6.278l7.447-5.027a4.291,4.291,0,0,0,1.154-5.95l-4.469-6.619a4.254,4.254,0,0,0-2.736-1.809,4.251,4.251,0,0,0-3.214.655l-7.447,5.027a5.884,5.884,0,0,1-6.715-.135c-.771-.557-1.577-1.09-2.4-1.586a5.849,5.849,0,0,1-2.715-6.1l1.711-8.82a4.291,4.291,0,0,0-3.391-5.023l-7.841-1.521a4.251,4.251,0,0,0-3.214.656,4.256,4.256,0,0,0-1.809,2.735l-1.711,8.82a5.852,5.852,0,0,1-4.8,4.644c-.945.152-1.893.346-2.816.574a5.886,5.886,0,0,1-6.278-2.386l-5.028-7.446A4.261,4.261,0,0,0,52.174-616a4.25,4.25,0,0,0-3.214.655l-6.619,4.469a4.291,4.291,0,0,0-1.154,5.951l5.028,7.446a5.887,5.887,0,0,1-.136,6.714c-.559.774-1.092,1.581-1.586,2.4a5.849,5.849,0,0,1-6.1,2.715l-8.82-1.711a4.291,4.291,0,0,0-5.023,3.391l-1.521,7.84a4.258,4.258,0,0,0,.655,3.214,4.256,4.256,0,0,0,2.736,1.809l8.82,1.711a5.854,5.854,0,0,1,4.644,4.8c.152.944.346,1.892.574,2.817a5.885,5.885,0,0,1-2.385,6.277l-7.447,5.027a4.256,4.256,0,0,0-1.809,2.736,4.26,4.26,0,0,0,.655,3.214l4.469,6.619a4.289,4.289,0,0,0,5.95,1.154l7.447-5.026A5.793,5.793,0,0,1,50.583-542.766Zm24.1.417a28.061,28.061,0,0,1-5.358-.518,27.649,27.649,0,0,1-17.769-11.75A27.65,27.65,0,0,1,47.3-575.49a27.65,27.65,0,0,1,11.75-17.769,27.652,27.652,0,0,1,20.873-4.255,27.651,27.651,0,0,1,17.769,11.751,27.649,27.649,0,0,1,4.255,20.873A27.65,27.65,0,0,1,90.2-547.122,27.643,27.643,0,0,1,74.683-542.349Zm-.113-54.139a26.107,26.107,0,0,0-14.656,4.509,26.115,26.115,0,0,0-11.1,16.783,26.12,26.12,0,0,0,4.019,19.717,26.113,26.113,0,0,0,16.784,11.1h0a26.105,26.105,0,0,0,19.715-4.02,26.113,26.113,0,0,0,11.1-16.783A26.117,26.117,0,0,0,96.414-584.9,26.112,26.112,0,0,0,79.63-596,26.571,26.571,0,0,0,74.569-596.489Z" transform="translate(273.967 699.668)" fill="#c7f9cc"/>
        <g id="Group_54106" data-name="Group 54106" transform="translate(383.204)">
          <g id="Group_54097" data-name="Group 54097">
            <path id="Path_101115" data-name="Path 101115" d="M197.3-607.415H167.484a10.657,10.657,0,0,1-10.645-10.645v-12.717a9.2,9.2,0,0,0-3.6-7.236,47.369,47.369,0,0,1-17.98-38.881,46.868,46.868,0,0,1,14.207-31.864,46.938,46.938,0,0,1,32.188-13.473q.37-.006.738-.005a46.817,46.817,0,0,1,33.086,13.56,46.817,46.817,0,0,1,14.069,33.6A46.9,46.9,0,0,1,211.525-638a9.189,9.189,0,0,0-3.583,7.235v12.71A10.657,10.657,0,0,1,197.3-607.415ZM182.4-720.694q-.357,0-.713.005a45.579,45.579,0,0,0-44.878,43.852,45.222,45.222,0,0,0,17.392,37.61,10.733,10.733,0,0,1,4.185,8.449v12.717a9.112,9.112,0,0,0,9.1,9.1H197.3a9.112,9.112,0,0,0,9.1-9.1v-12.71a10.722,10.722,0,0,1,4.172-8.448,45.372,45.372,0,0,0,17.437-35.859,45.286,45.286,0,0,0-13.609-32.5A45.288,45.288,0,0,0,182.4-720.694Z" transform="translate(-135.231 722.237)" fill="#c7f9cc"/>
          </g>
          <g id="Group_54100" data-name="Group 54100" transform="translate(24.316 50.06)">
            <g id="Group_54098" data-name="Group 54098">
              <path id="Path_101116" data-name="Path 101116" d="M179.763-593.5a.771.771,0,0,1-.772-.772v-51.1h-6.54a5.861,5.861,0,0,1-5.709-5.992,5.862,5.862,0,0,1,5.709-5.993h2.374a5.863,5.863,0,0,1,5.709,5.993v4.449h9.054a.772.772,0,0,1,.772.772.771.771,0,0,1-.772.772h-9.054v51.1A.771.771,0,0,1,179.763-593.5Zm-7.311-62.313a4.319,4.319,0,0,0-4.165,4.45,4.319,4.319,0,0,0,4.165,4.449h6.54v-4.449a4.32,4.32,0,0,0-4.165-4.45Z" transform="translate(-166.743 657.361)" fill="#c7f9cc"/>
            </g>
            <g id="Group_54099" data-name="Group 54099" transform="translate(22.073)">
              <path id="Path_101117" data-name="Path 101117" d="M205.945-593.5a.771.771,0,0,1-.772-.772v-51.1h-9.053a.771.771,0,0,1-.772-.772.771.771,0,0,1,.772-.772h9.053v-4.449a5.862,5.862,0,0,1,5.709-5.993h2.374a5.863,5.863,0,0,1,5.709,5.993,5.862,5.862,0,0,1-5.709,5.992h-6.54v51.1A.771.771,0,0,1,205.945-593.5Zm.772-53.414h6.54a4.319,4.319,0,0,0,4.165-4.449,4.32,4.32,0,0,0-4.165-4.45h-2.374a4.319,4.319,0,0,0-4.165,4.45Z" transform="translate(-195.349 657.361)" fill="#c7f9cc"/>
            </g>
          </g>
          <g id="Group_54101" data-name="Group 54101" transform="translate(36.76 134.447)">
            <path id="Path_101118" data-name="Path 101118" d="M202.092-548a9.063,9.063,0,0,1-8.821,7.048A9.064,9.064,0,0,1,184.449-548H182.87a10.61,10.61,0,0,0,10.4,8.591,10.61,10.61,0,0,0,10.4-8.591Z" transform="translate(-182.87 548)" fill="#c7f9cc"/>
          </g>
          <g id="Group_54102" data-name="Group 54102" transform="translate(27.564 112.374)">
            <path id="Path_101119" data-name="Path 101119" d="M208.6-567.914H172.5a1.545,1.545,0,0,1-1.543-1.543v-5.605a1.545,1.545,0,0,1,1.543-1.543h36.1a1.545,1.545,0,0,1,1.543,1.543v5.605A1.545,1.545,0,0,1,208.6-567.914Zm-36.1-7.148v5.605H208.6v-5.605Z" transform="translate(-170.953 576.606)" fill="#c7f9cc"/>
          </g>
          <g id="Group_54103" data-name="Group 54103" transform="translate(28.188 119.522)">
            <path id="Path_101120" data-name="Path 101120" d="M208.162-558.65H173.305a1.545,1.545,0,0,1-1.543-1.543V-565.8a1.545,1.545,0,0,1,1.543-1.543h34.857a1.545,1.545,0,0,1,1.543,1.543v5.606A1.545,1.545,0,0,1,208.162-558.65ZM173.305-565.8v5.606h34.857V-565.8Z" transform="translate(-171.762 567.342)" fill="#c7f9cc"/>
          </g>
          <g id="Group_54104" data-name="Group 54104" transform="translate(30.417 126.671)">
            <path id="Path_101121" data-name="Path 101121" d="M206.745-550.285h-30.7a1.393,1.393,0,0,1-1.391-1.391v-5.009a1.393,1.393,0,0,1,1.391-1.391h30.7a1.393,1.393,0,0,1,1.39,1.391v5.009A1.393,1.393,0,0,1,206.745-550.285Zm-30.552-1.543h30.4v-4.706h-30.4Z" transform="translate(-174.65 558.077)" fill="#c7f9cc"/>
          </g>
          <g id="Group_54105" data-name="Group 54105" transform="translate(9.254 18.388)">
            <path id="Path_101122" data-name="Path 101122" d="M149.137-658.612a.771.771,0,0,1-.752-.6c-5.521-24.841,10.445-38.867,10.607-39.005a.773.773,0,0,1,1.087.083A.772.772,0,0,1,160-697.05c-.154.133-15.418,13.591-10.1,37.5a.772.772,0,0,1-.586.921A.783.783,0,0,1,149.137-658.612Z" transform="translate(-147.224 698.407)" fill="#c7f9cc"/>
          </g>
        </g>
        <g id="Group_54107" data-name="Group 54107" transform="translate(379.366 148.774)">
          <path id="Path_101123" data-name="Path 101123" d="M163.524-423.762l8.009,2.581a5.329,5.329,0,0,0,6.707-3.438l2.9-9.01a5.334,5.334,0,0,1,4.866-3.689q1.552-.061,3.086-.25a5.36,5.36,0,0,1,5.443,2.852l4.318,8.425a5.329,5.329,0,0,0,7.173,2.311l7.488-3.838a5.33,5.33,0,0,0,2.312-7.173l-4.319-8.425a5.359,5.359,0,0,1,.863-6.084q1.046-1.134,2-2.359a5.331,5.331,0,0,1,5.836-1.8l9.01,2.9a5.329,5.329,0,0,0,6.706-3.438l2.581-8.009a5.329,5.329,0,0,0-3.438-6.707l-9.01-2.9a5.331,5.331,0,0,1-3.689-4.865q-.061-1.553-.251-3.086a5.36,5.36,0,0,1,2.852-5.443l8.425-4.319a5.329,5.329,0,0,0,2.312-7.172l-3.838-7.489a5.329,5.329,0,0,0-7.173-2.311l-8.425,4.318a5.36,5.36,0,0,1-6.084-.863q-1.133-1.047-2.359-2.005a5.33,5.33,0,0,1-1.8-5.835l2.9-9.01a5.329,5.329,0,0,0-3.437-6.707l-8.01-2.581a5.329,5.329,0,0,0-6.706,3.438l-2.9,9.01a5.33,5.33,0,0,1-4.865,3.689q-1.553.062-3.086.251a5.36,5.36,0,0,1-5.443-2.852l-4.318-8.425A5.33,5.33,0,0,0,163-526.376l-7.488,3.839a5.328,5.328,0,0,0-2.312,7.172l4.318,8.425a5.36,5.36,0,0,1-.863,6.084q-1.046,1.133-2,2.359a5.329,5.329,0,0,1-5.836,1.8l-9.01-2.9a5.328,5.328,0,0,0-6.706,3.438l-2.581,8.009a5.329,5.329,0,0,0,3.438,6.706l9.01,2.9a5.331,5.331,0,0,1,3.689,4.865q.061,1.553.25,3.086a5.36,5.36,0,0,1-2.852,5.443l-8.425,4.318a5.329,5.329,0,0,0-2.311,7.173l3.838,7.489a5.329,5.329,0,0,0,7.173,2.311l8.425-4.318a5.358,5.358,0,0,1,6.084.863q1.134,1.048,2.359,2a5.331,5.331,0,0,1,1.8,5.836l-2.9,9.01A5.329,5.329,0,0,0,163.524-423.762Zm12.243-24.276a28.513,28.513,0,0,1-18.393-35.885,28.514,28.514,0,0,1,35.886-18.394,28.514,28.514,0,0,1,18.393,35.886A28.514,28.514,0,0,1,175.767-448.038Z" transform="translate(-130.258 529.432)" fill="#ffc94a"/>
        </g>
      </g>
      <g id="Group_54111" data-name="Group 54111">
        <g id="Group_54109" data-name="Group 54109" transform="translate(0 9.065)">
          <path id="Path_101124" data-name="Path 101124" d="M-360.961-562.4a2.221,2.221,0,0,1-2.219-2.218,2.222,2.222,0,0,1,2.219-2.219,2.221,2.221,0,0,1,2.218,2.219A2.221,2.221,0,0,1-360.961-562.4Zm0-3.666a1.45,1.45,0,0,0-1.448,1.448,1.449,1.449,0,0,0,1.448,1.447,1.448,1.448,0,0,0,1.447-1.447A1.449,1.449,0,0,0-360.961-566.07Z" transform="translate(363.18 694.464)" fill="#ffc94a"/>
          <path id="Path_101125" data-name="Path 101125" d="M-216.137-729.034a1.6,1.6,0,0,1-1.6-1.6,1.6,1.6,0,0,1,1.6-1.6,1.6,1.6,0,0,1,1.6,1.6A1.6,1.6,0,0,1-216.137-729.034Zm0-2.621a1.022,1.022,0,0,0-1.021,1.021,1.022,1.022,0,0,0,1.021,1.022,1.023,1.023,0,0,0,1.021-1.022A1.023,1.023,0,0,0-216.137-731.655Z" transform="translate(329.965 732.234)" fill="#fff"/>
          <path id="Path_101126" data-name="Path 101126" d="M-325.753-555.278a2.312,2.312,0,0,1-2.312,2.312,2.312,2.312,0,0,1-2.312-2.312,2.312,2.312,0,0,1,2.312-2.311A2.312,2.312,0,0,1-325.753-555.278Z" transform="translate(355.689 692.351)" fill="#263b4d"/>
          <path id="Path_101127" data-name="Path 101127" d="M-240.753-702.357a1.156,1.156,0,0,1-1.156,1.156,1.156,1.156,0,0,1-1.156-1.156,1.156,1.156,0,0,1,1.156-1.156A1.156,1.156,0,0,1-240.753-702.357Z" transform="translate(335.75 725.675)" fill="#263b4d"/>
          <path id="Path_101128" data-name="Path 101128" d="M-313.039-390.361a1.156,1.156,0,0,1-1.156,1.156,1.156,1.156,0,0,1-1.156-1.156,1.156,1.156,0,0,1,1.156-1.156A1.156,1.156,0,0,1-313.039-390.361Z" transform="translate(352.257 654.425)" fill="#263b4d"/>
          <path id="Path_101129" data-name="Path 101129" d="M-202.174-521.081a1.156,1.156,0,0,1-1.156,1.156,1.156,1.156,0,0,1-1.156-1.156,1.156,1.156,0,0,1,1.156-1.156A1.156,1.156,0,0,1-202.174-521.081Z" transform="translate(326.939 684.277)" fill="#263b4d"/>
          <path id="Path_101130" data-name="Path 101130" d="M-354.529-528.14a1.7,1.7,0,0,1-1.7,1.7,1.7,1.7,0,0,1-1.7-1.7,1.7,1.7,0,0,1,1.7-1.7A1.7,1.7,0,0,1-354.529-528.14Z" transform="translate(361.981 686.013)" fill="#fff"/>
          <path id="Path_101131" data-name="Path 101131" d="M-268.724-371.777a2.251,2.251,0,0,1-.3-.02,2.206,2.206,0,0,1-1.471-.849,2.222,2.222,0,0,1,.411-3.111,2.219,2.219,0,0,1,3.11.411,2.2,2.2,0,0,1,.439,1.64,2.2,2.2,0,0,1-.85,1.47A2.2,2.2,0,0,1-268.724-371.777Zm-.008-3.667a1.44,1.44,0,0,0-.877.3,1.451,1.451,0,0,0-.269,2.029,1.438,1.438,0,0,0,.961.554,1.435,1.435,0,0,0,1.069-.286,1.432,1.432,0,0,0,.555-.959,1.439,1.439,0,0,0-.286-1.069h0a1.44,1.44,0,0,0-.959-.554A1.624,1.624,0,0,0-268.732-375.444Z" transform="translate(342.117 650.931)" fill="#fff"/>
          <path id="Path_101132" data-name="Path 101132" d="M-239.291-404.706a2.312,2.312,0,0,1-.427,3.241,2.312,2.312,0,0,1-3.241-.428,2.311,2.311,0,0,1,.427-3.241A2.312,2.312,0,0,1-239.291-404.706Z" transform="translate(335.835 657.644)" fill="#263b4d"/>
          <path id="Path_101133" data-name="Path 101133" d="M-192.109-711.057a.85.85,0,0,1-.85.85.85.85,0,0,1-.85-.85.85.85,0,0,1,.85-.85A.85.85,0,0,1-192.109-711.057Z" transform="translate(324.501 727.592)" fill="#ffc94a"/>
          <path id="Path_101134" data-name="Path 101134" d="M-245.54-559.6a.85.85,0,0,1-.85.85.85.85,0,0,1-.85-.85.85.85,0,0,1,.85-.85A.85.85,0,0,1-245.54-559.6Z" transform="translate(336.703 693.004)" fill="#fff"/>
          <path id="Path_101135" data-name="Path 101135" d="M-288.967-344.369a.85.85,0,0,1-.85.85.85.85,0,0,1-.85-.85.85.85,0,0,1,.85-.85A.85.85,0,0,1-288.967-344.369Z" transform="translate(346.62 643.852)" fill="#ffc94a"/>
          <circle id="Ellipse_4133" data-name="Ellipse 4133" cx="2.34" cy="2.34" r="2.34" transform="translate(69.113 6.786)" fill="#ffc94a"/>
          <circle id="Ellipse_4134" data-name="Ellipse 4134" cx="2.34" cy="2.34" r="2.34" transform="translate(104.173 296.293)" fill="#ffc94a"/>
        </g>
        <g id="Group_54110" data-name="Group 54110" transform="translate(239.003)">
          <path id="Path_101136" data-name="Path 101136" d="M285.878-642.764a2.243,2.243,0,0,1-.441-.044,2.2,2.2,0,0,1-1.411-.946,2.221,2.221,0,0,1,.616-3.076,2.223,2.223,0,0,1,3.077.617,2.222,2.222,0,0,1-.617,3.077A2.2,2.2,0,0,1,285.878-642.764Zm-.008-3.667a1.441,1.441,0,0,0-.8.242,1.449,1.449,0,0,0-.4,2.007h0a1.436,1.436,0,0,0,.92.616,1.427,1.427,0,0,0,1.086-.214,1.45,1.45,0,0,0,.4-2.008A1.45,1.45,0,0,0,285.87-646.431Z" transform="translate(-23.539 721.88)" fill="#ffc94a"/>
          <path id="Path_101137" data-name="Path 101137" d="M114.852-729.034a1.6,1.6,0,0,1-1.6-1.6,1.6,1.6,0,0,1,1.6-1.6,1.6,1.6,0,0,1,1.6,1.6A1.6,1.6,0,0,1,114.852-729.034Zm0-2.621a1.023,1.023,0,0,0-1.021,1.021,1.023,1.023,0,0,0,1.021,1.022,1.022,1.022,0,0,0,1.021-1.022A1.022,1.022,0,0,0,114.852-731.655Z" transform="translate(15.375 741.299)" fill="#fff"/>
          <path id="Path_101138" data-name="Path 101138" d="M261.716-617.678a2.312,2.312,0,0,0,3.205.643,2.312,2.312,0,0,0,.643-3.205,2.311,2.311,0,0,0-3.205-.642A2.311,2.311,0,0,0,261.716-617.678Z" transform="translate(-18.441 715.959)" fill="#263b4d"/>
          <path id="Path_101139" data-name="Path 101139" d="M117.967-693.909a1.156,1.156,0,0,0,1.156,1.156,1.156,1.156,0,0,0,1.156-1.156,1.156,1.156,0,0,0-1.156-1.156A1.156,1.156,0,0,0,117.967-693.909Z" transform="translate(14.299 732.811)" fill="#263b4d"/>
          <path id="Path_101140" data-name="Path 101140" d="M-14.981-630.557a1.155,1.155,0,0,0,1.155,1.156,1.156,1.156,0,0,0,1.156-1.156,1.156,1.156,0,0,0-1.156-1.155A1.155,1.155,0,0,0-14.981-630.557Z" transform="translate(44.66 718.343)" fill="#263b4d"/>
          <circle id="Ellipse_4135" data-name="Ellipse 4135" cx="2.485" cy="2.485" r="2.485" transform="translate(226.466 279.45)" fill="#263b4d"/>
          <path id="Path_101141" data-name="Path 101141" d="M282.169-484.811a1.156,1.156,0,0,0,1.156,1.156,1.156,1.156,0,0,0,1.155-1.156,1.156,1.156,0,0,0-1.155-1.156A1.156,1.156,0,0,0,282.169-484.811Z" transform="translate(-23.2 685.059)" fill="#263b4d"/>
          <path id="Path_101142" data-name="Path 101142" d="M300.942-611.114a1.7,1.7,0,0,0,2.357.472,1.7,1.7,0,0,0,.472-2.357,1.7,1.7,0,0,0-2.357-.472A1.7,1.7,0,0,0,300.942-611.114Z" transform="translate(-27.422 714.242)" fill="#fff"/>
          <path id="Path_101143" data-name="Path 101143" d="M285.87-395.972a2.209,2.209,0,0,1-1.347-.457,2.2,2.2,0,0,1-.85-1.471,2.2,2.2,0,0,1,.439-1.64h0a2.2,2.2,0,0,1,1.47-.85,2.211,2.211,0,0,1,1.64.439,2.22,2.22,0,0,1,.411,3.11A2.214,2.214,0,0,1,285.87-395.972Zm.005-3.665a1.466,1.466,0,0,0-.192.012,1.441,1.441,0,0,0-.959.554h0a1.436,1.436,0,0,0-.286,1.07,1.434,1.434,0,0,0,.554.959,1.452,1.452,0,0,0,2.03-.268,1.45,1.45,0,0,0-.269-2.029A1.437,1.437,0,0,0,285.875-399.637Zm-1.458.332h0Z" transform="translate(-23.539 665.521)" fill="#fff"/>
          <path id="Path_101144" data-name="Path 101144" d="M69.9-732.932a.851.851,0,0,0,.85.85.85.85,0,0,0,.85-.85.85.85,0,0,0-.85-.85A.85.85,0,0,0,69.9-732.932Z" transform="translate(25.276 741.652)" fill="#ffc94a"/>
          <path id="Path_101145" data-name="Path 101145" d="M-53.418-712.487a1.156,1.156,0,0,0,.894,1.369,1.156,1.156,0,0,0,1.369-.893,1.156,1.156,0,0,0-.894-1.369A1.156,1.156,0,0,0-53.418-712.487Z" transform="translate(53.443 736.999)" fill="#263b4d"/>
          <path id="Path_101146" data-name="Path 101146" d="M-36.267-743.306a.85.85,0,0,0,.657,1.006.85.85,0,0,0,1.006-.657.85.85,0,0,0-.657-1.006A.85.85,0,0,0-36.267-743.306Z" transform="translate(49.525 743.982)" fill="#fff"/>
          <path id="Path_101147" data-name="Path 101147" d="M304.653-442.757a.85.85,0,0,0,.85.85.85.85,0,0,0,.85-.85.85.85,0,0,0-.85-.85A.85.85,0,0,0,304.653-442.757Z" transform="translate(-28.334 675.386)" fill="#ffc94a"/>
          <path id="Path_101148" data-name="Path 101148" d="M270.6-684.239a.85.85,0,0,0,.85.85.85.85,0,0,0,.85-.85.85.85,0,0,0-.85-.85A.85.85,0,0,0,270.6-684.239Z" transform="translate(-20.558 730.533)" fill="#fff"/>
          <path id="Path_101149" data-name="Path 101149" d="M-16.083-675.153a.85.85,0,0,0,.85.85.85.85,0,0,0,.85-.85.85.85,0,0,0-.85-.85A.85.85,0,0,0-16.083-675.153Z" transform="translate(44.911 728.458)" fill="#ffc94a"/>
          <path id="Path_101150" data-name="Path 101150" d="M222.01-534.741a.85.85,0,0,0,.85.85.85.85,0,0,0,.85-.85.85.85,0,0,0-.85-.85A.85.85,0,0,0,222.01-534.741Z" transform="translate(-9.461 696.392)" fill="#fff"/>
          <path id="Path_101151" data-name="Path 101151" d="M271.882-352.583a.85.85,0,0,0,.85.85.85.85,0,0,0,.85-.85.85.85,0,0,0-.85-.85A.85.85,0,0,0,271.882-352.583Z" transform="translate(-20.851 654.793)" fill="#ffc94a"/>
          <path id="Path_101152" data-name="Path 101152" d="M144.485-736.406a2.34,2.34,0,0,0,2.34,2.34,2.34,2.34,0,0,0,2.34-2.34,2.34,2.34,0,0,0-2.34-2.34A2.34,2.34,0,0,0,144.485-736.406Z" transform="translate(8.243 742.786)" fill="#ffc94a"/>
          <path id="Path_101153" data-name="Path 101153" d="M8.851-725.733a2.34,2.34,0,0,0,1.809,2.771,2.34,2.34,0,0,0,2.771-1.81,2.339,2.339,0,0,0-1.809-2.771A2.34,2.34,0,0,0,8.851-725.733Z" transform="translate(39.229 740.239)" fill="#fff"/>
          <circle id="Ellipse_4136" data-name="Ellipse 4136" cx="2.34" cy="2.34" r="2.34" transform="translate(208.718 305.358)" fill="#ffc94a"/>
        </g>
      </g>
    </g>
    <g id="Group_54137" data-name="Group 54137" transform="translate(-135.089 -714.037)">
      <g id="Group_54113" data-name="Group 54113" transform="translate(0 123.367)">
        <path id="Path_101154" data-name="Path 101154" d="M104.691-539.118l0,.01-36.2-6.189-45.97,13.6L2.887-538.94c-2.735.677-5.182,1.357-7.4,2.043h0s-70.9,11.328-62.363,74.074l39.623.95c1.1,3.4,1.179,2.58,1.976,4.614l14.19,46.911H105.048l1.079-38.273,35.242,22.681a6.9,6.9,0,0,0,10.608-5.165c1.492-16.288,3.293-44.953,3.319-45.7C157.152-528.941,104.691-539.118,104.691-539.118Z" transform="translate(67.585 545.297)" fill="#80ed99"/>
        <path id="Path_101155" data-name="Path 101155" d="M-12.729-431.07a.773.773,0,0,1-.747-.58l-7.06-27.507a.772.772,0,0,1,.555-.94.772.772,0,0,1,.94.555l7.06,27.508a.774.774,0,0,1-.556.94A.792.792,0,0,1-12.729-431.07Z" transform="translate(56.846 525.845)" fill="#263b4d"/>
        <path id="Path_101156" data-name="Path 101156" d="M156.618-430.033a.767.767,0,0,1-.47-.16L134.5-446.848a10.689,10.689,0,0,1-4.721-7.85l-2.231-21.862a.772.772,0,0,1,.689-.846.781.781,0,0,1,.846.69l2.232,21.862A9.184,9.184,0,0,0,135.4-448.1l21.692,16.687a.771.771,0,0,1,.142,1.082A.772.772,0,0,1,156.618-430.033Z" transform="translate(23.024 529.794)" fill="#263b4d"/>
      </g>
      <g id="Group_54135" data-name="Group 54135" transform="translate(44.706)">
        <g id="Group_54134" data-name="Group 54134" transform="translate(0)">
          <g id="Group_54120" data-name="Group 54120" transform="translate(5.919 30)">
            <g id="Group_54119" data-name="Group 54119" transform="translate(0)">
              <g id="Group_54118" data-name="Group 54118">
                <g id="Group_54117" data-name="Group 54117">
                  <g id="Group_54116" data-name="Group 54116">
                    <g id="Group_54115" data-name="Group 54115">
                      <g id="Group_54114" data-name="Group 54114">
                        <path id="Path_101157" data-name="Path 101157" d="M67.837-639.814h0l-10.7-.372a12.818,12.818,0,0,0-11.99,7.323l2.072-30.372s-10.7,6.2-24.753-1.918c0,0-16.156-5.359-21.218,7.137-.012.124-.029.248-.038.373L-1.9-612.492c-1.138,16.517,10.145,30.923,25.651,33.512l3.613,17.929a24.811,24.811,0,0,0,29.288,19.13l.557-.112c13.443-2.709,24.93-12.869,22.264-26.1L68.906-612.022l2.478.086A13.981,13.981,0,0,0,85.8-625.383l.036-1.023a12.745,12.745,0,0,0-4.036-9.732,12.7,12.7,0,0,0-8.287-3.479Z" transform="translate(1.977 666.296)" fill="#ffaa89"/>
                      </g>
                    </g>
                  </g>
                  <path id="Path_101158" data-name="Path 101158" d="M31.667-557.824s27.118-3.225,30.028-13.554h0s3.662,14.409-27.509,27.438Z" transform="translate(-5.706 645.668)" fill="#ff6a48"/>
                </g>
                <path id="Path_101159" data-name="Path 101159" d="M98.085-614.634" transform="translate(-20.874 654.498)" fill="none" stroke="#121936" stroke-linecap="round" stroke-linejoin="round" stroke-width="5"/>
              </g>
            </g>
          </g>
          <g id="Group_54121" data-name="Group 54121">
            <path id="Path_101160" data-name="Path 101160" d="M89.739-587.263a22.548,22.548,0,0,1,2.05-8.554l-11.775-.409Z" transform="translate(-10.828 680.294)" fill="#263b4d"/>
            <path id="Path_101161" data-name="Path 101161" d="M66.876-680.422s7.337-12.8-12.287-22.04-26.849,8.1-26.849,8.1S25.4-710.247,1.649-702.554s-2.676,37.129-2.676,37.129c.157-.519.336-1,.525-1.471,5.061-12.5,21.218-7.137,21.218-7.137,14.049,8.117,24.753,1.918,24.753,1.918l-1.84,26.969c-.8,5.391-1.858,12.526-2.618,17.629A5.144,5.144,0,0,1,34-623.506l-17-6.848a5.148,5.148,0,0,0-2.559-.333L1.011-629.02a5.15,5.15,0,0,0-4.5,4.707L-4.5-611.439A24.173,24.173,0,0,0,20.14-585.38l7.495-.167a5.179,5.179,0,0,0,1.5-.259l1.883-.109a27.54,27.54,0,0,0,23.558-38.741h0a5.144,5.144,0,0,1-.957-3.188l.78-19.674a5.038,5.038,0,0,0-.174-1.529c.384-.022.769-.031,1.16-.018l10.7.372,5.675.2a12.7,12.7,0,0,1,8.287,3.479c3.4-8.53,6.367-16.943,7.232-22.17C89.622-681.325,66.876-680.422,66.876-680.422Z" transform="translate(9.648 705.175)" fill="#263b4d"/>
          </g>
          <path id="Path_101162" data-name="Path 101162" d="M101.73-613.376" transform="translate(-15.788 684.211)" fill="none" stroke="#ff6969" stroke-linecap="round" stroke-linejoin="round" stroke-width="5"/>
          <g id="Group_54133" data-name="Group 54133" transform="translate(1.788 40.653)">
            <path id="Path_101163" data-name="Path 101163" d="M95.862-610.75a.766.766,0,0,1-.421-.125l-4.475-2.918a.77.77,0,0,1-.343-.546.771.771,0,0,1,.191-.616l4.783-5.323a.774.774,0,0,1,1.09-.058.771.771,0,0,1,.059,1.089l-4.181,4.653,3.72,2.425a.772.772,0,0,1,.225,1.069A.774.774,0,0,1,95.862-610.75Z" transform="translate(-15.037 645.192)" fill="#ff6a48"/>
            <g id="Group_54123" data-name="Group 54123" transform="translate(8.541 18.164)">
              <path id="Path_101164" data-name="Path 101164" d="M4.539-626.648A2.906,2.906,0,0,0,6.775-623.2a2.907,2.907,0,0,0,3.449-2.237,2.906,2.906,0,0,0-2.236-3.449A2.907,2.907,0,0,0,4.539-626.648Z" transform="translate(-3.906 628.95)" fill="#263b4d"/>
              <path id="Path_101165" data-name="Path 101165" d="M31.6-626.015a2.906,2.906,0,0,0,2.934,2.879,2.908,2.908,0,0,0,2.88-2.935,2.907,2.907,0,0,0-2.935-2.879A2.907,2.907,0,0,0,31.6-626.015Z" transform="translate(-10.101 628.949)" fill="#263b4d"/>
              <g id="Group_54122" data-name="Group 54122" transform="translate(21.303 4.482)">
                <path id="Path_101166" data-name="Path 101166" d="M37.471-621.25a4.141,4.141,0,0,0-5.127.022" transform="translate(-31.573 622.914)" fill="#ffa386"/>
                <path id="Path_101167" data-name="Path 101167" d="M32.117-620.684a.768.768,0,0,1-.611-.3.771.771,0,0,1,.138-1.082,4.88,4.88,0,0,1,6.089-.007.771.771,0,0,1,.1,1.086.772.772,0,0,1-1.083.108,3.365,3.365,0,0,0-4.167.035A.77.77,0,0,1,32.117-620.684Z" transform="translate(-31.345 623.141)" fill="#ff6a48"/>
              </g>
              <path id="Path_101168" data-name="Path 101168" d="M4.509-619.859a.77.77,0,0,1-.566-.248.771.771,0,0,1,.043-1.09,4.442,4.442,0,0,1,5.8-.379.771.771,0,0,1,.135,1.083.772.772,0,0,1-1.08.137,2.892,2.892,0,0,0-3.811.292A.769.769,0,0,1,4.509-619.859Z" transform="translate(-3.737 627.472)" fill="#ff6a48"/>
            </g>
            <path id="Path_101169" data-name="Path 101169" d="M2.419-619.736c-5.377,0-9.75-5.009-9.75-11.166s4.374-11.166,9.75-11.166,9.75,5.009,9.75,11.166S7.8-619.736,2.419-619.736Zm0-20.788c-4.526,0-8.207,4.317-8.207,9.622s3.681,9.622,8.207,9.622,8.206-4.316,8.206-9.622S6.944-640.524,2.419-640.524Z" transform="translate(7.331 650.11)" fill="#fff"/>
            <g id="Group_54124" data-name="Group 54124" transform="translate(12.811 13.632)">
              <path id="Path_101170" data-name="Path 101170" d="M17.96-633.823v10.1H12.713a2.441,2.441,0,0,0-2.441,2.441v1.1a4.78,4.78,0,0,0,4.78,4.78h4.78" transform="translate(-9.5 634.595)" fill="#ffaa89"/>
              <path id="Path_101171" data-name="Path 101171" d="M19.6-614.858h-4.78a5.558,5.558,0,0,1-5.552-5.552v-1.1a3.216,3.216,0,0,1,3.212-3.213H16.96v-9.324a.772.772,0,0,1,.772-.772.771.771,0,0,1,.772.772v10.868H12.484a1.671,1.671,0,0,0-1.669,1.67v1.1a4.014,4.014,0,0,0,4.009,4.009H19.6a.771.771,0,0,1,.772.772A.771.771,0,0,1,19.6-614.858Z" transform="translate(-9.272 634.823)" fill="#ff6a48"/>
            </g>
            <path id="Path_101172" data-name="Path 101172" d="M32.906-620.647c-5.377,0-9.75-5.009-9.75-11.165s4.374-11.166,9.75-11.166,9.751,5.009,9.751,11.166S38.283-620.647,32.906-620.647Zm0-20.788c-4.525,0-8.207,4.317-8.207,9.622s3.682,9.622,8.207,9.622,8.208-4.316,8.208-9.622S37.432-641.435,32.906-641.435Z" transform="translate(0.369 650.318)" fill="#fff"/>
            <g id="Group_54132" data-name="Group 54132" transform="translate(4.877)">
              <g id="Group_54131" data-name="Group 54131" transform="translate(0)">
                <g id="Group_54127" data-name="Group 54127" transform="translate(23.616 1.235)">
                  <g id="Group_54126" data-name="Group 54126">
                    <g id="Group_54125" data-name="Group 54125">
                      <path id="Path_101173" data-name="Path 101173" d="M42.209-644.044a7.443,7.443,0,0,1-3.044-.56c-1.049-.34-2.109-.656-3.041-.9s-2.014-.485-3.1-.7A7.413,7.413,0,0,1,30.1-647.2c-.712-.547-.786-1.6.473-2.548,1.193-.93,3.85-1.586,6.941-.789s5.044,2.67,5.6,4.053C43.715-645.049,43.108-644.172,42.209-644.044Z" transform="translate(-29.594 650.89)" fill="#263b4d"/>
                    </g>
                  </g>
                </g>
                <g id="Group_54130" data-name="Group 54130">
                  <g id="Group_54129" data-name="Group 54129">
                    <g id="Group_54128" data-name="Group 54128">
                      <path id="Path_101174" data-name="Path 101174" d="M-.288-647.546a5.128,5.128,0,0,0,2.423.01c.854-.127,1.715-.229,2.465-.288s1.619-.095,2.482-.1a5.117,5.117,0,0,0,2.388-.391c.622-.363.818-1.276-.029-2.313a6.268,6.268,0,0,0-5.252-1.834,6.151,6.151,0,0,0-4.856,2.636C-1.317-648.675-.965-647.805-.288-647.546Z" transform="translate(1.011 652.49)" fill="#263b4d"/>
                    </g>
                  </g>
                </g>
              </g>
            </g>
            <path id="Path_101175" data-name="Path 101175" d="M22.751-629.176H18.775a.771.771,0,0,1-.772-.772.771.771,0,0,1,.772-.772h3.976a.771.771,0,0,1,.772.772A.771.771,0,0,1,22.751-629.176Z" transform="translate(1.546 647.518)" fill="#fff"/>
            <path id="Path_101176" data-name="Path 101176" d="M47.2-630.331a.771.771,0,0,1-.767-.7.77.77,0,0,1,.7-.84l23.624-2.23a.773.773,0,0,1,.84.7.77.77,0,0,1-.7.84l-23.625,2.23C47.249-630.332,47.224-630.331,47.2-630.331Z" transform="translate(-4.946 648.291)" fill="#fff"/>
            <path id="Path_101177" data-name="Path 101177" d="M27.769-593h-.09l-9.263-.119a.772.772,0,0,1-.762-.781.772.772,0,0,1,.772-.762h.01l9.263.119a5.615,5.615,0,0,0,5.5-4.3l1.5.352A7.16,7.16,0,0,1,27.769-593Z" transform="translate(1.625 640.24)" fill="#ff6a48"/>
          </g>
        </g>
      </g>
      <g id="Group_54136" data-name="Group 54136" transform="translate(64.857 114.533)">
        <path id="Path_101178" data-name="Path 101178" d="M28.337-548.415l-11.87,10.268,1.772,24.266a1.5,1.5,0,0,0,2.489,1.009l21.833-19.453Z" transform="translate(-16.467 554.843)" fill="#fff"/>
        <path id="Path_101179" data-name="Path 101179" d="M87.837-556.745l-38.823,22.4L64.6-508.167a2.283,2.283,0,0,0,3.438.574l37.767-31.979Z" transform="translate(-23.9 556.745)" fill="#fff"/>
        <path id="Path_101180" data-name="Path 101180" d="M25.826-510.592,36.1-489.7l22.251-13.251L44.1-526.876Z" transform="translate(-18.604 549.924)" fill="#263b4d"/>
      </g>
    </g>
    <g id="Group_54146" data-name="Group 54146" transform="translate(-296.928 -700.781)">
      <g id="Group_54144" data-name="Group 54144">
        <path id="Path_101181" data-name="Path 101181" d="M-162.639-654.42l-24.025.167-31.368,0,.073-11.632a24.613,24.613,0,0,0-.4-4.573c-4.188-22.994-37.85-23.128-42.281-.181a24.65,24.65,0,0,0-.446,4.678v13.987h.014l.058,10.426c.06,11.021-7.053,20.444-16.284,22.493a14.729,14.729,0,0,0,2.222.106c1.7.045,3.043,0,3.043,0l89.6.117c11.035-.077,19.925-10.249,19.856-22.72Z" transform="translate(277.321 687.946)" fill="#263b4d"/>
        <g id="Group_54143" data-name="Group 54143" transform="translate(37.777)">
          <g id="Group_54139" data-name="Group 54139">
            <path id="Path_101182" data-name="Path 101182" d="M-78.6-654.636a33.234,33.234,0,0,0-21.657-31.151A24.423,24.423,0,0,0-110.279-688l-74.488.085.005-.01h-40.6c-.542,0-1.08.024-1.613.059l-1.384,0v.045c.1.012.205.031.308.044a24.532,24.532,0,0,1,21.228,22.851h-.013V-433.4a20.463,20.463,0,0,0,20.572,20.353H-78.642v-93.41h.042Z" transform="translate(228.363 687.996)" fill="#fff"/>
            <g id="Group_54138" data-name="Group 54138" transform="translate(42.958 111.026)">
              <path id="Path_101183" data-name="Path 101183" d="M-84.524-526.568h-87.4a.771.771,0,0,1-.772-.772.771.771,0,0,1,.772-.772h87.4a.771.771,0,0,1,.772.772A.771.771,0,0,1-84.524-526.568Z" transform="translate(172.692 540.457)" fill="#263b4d"/>
              <path id="Path_101184" data-name="Path 101184" d="M-103.69-542.568h-36.817a.771.771,0,0,1-.772-.772.771.771,0,0,1,.772-.772h36.817a.772.772,0,0,1,.772.772A.771.771,0,0,1-103.69-542.568Z" transform="translate(165.518 544.111)" fill="#263b4d"/>
              <path id="Path_101185" data-name="Path 101185" d="M-84.524-503.082h-87.4a.771.771,0,0,1-.772-.772.771.771,0,0,1,.772-.772h87.4a.771.771,0,0,1,.772.772A.771.771,0,0,1-84.524-503.082Z" transform="translate(172.692 535.094)" fill="#263b4d"/>
              <path id="Path_101186" data-name="Path 101186" d="M-84.524-479.6h-87.4a.771.771,0,0,1-.772-.772.771.771,0,0,1,.772-.772h87.4a.771.771,0,0,1,.772.772A.771.771,0,0,1-84.524-479.6Z" transform="translate(172.692 529.73)" fill="#263b4d"/>
              <path id="Path_101187" data-name="Path 101187" d="M-84.524-457.617h-87.4a.771.771,0,0,1-.772-.772.771.771,0,0,1,.772-.772h87.4a.771.771,0,0,1,.772.772A.771.771,0,0,1-84.524-457.617Z" transform="translate(172.692 524.711)" fill="#263b4d"/>
            </g>
          </g>
          <g id="Group_54142" data-name="Group 54142" transform="translate(32.751 25.668)">
            <g id="Group_54141" data-name="Group 54141">
              <path id="Path_101188" data-name="Path 101188" d="M-130.942-652.651h0a2.991,2.991,0,0,0-5.84.925h0a2.992,2.992,0,0,1-5.418,1.76h0a2.992,2.992,0,0,0-5.269,2.685h0a2.992,2.992,0,0,1-4.61,3.349h0a2.991,2.991,0,0,0-4.181,4.181h0a2.991,2.991,0,0,1-3.349,4.609h0a2.992,2.992,0,0,0-2.685,5.269h0a2.992,2.992,0,0,1-1.76,5.418h0a2.991,2.991,0,0,0-.925,5.84h0a2.992,2.992,0,0,1,0,5.7h0a2.992,2.992,0,0,0,.925,5.84h0a2.991,2.991,0,0,1,1.76,5.418h0a2.991,2.991,0,0,0,2.685,5.268h0a2.991,2.991,0,0,1,3.349,4.609h0a2.992,2.992,0,0,0,4.181,4.181h0a2.992,2.992,0,0,1,4.61,3.348h0a2.992,2.992,0,0,0,5.269,2.685h0a2.992,2.992,0,0,1,5.418,1.761h0a2.991,2.991,0,0,0,5.84.925h0a2.992,2.992,0,0,1,5.7,0h0a2.991,2.991,0,0,0,5.84-.925h0a2.992,2.992,0,0,1,5.418-1.761h0a2.992,2.992,0,0,0,5.269-2.685h0a2.991,2.991,0,0,1,4.609-3.348h0a2.992,2.992,0,0,0,4.181-4.181h0a2.991,2.991,0,0,1,3.349-4.609h0a2.991,2.991,0,0,0,2.685-5.268h0a2.991,2.991,0,0,1,1.76-5.418h0a2.992,2.992,0,0,0,.925-5.84h0a2.992,2.992,0,0,1,0-5.7h0a2.991,2.991,0,0,0-.925-5.84h0a2.992,2.992,0,0,1-1.76-5.418h0a2.992,2.992,0,0,0-2.685-5.269h0a2.991,2.991,0,0,1-3.349-4.609h0a2.991,2.991,0,0,0-4.181-4.181h0a2.992,2.992,0,0,1-4.609-3.349h0a2.992,2.992,0,0,0-5.269-2.685h0a2.992,2.992,0,0,1-5.418-1.76h0a2.991,2.991,0,0,0-5.84-.925h0A2.992,2.992,0,0,1-130.942-652.651Z" transform="translate(181.611 654.731)" fill="#ffc94a"/>
              <path id="Path_101189" data-name="Path 101189" d="M-166.64-641.732a.768.768,0,0,1-.48-.168l-7.281-5.8a.773.773,0,0,1-.123-1.085.772.772,0,0,1,1.085-.123l7.281,5.8a.771.771,0,0,1,.123,1.084A.77.77,0,0,1-166.64-641.732Z" transform="translate(183.355 653.439)" fill="#263b4d"/>
              <path id="Path_101190" data-name="Path 101190" d="M-185.147-604.868a.773.773,0,0,1-.751-.6.773.773,0,0,1,.575-.927l9.063-2.126a.772.772,0,0,1,.927.575.772.772,0,0,1-.575.927l-9.063,2.127A.77.77,0,0,1-185.147-604.868Z" transform="translate(185.919 644.182)" fill="#263b4d"/>
              <path id="Path_101191" data-name="Path 101191" d="M-174.4-623.979a.767.767,0,0,1-.206-.029l-8.972-2.479a.771.771,0,0,1-.538-.949.772.772,0,0,1,.949-.539l8.972,2.479a.771.771,0,0,1,.538.949A.771.771,0,0,1-174.4-623.979Z" transform="translate(185.514 648.627)" fill="#263b4d"/>
              <path id="Path_101192" data-name="Path 101192" d="M-61.473-605.352a.772.772,0,0,1-.769-.709.772.772,0,0,1,.707-.831l9.277-.752a.768.768,0,0,1,.832.707.772.772,0,0,1-.707.831l-9.277.752Z" transform="translate(157.675 643.979)" fill="#263b4d"/>
              <path id="Path_101193" data-name="Path 101193" d="M-62.988-623.979a.772.772,0,0,1-.743-.566.771.771,0,0,1,.539-.949l8.972-2.479a.773.773,0,0,1,.949.539.772.772,0,0,1-.538.949l-8.972,2.479A.764.764,0,0,1-62.988-623.979Z" transform="translate(158.021 648.627)" fill="#263b4d"/>
              <path id="Path_101194" data-name="Path 101194" d="M-56.267-586.463a.765.765,0,0,1-.355-.087l-8.26-4.292a.772.772,0,0,1-.329-1.04.77.77,0,0,1,1.041-.329l8.26,4.292a.772.772,0,0,1,.329,1.04A.774.774,0,0,1-56.267-586.463Z" transform="translate(158.373 640.474)" fill="#263b4d"/>
              <g id="Group_54140" data-name="Group 54140" transform="translate(33.795 18.381)">
                <path id="Path_101195" data-name="Path 101195" d="M-102.675-611.157a19.843,19.843,0,0,1-19.811,19.87,19.633,19.633,0,0,1-19.636-19.752,19.8,19.8,0,0,1,19.754-19.87A19.646,19.646,0,0,1-102.675-611.157Zm-35.344.124A15.5,15.5,0,0,0-122.5-595.38a15.7,15.7,0,0,0,15.72-15.784,15.555,15.555,0,0,0-15.588-15.653A15.679,15.679,0,0,0-138.018-611.033Zm22.148-4.077h0a2.645,2.645,0,0,1-3.49.583,4.506,4.506,0,0,0-2.484-.884,3.9,3.9,0,0,0-3.847,4.2c0,2.5,1.633,4.253,3.847,4.253a5.183,5.183,0,0,0,2.584-.844,2.526,2.526,0,0,1,3.15.451l.064.068a2.537,2.537,0,0,1-.407,3.856,10.839,10.839,0,0,1-5.74,1.772c-5.653,0-9.732-3.962-9.732-9.439,0-5.419,4.2-9.382,9.964-9.382a11.083,11.083,0,0,1,5.536,1.6A2.525,2.525,0,0,1-115.87-615.11Z" transform="translate(142.122 630.91)" fill="#263b4d"/>
              </g>
            </g>
          </g>
        </g>
      </g>
      <g id="Group_54145" data-name="Group 54145" transform="translate(59.249 193.808)">
        <path id="Path_101196" data-name="Path 101196" d="M-88.768-415.966v34.1a24.439,24.439,0,0,0,24.438,24.439h4.537a29.366,29.366,0,0,0,29.365-29.366h0a20.671,20.671,0,0,1,20.67-20.67h8.5a17.545,17.545,0,0,1,5.563.9v-.9h.2v-12.823a16.541,16.541,0,0,0-16.541-16.541H-108.7v.023A20.862,20.862,0,0,1-88.768-415.966Z" transform="translate(179.564 436.829)" fill="#f4f2ed"/>
        <line id="Line_145" data-name="Line 145" transform="translate(315.652 81.136)" fill="none" stroke="#faf8f3" stroke-linecap="round" stroke-linejoin="round" stroke-width="0"/>
        <path id="Path_101197" data-name="Path 101197" d="M151.134-369.066l-.178-13.168a16.541,16.541,0,0,0-16.541-16.541H37.751v.9A17.583,17.583,0,0,1,49.768-381.2v8.307A25.886,25.886,0,0,0,75.654-347h93.878A22.8,22.8,0,0,1,151.134-369.066Z" transform="translate(146.12 428.139)" fill="#faf8f3"/>
        <path id="Path_101198" data-name="Path 101198" d="M-200.537-357.888a18.5,18.5,0,0,0,.414,3.888,21.43,21.43,0,0,1-.363-4.057Z" transform="translate(200.537 418.84)" fill="#263b4d"/>
        <line id="Line_146" data-name="Line 146" transform="translate(221.774 81.136)" fill="none" stroke="#121936" stroke-linecap="round" stroke-linejoin="round" stroke-width="0"/>
        <path id="Path_101199" data-name="Path 101199" d="M-4.526-381.579v-8.307a17.583,17.583,0,0,0-12.017-16.676,17.545,17.545,0,0,0-5.563-.9h-8.5a20.671,20.671,0,0,0-20.67,20.67h0a29.366,29.366,0,0,1-29.365,29.366H-85.18a24.439,24.439,0,0,1-24.438-24.439v-34.1a20.862,20.862,0,0,0-19.931-20.84c-.309-.014-.62-.023-.933-.023h0a25.5,25.5,0,0,0-25.5,25.5v27.915a25.984,25.984,0,0,1-25.984,25.985h0A18.453,18.453,0,0,1-200-371.989a19.971,19.971,0,0,0,20.072,16.3H21.36A25.886,25.886,0,0,1-4.526-381.579Z" transform="translate(200.414 436.829)" fill="#263b4d"/>
      </g>
    </g>
    <g id="Group_54152" data-name="Group 54152" transform="translate(-261.315 -592.14)">
      <g id="Group_54148" data-name="Group 54148" transform="translate(0 36.521)">
        <g id="Group_54147" data-name="Group 54147">
          <path id="Path_101200" data-name="Path 101200" d="M-183.752-493.093c-3.656-7.831-12.013-2.079-17.463.694-2.467,1.506-4.742,2.851-6.877,4.1a25.438,25.438,0,0,0,.2-8.874,3.5,3.5,0,0,0-1.442-2.461,2.252,2.252,0,0,0-2.072.04A5.721,5.721,0,0,0-213-498.241c-4.4,4.862-14.288,21.532-14.288,21.532A44.868,44.868,0,0,0-231-463.783c-1.7,12.881,10.022,24.656,22.365,22.1a9.543,9.543,0,0,0,3.818-1.547l20.751-14.893c3.968-2.529,4.4-8.851.715-8.912,3.529-1.051,6.936-3.534,4.913-7.94-.85-2.547-2.82-2.924-4.921-2.6,3.2-1.046,6.074-2.715,4.657-6.482-.978-4.273-4.439-4.412-7.674-3.644C-184.29-488.68-182.7-490.28-183.752-493.093Z" transform="translate(231.167 499.873)" fill="#ffa386"/>
        </g>
        <path id="Path_101201" data-name="Path 101201" d="M-213.033-479.519a.772.772,0,0,1-.667-.384.773.773,0,0,1,.279-1.056l11.216-6.534a.771.771,0,0,1,1.056.279.772.772,0,0,1-.279,1.055l-11.216,6.535A.768.768,0,0,1-213.033-479.519Z" transform="translate(227.203 497.069)" fill="#ff6a48"/>
        <path id="Path_101202" data-name="Path 101202" d="M-183.843-479.047a.771.771,0,0,1-.662-.373.772.772,0,0,1,.262-1.059c.784-.472,7.7-4.626,9.162-5.025a.773.773,0,0,1,.948.542.771.771,0,0,1-.542.947,90.853,90.853,0,0,0-8.771,4.858A.766.766,0,0,1-183.843-479.047Z" transform="translate(220.537 496.598)" fill="#ff6a48"/>
        <path id="Path_101203" data-name="Path 101203" d="M-178.439-466.167a.771.771,0,0,1-.668-.385.771.771,0,0,1,.281-1.055l7.057-4.086a.77.77,0,0,1,1.054.281.77.77,0,0,1-.282,1.054l-7.057,4.087A.762.762,0,0,1-178.439-466.167Z" transform="translate(219.302 493.461)" fill="#ff6a48"/>
        <path id="Path_101204" data-name="Path 101204" d="M-175.716-453.754a.769.769,0,0,1-.677-.4.77.77,0,0,1,.3-1.047l3.85-2.117a.77.77,0,0,1,1.047.3.77.77,0,0,1-.3,1.048l-3.85,2.117A.764.764,0,0,1-175.716-453.754Z" transform="translate(218.681 490.177)" fill="#ff6a48"/>
      </g>
      <g id="Group_54151" data-name="Group 54151" transform="translate(133.079)">
        <g id="Group_54149" data-name="Group 54149">
          <path id="Path_101205" data-name="Path 101205" d="M9.952-546.53l4.732,4.059a2.959,2.959,0,0,1,.223,4.177l-4.25,4.956a2.959,2.959,0,0,1-4.162.416l-4.732-4.059a2.96,2.96,0,0,1-.223-4.178l4.25-4.955A2.96,2.96,0,0,1,9.952-546.53Z" transform="translate(45.118 547.202)" fill="#ff6a48"/>
          <rect id="Rectangle_5566" data-name="Rectangle 5566" width="67.412" height="12.012" transform="translate(5.067 54.568) rotate(-49.382)" fill="#ffd066"/>
          <path id="Path_101206" data-name="Path 101206" d="M-53.552-476.4l8.95,7.676c.039.033.177.152-.032.132L-58.7-461.334h0l5.025-15.009C-53.659-476.4-53.591-476.428-53.552-476.4Z" transform="translate(58.703 531.035)" fill="#ffaa89"/>
          <path id="Path_101207" data-name="Path 101207" d="M-56.839-463.842l3.2,2.748c.014.012.064.055-.012.047l-5.036,2.6h0l1.8-5.372A.031.031,0,0,1-56.839-463.842Z" transform="translate(58.698 528.166)" fill="#263b4d"/>
          <path id="Path_101208" data-name="Path 101208" d="M.421-522.836a.387.387,0,0,1-.251-.093.386.386,0,0,1-.042-.544l6.313-7.36a.387.387,0,0,1,.544-.042.386.386,0,0,1,.042.544L.714-522.971A.388.388,0,0,1,.421-522.836Z" transform="translate(45.289 543.494)" fill="#fff"/>
          <path id="Path_101209" data-name="Path 101209" d="M-19.674-513a.387.387,0,0,1-.251-.093.386.386,0,0,1-.042-.544l18.2-21.221a.386.386,0,0,1,.544-.042.386.386,0,0,1,.042.544l-18.2,21.221A.386.386,0,0,1-19.674-513Z" transform="translate(49.878 544.413)" fill="#fff"/>
        </g>
        <g id="Group_54150" data-name="Group 54150" transform="translate(5.887 17.845)">
          <path id="Path_101210" data-name="Path 101210" d="M109.038-449.176l-77.865-51.5L13.124-514.818a33.988,33.988,0,0,0-17.5-7.058l-20.68-2.118a15.4,15.4,0,0,0-8.614,1.627l-9.817,5.053A4.408,4.408,0,0,0-45.87-513.1l.078,1.151-.755.36a5.919,5.919,0,0,0-3.373,5.36l.012,4.062-.677,1.587a6.108,6.108,0,0,0,1.059,6.458l15.241,17.1a2.4,2.4,0,0,0,3.528.067,6.867,6.867,0,0,0,.4-9.069l-4.715-5.854,15.791,9.347a19.052,19.052,0,0,0,8.537,2.621l9.737.6L9.061-467.814l60.39,72.861A42.489,42.489,0,0,0,95.5-381.611c19.233,2.37,37.521-9.085,44.6-27.124l5.523-12.091Z" transform="translate(51.073 524.075)" fill="#ffaa89"/>
        </g>
        <path id="Path_101211" data-name="Path 101211" d="M-44.125-508.452a.773.773,0,0,1-.736-.537.773.773,0,0,1,.5-.97l11.733-3.745a.772.772,0,0,1,.97.5.772.772,0,0,1-.5.969l-11.733,3.745A.768.768,0,0,1-44.125-508.452Z" transform="translate(55.55 539.56)" fill="#ff6a48"/>
        <path id="Path_101212" data-name="Path 101212" d="M-49.191-496.381a.772.772,0,0,1-.747-.581.77.77,0,0,1,.557-.938L-34.8-501.61a.77.77,0,0,1,.938.557.77.77,0,0,1-.556.938L-49-496.4A.742.742,0,0,1-49.191-496.381Z" transform="translate(56.707 536.796)" fill="#ff6a48"/>
        <path id="Path_101213" data-name="Path 101213" d="M-31.433-482.769a.771.771,0,0,1-.575-.257l-2.939-3.285a.772.772,0,0,1,.061-1.09.771.771,0,0,1,1.09.06l2.938,3.285a.772.772,0,0,1-.06,1.09A.77.77,0,0,1-31.433-482.769Z" transform="translate(53.323 533.59)" fill="#ff6a48"/>
        <path id="Path_101214" data-name="Path 101214" d="M13.582-465.647a.771.771,0,0,1-.771-.742.772.772,0,0,1,.742-.8l11.5-.451a.777.777,0,0,1,.8.741.771.771,0,0,1-.741.8l-11.5.451Z" transform="translate(42.372 529.033)" fill="#ff6a48"/>
      </g>
    </g>
  </g>
</svg>
