<svg xmlns="http://www.w3.org/2000/svg" width="49.898" height="50" viewBox="0 0 49.898 50"><path d="M31.91,84.605H75.568v30.259H31.91Zm0,0" transform="translate(-28.794 -76.343)" fill="#f6f6f6"/><path d="M454.293,84.605h2.41v30.259h-2.41Zm0,0" transform="translate(-409.928 -76.343)" fill="#e8e8e8"/><path d="M54.811,398.976H8.63A1.126,1.126,0,0,1,7.5,397.85V395.7a1.126,1.126,0,0,1,1.126-1.126H54.811a1.126,1.126,0,0,1,1.126,1.126v2.153A1.126,1.126,0,0,1,54.811,398.976Zm0,0" transform="translate(-6.771 -356.039)" fill="#80ed99"/><path d="M54.811,43.7H8.63A1.126,1.126,0,0,1,7.5,42.576V40.423A1.126,1.126,0,0,1,8.63,39.3H54.811a1.126,1.126,0,0,1,1.126,1.126v2.153A1.126,1.126,0,0,1,54.811,43.7Zm0,0" transform="translate(-6.771 -35.459)" fill="#80ed99"/><path d="M484.306,398.976h-.825v-4.406h.825a1.126,1.126,0,0,1,1.126,1.126v2.153A1.126,1.126,0,0,1,484.306,398.976Zm0,0" transform="translate(-436.266 -356.039)" fill="#57cc99"/><path d="M484.306,43.7h-.825V39.3h.825a1.126,1.126,0,0,1,1.126,1.126v2.153a1.126,1.126,0,0,1-1.126,1.126Zm0,0" transform="translate(-436.266 -35.459)" fill="#57cc99"/><path d="M115,41.169H84.783a1.729,1.729,0,0,1-1.728-1.728V9.228A1.728,1.728,0,0,1,84.783,7.5H115a1.728,1.728,0,0,1,1.728,1.728V39.44A1.728,1.728,0,0,1,115,41.169Zm0,0" transform="translate(-74.944 -6.767)" fill="#c7f9cc"/><path d="M393.207,9.232V39.444a1.728,1.728,0,0,1-1.728,1.728h-2.018a1.729,1.729,0,0,0,1.729-1.728V9.232A1.728,1.728,0,0,0,389.461,7.5h2.018a1.728,1.728,0,0,1,1.728,1.728Zm0,0" transform="translate(-351.427 -6.771)" fill="#80ed99"/><path d="M116.723,13.4H83.054V9.228A1.728,1.728,0,0,1,84.782,7.5h30.212a1.728,1.728,0,0,1,1.728,1.728Zm0,0" transform="translate(-74.943 -6.768)" fill="#ffc94a"/><path d="M393.211,9.232V13.4h-2.018V9.232A1.728,1.728,0,0,0,389.465,7.5h2.018A1.728,1.728,0,0,1,393.211,9.232Zm0,0" transform="translate(-351.431 -6.771)" fill="#ffbb1a"/><path d="M143.125,110.023h-24.7a1.1,1.1,0,0,1-1.1-1.1v-9.3a1.1,1.1,0,0,1,1.1-1.1h24.7a1.1,1.1,0,0,1,1.1,1.1v9.3a1.1,1.1,0,0,1-1.1,1.1Zm0,0" transform="translate(-105.866 -88.902)" fill="#fff"/><path d="M363.694,99.622v9.3a1.1,1.1,0,0,1-1.1,1.1h-2.048a1.1,1.1,0,0,0,1.1-1.1v-9.3a1.1,1.1,0,0,0-1.1-1.1h2.048A1.1,1.1,0,0,1,363.694,99.622Zm0,0" transform="translate(-325.337 -88.902)" fill="#c7f9cc"/><path d="M143.93,144.549l7.624-7.621a.488.488,0,0,1,.711.021l6.743,7.6Zm0,0" transform="translate(-129.874 -123.427)" fill="#80ed99"/><path d="M241.2,158.61l6.1-6.1a.489.489,0,0,1,.711.021l5.392,6.078Zm0,0" transform="translate(-217.641 -137.489)" fill="#80ed99"/><path d="M109.163,31.943a.733.733,0,0,0-.392-.4.71.71,0,0,0-.137-.042.763.763,0,0,0-.55.109.774.774,0,0,0-.111.091.709.709,0,0,0-.158.8.692.692,0,0,0,.4.4.738.738,0,0,0,.137.042.69.69,0,0,0,.142.014.707.707,0,0,0,.144-.014.739.739,0,0,0,.466-.312.731.731,0,0,0,.116-.338A.743.743,0,0,0,109.163,31.943Zm0,0" transform="translate(-97.232 -28.415)" fill="#12263f"/><path d="M134.279,31.931a.747.747,0,0,0-.4-.4.707.707,0,0,0-.137-.042.738.738,0,0,0-.661.2.776.776,0,0,0-.091.111.751.751,0,0,0,.091.925.735.735,0,0,0,.518.215.7.7,0,0,0,.143-.014.727.727,0,0,0,.587-.728A.744.744,0,0,0,134.279,31.931Zm0,0" transform="translate(-119.899 -28.404)" fill="#12263f"/><path d="M159.266,31.961a.709.709,0,0,0-.152-.241.763.763,0,0,0-.661-.2.728.728,0,0,0-.466.311.759.759,0,0,0-.123.407.711.711,0,0,0,.214.518.728.728,0,0,0,.3.182.74.74,0,0,0,.737-.182A.756.756,0,0,0,159.266,31.961Zm0,0" transform="translate(-142.447 -28.432)" fill="#12263f"/><path d="M111.655,103.985h24.7a1.833,1.833,0,0,0,1.831-1.831v-9.3a1.833,1.833,0,0,0-1.831-1.831H119.063a.733.733,0,0,0,0,1.465h17.295a.366.366,0,0,1,.366.366v9.3a.366.366,0,0,1-.366.366h-1.11l-5.234-5.9a1.221,1.221,0,0,0-1.776-.053l-2.595,2.594-3.6-4.062a1.221,1.221,0,0,0-1.776-.053l-7.476,7.473h-1.129a.366.366,0,0,1-.366-.366v-9.3a.366.366,0,0,1,.366-.366h2.752a.732.732,0,1,0,0-1.465h-2.752a1.833,1.833,0,0,0-1.831,1.831v9.3a1.833,1.833,0,0,0,1.831,1.831Zm9.458-7.719,4.984,5.617a.733.733,0,1,0,1.1-.972l-.577-.65,2.473-2.472,4.2,4.732H114.857Zm0,0" transform="translate(-99.099 -82.131)" fill="#12263f"/><path d="M48.04,8.975A1.861,1.861,0,0,0,49.9,7.116V4.964A1.861,1.861,0,0,0,48.04,3.1H42.512V2.461A2.464,2.464,0,0,0,40.052,0H9.839A2.464,2.464,0,0,0,7.379,2.461V3.1H1.859A1.861,1.861,0,0,0,0,4.964V7.116A1.861,1.861,0,0,0,1.859,8.975h.525V37.8H1.859A1.861,1.861,0,0,0,0,39.658v2.153A1.861,1.861,0,0,0,1.859,43.67H6.046a.732.732,0,0,0,0-1.465H1.859a.394.394,0,0,1-.394-.394V39.658a.394.394,0,0,1,.394-.394H48.04a.394.394,0,0,1,.394.394v2.153a.394.394,0,0,1-.394.394H10.588a.732.732,0,0,0,0,1.465H24.213v1.115a2.659,2.659,0,1,0,1.465,0V43.67H48.04A1.861,1.861,0,0,0,49.9,41.811V39.658A1.861,1.861,0,0,0,48.04,37.8h-.533V8.975ZM26.14,47.34a1.194,1.194,0,1,1-1.194-1.194A1.2,1.2,0,0,1,26.14,47.34ZM8.843,2.461a1,1,0,0,1,1-1H40.051a1,1,0,0,1,1,1V5.9H8.843Zm0,4.9h32.2V32.673a1,1,0,0,1-1,1H9.84a1,1,0,0,1-1-1V7.361ZM1.859,7.51a.394.394,0,0,1-.394-.394V4.964a.394.394,0,0,1,.394-.394H7.379V7.51ZM46.042,37.788H3.849V8.995h3.53V32.673a2.464,2.464,0,0,0,2.46,2.461H40.051a2.463,2.463,0,0,0,2.461-2.461V8.995h3.529V37.788ZM42.513,7.51V4.57H48.04a.394.394,0,0,1,.394.394V7.116a.394.394,0,0,1-.394.394Zm0,0" transform="translate(0)" fill="#12263f"/><path d="M109.272,256.32h9.938a.732.732,0,1,0,0-1.465h-9.938a.732.732,0,1,0,0,1.465Zm0,0" transform="translate(-97.939 -229.967)" fill="#12263f"/><path d="M242.673,256.32a.732.732,0,1,0,0-1.465h-4.124a.732.732,0,1,0,0,1.465Zm0,0" transform="translate(-214.592 -229.967)" fill="#12263f"/><path d="M316.326,254.855h-7.765a.732.732,0,1,0,0,1.465h7.765a.732.732,0,0,0,0-1.465Zm0,0" transform="translate(-277.767 -229.967)" fill="#12263f"/><path d="M109.272,318.344h9.938a.732.732,0,1,0,0-1.465h-9.938a.732.732,0,1,0,0,1.465Zm0,0" transform="translate(-97.939 -285.934)" fill="#12263f"/><path d="M242.673,316.879h-4.124a.732.732,0,0,0,0,1.465h4.124a.732.732,0,0,0,0-1.465Zm0,0" transform="translate(-214.592 -285.934)" fill="#12263f"/><path d="M316.326,316.879h-7.765a.732.732,0,1,0,0,1.465h7.765a.732.732,0,0,0,0-1.465Zm0,0" transform="translate(-277.767 -285.934)" fill="#12263f"/><path d="M109.272,287.055h4.99a.732.732,0,1,0,0-1.465h-4.99a.732.732,0,1,0,0,1.465Zm0,0" transform="translate(-97.939 -257.701)" fill="#12263f"/><path d="M195.363,286.322a.732.732,0,0,0,.733.732h10.982a.732.732,0,1,0,0-1.465H196.1A.733.733,0,0,0,195.363,286.322Zm0,0" transform="translate(-176.284 -257.701)" fill="#12263f"/><path d="M337.192,285.59h-5.506a.732.732,0,1,0,0,1.465h5.506a.732.732,0,1,0,0-1.465Zm0,0" transform="translate(-298.634 -257.701)" fill="#12263f"/></svg>