<svg xmlns="http://www.w3.org/2000/svg" width="50" height="50" viewBox="0 0 50 50"><path d="M53.543,56.035H9.991A2.491,2.491,0,0,1,7.5,53.543V9.991A2.491,2.491,0,0,1,9.991,7.5H53.543a2.491,2.491,0,0,1,2.491,2.491V53.543A2.491,2.491,0,0,1,53.543,56.035Zm0,0" transform="translate(-6.767 -6.767)" fill="#c7f9cc"/><path d="M457.755,9.995V53.547a2.492,2.492,0,0,1-2.492,2.492H452.7a2.492,2.492,0,0,0,2.492-2.492V9.995A2.492,2.492,0,0,0,452.7,7.5h2.568a2.491,2.491,0,0,1,2.492,2.491Zm0,0" transform="translate(-408.487 -6.771)" fill="#80ed99"/><path d="M56.035,16H7.5V9.991A2.491,2.491,0,0,1,9.991,7.5H53.544a2.491,2.491,0,0,1,2.491,2.491Zm0,0" transform="translate(-6.768 -6.767)" fill="#ffc94a"/><path d="M457.755,9.995V16h-2.568V9.995A2.492,2.492,0,0,0,452.7,7.5h2.568A2.491,2.491,0,0,1,457.755,9.995Zm0,0" transform="translate(-408.487 -6.771)" fill="#ffbb1a"/><path d="M43.092,37.711a1.417,1.417,0,1,1-1.417-1.418A1.417,1.417,0,0,1,43.092,37.711Zm0,0" transform="translate(-36.327 -32.748)" fill="#80ed99"/><path d="M99.139,37.711a1.417,1.417,0,1,1-1.417-1.418A1.417,1.417,0,0,1,99.139,37.711Zm0,0" transform="translate(-86.9 -32.748)" fill="#80ed99"/><path d="M155.186,37.711a1.417,1.417,0,1,1-1.417-1.418A1.417,1.417,0,0,1,155.186,37.711Zm0,0" transform="translate(-137.474 -32.748)" fill="#80ed99"/><path d="M136.907,344.624l-3.766-4.885-2.389,9.221a.411.411,0,0,0,.4.514l9.525.035Zm0,0" transform="translate(-117.972 -306.561)" fill="#f6f6f6"/><path d="M135.649,394.456l-4.5-.016a.411.411,0,0,1-.4-.514l1.128-4.354Zm0,0" transform="translate(-117.974 -351.526)" fill="#2b6d99"/><path d="M369.525,183.689l-6.306-8.179,1.527-1.178a3.149,3.149,0,0,1,4.416.571l2.461,3.193a3.149,3.149,0,0,1-.571,4.416Zm0,0" transform="translate(-327.749 -156.716)" fill="#2b6d99"/><path d="M415.867,205.887l-1.527,1.178-1.456-1.889L414.411,204a3.149,3.149,0,0,0,.571-4.416l1.456,1.889A3.149,3.149,0,0,1,415.867,205.887Zm0,0" transform="translate(-372.563 -180.092)" fill="#22577a"/><path d="M323.062,191.858l-7.927-10.281a.829.829,0,0,1,.15-1.163l2.417-1.863a.829.829,0,0,1,1.163.15l7.927,10.281a.829.829,0,0,1-.15,1.163l-2.417,1.863a.829.829,0,0,1-1.163-.15Zm0,0" transform="translate(-284.205 -160.958)" fill="#f6f6f6"/><path d="M390.411,280.125l-.81-1.051,3.73-2.876.81,1.051a.829.829,0,0,1-.15,1.163l-2.417,1.863A.829.829,0,0,1,390.411,280.125Zm0,0" transform="translate(-351.554 -249.226)" fill="#e8e8e8"/><path d="M171.313,213.738l7.533,9.769-15.957,12.3-7.533-9.77Zm0,0" transform="translate(-140.185 -192.865)" fill="#ffc94a"/><path d="M140.677,422.058l-9.525-.035a.411.411,0,0,1-.4-.514l.354-1.369,8.111.029Zm0,0" transform="translate(-117.974 -379.111)" fill="#e8e8e8"/><path d="M135.649,422.041l-4.5-.016a.411.411,0,0,1-.4-.514l.354-1.369,3.084.011Zm0,0" transform="translate(-117.974 -379.111)" fill="#22577a"/><path d="M187.766,235.078l1.406,1.824-15.957,12.3-1.406-1.824Zm0,0" transform="translate(-155.031 -212.121)" fill="#80ed99"/><path d="M217.594,273.762,219,275.586l-15.957,12.3-1.406-1.823Zm0,0" transform="translate(-181.946 -247.027)" fill="#80ed99"/><path d="M48.119,432.281a.733.733,0,0,0,0,1.465h4.667a.733.733,0,0,0,0-1.465Zm0,0" transform="translate(-42.759 -390.066)" fill="#12263f"/><path d="M268.842,433.746h17.615a.733.733,0,0,0,0-1.465H268.842a.733.733,0,1,0,0,1.465Zm0,0" transform="translate(-241.927 -390.066)" fill="#12263f"/><path d="M130.032,179.059a.733.733,0,1,0-.895-1.16l-6.046,4.661a.75.75,0,0,0-.119.117l-.013.017a.736.736,0,0,0-.044.064l-.008.013a.72.72,0,0,0-.041.082l-.006.017a.717.717,0,0,0-.024.073s0,.009,0,.013l-1.261,4.866h0l-.186.718-.942,3.637a1.144,1.144,0,0,0,1.1,1.431l9.525.035h0a.733.733,0,0,0,.112-.009l.034-.007c.025-.005.05-.011.074-.019l.039-.014a.7.7,0,0,0,.065-.028l.037-.02a.667.667,0,0,0,.062-.04c.007,0,.015-.009.023-.014L146.942,181.6a1.559,1.559,0,0,0,1.895-.007l2.417-1.863a1.563,1.563,0,0,0,.283-2.19l-.363-.471.948-.73a3.885,3.885,0,0,0,.7-5.443l-2.461-3.193a3.885,3.885,0,0,0-5.443-.7l-.947.731-.363-.471a1.562,1.562,0,0,0-2.19-.283L139,168.838a1.563,1.563,0,0,0-.489,1.831l-5.788,4.462a.733.733,0,0,0,.895,1.16l5.743-4.428.713.924-14.8,11.409-.713-.924Zm15.783-10.9a2.419,2.419,0,0,1,3.388.438l2.462,3.193a2.418,2.418,0,0,1-.438,3.388l-.947.73-5.412-7.019Zm-23.851,23.986.649-2.505,1.939,2.514Zm7.123-3.009,14.8-11.409.019.025.492.639L129.6,189.8Zm13.9-12.569-14.8,11.409-.612-.794,14.8-11.409Zm-16.583,15.6-3.329-4.317.8-3.07,3.606,4.676h0l1.406,1.824.693.9Zm4.8-.278-.713-.924,14.8-11.409.712.924ZM139.9,170l2.417-1.863a.1.1,0,0,1,.135.018l7.927,10.281a.1.1,0,0,1-.018.135l-2.417,1.863a.1.1,0,0,1-.135-.018l-.2-.255-.025-.032L146,178.076v0l-1.406-1.823-4.716-6.118A.1.1,0,0,1,139.9,170Zm1.073,3.949.165.214.346.449-14.8,11.409-.512-.663Zm0,0" transform="translate(-108.646 -149.962)" fill="#12263f"/><path d="M34.9,28.793a2.15,2.15,0,1,0,2.15,2.15A2.152,2.152,0,0,0,34.9,28.793Zm0,2.834a.685.685,0,1,1,.685-.684A.685.685,0,0,1,34.9,31.627Zm0,0" transform="translate(-29.556 -25.981)" fill="#12263f"/><path d="M90.95,28.793a2.15,2.15,0,1,0,2.15,2.15A2.152,2.152,0,0,0,90.95,28.793Zm0,2.834a.685.685,0,1,1,.685-.684A.685.685,0,0,1,90.95,31.627Zm0,0" transform="translate(-80.129 -25.981)" fill="#12263f"/><path d="M147,28.793a2.15,2.15,0,1,0,2.15,2.15A2.152,2.152,0,0,0,147,28.793Zm0,2.834a.685.685,0,1,1,.685-.684A.685.685,0,0,1,147,31.627Zm0,0" transform="translate(-130.702 -25.981)" fill="#12263f"/><path d="M49.267,14.115A.733.733,0,0,0,50,13.383V3.224A3.227,3.227,0,0,0,46.776,0H3.224A3.228,3.228,0,0,0,0,3.224V46.777A3.228,3.228,0,0,0,3.224,50H46.776A3.227,3.227,0,0,0,50,46.777V17.968a.732.732,0,0,0-1.465,0V46.776a1.761,1.761,0,0,1-1.759,1.759H3.224a1.761,1.761,0,0,1-1.759-1.759V9.965h47.07v3.418a.733.733,0,0,0,.733.733ZM1.465,8.5V3.224A1.761,1.761,0,0,1,3.224,1.466H46.776a1.761,1.761,0,0,1,1.759,1.759V8.5Zm0,0" transform="translate(0 0)" fill="#12263f"/></svg>