<svg xmlns="http://www.w3.org/2000/svg" width="130" height="130" viewBox="0 0 130 130"><defs><style>.a{fill:#ffc94a;}.b{fill:#22577a;}</style></defs><g transform="translate(-1893 637)"><circle class="a" cx="65" cy="65" r="65" transform="translate(1893 -637)"/><g transform="translate(1908.385 -621.615)"><path class="b" d="M1962.527-617q20.819,0,35.262,14.442,14.44,14.353,14.442,35.173t-14.176,34.908q-14.974,14.708-35.528,14.707-20.114,0-34.908-14.618a47.747,47.747,0,0,1-14.619-35q0-20.287,14.619-35.173A47.556,47.556,0,0,1,1962.527-617Zm.177,8.948a38.48,38.48,0,0,0-28.617,11.961q-12.141,12.316-12.138,28.705A38.8,38.8,0,0,0,1934-538.855a39.192,39.192,0,0,0,28.706,12.049q16.567,0,28.883-12.139,11.7-11.34,11.7-28.44a38.731,38.731,0,0,0-11.873-28.705A38.771,38.771,0,0,0,1962.7-608.051ZM1981.4-579.08v8.506h-36.06v-8.506Zm0,15.948v8.506h-36.06v-8.506Z" transform="translate(-1913 616.999)"/></g></g></svg>