<svg xmlns="http://www.w3.org/2000/svg" width="400" height="151.55" viewBox="0 0 400 151.55">
  <g id="t2-i10" transform="translate(-810 -2038)">
    <rect id="Rectangle_5395" data-name="Rectangle 5395" width="400" height="88.194" rx="10" transform="translate(810 2101.356)" fill="#c7f9cc"/>
    <g id="Group_54166" data-name="Group 54166" transform="translate(-490 1246)">
      <rect id="Rectangle_5571" data-name="Rectangle 5571" width="181" height="128" transform="translate(1410 792)" fill="none"/>
      <rect id="Rectangle_5572" data-name="Rectangle 5572" width="178.139" height="11.903" transform="translate(1411.431 904.129)" fill="#22577a"/>
      <g id="Group_54162" data-name="Group 54162">
        <path id="Path_101230" data-name="Path 101230" d="M1589.459,916.047H1411.541l9.835,3.953h158.249Z" fill="#263b4d"/>
        <path id="Path_101231" data-name="Path 101231" d="M1573.34,792H1427.661a6.291,6.291,0,0,0-6.291,6.291V904.128h158.26V798.291A6.291,6.291,0,0,0,1573.34,792Z" fill="#263b4d"/>
      </g>
      <rect id="Rectangle_5573" data-name="Rectangle 5573" width="137.516" height="91.385" transform="translate(1431.742 802.373)" fill="#ebf0f3"/>
      <rect id="Rectangle_5574" data-name="Rectangle 5574" width="28.289" height="3.65" transform="translate(1486.354 908.249)" fill="#263b4d"/>
      <g id="Group_54164" data-name="Group 54164">
        <path id="Path_101232" data-name="Path 101232" d="M1536.693,861.594h-4.26V845.728a31.725,31.725,0,0,0-9.35-22.58l-.067-.067,2.82-3.192a3.5,3.5,0,0,1,.259.247,35.953,35.953,0,0,1,10.6,25.592Z" fill="#263b4d"/>
        <path id="Path_101233" data-name="Path 101233" d="M1468.565,861.594h-4.258V845.728a35.9,35.9,0,0,1,10.772-25.76l2.99,3.035a31.663,31.663,0,0,0-9.5,22.725Z" fill="#263b4d"/>
        <circle id="Ellipse_4142" data-name="Ellipse 4142" cx="9.82" cy="9.82" r="9.82" transform="translate(1519.36 856.18)" fill="#22577a"/>
        <circle id="Ellipse_4143" data-name="Ellipse 4143" cx="9.82" cy="9.82" r="9.82" transform="translate(1462 856.18)" fill="#22577a"/>
        <path id="Path_101234" data-name="Path 101234" d="M1526.1,853.495h3.531a1.5,1.5,0,0,1,1.5,1.5v22.013a1.5,1.5,0,0,1-1.5,1.5H1526.1V853.495Z" fill="#263b4d"/>
        <path id="Path_101235" data-name="Path 101235" d="M1474.9,878.5h-3.532a1.5,1.5,0,0,1-1.5-1.5V854.993a1.5,1.5,0,0,1,1.5-1.5h3.532V878.5Z" fill="#263b4d"/>
        <rect id="Rectangle_5575" data-name="Rectangle 5575" width="10.929" height="30.88" rx="2.115" transform="translate(1515.988 850.559)" fill="#57cc99"/>
        <rect id="Rectangle_5576" data-name="Rectangle 5576" width="10.929" height="30.88" rx="2.115" transform="translate(1474.083 850.559)" fill="#57cc99"/>
        <path id="Path_101236" data-name="Path 101236" d="M1524.426,826.455a4.949,4.949,0,0,1-3.491-1.433,29.08,29.08,0,0,0-40.871,0,4.969,4.969,0,1,1-6.982-7.073h0a39.017,39.017,0,0,1,54.836,0,4.97,4.97,0,0,1-3.492,8.506Z" fill="#57cc99"/>
        <g id="Group_54163" data-name="Group 54163">
          <path id="Path_101237" data-name="Path 101237" d="M1500.5,849.725a1.4,1.4,0,0,1-1.4-1.4v-20.2a1.4,1.4,0,0,1,2.808,0v20.2A1.4,1.4,0,0,1,1500.5,849.725Z" fill="#263b4d"/>
          <path id="Path_101238" data-name="Path 101238" d="M1509.422,846.317a1.4,1.4,0,0,1-1.4-1.4V831.529a1.4,1.4,0,1,1,2.807,0v13.384A1.4,1.4,0,0,1,1509.422,846.317Z" fill="#263b4d"/>
          <path id="Path_101239" data-name="Path 101239" d="M1517.971,843.157a1.4,1.4,0,0,1-1.4-1.4v-7.062a1.4,1.4,0,1,1,2.808,0v7.062A1.4,1.4,0,0,1,1517.971,843.157Z" fill="#263b4d"/>
          <path id="Path_101240" data-name="Path 101240" d="M1491.579,846.317a1.4,1.4,0,0,1-1.4-1.4V831.529a1.4,1.4,0,1,1,2.808,0v13.384A1.4,1.4,0,0,1,1491.579,846.317Z" fill="#263b4d"/>
          <path id="Path_101241" data-name="Path 101241" d="M1483.029,843.157a1.4,1.4,0,0,1-1.4-1.4v-7.062a1.4,1.4,0,1,1,2.808,0v7.062A1.4,1.4,0,0,1,1483.029,843.157Z" fill="#263b4d"/>
        </g>
      </g>
      <g id="Group_54165" data-name="Group 54165">
        <path id="Path_101242" data-name="Path 101242" d="M1500.5,877.412h0a5.456,5.456,0,0,1-5.555-5.555V864.45a5.571,5.571,0,0,1,5.555-5.555h0a5.571,5.571,0,0,1,5.555,5.555v7.407A5.7,5.7,0,0,1,1500.5,877.412Z" fill="#22577a"/>
        <path id="Path_101243" data-name="Path 101243" d="M1507.907,868.154v4.629c0,3.518-3.333,6.481-7.036,6.481h-.741c-3.7,0-7.037-2.963-7.037-6.481v-4.629a1.749,1.749,0,0,0-1.852,1.851v2.778a8.521,8.521,0,0,0,7.407,8.148v3.888c-5.555,0-4.629,3.7-4.629,3.7h12.962s.926-3.7-4.629-3.7v-3.888c4.074-.741,7.407-4.074,7.407-8.148v-2.778A1.749,1.749,0,0,0,1507.907,868.154Z" fill="#22577a"/>
      </g>
    </g>
  </g>
</svg>
