<svg xmlns="http://www.w3.org/2000/svg" width="400" height="153" viewBox="0 0 400 153">
  <g id="t2-i11" transform="translate(-180 -2582)">
    <rect id="Rectangle_5400" data-name="Rectangle 5400" width="400" height="88.194" rx="10" transform="translate(180 2646.807)" fill="#c7f9cc"/>
    <g id="Group_53814" data-name="Group 53814" transform="translate(-1057 3690)">
      <rect id="Rectangle_5455" data-name="Rectangle 5455" width="181" height="128" transform="translate(1347 -1108)" fill="none"/>
      <g id="Group_53813" data-name="Group 53813">
        <path id="Path_100535" data-name="Path 100535" d="M1513.965-1108h-152.93a5.747,5.747,0,0,0-5.747,5.747v116.506a5.747,5.747,0,0,0,5.747,5.747h152.93a5.748,5.748,0,0,0,5.747-5.747v-116.506A5.748,5.748,0,0,0,1513.965-1108Z" fill="#ebf0f3"/>
        <g id="Group_53809" data-name="Group 53809">
          <rect id="Rectangle_5456" data-name="Rectangle 5456" width="145.81" height="94.893" transform="translate(1364.598 -1084.208)" fill="#22577a"/>
          <rect id="Rectangle_5457" data-name="Rectangle 5457" width="109.425" height="6.616" transform="translate(1364.598 -1099.744)" fill="#22577a"/>
        </g>
        <rect id="Rectangle_5458" data-name="Rectangle 5458" width="145.81" height="3.499" transform="translate(1364.598 -992.814)" fill="#263b4d"/>
        <circle id="Ellipse_4070" data-name="Ellipse 4070" cx="3.308" cy="3.308" r="3.308" transform="translate(1483.15 -1099.744)" fill="#fcd462"/>
        <circle id="Ellipse_4071" data-name="Ellipse 4071" cx="3.308" cy="3.308" r="3.308" transform="translate(1493.47 -1099.744)" fill="#44c4a1"/>
        <circle id="Ellipse_4072" data-name="Ellipse 4072" cx="3.308" cy="3.308" r="3.308" transform="translate(1503.79 -1099.744)" fill="#e56353"/>
        <g id="Group_53812" data-name="Group 53812">
          <path id="Path_100536" data-name="Path 100536" d="M1437.5-1043.587a2.1,2.1,0,0,1-2.1-2.1v-3.325a7.056,7.056,0,0,1,7.047-7.047h8.524a2.227,2.227,0,0,0,2.225-2.225,2.231,2.231,0,0,0-2.225-2.24h-26.3a2.228,2.228,0,0,0-2.225,2.224v5.2a7.056,7.056,0,0,1-7.047,7.047h-2.93a7.056,7.056,0,0,1-7.046-7.047v-14.55a7.055,7.055,0,0,1,7.046-7.046H1437.5a2.1,2.1,0,0,1,2.1,2.1,2.1,2.1,0,0,1-2.1,2.1h-25.027a2.846,2.846,0,0,0-2.843,2.843v14.55a2.846,2.846,0,0,0,2.843,2.843h2.93a2.846,2.846,0,0,0,2.844-2.843v-5.2a6.436,6.436,0,0,1,6.428-6.428h26.3a6.436,6.436,0,0,1,6.429,6.428,6.439,6.439,0,0,1-6.429,6.444h-8.524a2.846,2.846,0,0,0-2.843,2.844v3.326A2.1,2.1,0,0,1,1437.5-1043.587Z" fill="#d5d6db"/>
          <path id="Path_100537" data-name="Path 100537" d="M1463.411-1041.535h-51.146c-10.433,0-19.543,7.874-20.217,18.285a19.59,19.59,0,0,0,19.546,20.893,19.566,19.566,0,0,0,16.13-8.472,4.144,4.144,0,0,1,3.423-1.75h12.712a4.162,4.162,0,0,1,3.432,1.763,19.592,19.592,0,0,0,19.134,8.234,19.681,19.681,0,0,0,16.452-17.134A19.6,19.6,0,0,0,1463.411-1041.535Z" fill="#ebf0f3"/>
          <g id="Group_53810" data-name="Group 53810">
            <circle id="Ellipse_4073" data-name="Ellipse 4073" cx="14.835" cy="14.835" r="14.835" transform="translate(1448.573 -1036.789)" fill="#e56353"/>
            <circle id="Ellipse_4074" data-name="Ellipse 4074" cx="14.835" cy="14.835" r="14.835" transform="translate(1396.76 -1036.789)" fill="#e56353"/>
          </g>
          <g id="Group_53811" data-name="Group 53811">
            <path id="Path_100538" data-name="Path 100538" d="M1462.13-1032.276l-1.9,1.9a1.813,1.813,0,0,0,0,2.564l1.9,1.9a1.812,1.812,0,0,0,2.563,0l1.9-1.9a1.813,1.813,0,0,0,0-2.564l-1.9-1.9A1.814,1.814,0,0,0,1462.13-1032.276Z" fill="#fcd462"/>
            <path id="Path_100539" data-name="Path 100539" d="M1462.13-1017.971l-1.9,1.9a1.812,1.812,0,0,0,0,2.563l1.9,1.9a1.812,1.812,0,0,0,2.563,0l1.9-1.9a1.812,1.812,0,0,0,0-2.563l-1.9-1.9A1.812,1.812,0,0,0,1462.13-1017.971Z" fill="#fcd462"/>
            <path id="Path_100540" data-name="Path 100540" d="M1473.741-1023.227l-1.9-1.9a1.813,1.813,0,0,0-2.564,0l-1.9,1.9a1.812,1.812,0,0,0,0,2.563l1.9,1.9a1.813,1.813,0,0,0,2.564,0l1.9-1.9A1.812,1.812,0,0,0,1473.741-1023.227Z" fill="#fcd462"/>
            <path id="Path_100541" data-name="Path 100541" d="M1459.437-1023.227l-1.9-1.9a1.813,1.813,0,0,0-2.564,0l-1.9,1.9a1.814,1.814,0,0,0,0,2.563l1.9,1.9a1.813,1.813,0,0,0,2.564,0l1.9-1.9A1.812,1.812,0,0,0,1459.437-1023.227Z" fill="#fcd462"/>
          </g>
          <path id="Path_100542" data-name="Path 100542" d="M1419.723-1024.942h-5.132v-5.132a3,3,0,0,0-3-3h0a3,3,0,0,0-3,3v5.132h-5.133a3,3,0,0,0-3,3h0a3,3,0,0,0,3,3h5.133v5.131a3,3,0,0,0,3,3h0a3,3,0,0,0,3-3v-5.131h5.132a3,3,0,0,0,3-3h0A3,3,0,0,0,1419.723-1024.942Z" fill="#80ed99"/>
          <path id="Path_100543" data-name="Path 100543" d="M1422.72-1021.945a3.011,3.011,0,0,1-2.1,2.867,2.77,2.77,0,0,0,.346-1.359,3.029,3.029,0,0,0-3.016-3.017h-5.118v-5.118a2.986,2.986,0,0,0-2.992-2.991,2.575,2.575,0,0,0-.889.148,2.918,2.918,0,0,1,2.645-1.656,3.008,3.008,0,0,1,2.992,3.016v5.118h5.142A3,3,0,0,1,1422.72-1021.945Z" fill="#57cc99"/>
          <path id="Path_100544" data-name="Path 100544" d="M1442.74-1041.535h-10.474v-1.31a2.843,2.843,0,0,1,2.843-2.844h4.787a2.844,2.844,0,0,1,2.844,2.844v1.31Z" fill="#ebf0f3"/>
        </g>
      </g>
    </g>
  </g>
</svg>
