<svg xmlns="http://www.w3.org/2000/svg" width="400" height="152" viewBox="0 0 400 152">
  <g id="t2-i13" transform="translate(-1010 -2583)">
    <rect id="Rectangle_5396" data-name="Rectangle 5396" width="400" height="88.194" rx="10" transform="translate(1010 2646.807)" fill="#c7f9cc"/>
    <g id="Group_53830" data-name="Group 53830" transform="translate(-847 3481)">
      <rect id="Rectangle_5472" data-name="Rectangle 5472" width="181" height="128" transform="translate(1967 -898)" fill="none"/>
      <path id="Path_100568" data-name="Path 100568" d="M2130.753-898H1984.247a5.747,5.747,0,0,0-5.747,5.747v116.506a5.747,5.747,0,0,0,5.747,5.747h146.506a5.747,5.747,0,0,0,5.747-5.747V-892.253A5.747,5.747,0,0,0,2130.753-898Z" fill="#22577a"/>
      <g id="Group_53826" data-name="Group 53826">
        <rect id="Rectangle_5473" data-name="Rectangle 5473" width="139.387" height="94.893" transform="translate(1987.809 -874.208)" fill="#c7f9cc"/>
        <rect id="Rectangle_5474" data-name="Rectangle 5474" width="108.213" height="6.616" transform="translate(1987.809 -889.744)" fill="#c7f9cc"/>
      </g>
      <circle id="Ellipse_4097" data-name="Ellipse 4097" cx="3.308" cy="3.308" r="3.308" transform="translate(2099.938 -889.744)" fill="#fcd462"/>
      <circle id="Ellipse_4098" data-name="Ellipse 4098" cx="3.308" cy="3.308" r="3.308" transform="translate(2110.258 -889.744)" fill="#44c4a1"/>
      <circle id="Ellipse_4099" data-name="Ellipse 4099" cx="3.308" cy="3.308" r="3.308" transform="translate(2120.578 -889.744)" fill="#e56353"/>
      <g id="Group_53829" data-name="Group 53829">
        <path id="Path_100569" data-name="Path 100569" d="M2110.561-868.563H2004.444a1.716,1.716,0,0,0-1.716,1.716v76.591a1.717,1.717,0,0,0,1.716,1.716h49.627A3.6,3.6,0,0,0,2057.5-786a3.6,3.6,0,0,0,3.431-2.54h49.627a1.717,1.717,0,0,0,1.716-1.716V-866.87A1.712,1.712,0,0,0,2110.561-868.563Z" fill="#263b4d"/>
        <path id="Path_100570" data-name="Path 100570" d="M2060.734-871.059a3.233,3.233,0,0,0-3.231,3.231v74.474h.044a3.23,3.23,0,0,1,3.187-2.9h47.332v-74.808Z" fill="#ebf0f3"/>
        <g id="Group_53827" data-name="Group 53827">
          <path id="Path_100571" data-name="Path 100571" d="M2108.066-791.3H2057.5v-5.147a1.845,1.845,0,0,1,1.849-1.85h48.714Z" fill="#e1e6e9"/>
          <path id="Path_100572" data-name="Path 100572" d="M2054.271-871.059a3.234,3.234,0,0,1,3.232,3.231v74.474h-.045a3.23,3.23,0,0,0-3.187-2.9H2006.94v-74.808Z" fill="#e1e6e9"/>
        </g>
        <g id="Group_53828" data-name="Group 53828">
          <path id="Path_100573" data-name="Path 100573" d="M2006.94-791.3H2057.5v-5.147a1.846,1.846,0,0,0-1.85-1.85H2006.94Z" fill="#d5d6db"/>
          <rect id="Rectangle_5475" data-name="Rectangle 5475" width="37.482" height="1.983" transform="translate(2063.787 -863.638)" fill="#d5d6db"/>
          <rect id="Rectangle_5476" data-name="Rectangle 5476" width="37.482" height="1.983" transform="translate(2063.787 -855.482)" fill="#d5d6db"/>
          <rect id="Rectangle_5477" data-name="Rectangle 5477" width="37.482" height="1.983" transform="translate(2063.787 -847.326)" fill="#d5d6db"/>
          <rect id="Rectangle_5478" data-name="Rectangle 5478" width="37.482" height="1.983" transform="translate(2063.787 -839.193)" fill="#d5d6db"/>
          <rect id="Rectangle_5479" data-name="Rectangle 5479" width="37.482" height="1.983" transform="translate(2063.787 -831.037)" fill="#d5d6db"/>
          <rect id="Rectangle_5480" data-name="Rectangle 5480" width="37.482" height="1.983" transform="translate(2063.787 -822.88)" fill="#d5d6db"/>
          <rect id="Rectangle_5481" data-name="Rectangle 5481" width="37.482" height="1.983" transform="translate(2063.787 -814.724)" fill="#d5d6db"/>
          <rect id="Rectangle_5482" data-name="Rectangle 5482" width="37.482" height="1.983" transform="translate(2063.787 -806.568)" fill="#d5d6db"/>
          <rect id="Rectangle_5483" data-name="Rectangle 5483" width="37.482" height="1.983" transform="translate(2013.491 -863.638)" fill="#d5d6db"/>
          <rect id="Rectangle_5484" data-name="Rectangle 5484" width="37.482" height="1.983" transform="translate(2013.491 -855.482)" fill="#d5d6db"/>
          <rect id="Rectangle_5485" data-name="Rectangle 5485" width="37.482" height="1.983" transform="translate(2013.491 -847.326)" fill="#d5d6db"/>
          <rect id="Rectangle_5486" data-name="Rectangle 5486" width="37.482" height="1.983" transform="translate(2013.491 -839.193)" fill="#d5d6db"/>
          <rect id="Rectangle_5487" data-name="Rectangle 5487" width="37.482" height="1.983" transform="translate(2013.491 -831.037)" fill="#d5d6db"/>
          <rect id="Rectangle_5488" data-name="Rectangle 5488" width="37.482" height="1.983" transform="translate(2013.491 -822.88)" fill="#d5d6db"/>
          <rect id="Rectangle_5489" data-name="Rectangle 5489" width="37.482" height="1.983" transform="translate(2013.491 -814.724)" fill="#d5d6db"/>
          <rect id="Rectangle_5490" data-name="Rectangle 5490" width="37.482" height="1.983" transform="translate(2013.491 -806.568)" fill="#d5d6db"/>
        </g>
        <path id="Path_100574" data-name="Path 100574" d="M2049.859-839.193l-6.329-3.944-6.329,3.944v-31.867h12.657Z" fill="#ffc94a"/>
      </g>
    </g>
  </g>
</svg>
