<svg xmlns="http://www.w3.org/2000/svg" width="400" height="152" viewBox="0 0 400 152">
  <g id="t2-i8" transform="translate(-1020 -1791)">
    <rect id="Rectangle_5394" data-name="Rectangle 5394" width="400" height="88.194" rx="10" transform="translate(1020 1854.807)" fill="#c7f9cc"/>
    <g id="Group_53798" data-name="Group 53798" transform="translate(-14 2534)">
      <rect id="Rectangle_5422" data-name="Rectangle 5422" width="181" height="128" transform="translate(1144 -743)" fill="none"/>
      <g id="Group_53797" data-name="Group 53797">
        <rect id="Rectangle_5423" data-name="Rectangle 5423" width="178.139" height="11.903" transform="translate(1145.431 -630.871)" fill="#22577a"/>
        <g id="Group_53795" data-name="Group 53795">
          <path id="Path_100510" data-name="Path 100510" d="M1323.459-618.953H1145.541l9.835,3.953h158.249Z" fill="#263b4d"/>
          <path id="Path_100511" data-name="Path 100511" d="M1307.34-743H1161.661a6.291,6.291,0,0,0-6.291,6.291v105.837h158.26V-736.709A6.291,6.291,0,0,0,1307.34-743Z" fill="#263b4d"/>
        </g>
        <rect id="Rectangle_5424" data-name="Rectangle 5424" width="137.516" height="91.385" transform="translate(1165.742 -732.627)" fill="#ebf0f3"/>
        <rect id="Rectangle_5425" data-name="Rectangle 5425" width="28.289" height="3.65" transform="translate(1220.354 -626.751)" fill="#263b4d"/>
        <path id="Path_100512" data-name="Path 100512" d="M1201.436-659.386a18.087,18.087,0,0,1-9.492-2.693l-6.589,10.371a30.319,30.319,0,0,0,16.08,4.618,30.344,30.344,0,0,0,20.1-7.6l-7.093-10.176A18.139,18.139,0,0,1,1201.436-659.386Z" fill="#27a2db"/>
        <path id="Path_100513" data-name="Path 100513" d="M1234.111-681.943a30.444,30.444,0,0,0-.835-6.984l-12.21,1.841a18.19,18.19,0,0,1,.749,5.143,18.135,18.135,0,0,1-5.194,12.719l7.093,10.176A30.39,30.39,0,0,0,1234.111-681.943Z" fill="#e56353"/>
        <path id="Path_100514" data-name="Path 100514" d="M1181.058-681.943a18.2,18.2,0,0,1,18.2-18.2,18.267,18.267,0,0,1,3.378.325l.992-12.273a30.551,30.551,0,0,0-4.37-.349,30.5,30.5,0,0,0-30.5,30.5,30.446,30.446,0,0,0,14.416,25.878l6.589-10.371A18.169,18.169,0,0,1,1181.058-681.943Z" fill="#fcd462"/>
        <path id="Path_100515" data-name="Path 100515" d="M1221.066-691.443l12.21-1.841a30.48,30.48,0,0,0-25.291-23.164l-.993,12.273A18.211,18.211,0,0,1,1221.066-691.443Z" fill="#3ea69b"/>
        <rect id="Rectangle_5426" data-name="Rectangle 5426" width="50.637" height="5.185" transform="translate(1169.718 -725.942)" fill="#e56353"/>
        <g id="Group_53796" data-name="Group 53796">
          <rect id="Rectangle_5427" data-name="Rectangle 5427" width="51.814" height="5.185" transform="translate(1244.7 -709.131)" fill="#e1e6e9"/>
          <rect id="Rectangle_5428" data-name="Rectangle 5428" width="51.814" height="5.185" transform="translate(1244.7 -694.033)" fill="#e1e6e9"/>
          <rect id="Rectangle_5429" data-name="Rectangle 5429" width="51.814" height="5.185" transform="translate(1244.7 -678.94)" fill="#e1e6e9"/>
          <rect id="Rectangle_5430" data-name="Rectangle 5430" width="51.814" height="5.185" transform="translate(1244.7 -663.844)" fill="#e1e6e9"/>
        </g>
        <rect id="Rectangle_5431" data-name="Rectangle 5431" width="26.319" height="5.185" transform="translate(1244.7 -725.942)" fill="#44c4a1"/>
      </g>
    </g>
  </g>
</svg>
