<svg xmlns="http://www.w3.org/2000/svg" width="400" height="152.55" viewBox="0 0 400 152.55">
  <g id="t2-i15" transform="translate(-810 -2829)">
    <rect id="Rectangle_5399" data-name="Rectangle 5399" width="400" height="88.194" rx="10" transform="translate(810 2893.356)" fill="#c7f9cc"/>
    <g id="Group_54161" data-name="Group 54161" transform="translate(-1276 2222)">
      <rect id="Rectangle_5567" data-name="Rectangle 5567" width="181" height="128" transform="translate(2196 607)" fill="none"/>
      <g id="Group_54158" data-name="Group 54158">
        <path id="Path_101218" data-name="Path 101218" d="M2362.965,607h-152.93a5.747,5.747,0,0,0-5.747,5.747V729.253a5.747,5.747,0,0,0,5.747,5.747h152.93a5.748,5.748,0,0,0,5.747-5.747V612.747A5.748,5.748,0,0,0,2362.965,607Z" fill="#ebf0f3"/>
        <g id="Group_54157" data-name="Group 54157">
          <rect id="Rectangle_5568" data-name="Rectangle 5568" width="145.81" height="94.893" transform="translate(2213.598 630.792)" fill="#57cc99"/>
          <rect id="Rectangle_5569" data-name="Rectangle 5569" width="109.425" height="6.616" transform="translate(2213.598 615.256)" fill="#57cc99"/>
        </g>
        <rect id="Rectangle_5570" data-name="Rectangle 5570" width="145.81" height="3.499" transform="translate(2213.598 722.186)" fill="#22577a"/>
        <circle id="Ellipse_4137" data-name="Ellipse 4137" cx="3.308" cy="3.308" r="3.308" transform="translate(2332.15 615.256)" fill="#fcd462"/>
        <circle id="Ellipse_4138" data-name="Ellipse 4138" cx="3.308" cy="3.308" r="3.308" transform="translate(2342.47 615.256)" fill="#44c4a1"/>
        <circle id="Ellipse_4139" data-name="Ellipse 4139" cx="3.308" cy="3.308" r="3.308" transform="translate(2352.79 615.256)" fill="#e56353"/>
      </g>
      <g id="Group_54160" data-name="Group 54160">
        <path id="Path_101219" data-name="Path 101219" d="M2286.7,725.99V704.653l-6.131-2.873-1.664-8.839h-21.686l-1.664,8.839-5.935,2.781V725.99Z" fill="#e2b48a"/>
        <path id="Path_101220" data-name="Path 101220" d="M2310.6,725.99a18.719,18.719,0,0,0-10.686-15.154l-15.511-7.263-.991-.463c-2.528,1.489-5.2,2.742-7.679,4.411-2.9,1.95-5.769,4.424-9.557,3.682-2.642-.526-6.236-3.33-8.494-4.888-1.014-.708-4.581-2.152-5.254-3.079l-1.905.91-.644.3-13.66,6.4A18.721,18.721,0,0,0,2225.53,726Z" fill="#e1e6e9"/>
        <path id="Path_101221" data-name="Path 101221" d="M2264.517,725.99h7.961l-1.028-6.227,3.705-6.09-4.559-3.239h-8.151l-1.552,3.62,4.678,5.952Z" fill="#e56353"/>
        <path id="Path_101222" data-name="Path 101222" d="M2280,698.714l-11.935,11.662,10.653,7.322,4.985-14.467Z" fill="#fff"/>
        <path id="Path_101223" data-name="Path 101223" d="M2252.425,703.231l5.4,14.128,10.238-6.983-11.935-11.662Z" fill="#fff"/>
        <ellipse id="Ellipse_4140" data-name="Ellipse 4140" cx="8.46" cy="3.701" rx="8.46" ry="3.701" transform="translate(2283.898 683.179) rotate(-77.589)" fill="#e8c79c"/>
        <ellipse id="Ellipse_4141" data-name="Ellipse 4141" cx="3.701" cy="8.46" rx="3.701" ry="8.46" transform="translate(2242.101 668.261) rotate(-12.411)" fill="#e8c79c"/>
        <path id="Path_101224" data-name="Path 101224" d="M2289.794,651.727l-8.542-1.625-13.347,5.136-11.742-1.489-8.54,1.625-.708,14.216.4,4.94a35.637,35.637,0,0,0,7.815,19.288l2.231,2.814a13.186,13.186,0,0,0,9.139,4.646,15.357,15.357,0,0,0,2.812,0,13.189,13.189,0,0,0,9.14-4.646l2.23-2.814a35.644,35.644,0,0,0,7.822-19.288l.4-4.94Z" fill="#e8c79c"/>
        <path id="Path_101225" data-name="Path 101225" d="M2247.991,674.883a20.281,20.281,0,0,1,1.515-11.839c3.541-8.9,6.929-3.188,17.246-3.335a24.241,24.241,0,0,0,16.51-6.929l2.226,4.586c2.166,3.966,3.221,14.5,2.588,17.517h1.7c.411-9.319,2.756-7.79,2.327-16.8-.433-9.286-5.674-9.839-5.674-9.839-.059-14.138-34.513-12.106-39.135.109-4.831,12.764-1.772,21.937-1.167,26.524Z" fill="#22577a"/>
        <path id="Path_101226" data-name="Path 101226" d="M2346.441,650.1h-36.313a1.025,1.025,0,0,0-1.024,1.024v21.34a1.024,1.024,0,0,0,1.024,1.024h5.422v6.129a.515.515,0,0,0,.915.324l5.229-6.46h24.752a1.024,1.024,0,0,0,1.024-1.024V651.126a1.025,1.025,0,0,0-1.024-1.024Z" fill="#ebf0f3"/>
        <g id="Group_54159" data-name="Group 54159">
          <path id="Path_101227" data-name="Path 101227" d="M2321.089,660.085H2319.9a1.57,1.57,0,0,0,0,3.138h1.193a1.57,1.57,0,0,0,0-3.138Z" fill="#22577a"/>
          <path id="Path_101228" data-name="Path 101228" d="M2328.881,660.085h-1.192a1.57,1.57,0,0,0,0,3.138h1.192a1.57,1.57,0,0,0,0-3.138Z" fill="#22577a"/>
          <path id="Path_101229" data-name="Path 101229" d="M2336.673,660.085h-1.192a1.57,1.57,0,0,0,0,3.138h1.192a1.57,1.57,0,0,0,0-3.138Z" fill="#22577a"/>
        </g>
      </g>
    </g>
  </g>
</svg>
