<svg xmlns="http://www.w3.org/2000/svg" width="400" height="152.551" viewBox="0 0 400 152.551">
  <g id="t2-i5" transform="translate(-810 -1221)">
    <rect id="Rectangle_5404" data-name="Rectangle 5404" width="400" height="88.194" rx="10" transform="translate(810 1285.357)" fill="#c7f9cc"/>
    <g id="Group_53808" data-name="Group 53808" transform="translate(-837 2115)">
      <rect id="Rectangle_5445" data-name="Rectangle 5445" width="181" height="128" transform="translate(1757 -894)" fill="none"/>
      <g id="Group_53807" data-name="Group 53807">
        <path id="Path_100527" data-name="Path 100527" d="M1898.139-884.71H1796.861a4.264,4.264,0,0,0-4.264,4.264v110.182a4.264,4.264,0,0,0,4.264,4.264h101.278a4.264,4.264,0,0,0,4.264-4.264V-880.446A4.264,4.264,0,0,0,1898.139-884.71Z" fill="#d6a636"/>
        <path id="Path_100528" data-name="Path 100528" d="M1898.139-887.214H1796.861a4.264,4.264,0,0,0-4.264,4.264v110.182a4.264,4.264,0,0,0,4.264,4.264h101.278a4.264,4.264,0,0,0,4.264-4.264V-882.95A4.264,4.264,0,0,0,1898.139-887.214Z" fill="#ffc94a"/>
        <rect id="Rectangle_5446" data-name="Rectangle 5446" width="85.92" height="104.026" transform="translate(1804.54 -879.637)" fill="#ebf0f3"/>
        <rect id="Rectangle_5447" data-name="Rectangle 5447" width="85.92" height="104.026" transform="translate(1804.54 -882.104)" fill="#fff"/>
        <circle id="Ellipse_4064" data-name="Ellipse 4064" cx="2.8" cy="2.8" r="2.8" transform="translate(1814.452 -879.959)" fill="#e1e6e9"/>
        <path id="Path_100529" data-name="Path 100529" d="M1817.252-894a1.573,1.573,0,0,0-1.573,1.573v14.9a1.573,1.573,0,0,0,1.573,1.573,1.573,1.573,0,0,0,1.573-1.573v-14.9A1.573,1.573,0,0,0,1817.252-894Z" fill="#22577a"/>
        <circle id="Ellipse_4065" data-name="Ellipse 4065" cx="2.8" cy="2.8" r="2.8" transform="translate(1826.553 -879.959)" fill="#e1e6e9"/>
        <path id="Path_100530" data-name="Path 100530" d="M1829.351-894a1.573,1.573,0,0,0-1.573,1.573v14.9a1.573,1.573,0,0,0,1.573,1.573,1.573,1.573,0,0,0,1.573-1.573v-14.9A1.573,1.573,0,0,0,1829.351-894Z" fill="#22577a"/>
        <circle id="Ellipse_4066" data-name="Ellipse 4066" cx="2.8" cy="2.8" r="2.8" transform="translate(1838.647 -879.959)" fill="#e1e6e9"/>
        <path id="Path_100531" data-name="Path 100531" d="M1841.45-894a1.573,1.573,0,0,0-1.573,1.573v14.9a1.573,1.573,0,0,0,1.573,1.573,1.573,1.573,0,0,0,1.573-1.573v-14.9A1.573,1.573,0,0,0,1841.45-894Z" fill="#22577a"/>
        <circle id="Ellipse_4067" data-name="Ellipse 4067" cx="2.8" cy="2.8" r="2.8" transform="translate(1850.753 -879.959)" fill="#e1e6e9"/>
        <path id="Path_100532" data-name="Path 100532" d="M1853.55-894a1.573,1.573,0,0,0-1.573,1.573v14.9a1.573,1.573,0,0,0,1.573,1.573,1.573,1.573,0,0,0,1.573-1.573v-14.9A1.573,1.573,0,0,0,1853.55-894Z" fill="#22577a"/>
        <circle id="Ellipse_4068" data-name="Ellipse 4068" cx="2.8" cy="2.8" r="2.8" transform="translate(1862.847 -879.959)" fill="#e1e6e9"/>
        <path id="Path_100533" data-name="Path 100533" d="M1865.649-894a1.573,1.573,0,0,0-1.573,1.573v14.9a1.573,1.573,0,0,0,1.573,1.573,1.573,1.573,0,0,0,1.573-1.573v-14.9A1.573,1.573,0,0,0,1865.649-894Z" fill="#22577a"/>
        <circle id="Ellipse_4069" data-name="Ellipse 4069" cx="2.8" cy="2.8" r="2.8" transform="translate(1874.953 -879.959)" fill="#e1e6e9"/>
        <path id="Path_100534" data-name="Path 100534" d="M1877.748-894a1.573,1.573,0,0,0-1.573,1.573v14.9a1.573,1.573,0,0,0,1.573,1.573,1.573,1.573,0,0,0,1.573-1.573v-14.9A1.572,1.572,0,0,0,1877.748-894Z" fill="#22577a"/>
        <rect id="Rectangle_5448" data-name="Rectangle 5448" width="23.216" height="4.655" transform="translate(1809.403 -866.723)" fill="#22577a"/>
        <rect id="Rectangle_5449" data-name="Rectangle 5449" width="36.307" height="4.655" transform="translate(1829.353 -853.747)" fill="#57cc99"/>
        <g id="Group_53806" data-name="Group 53806">
          <rect id="Rectangle_5450" data-name="Rectangle 5450" width="76.195" height="4.655" transform="translate(1809.403 -840.777)" fill="#d5d6db"/>
          <rect id="Rectangle_5451" data-name="Rectangle 5451" width="76.195" height="4.655" transform="translate(1809.403 -827.804)" fill="#d5d6db"/>
          <rect id="Rectangle_5452" data-name="Rectangle 5452" width="23.216" height="4.655" transform="translate(1809.403 -814.827)" fill="#d5d6db"/>
          <rect id="Rectangle_5453" data-name="Rectangle 5453" width="76.195" height="4.655" transform="translate(1809.403 -801.854)" fill="#d5d6db"/>
          <rect id="Rectangle_5454" data-name="Rectangle 5454" width="58.594" height="4.655" transform="translate(1809.403 -788.88)" fill="#d5d6db"/>
        </g>
      </g>
    </g>
  </g>
</svg>
