<svg xmlns="http://www.w3.org/2000/svg" width="1240" height="300" viewBox="0 0 1240 300">
  <g id="t2-i1" transform="translate(-8.802 1316.076)">
    <rect id="Rectángulo_5092" data-name="Rectángulo 5092" width="1240" height="300" transform="translate(8.802 -1316.076)" fill="none"/>
    <g id="Group_54077" data-name="Group 54077">
      <rect id="Rectangle_5520" data-name="Rectangle 5520" width="236.413" height="136.533" transform="translate(29.789 -1283.764)" fill="#ffc94a"/>
      <path id="Path_100883" data-name="Path 100883" d="M266.2-1146.045H29.789a1.186,1.186,0,0,1-1.185-1.186v-136.533a1.185,1.185,0,0,1,1.185-1.185H266.2a1.185,1.185,0,0,1,1.185,1.185v136.533A1.186,1.186,0,0,1,266.2-1146.045Zm-235.228-2.371H265.016v-134.163H30.974Z" fill="#263b4d"/>
      <rect id="Rectangle_5521" data-name="Rectangle 5521" width="81.568" height="68.295" transform="translate(44.304 -1266.371)" fill="#22577a"/>
      <path id="Path_100884" data-name="Path 100884" d="M125.872-1196.891H44.3a1.186,1.186,0,0,1-1.186-1.185v-68.295a1.185,1.185,0,0,1,1.186-1.185h81.568a1.185,1.185,0,0,1,1.185,1.185v68.295A1.186,1.186,0,0,1,125.872-1196.891Zm-80.383-2.371h79.2v-65.924h-79.2Z" fill="#263b4d"/>
      <rect id="Rectangle_5522" data-name="Rectangle 5522" width="68.519" height="68.295" transform="translate(141.058 -1266.371)" fill="#e56353"/>
      <path id="Path_100885" data-name="Path 100885" d="M210.762-1196.891H139.873v-70.665h70.889Zm-68.518-2.371h66.148v-65.924H142.244Z" fill="#263b4d"/>
      <rect id="Rectangle_5523" data-name="Rectangle 5523" width="236.413" height="17.482" transform="translate(29.789 -1301.246)" fill="#57cc99"/>
      <path id="Path_100886" data-name="Path 100886" d="M266.2-1282.579H29.789a1.185,1.185,0,0,1-1.185-1.185v-17.482a1.186,1.186,0,0,1,1.185-1.186H266.2a1.186,1.186,0,0,1,1.185,1.186v17.482A1.185,1.185,0,0,1,266.2-1282.579Zm-235.228-2.37H265.016v-15.112H30.974Z" fill="#263b4d"/>
      <g id="Group_53960" data-name="Group 53960">
        <rect id="Rectangle_5524" data-name="Rectangle 5524" width="236.413" height="10.707" transform="translate(29.789 -1147.231)" fill="#fff"/>
        <path id="Path_100887" data-name="Path 100887" d="M266.2-1135.339H29.789a1.185,1.185,0,0,1-1.185-1.185v-10.707a1.186,1.186,0,0,1,1.185-1.185H266.2a1.186,1.186,0,0,1,1.185,1.185v10.707A1.185,1.185,0,0,1,266.2-1135.339Zm-235.228-2.37H265.016v-8.336H30.974Z" fill="#263b4d"/>
      </g>
      <g id="Group_53961" data-name="Group 53961">
        <rect id="Rectangle_5525" data-name="Rectangle 5525" width="236.413" height="10.707" transform="translate(29.789 -1136.524)" fill="#fff"/>
        <path id="Path_100888" data-name="Path 100888" d="M266.2-1124.632H29.789a1.186,1.186,0,0,1-1.185-1.185v-10.707a1.186,1.186,0,0,1,1.185-1.185H266.2a1.186,1.186,0,0,1,1.185,1.185v10.707A1.186,1.186,0,0,1,266.2-1124.632ZM30.974-1127H265.016v-8.337H30.974Z" fill="#263b4d"/>
      </g>
      <g id="Group_53962" data-name="Group 53962">
        <rect id="Rectangle_5526" data-name="Rectangle 5526" width="236.413" height="10.696" transform="translate(29.789 -1125.817)" fill="#fff"/>
        <path id="Path_100889" data-name="Path 100889" d="M266.2-1113.936H29.789a1.186,1.186,0,0,1-1.185-1.186v-10.7A1.185,1.185,0,0,1,29.789-1127H266.2a1.185,1.185,0,0,1,1.185,1.185v10.7A1.186,1.186,0,0,1,266.2-1113.936Zm-235.228-2.371H265.016v-8.325H30.974Z" fill="#263b4d"/>
      </g>
      <g id="Group_53963" data-name="Group 53963">
        <rect id="Rectangle_5527" data-name="Rectangle 5527" width="236.413" height="10.707" transform="translate(29.789 -1115.122)" fill="#fff"/>
        <path id="Path_100890" data-name="Path 100890" d="M266.2-1103.23H29.789a1.185,1.185,0,0,1-1.185-1.185v-10.707a1.186,1.186,0,0,1,1.185-1.185H266.2a1.186,1.186,0,0,1,1.185,1.185v10.707A1.185,1.185,0,0,1,266.2-1103.23ZM30.974-1105.6H265.016v-8.336H30.974Z" fill="#263b4d"/>
      </g>
      <g id="Group_53964" data-name="Group 53964">
        <path id="Path_100891" data-name="Path 100891" d="M43.979-1185.992h81.9a1.015,1.015,0,0,1,1.019,1.019h0a1.016,1.016,0,0,1-1.019,1.019h-81.9a1.023,1.023,0,0,1-1.019-1.019h0a1.023,1.023,0,0,1,1.019-1.019Z" fill="#263b4d" fill-rule="evenodd"/>
      </g>
      <g id="Group_53965" data-name="Group 53965">
        <path id="Path_100892" data-name="Path 100892" d="M43.979-1175.476H98.59a1.023,1.023,0,0,1,1.019,1.019h0a1.023,1.023,0,0,1-1.019,1.02H43.979a1.023,1.023,0,0,1-1.019-1.02h0a1.023,1.023,0,0,1,1.019-1.019Z" fill="#263b4d" fill-rule="evenodd"/>
      </g>
      <g id="Group_53966" data-name="Group 53966">
        <path id="Path_100893" data-name="Path 100893" d="M142.077-1185.992h68.877a1.013,1.013,0,0,1,1.008,1.019h0a1.013,1.013,0,0,1-1.008,1.019H142.077a1.023,1.023,0,0,1-1.019-1.019h0a1.023,1.023,0,0,1,1.019-1.019Z" fill="#263b4d" fill-rule="evenodd"/>
      </g>
      <g id="Group_53967" data-name="Group 53967">
        <path id="Path_100894" data-name="Path 100894" d="M142.077-1175.476h56.244a1.023,1.023,0,0,1,1.02,1.019h0a1.024,1.024,0,0,1-1.02,1.02H142.077a1.023,1.023,0,0,1-1.019-1.02h0a1.023,1.023,0,0,1,1.019-1.019Z" fill="#263b4d" fill-rule="evenodd"/>
      </g>
      <g id="Group_53968" data-name="Group 53968">
        <path id="Path_100895" data-name="Path 100895" d="M221.986-1267.245h30.955a1.014,1.014,0,0,1,1.008,1.019h0a1.014,1.014,0,0,1-1.008,1.02H221.986a1.023,1.023,0,0,1-1.019-1.02h0a1.023,1.023,0,0,1,1.019-1.019Z" fill="#263b4d" fill-rule="evenodd"/>
      </g>
      <g id="Group_53969" data-name="Group 53969">
        <path id="Path_100896" data-name="Path 100896" d="M221.986-1256.717h18.692a1.023,1.023,0,0,1,1.019,1.019h0a1.023,1.023,0,0,1-1.019,1.019H221.986a1.023,1.023,0,0,1-1.019-1.019h0a1.023,1.023,0,0,1,1.019-1.019Z" fill="#263b4d" fill-rule="evenodd"/>
      </g>
      <g id="Group_53970" data-name="Group 53970">
        <path id="Path_100897" data-name="Path 100897" d="M221.986-1244.353h30.955a1.013,1.013,0,0,1,1.008,1.019h0a1.013,1.013,0,0,1-1.008,1.019H221.986a1.023,1.023,0,0,1-1.019-1.019h0a1.023,1.023,0,0,1,1.019-1.019Z" fill="#263b4d" fill-rule="evenodd"/>
      </g>
      <g id="Group_53971" data-name="Group 53971">
        <path id="Path_100898" data-name="Path 100898" d="M221.986-1233.825h18.692a1.013,1.013,0,0,1,1.019,1.008h0a1.016,1.016,0,0,1-1.019,1.019H221.986a1.016,1.016,0,0,1-1.019-1.019h0a1.013,1.013,0,0,1,1.019-1.008Z" fill="#263b4d" fill-rule="evenodd"/>
      </g>
      <g id="Group_53972" data-name="Group 53972">
        <path id="Path_100899" data-name="Path 100899" d="M221.986-1221.461h30.955a1.013,1.013,0,0,1,1.008,1.019h0a1.013,1.013,0,0,1-1.008,1.019H221.986a1.023,1.023,0,0,1-1.019-1.019h0a1.023,1.023,0,0,1,1.019-1.019Z" fill="#263b4d" fill-rule="evenodd"/>
      </g>
      <g id="Group_53973" data-name="Group 53973">
        <path id="Path_100900" data-name="Path 100900" d="M221.986-1210.945h18.692a1.023,1.023,0,0,1,1.019,1.019h0a1.023,1.023,0,0,1-1.019,1.02H221.986a1.023,1.023,0,0,1-1.019-1.02h0a1.023,1.023,0,0,1,1.019-1.019Z" fill="#263b4d" fill-rule="evenodd"/>
      </g>
      <g id="Group_53974" data-name="Group 53974">
        <path id="Path_100901" data-name="Path 100901" d="M221.986-1198.569h30.955a1.013,1.013,0,0,1,1.008,1.019h0a1.013,1.013,0,0,1-1.008,1.019H221.986a1.023,1.023,0,0,1-1.019-1.019h0a1.023,1.023,0,0,1,1.019-1.019Z" fill="#263b4d" fill-rule="evenodd"/>
      </g>
      <g id="Group_53975" data-name="Group 53975">
        <path id="Path_100902" data-name="Path 100902" d="M221.986-1188.053h18.692a1.023,1.023,0,0,1,1.019,1.019h0a1.023,1.023,0,0,1-1.019,1.019H221.986a1.023,1.023,0,0,1-1.019-1.019h0a1.023,1.023,0,0,1,1.019-1.019Z" fill="#263b4d" fill-rule="evenodd"/>
      </g>
      <g id="Group_53976" data-name="Group 53976">
        <path id="Path_100903" data-name="Path 100903" d="M221.986-1175.677h30.955a1.013,1.013,0,0,1,1.008,1.019h0a1.013,1.013,0,0,1-1.008,1.019H221.986a1.023,1.023,0,0,1-1.019-1.019h0a1.023,1.023,0,0,1,1.019-1.019Z" fill="#263b4d" fill-rule="evenodd"/>
      </g>
      <g id="Group_53977" data-name="Group 53977">
        <path id="Path_100904" data-name="Path 100904" d="M221.986-1165.161h18.692a1.023,1.023,0,0,1,1.019,1.019h0a1.023,1.023,0,0,1-1.019,1.019H221.986a1.023,1.023,0,0,1-1.019-1.019h0a1.023,1.023,0,0,1,1.019-1.019Z" fill="#263b4d" fill-rule="evenodd"/>
      </g>
      <g id="Group_53978" data-name="Group 53978">
        <path id="Path_100905" data-name="Path 100905" d="M236.949-1293.888h7.615a1.023,1.023,0,0,1,1.019,1.019h0a1.023,1.023,0,0,1-1.019,1.019h-7.615a1.023,1.023,0,0,1-1.02-1.019h0a1.023,1.023,0,0,1,1.02-1.019Z" fill="#263b4d" fill-rule="evenodd"/>
      </g>
      <g id="Group_53979" data-name="Group 53979">
        <path id="Path_100906" data-name="Path 100906" d="M250.746-1296.285l5.387,5.387a1.02,1.02,0,0,1,0,1.433h0a1.012,1.012,0,0,1-1.444,0l-5.376-5.375a1.015,1.015,0,0,1,0-1.445h0a1.02,1.02,0,0,1,1.433,0Z" fill="#263b4d" fill-rule="evenodd"/>
      </g>
      <g id="Group_53980" data-name="Group 53980">
        <path id="Path_100907" data-name="Path 100907" d="M249.313-1290.9l5.376-5.387a1.034,1.034,0,0,1,1.444,0h0a1.035,1.035,0,0,1,0,1.445l-5.387,5.375a1,1,0,0,1-1.433,0h0a1,1,0,0,1,0-1.433Z" fill="#263b4d" fill-rule="evenodd"/>
      </g>
      <g id="Group_53981" data-name="Group 53981">
        <path id="Path_100908" data-name="Path 100908" d="M228.269-1296.677a3.8,3.8,0,0,1,3.808,3.808,3.8,3.8,0,0,1-3.808,3.8,3.8,3.8,0,0,1-3.8-3.8,3.8,3.8,0,0,1,3.8-3.808Zm0,2.117a1.69,1.69,0,0,1,1.691,1.691,1.7,1.7,0,0,1-1.691,1.691,1.7,1.7,0,0,1-1.691-1.691,1.689,1.689,0,0,1,1.691-1.691Z" fill="#263b4d" fill-rule="evenodd"/>
      </g>
      <rect id="Rectangle_5528" data-name="Rectangle 5528" width="117.854" height="58.081" transform="translate(29.789 -1089.616)" fill="#c7f9cc"/>
      <path id="Path_100909" data-name="Path 100909" d="M147.644-1030.35H29.789a1.186,1.186,0,0,1-1.185-1.186v-58.08a1.186,1.186,0,0,1,1.185-1.186H147.644a1.186,1.186,0,0,1,1.185,1.186v58.08A1.186,1.186,0,0,1,147.644-1030.35Zm-116.67-2.371H146.458v-55.71H30.974Z" fill="#263b4d"/>
      <rect id="Rectangle_5529" data-name="Rectangle 5529" width="15.119" height="14.963" transform="translate(36.666 -1083.692)" fill="#ffc94a"/>
      <path id="Path_100910" data-name="Path 100910" d="M51.785-1067.544H36.666a1.186,1.186,0,0,1-1.186-1.185v-14.963a1.186,1.186,0,0,1,1.186-1.185H51.785a1.185,1.185,0,0,1,1.185,1.185v14.963A1.185,1.185,0,0,1,51.785-1067.544Zm-13.934-2.37H50.6v-12.592H37.851Z" fill="#263b4d"/>
      <g id="Group_53982" data-name="Group 53982">
        <path id="Path_100911" data-name="Path 100911" d="M59.748-1060.834h77.323a1.013,1.013,0,0,1,1.019,1.008h0a1.016,1.016,0,0,1-1.019,1.02H59.748a1.006,1.006,0,0,1-1.008-1.02h0a1,1,0,0,1,1.008-1.008Z" fill="#263b4d" fill-rule="evenodd"/>
      </g>
      <g id="Group_53983" data-name="Group 53983">
        <path id="Path_100912" data-name="Path 100912" d="M59.748-1051.695h40.69a1.023,1.023,0,0,1,1.019,1.019h0a1.023,1.023,0,0,1-1.019,1.02H59.748a1.014,1.014,0,0,1-1.008-1.02h0a1.013,1.013,0,0,1,1.008-1.019Z" fill="#263b4d" fill-rule="evenodd"/>
      </g>
      <g id="Group_53984" data-name="Group 53984">
        <path id="Path_100913" data-name="Path 100913" d="M59.748-1043.138h27.8a1.023,1.023,0,0,1,1.019,1.019h0a1.023,1.023,0,0,1-1.019,1.019h-27.8a1.013,1.013,0,0,1-1.008-1.019h0a1.013,1.013,0,0,1,1.008-1.019Z" fill="#263b4d" fill-rule="evenodd"/>
      </g>
      <g id="Group_53985" data-name="Group 53985">
        <path id="Path_100914" data-name="Path 100914" d="M98.052-1043.138h14.761a1.023,1.023,0,0,1,1.019,1.019h0a1.023,1.023,0,0,1-1.019,1.019H98.052a1.023,1.023,0,0,1-1.019-1.019h0a1.023,1.023,0,0,1,1.019-1.019Z" fill="#263b4d" fill-rule="evenodd"/>
      </g>
      <g id="Group_53986" data-name="Group 53986">
        <path id="Path_100915" data-name="Path 100915" d="M59.748-1069.58h77.323a1.023,1.023,0,0,1,1.019,1.019h0a1.023,1.023,0,0,1-1.019,1.019H59.748a1.013,1.013,0,0,1-1.008-1.019h0a1.013,1.013,0,0,1,1.008-1.019Z" fill="#263b4d" fill-rule="evenodd"/>
      </g>
      <g id="Group_53987" data-name="Group 53987">
        <path id="Path_100916" data-name="Path 100916" d="M59.748-1078.327h77.323a1.023,1.023,0,0,1,1.019,1.019h0a1.023,1.023,0,0,1-1.019,1.019H59.748a1.013,1.013,0,0,1-1.008-1.019h0a1.013,1.013,0,0,1,1.008-1.019Z" fill="#263b4d" fill-rule="evenodd"/>
      </g>
      <g id="Group_53998" data-name="Group 53998">
        <g id="Group_53988" data-name="Group 53988">
          <rect id="Rectangle_5530" data-name="Rectangle 5530" width="127.618" height="42.349" transform="translate(290.73 -1301.916)" fill="#fff"/>
          <path id="Path_100917" data-name="Path 100917" d="M418.347-1258.284H290.73a1.284,1.284,0,0,1-1.284-1.283v-42.349a1.283,1.283,0,0,1,1.284-1.283H418.347a1.283,1.283,0,0,1,1.284,1.283v42.349A1.284,1.284,0,0,1,418.347-1258.284Zm-126.334-2.567H417.064v-39.781H292.013Z" fill="#263b4d"/>
        </g>
        <rect id="Rectangle_5531" data-name="Rectangle 5531" width="16.372" height="16.202" transform="translate(298.176 -1295.5)" fill="#57cc99"/>
        <path id="Path_100918" data-name="Path 100918" d="M314.548-1278.015H298.176a1.284,1.284,0,0,1-1.284-1.284v-16.2a1.284,1.284,0,0,1,1.284-1.284h16.372a1.284,1.284,0,0,1,1.283,1.284v16.2A1.284,1.284,0,0,1,314.548-1278.015Zm-15.089-2.567h13.8v-13.635h-13.8Z" fill="#263b4d"/>
        <g id="Group_53989" data-name="Group 53989">
          <path id="Path_100919" data-name="Path 100919" d="M323.17-1290.6H406.9a1.1,1.1,0,0,1,1.1,1.091h0a1.1,1.1,0,0,1-1.1,1.1H323.17a1.089,1.089,0,0,1-1.091-1.1h0a1.087,1.087,0,0,1,1.091-1.091Z" fill="#263b4d" fill-rule="evenodd"/>
        </g>
        <g id="Group_53990" data-name="Group 53990">
          <path id="Path_100920" data-name="Path 100920" d="M323.17-1280.7h44.061a1.107,1.107,0,0,1,1.1,1.1h0a1.107,1.107,0,0,1-1.1,1.1H323.17a1.1,1.1,0,0,1-1.091-1.1h0a1.1,1.1,0,0,1,1.091-1.1Z" fill="#263b4d" fill-rule="evenodd"/>
        </g>
        <g id="Group_53991" data-name="Group 53991">
          <path id="Path_100921" data-name="Path 100921" d="M323.17-1271.792h30.1a1.108,1.108,0,0,1,1.1,1.1h0a1.107,1.107,0,0,1-1.1,1.1h-30.1a1.1,1.1,0,0,1-1.091-1.1h0a1.1,1.1,0,0,1,1.091-1.1Z" fill="#263b4d" fill-rule="evenodd"/>
        </g>
        <g id="Group_53992" data-name="Group 53992">
          <path id="Path_100922" data-name="Path 100922" d="M364.648-1271.792h15.983a1.108,1.108,0,0,1,1.1,1.1h0a1.107,1.107,0,0,1-1.1,1.1H364.648a1.107,1.107,0,0,1-1.1-1.1h0a1.108,1.108,0,0,1,1.1-1.1Z" fill="#263b4d" fill-rule="evenodd"/>
        </g>
        <rect id="Rectangle_5532" data-name="Rectangle 5532" width="113.499" height="50.935" transform="translate(432.354 -1301.916)" fill="#c7f9cc"/>
        <path id="Path_100923" data-name="Path 100923" d="M545.854-1249.7h-113.5a1.282,1.282,0,0,1-1.283-1.283v-50.935a1.282,1.282,0,0,1,1.283-1.283h113.5a1.283,1.283,0,0,1,1.283,1.283v50.935A1.283,1.283,0,0,1,545.854-1249.7Zm-112.216-2.567H544.57v-48.367H433.638Z" fill="#263b4d"/>
        <rect id="Rectangle_5533" data-name="Rectangle 5533" width="16.372" height="16.202" transform="translate(439.8 -1295.5)" fill="#e56353"/>
        <path id="Path_100924" data-name="Path 100924" d="M456.172-1278.015H439.8a1.284,1.284,0,0,1-1.283-1.284v-16.2a1.284,1.284,0,0,1,1.283-1.284h16.372a1.284,1.284,0,0,1,1.284,1.284v16.2A1.284,1.284,0,0,1,456.172-1278.015Zm-15.088-2.567h13.8v-13.635h-13.8Z" fill="#263b4d"/>
        <g id="Group_53993" data-name="Group 53993">
          <path id="Path_100925" data-name="Path 100925" d="M464.8-1290.6h69.61a1.1,1.1,0,0,1,1.1,1.091h0a1.1,1.1,0,0,1-1.1,1.1H464.8a1.09,1.09,0,0,1-1.092-1.1h0a1.087,1.087,0,0,1,1.092-1.091Z" fill="#263b4d" fill-rule="evenodd"/>
        </g>
        <g id="Group_53994" data-name="Group 53994">
          <path id="Path_100926" data-name="Path 100926" d="M464.8-1280.7h29.942a1.108,1.108,0,0,1,1.1,1.1h0a1.108,1.108,0,0,1-1.1,1.1H464.8a1.1,1.1,0,0,1-1.092-1.1h0a1.1,1.1,0,0,1,1.092-1.1Z" fill="#263b4d" fill-rule="evenodd"/>
        </g>
        <g id="Group_53995" data-name="Group 53995">
          <path id="Path_100927" data-name="Path 100927" d="M464.8-1262.369h15.984a1.107,1.107,0,0,1,1.1,1.1h0a1.107,1.107,0,0,1-1.1,1.1H464.8a1.1,1.1,0,0,1-1.092-1.1h0a1.1,1.1,0,0,1,1.092-1.1Z" fill="#263b4d" fill-rule="evenodd"/>
        </g>
        <g id="Group_53996" data-name="Group 53996">
          <path id="Path_100928" data-name="Path 100928" d="M492.154-1262.369h15.984a1.107,1.107,0,0,1,1.1,1.1h0a1.107,1.107,0,0,1-1.1,1.1H492.154a1.108,1.108,0,0,1-1.1-1.1h0a1.108,1.108,0,0,1,1.1-1.1Z" fill="#263b4d" fill-rule="evenodd"/>
        </g>
        <g id="Group_53997" data-name="Group 53997">
          <path id="Path_100929" data-name="Path 100929" d="M464.8-1271.816h29.942a1.108,1.108,0,0,1,1.1,1.1h0a1.108,1.108,0,0,1-1.1,1.1H464.8a1.1,1.1,0,0,1-1.092-1.1h0a1.1,1.1,0,0,1,1.092-1.1Z" fill="#263b4d" fill-rule="evenodd"/>
        </g>
      </g>
      <g id="Group_54005" data-name="Group 54005">
        <g id="Group_53999" data-name="Group 53999">
          <rect id="Rectangle_5534" data-name="Rectangle 5534" width="104.816" height="49.412" transform="translate(160.579 -1081.62)" fill="#fff"/>
          <path id="Path_100930" data-name="Path 100930" d="M265.395-1031.022H160.579a1.185,1.185,0,0,1-1.185-1.185v-49.413a1.185,1.185,0,0,1,1.185-1.185H265.395a1.186,1.186,0,0,1,1.186,1.185v49.413A1.186,1.186,0,0,1,265.395-1031.022Zm-103.631-2.371H264.21v-47.042H161.764Z" fill="#263b4d"/>
        </g>
        <rect id="Rectangle_5535" data-name="Rectangle 5535" width="15.119" height="14.963" transform="translate(167.456 -1075.695)" fill="#57cc99"/>
        <path id="Path_100931" data-name="Path 100931" d="M182.575-1059.547H167.456a1.186,1.186,0,0,1-1.186-1.186v-14.962a1.186,1.186,0,0,1,1.186-1.186h15.119a1.186,1.186,0,0,1,1.185,1.186v14.962A1.186,1.186,0,0,1,182.575-1059.547Zm-13.934-2.371H181.39v-12.592H168.641Z" fill="#263b4d"/>
        <g id="Group_54000" data-name="Group 54000">
          <path id="Path_100932" data-name="Path 100932" d="M190.538-1068.281h64.285a1.023,1.023,0,0,1,1.019,1.019h0a1.023,1.023,0,0,1-1.019,1.019H190.538a1.013,1.013,0,0,1-1.008-1.019h0a1.013,1.013,0,0,1,1.008-1.019Z" fill="#263b4d" fill-rule="evenodd"/>
        </g>
        <g id="Group_54001" data-name="Group 54001">
          <path id="Path_100933" data-name="Path 100933" d="M190.538-1042.354H205.3a1.023,1.023,0,0,1,1.019,1.019h0a1.013,1.013,0,0,1-1.019,1.008H190.538a1,1,0,0,1-1.008-1.008h0a1.013,1.013,0,0,1,1.008-1.019Z" fill="#263b4d" fill-rule="evenodd"/>
        </g>
        <g id="Group_54002" data-name="Group 54002">
          <path id="Path_100934" data-name="Path 100934" d="M215.8-1042.354h14.761a1.023,1.023,0,0,1,1.019,1.019h0a1.013,1.013,0,0,1-1.019,1.008H215.8a1.013,1.013,0,0,1-1.019-1.008h0a1.023,1.023,0,0,1,1.019-1.019Z" fill="#263b4d" fill-rule="evenodd"/>
        </g>
        <g id="Group_54003" data-name="Group 54003">
          <path id="Path_100935" data-name="Path 100935" d="M190.538-1051.079h27.651a1.023,1.023,0,0,1,1.019,1.019h0a1.023,1.023,0,0,1-1.019,1.02H190.538a1.014,1.014,0,0,1-1.008-1.02h0a1.013,1.013,0,0,1,1.008-1.019Z" fill="#263b4d" fill-rule="evenodd"/>
        </g>
        <g id="Group_54004" data-name="Group 54004">
          <path id="Path_100936" data-name="Path 100936" d="M190.538-1059.512h64.285a1.023,1.023,0,0,1,1.019,1.019h0a1.023,1.023,0,0,1-1.019,1.019H190.538a1.013,1.013,0,0,1-1.008-1.019h0a1.013,1.013,0,0,1,1.008-1.019Z" fill="#263b4d" fill-rule="evenodd"/>
        </g>
      </g>
      <g id="Group_54012" data-name="Group 54012">
        <g id="Group_54006" data-name="Group 54006">
          <rect id="Rectangle_5536" data-name="Rectangle 5536" width="138.852" height="56.269" transform="translate(565.16 -1088.641)" fill="#fff"/>
          <path id="Path_100937" data-name="Path 100937" d="M704.012-1031.022H565.16a1.35,1.35,0,0,1-1.349-1.35v-56.269a1.349,1.349,0,0,1,1.349-1.35H704.012a1.35,1.35,0,0,1,1.35,1.35v56.269A1.351,1.351,0,0,1,704.012-1031.022Zm-137.5-2.7H702.662v-53.57H566.51Z" fill="#263b4d"/>
        </g>
        <rect id="Rectangle_5537" data-name="Rectangle 5537" width="17.217" height="17.039" transform="translate(572.991 -1081.895)" fill="#57cc99"/>
        <path id="Path_100938" data-name="Path 100938" d="M590.209-1063.506H572.991a1.35,1.35,0,0,1-1.35-1.35v-17.038a1.35,1.35,0,0,1,1.35-1.35h17.218a1.349,1.349,0,0,1,1.349,1.35v17.038A1.349,1.349,0,0,1,590.209-1063.506Zm-15.868-2.7h14.518v-14.34H574.341Z" fill="#263b4d"/>
        <g id="Group_54007" data-name="Group 54007">
          <path id="Path_100939" data-name="Path 100939" d="M599.276-1073.452h92.7a1.165,1.165,0,0,1,1.161,1.161h0a1.165,1.165,0,0,1-1.161,1.161h-92.7a1.154,1.154,0,0,1-1.147-1.161h0a1.154,1.154,0,0,1,1.147-1.161Z" fill="#263b4d" fill-rule="evenodd"/>
        </g>
        <g id="Group_54008" data-name="Group 54008">
          <path id="Path_100940" data-name="Path 100940" d="M599.276-1043.927h16.81a1.165,1.165,0,0,1,1.16,1.161h0a1.154,1.154,0,0,1-1.16,1.148h-16.81a1.143,1.143,0,0,1-1.147-1.148h0a1.154,1.154,0,0,1,1.147-1.161Z" fill="#263b4d" fill-rule="evenodd"/>
        </g>
        <g id="Group_54009" data-name="Group 54009">
          <path id="Path_100941" data-name="Path 100941" d="M628.049-1043.927h16.809a1.165,1.165,0,0,1,1.161,1.161h0a1.155,1.155,0,0,1-1.161,1.148H628.049a1.155,1.155,0,0,1-1.161-1.148h0a1.165,1.165,0,0,1,1.161-1.161Z" fill="#263b4d" fill-rule="evenodd"/>
        </g>
        <g id="Group_54010" data-name="Group 54010">
          <path id="Path_100942" data-name="Path 100942" d="M599.276-1053.862h31.489a1.165,1.165,0,0,1,1.161,1.161h0a1.165,1.165,0,0,1-1.161,1.16H599.276a1.154,1.154,0,0,1-1.147-1.16h0a1.154,1.154,0,0,1,1.147-1.161Z" fill="#263b4d" fill-rule="evenodd"/>
        </g>
        <g id="Group_54011" data-name="Group 54011">
          <path id="Path_100943" data-name="Path 100943" d="M599.276-1063.465h92.7a1.164,1.164,0,0,1,1.161,1.16h0a1.165,1.165,0,0,1-1.161,1.161h-92.7a1.154,1.154,0,0,1-1.147-1.161h0a1.153,1.153,0,0,1,1.147-1.16Z" fill="#263b4d" fill-rule="evenodd"/>
        </g>
      </g>
      <g id="Group_54024" data-name="Group 54024">
        <rect id="Rectangle_5538" data-name="Rectangle 5538" width="141.215" height="20.515" transform="translate(562.4 -1300.685)" fill="#fff"/>
        <path id="Path_100944" data-name="Path 100944" d="M703.615-1278.779H562.4a1.391,1.391,0,0,1-1.391-1.391v-20.515a1.391,1.391,0,0,1,1.391-1.391H703.615a1.391,1.391,0,0,1,1.391,1.391v20.515A1.391,1.391,0,0,1,703.615-1278.779Zm-139.824-2.782H702.224v-17.733H563.791Z" fill="#263b4d"/>
        <rect id="Rectangle_5539" data-name="Rectangle 5539" width="141.215" height="145.355" transform="translate(562.4 -1280.17)" fill="#c7f9cc"/>
        <path id="Path_100945" data-name="Path 100945" d="M703.615-1133.424H562.4a1.391,1.391,0,0,1-1.391-1.391V-1280.17a1.391,1.391,0,0,1,1.391-1.391H703.615a1.391,1.391,0,0,1,1.391,1.391v145.355A1.391,1.391,0,0,1,703.615-1133.424Zm-139.824-2.782H702.224v-142.573H563.791Z" fill="#263b4d"/>
        <rect id="Rectangle_5540" data-name="Rectangle 5540" width="141.215" height="31.292" transform="translate(562.4 -1134.815)" fill="#fff"/>
        <path id="Path_100946" data-name="Path 100946" d="M703.615-1102.132H562.4a1.391,1.391,0,0,1-1.391-1.391v-31.292a1.391,1.391,0,0,1,1.391-1.391H703.615a1.391,1.391,0,0,1,1.391,1.391v31.292A1.391,1.391,0,0,1,703.615-1102.132Zm-139.824-2.782H702.224v-28.51H563.791Z" fill="#263b4d"/>
        <g id="Group_54013" data-name="Group 54013">
          <path id="Path_100947" data-name="Path 100947" d="M571.508-1125.957h57.958a1.2,1.2,0,0,1,1.2,1.2h0a1.2,1.2,0,0,1-1.2,1.2H571.508a1.2,1.2,0,0,1-1.2-1.2h0a1.2,1.2,0,0,1,1.2-1.2Z" fill="#263b4d" fill-rule="evenodd"/>
        </g>
        <g id="Group_54014" data-name="Group 54014">
          <path id="Path_100948" data-name="Path 100948" d="M571.508-1116.3h47.917a1.2,1.2,0,0,1,1.2,1.2h0a1.2,1.2,0,0,1-1.2,1.2H571.508a1.2,1.2,0,0,1-1.2-1.2h0a1.2,1.2,0,0,1,1.2-1.2Z" fill="#263b4d" fill-rule="evenodd"/>
        </g>
        <g id="Group_54015" data-name="Group 54015">
          <path id="Path_100949" data-name="Path 100949" d="M588.632-1291.945H646.59a1.2,1.2,0,0,1,1.2,1.2h0a1.2,1.2,0,0,1-1.2,1.2H588.632a1.2,1.2,0,0,1-1.2-1.2h0a1.2,1.2,0,0,1,1.2-1.2Z" fill="#263b4d" fill-rule="evenodd"/>
        </g>
        <path id="Path_100950" data-name="Path 100950" d="M575.831-1284.927a4.987,4.987,0,0,0,4.981-4.981,4.986,4.986,0,0,0-4.981-4.981,4.983,4.983,0,0,0-4.967,4.981,4.984,4.984,0,0,0,4.967,4.981Z" fill="#e56353"/>
        <path id="Path_100951" data-name="Path 100951" d="M575.832-1283.536a6.373,6.373,0,0,1-6.359-6.372,6.372,6.372,0,0,1,6.359-6.372,6.378,6.378,0,0,1,6.371,6.372A6.379,6.379,0,0,1,575.832-1283.536Zm0-9.962a3.588,3.588,0,0,0-3.578,3.59,3.588,3.588,0,0,0,3.578,3.59,3.6,3.6,0,0,0,3.59-3.59A3.594,3.594,0,0,0,575.832-1293.5Z" fill="#263b4d"/>
        <path id="Path_100952" data-name="Path 100952" d="M674.321-1242.834H591.694a6.873,6.873,0,0,1-6.871-6.859,6.879,6.879,0,0,1,6.871-6.871h82.627a6.873,6.873,0,0,1,6.858,6.871A6.867,6.867,0,0,1,674.321-1242.834Z" fill="#263b4d"/>
        <path id="Path_100953" data-name="Path 100953" d="M591.694-1253.782a4.093,4.093,0,0,0-4.089,4.089,4.087,4.087,0,0,0,4.089,4.077h82.627a4.081,4.081,0,0,0,4.076-4.077,4.087,4.087,0,0,0-4.076-4.089Z" fill="#e56353"/>
        <g id="Group_54016" data-name="Group 54016">
          <path id="Path_100954" data-name="Path 100954" d="M654.962-1124.643h15.666a1.2,1.2,0,0,1,1.2,1.2h0a1.2,1.2,0,0,1-1.2,1.2H654.962a1.2,1.2,0,0,1-1.2-1.2h0a1.2,1.2,0,0,1,1.2-1.2Z" fill="#263b4d" fill-rule="evenodd"/>
        </g>
        <g id="Group_54017" data-name="Group 54017">
          <path id="Path_100955" data-name="Path 100955" d="M653.306-1117.861h15.666a1.192,1.192,0,0,1,1.2,1.2h0a1.189,1.189,0,0,1-1.2,1.183H653.306a1.189,1.189,0,0,1-1.2-1.183h0a1.192,1.192,0,0,1,1.2-1.2Z" fill="#263b4d" fill-rule="evenodd"/>
        </g>
        <g id="Group_54018" data-name="Group 54018">
          <path id="Path_100956" data-name="Path 100956" d="M662.072-1127.087l-4.6,14.062a1.826,1.826,0,0,1-1.59,1.2h0a.836.836,0,0,1-.8-1.2l4.6-14.062a1.8,1.8,0,0,1,1.59-1.2h0a.84.84,0,0,1,.8,1.2Z" fill="#263b4d" fill-rule="evenodd"/>
        </g>
        <g id="Group_54019" data-name="Group 54019">
          <path id="Path_100957" data-name="Path 100957" d="M668.814-1127.087l-4.6,14.062a1.794,1.794,0,0,1-1.577,1.2h0a.836.836,0,0,1-.8-1.2l4.6-14.062a1.794,1.794,0,0,1,1.577-1.2h0a.836.836,0,0,1,.8,1.2Z" fill="#263b4d" fill-rule="evenodd"/>
        </g>
        <g id="Group_54020" data-name="Group 54020">
          <path id="Path_100958" data-name="Path 100958" d="M674.781-1124.643h15.665a1.2,1.2,0,0,1,1.2,1.2h0a1.2,1.2,0,0,1-1.2,1.2H674.781a1.2,1.2,0,0,1-1.2-1.2h0a1.2,1.2,0,0,1,1.2-1.2Z" fill="#263b4d" fill-rule="evenodd"/>
        </g>
        <g id="Group_54021" data-name="Group 54021">
          <path id="Path_100959" data-name="Path 100959" d="M673.125-1117.861H688.79a1.192,1.192,0,0,1,1.2,1.2h0a1.189,1.189,0,0,1-1.2,1.183H673.125a1.189,1.189,0,0,1-1.2-1.183h0a1.192,1.192,0,0,1,1.2-1.2Z" fill="#263b4d" fill-rule="evenodd"/>
        </g>
        <g id="Group_54022" data-name="Group 54022">
          <path id="Path_100960" data-name="Path 100960" d="M681.891-1127.087l-4.6,14.062a1.827,1.827,0,0,1-1.59,1.2h0a.839.839,0,0,1-.8-1.2l4.6-14.062a1.811,1.811,0,0,1,1.59-1.2h0a.84.84,0,0,1,.8,1.2Z" fill="#263b4d" fill-rule="evenodd"/>
        </g>
        <g id="Group_54023" data-name="Group 54023">
          <path id="Path_100961" data-name="Path 100961" d="M688.646-1127.087l-4.6,14.062a1.826,1.826,0,0,1-1.59,1.2h0a.836.836,0,0,1-.8-1.2l4.6-14.062a1.794,1.794,0,0,1,1.577-1.2h0a.846.846,0,0,1,.815,1.2Z" fill="#263b4d" fill-rule="evenodd"/>
        </g>
        <path id="Path_100962" data-name="Path 100962" d="M633-1157.793h0a6.5,6.5,0,0,1-6.009-3.9l-36.568-81.966a1.391,1.391,0,0,1,.1-1.323,1.391,1.391,0,0,1,1.167-.634h82.627a1.387,1.387,0,0,1,1.166.634,1.39,1.39,0,0,1,.1,1.324l-36.58,81.966A6.5,6.5,0,0,1,633-1157.793Z" fill="#263b4d"/>
        <path id="Path_100963" data-name="Path 100963" d="M593.838-1242.834l35.694,80.008h0a3.709,3.709,0,0,0,3.469,2.251h0a3.709,3.709,0,0,0,3.469-2.251l35.706-80.008Z" fill="#ffc94a"/>
        <path id="Path_100964" data-name="Path 100964" d="M611.368-1218.022a9.629,9.629,0,0,1-9.618-9.618,9.636,9.636,0,0,1,9.618-9.631,9.636,9.636,0,0,1,9.619,9.631A9.629,9.629,0,0,1,611.368-1218.022Z" fill="#263b4d"/>
        <path id="Path_100965" data-name="Path 100965" d="M611.368-1234.489a6.851,6.851,0,0,0-6.836,6.849,6.844,6.844,0,0,0,6.836,6.837,6.845,6.845,0,0,0,6.837-6.837A6.851,6.851,0,0,0,611.368-1234.489Z" fill="#e56353"/>
        <path id="Path_100966" data-name="Path 100966" d="M649.153-1217.733a9.629,9.629,0,0,1-9.618-9.617,9.63,9.63,0,0,1,9.618-9.619,9.63,9.63,0,0,1,9.618,9.619A9.628,9.628,0,0,1,649.153-1217.733Z" fill="#263b4d"/>
        <path id="Path_100967" data-name="Path 100967" d="M649.153-1234.187a6.844,6.844,0,0,0-6.836,6.837,6.844,6.844,0,0,0,6.836,6.836,6.844,6.844,0,0,0,6.836-6.836A6.844,6.844,0,0,0,649.153-1234.187Z" fill="#e56353"/>
        <path id="Path_100968" data-name="Path 100968" d="M626.9-1202.632a9.628,9.628,0,0,1-9.618-9.618,9.629,9.629,0,0,1,9.618-9.618,9.629,9.629,0,0,1,9.618,9.618A9.629,9.629,0,0,1,626.9-1202.632Z" fill="#263b4d"/>
        <path id="Path_100969" data-name="Path 100969" d="M626.9-1219.086a6.844,6.844,0,0,0-6.836,6.836,6.843,6.843,0,0,0,6.836,6.836,6.844,6.844,0,0,0,6.836-6.836A6.844,6.844,0,0,0,626.9-1219.086Z" fill="#e56353"/>
        <path id="Path_100970" data-name="Path 100970" d="M633-1175.23a9.628,9.628,0,0,1-9.618-9.618,9.629,9.629,0,0,1,9.618-9.618,9.629,9.629,0,0,1,9.618,9.618A9.629,9.629,0,0,1,633-1175.23Z" fill="#263b4d"/>
        <path id="Path_100971" data-name="Path 100971" d="M633-1191.684a6.844,6.844,0,0,0-6.836,6.836,6.843,6.843,0,0,0,6.836,6.836,6.844,6.844,0,0,0,6.836-6.836A6.844,6.844,0,0,0,633-1191.684Z" fill="#e56353"/>
        <path id="Path_100972" data-name="Path 100972" d="M649.626-1195.89a7.208,7.208,0,0,1-7.2-7.2,7.2,7.2,0,0,1,7.2-7.186,7.2,7.2,0,0,1,7.187,7.186A7.2,7.2,0,0,1,649.626-1195.89Z" fill="#263b4d"/>
        <path id="Path_100973" data-name="Path 100973" d="M649.626-1207.495a4.417,4.417,0,0,0-4.418,4.405,4.422,4.422,0,0,0,4.418,4.418,4.416,4.416,0,0,0,4.405-4.418A4.411,4.411,0,0,0,649.626-1207.495Z" fill="#e56353"/>
      </g>
      <g id="Group_54040" data-name="Group 54040">
        <g id="Group_54025" data-name="Group 54025">
          <rect id="Rectangle_5541" data-name="Rectangle 5541" width="231.939" height="162.964" transform="translate(303.135 -1243.578)" fill="#fff"/>
          <path id="Path_100974" data-name="Path 100974" d="M535.074-1079.272H303.136a1.344,1.344,0,0,1-1.344-1.343v-162.964a1.344,1.344,0,0,1,1.344-1.343H535.074a1.344,1.344,0,0,1,1.344,1.343v162.964A1.344,1.344,0,0,1,535.074-1079.272Zm-230.595-2.686H533.731v-160.277H304.479Z" fill="#263b4d"/>
        </g>
        <g id="Group_54026" data-name="Group 54026">
          <path id="Path_100975" data-name="Path 100975" d="M322.35-1100.793a6.706,6.706,0,0,0,6.688-6.688,6.7,6.7,0,0,0-6.688-6.688,6.705,6.705,0,0,0-6.689,6.688,6.706,6.706,0,0,0,6.689,6.688Z" fill="#fff"/>
          <path id="Path_100976" data-name="Path 100976" d="M322.35-1099.45a8.041,8.041,0,0,1-8.032-8.031,8.041,8.041,0,0,1,8.032-8.032,8.041,8.041,0,0,1,8.031,8.032A8.041,8.041,0,0,1,322.35-1099.45Zm0-13.376a5.35,5.35,0,0,0-5.345,5.345,5.351,5.351,0,0,0,5.345,5.345,5.351,5.351,0,0,0,5.344-5.345A5.35,5.35,0,0,0,322.35-1112.826Z" fill="#263b4d"/>
        </g>
        <rect id="Rectangle_5542" data-name="Rectangle 5542" width="124.498" height="8.109" transform="translate(315.89 -1130.756)" fill="#fa8b7d"/>
        <path id="Path_100977" data-name="Path 100977" d="M440.388-1121.3H315.89a1.343,1.343,0,0,1-1.343-1.343v-8.11a1.343,1.343,0,0,1,1.343-1.343h124.5a1.344,1.344,0,0,1,1.343,1.343v8.11A1.343,1.343,0,0,1,440.388-1121.3Zm-123.155-2.686H439.044v-5.423H317.233Z" fill="#263b4d"/>
        <rect id="Rectangle_5543" data-name="Rectangle 5543" width="138.94" height="89.319" transform="translate(315.89 -1231.332)" fill="#22577a"/>
        <path id="Path_100978" data-name="Path 100978" d="M454.83-1140.67H315.89a1.343,1.343,0,0,1-1.343-1.343v-89.319a1.343,1.343,0,0,1,1.343-1.343H454.83a1.343,1.343,0,0,1,1.343,1.343v89.319A1.343,1.343,0,0,1,454.83-1140.67Zm-137.6-2.686H453.487v-86.633H317.233Z" fill="#263b4d"/>
        <rect id="Rectangle_5544" data-name="Rectangle 5544" width="23.58" height="14.772" transform="translate(467.673 -1231.332)" fill="#57cc99"/>
        <path id="Path_100979" data-name="Path 100979" d="M491.253-1215.217h-23.58a1.343,1.343,0,0,1-1.343-1.343v-14.772a1.343,1.343,0,0,1,1.343-1.343h23.58a1.343,1.343,0,0,1,1.343,1.343v14.772A1.343,1.343,0,0,1,491.253-1215.217Zm-22.237-2.686H489.91v-12.086H469.016Z" fill="#263b4d"/>
        <g id="Group_54027" data-name="Group 54027">
          <path id="Path_100980" data-name="Path 100980" d="M497.941-1232.766h24.582a1.159,1.159,0,0,1,1.155,1.155h0a1.159,1.159,0,0,1-1.155,1.155H497.941a1.148,1.148,0,0,1-1.142-1.155h0a1.148,1.148,0,0,1,1.142-1.155Z" fill="#263b4d" fill-rule="evenodd"/>
        </g>
        <g id="Group_54028" data-name="Group 54028">
          <path id="Path_100981" data-name="Path 100981" d="M497.941-1225.8h14.886a1.159,1.159,0,0,1,1.155,1.155h0a1.159,1.159,0,0,1-1.155,1.155H497.941a1.156,1.156,0,0,1-1.142-1.155h0a1.148,1.148,0,0,1,1.142-1.155Z" fill="#263b4d" fill-rule="evenodd"/>
        </g>
        <rect id="Rectangle_5545" data-name="Rectangle 5545" width="23.58" height="14.785" transform="translate(467.673 -1202.295)" fill="#c7f9cc"/>
        <path id="Path_100982" data-name="Path 100982" d="M491.253-1186.167h-23.58a1.343,1.343,0,0,1-1.343-1.343V-1202.3a1.343,1.343,0,0,1,1.343-1.343h23.58a1.343,1.343,0,0,1,1.343,1.343v14.785A1.343,1.343,0,0,1,491.253-1186.167Zm-22.237-2.686H489.91v-12.1H469.016Z" fill="#263b4d"/>
        <g id="Group_54029" data-name="Group 54029">
          <path id="Path_100983" data-name="Path 100983" d="M497.941-1203.716h24.582a1.158,1.158,0,0,1,1.155,1.154h0a1.159,1.159,0,0,1-1.155,1.155H497.941a1.148,1.148,0,0,1-1.142-1.155h0a1.147,1.147,0,0,1,1.142-1.154Z" fill="#263b4d" fill-rule="evenodd"/>
        </g>
        <g id="Group_54030" data-name="Group 54030">
          <path id="Path_100984" data-name="Path 100984" d="M497.941-1196.749h14.886a1.159,1.159,0,0,1,1.155,1.155h0a1.159,1.159,0,0,1-1.155,1.155H497.941a1.157,1.157,0,0,1-1.142-1.155h0a1.148,1.148,0,0,1,1.142-1.155Z" fill="#263b4d" fill-rule="evenodd"/>
        </g>
        <rect id="Rectangle_5546" data-name="Rectangle 5546" width="23.58" height="14.785" transform="translate(467.673 -1173.753)" fill="#e56353"/>
        <path id="Path_100985" data-name="Path 100985" d="M491.253-1157.625h-23.58a1.343,1.343,0,0,1-1.343-1.343v-14.785a1.343,1.343,0,0,1,1.343-1.343h23.58a1.343,1.343,0,0,1,1.343,1.343v14.785A1.343,1.343,0,0,1,491.253-1157.625Zm-22.237-2.686H489.91v-12.1H469.016Z" fill="#263b4d"/>
        <g id="Group_54031" data-name="Group 54031">
          <path id="Path_100986" data-name="Path 100986" d="M497.941-1175.175h24.582a1.159,1.159,0,0,1,1.155,1.155h0a1.159,1.159,0,0,1-1.155,1.155H497.941a1.148,1.148,0,0,1-1.142-1.155h0a1.148,1.148,0,0,1,1.142-1.155Z" fill="#263b4d" fill-rule="evenodd"/>
        </g>
        <g id="Group_54032" data-name="Group 54032">
          <path id="Path_100987" data-name="Path 100987" d="M497.941-1168.207h14.886a1.159,1.159,0,0,1,1.155,1.155h0a1.159,1.159,0,0,1-1.155,1.154H497.941a1.156,1.156,0,0,1-1.142-1.154h0a1.148,1.148,0,0,1,1.142-1.155Z" fill="#263b4d" fill-rule="evenodd"/>
        </g>
        <rect id="Rectangle_5547" data-name="Rectangle 5547" width="23.58" height="14.772" transform="translate(467.673 -1145.211)" fill="#ffc94a"/>
        <path id="Path_100988" data-name="Path 100988" d="M491.253-1129.1h-23.58a1.343,1.343,0,0,1-1.343-1.343v-14.772a1.344,1.344,0,0,1,1.343-1.344h23.58a1.344,1.344,0,0,1,1.343,1.344v14.772A1.343,1.343,0,0,1,491.253-1129.1Zm-22.237-2.686H489.91v-12.086H469.016Z" fill="#263b4d"/>
        <g id="Group_54033" data-name="Group 54033">
          <path id="Path_100989" data-name="Path 100989" d="M497.941-1146.633h24.582a1.159,1.159,0,0,1,1.155,1.155h0a1.159,1.159,0,0,1-1.155,1.155H497.941a1.148,1.148,0,0,1-1.142-1.155h0a1.148,1.148,0,0,1,1.142-1.155Z" fill="#263b4d" fill-rule="evenodd"/>
        </g>
        <g id="Group_54034" data-name="Group 54034">
          <path id="Path_100990" data-name="Path 100990" d="M497.941-1139.665h14.886a1.159,1.159,0,0,1,1.155,1.154h0a1.159,1.159,0,0,1-1.155,1.155H497.941a1.156,1.156,0,0,1-1.142-1.155h0a1.147,1.147,0,0,1,1.142-1.154Z" fill="#263b4d" fill-rule="evenodd"/>
        </g>
        <rect id="Rectangle_5548" data-name="Rectangle 5548" width="23.58" height="14.772" transform="translate(467.673 -1116.67)" fill="#57cc99"/>
        <path id="Path_100991" data-name="Path 100991" d="M491.253-1100.554h-23.58a1.343,1.343,0,0,1-1.343-1.343v-14.772a1.343,1.343,0,0,1,1.343-1.344h23.58a1.343,1.343,0,0,1,1.343,1.344v14.772A1.343,1.343,0,0,1,491.253-1100.554Zm-22.237-2.686H489.91v-12.086H469.016Z" fill="#263b4d"/>
        <g id="Group_54035" data-name="Group 54035">
          <path id="Path_100992" data-name="Path 100992" d="M497.941-1118.091h24.582a1.159,1.159,0,0,1,1.155,1.155h0a1.159,1.159,0,0,1-1.155,1.155H497.941a1.148,1.148,0,0,1-1.142-1.155h0a1.148,1.148,0,0,1,1.142-1.155Z" fill="#263b4d" fill-rule="evenodd"/>
        </g>
        <g id="Group_54036" data-name="Group 54036">
          <path id="Path_100993" data-name="Path 100993" d="M497.941-1111.124h14.886a1.159,1.159,0,0,1,1.155,1.155h0a1.159,1.159,0,0,1-1.155,1.155H497.941a1.156,1.156,0,0,1-1.142-1.155h0a1.148,1.148,0,0,1,1.142-1.155Z" fill="#263b4d" fill-rule="evenodd"/>
        </g>
        <g id="Group_54037" data-name="Group 54037">
          <path id="Path_100994" data-name="Path 100994" d="M338.784-1113.522h78.633a1.159,1.159,0,0,1,1.155,1.155h0a1.159,1.159,0,0,1-1.155,1.155H338.784a1.16,1.16,0,0,1-1.155-1.155h0a1.159,1.159,0,0,1,1.155-1.155Z" fill="#263b4d" fill-rule="evenodd"/>
        </g>
        <g id="Group_54038" data-name="Group 54038">
          <path id="Path_100995" data-name="Path 100995" d="M338.784-1103.534h68.937a1.159,1.159,0,0,1,1.155,1.154h0a1.159,1.159,0,0,1-1.155,1.155H338.784a1.159,1.159,0,0,1-1.155-1.155h0a1.159,1.159,0,0,1,1.155-1.154Z" fill="#263b4d" fill-rule="evenodd"/>
        </g>
        <g id="Group_54039" data-name="Group 54039">
          <path id="Path_100996" data-name="Path 100996" d="M399.269-1186.673l-27.818,12.412v-24.823Z" fill="#fff"/>
          <path id="Path_100997" data-name="Path 100997" d="M371.451-1172.918a1.344,1.344,0,0,1-.731-.216,1.344,1.344,0,0,1-.613-1.127v-24.823a1.344,1.344,0,0,1,.613-1.127,1.343,1.343,0,0,1,1.278-.1l27.818,12.412a1.343,1.343,0,0,1,.8,1.226,1.344,1.344,0,0,1-.8,1.227L372-1173.034A1.344,1.344,0,0,1,371.451-1172.918Zm1.343-24.1v20.683l23.179-10.342Z" fill="#263b4d"/>
        </g>
      </g>
      <g id="Group_54048" data-name="Group 54048">
        <path id="Path_100998" data-name="Path 100998" d="M938.956-1240.825h20.763l9.427,16.391,9.8-16.391h19.211v-44.645h-59.2Z" fill="#e56353"/>
        <path id="Path_100999" data-name="Path 100999" d="M969.147-1222.926h-.013a1.508,1.508,0,0,1-1.294-.756l-8.993-15.635H938.956a1.508,1.508,0,0,1-1.507-1.508v-44.645a1.507,1.507,0,0,1,1.507-1.507h59.2a1.507,1.507,0,0,1,1.507,1.507v44.645a1.508,1.508,0,0,1-1.507,1.508H979.8l-9.358,15.657A1.509,1.509,0,0,1,969.147-1222.926Zm-28.684-19.406h19.256a1.507,1.507,0,0,1,1.307.756l8.146,14.163,8.479-14.185a1.507,1.507,0,0,1,1.293-.734h17.7v-41.631H940.463Z" fill="#263b4d"/>
        <rect id="Rectangle_5549" data-name="Rectangle 5549" width="79.835" height="153.358" transform="translate(932.273 -1202.468)" fill="#fa8b7d"/>
        <path id="Path_101000" data-name="Path 101000" d="M1012.108-1047.6H932.273a1.507,1.507,0,0,1-1.507-1.507v-153.358a1.508,1.508,0,0,1,1.507-1.508h79.835a1.508,1.508,0,0,1,1.507,1.508v153.358A1.507,1.507,0,0,1,1012.108-1047.6Zm-78.328-3.014H1010.6v-150.344H933.78Z" fill="#263b4d"/>
        <g id="Group_54041" data-name="Group 54041">
          <path id="Path_101001" data-name="Path 101001" d="M969.147-1273.393a8.08,8.08,0,0,0-11.393,0h0a8.079,8.079,0,0,0,0,11.392l11.393,11.393L980.54-1262a8.079,8.079,0,0,0,0-11.392h0a8.08,8.08,0,0,0-11.393,0Z" fill="#fff"/>
          <path id="Path_101002" data-name="Path 101002" d="M969.147-1249.1a1.51,1.51,0,0,1-1.066-.441l-11.392-11.393a9.573,9.573,0,0,1,0-13.524,9.578,9.578,0,0,1,12.458-.921,9.5,9.5,0,0,1,5.7-1.87,9.494,9.494,0,0,1,6.762,2.791,9.573,9.573,0,0,1,0,13.524l-11.392,11.393A1.51,1.51,0,0,1,969.147-1249.1Zm-5.7-25.142a6.53,6.53,0,0,0-4.63,1.915,6.558,6.558,0,0,0,0,9.262l10.327,10.327,10.327-10.327a6.558,6.558,0,0,0,0-9.262,6.5,6.5,0,0,0-4.631-1.908,6.5,6.5,0,0,0-4.63,1.908,1.551,1.551,0,0,1-2.132,0A6.531,6.531,0,0,0,963.45-1274.243Z" fill="#263b4d"/>
        </g>
        <path id="Path_101003" data-name="Path 101003" d="M948.024-1058.412a8.21,8.21,0,0,1-8.2-8.2,8.2,8.2,0,0,1,8.2-8.186,8.2,8.2,0,0,1,8.2,8.186A8.21,8.21,0,0,1,948.024-1058.412Z" fill="#263b4d"/>
        <path id="Path_101004" data-name="Path 101004" d="M948.024-1071.784a5.185,5.185,0,0,0-5.186,5.172,5.192,5.192,0,0,0,5.186,5.186,5.193,5.193,0,0,0,5.186-5.186A5.185,5.185,0,0,0,948.024-1071.784Z" fill="#d15241"/>
        <path id="Path_101005" data-name="Path 101005" d="M971.009-1058.412a8.21,8.21,0,0,1-8.2-8.2,8.2,8.2,0,0,1,8.2-8.186,8.2,8.2,0,0,1,8.2,8.186A8.21,8.21,0,0,1,971.009-1058.412Z" fill="#263b4d"/>
        <path id="Path_101006" data-name="Path 101006" d="M971.009-1071.784a5.185,5.185,0,0,0-5.187,5.172,5.193,5.193,0,0,0,5.187,5.186,5.193,5.193,0,0,0,5.186-5.186A5.185,5.185,0,0,0,971.009-1071.784Z" fill="#57cc99"/>
        <g id="Group_54042" data-name="Group 54042">
          <path id="Path_101007" data-name="Path 101007" d="M946.044-1172.919a6.7,6.7,0,0,0,6.693-6.678,6.7,6.7,0,0,0-6.693-6.694,6.7,6.7,0,0,0-6.693,6.694,6.7,6.7,0,0,0,6.693,6.678Z" fill="#fff"/>
          <path id="Path_101008" data-name="Path 101008" d="M946.044-1171.411a8.2,8.2,0,0,1-8.2-8.186,8.209,8.209,0,0,1,8.2-8.2,8.21,8.21,0,0,1,8.2,8.2A8.2,8.2,0,0,1,946.044-1171.411Zm0-13.372a5.192,5.192,0,0,0-5.186,5.186,5.185,5.185,0,0,0,5.186,5.171,5.184,5.184,0,0,0,5.186-5.171A5.191,5.191,0,0,0,946.044-1184.783Z" fill="#263b4d"/>
        </g>
        <g id="Group_54043" data-name="Group 54043">
          <path id="Path_101009" data-name="Path 101009" d="M937.243-1196.658h14.441a1.3,1.3,0,0,1,1.295,1.3h0a1.3,1.3,0,0,1-1.295,1.3H937.243a1.3,1.3,0,0,1-1.3-1.3h0a1.3,1.3,0,0,1,1.3-1.3Z" fill="#263b4d" fill-rule="evenodd"/>
        </g>
        <g id="Group_54044" data-name="Group 54044">
          <path id="Path_101010" data-name="Path 101010" d="M955.984-1196.658h14.441a1.3,1.3,0,0,1,1.3,1.3h0a1.3,1.3,0,0,1-1.3,1.3H955.984a1.3,1.3,0,0,1-1.3-1.3h0a1.3,1.3,0,0,1,1.3-1.3Z" fill="#263b4d" fill-rule="evenodd"/>
        </g>
        <g id="Group_54045" data-name="Group 54045">
          <path id="Path_101011" data-name="Path 101011" d="M974.74-1196.658h14.426a1.3,1.3,0,0,1,1.295,1.3h0a1.3,1.3,0,0,1-1.295,1.3H974.74a1.3,1.3,0,0,1-1.3-1.3h0a1.3,1.3,0,0,1,1.3-1.3Z" fill="#263b4d" fill-rule="evenodd"/>
        </g>
        <g id="Group_54046" data-name="Group 54046">
          <path id="Path_101012" data-name="Path 101012" d="M993.481-1196.658h14.44a1.3,1.3,0,0,1,1.3,1.3h0a1.3,1.3,0,0,1-1.3,1.3h-14.44a1.3,1.3,0,0,1-1.3-1.3h0a1.3,1.3,0,0,1,1.3-1.3Z" fill="#263b4d" fill-rule="evenodd"/>
        </g>
        <g id="Group_54047" data-name="Group 54047">
          <path id="Path_101013" data-name="Path 101013" d="M959-1181.207h19.14a1.292,1.292,0,0,1,1.3,1.3h0a1.3,1.3,0,0,1-1.3,1.3H959a1.3,1.3,0,0,1-1.3-1.3h0a1.3,1.3,0,0,1,1.3-1.3Z" fill="#263b4d" fill-rule="evenodd"/>
        </g>
        <path id="Path_101014" data-name="Path 101014" d="M994.748-1058.469a1.5,1.5,0,0,1-1.066-.441l-7.02-7.021a6.43,6.43,0,0,1-1.894-4.594,6.4,6.4,0,0,1,1.9-4.562,6.393,6.393,0,0,1,4.556-1.89h.012a6.446,6.446,0,0,1,3.513,1.029,6.412,6.412,0,0,1,3.5-1.029h.013a6.43,6.43,0,0,1,4.58,1.894,6.493,6.493,0,0,1,.005,9.148l-7.025,7.025A1.5,1.5,0,0,1,994.748-1058.469Z" fill="#263b4d"/>
        <path id="Path_101015" data-name="Path 101015" d="M991.233-1073.963h-.007a3.406,3.406,0,0,0-2.429,1.007,3.413,3.413,0,0,0-1.015,2.437,3.44,3.44,0,0,0,1.011,2.457l5.955,5.954,5.955-5.954a3.473,3.473,0,0,0,0-4.89,3.44,3.44,0,0,0-2.45-1.011h-.006a3.4,3.4,0,0,0-2.429,1.007,1.5,1.5,0,0,1-1.067.445h0a1.506,1.506,0,0,1-1.066-.441A3.44,3.44,0,0,0,991.233-1073.963Z" fill="#ffc94a"/>
        <rect id="Rectangle_5550" data-name="Rectangle 5550" width="21.361" height="31.615" transform="translate(961.51 -1127.114)" fill="#22577a"/>
        <path id="Path_101016" data-name="Path 101016" d="M982.871-1093.992H961.51A1.507,1.507,0,0,1,960-1095.5v-31.615a1.507,1.507,0,0,1,1.507-1.507h21.361a1.507,1.507,0,0,1,1.507,1.507v31.615A1.507,1.507,0,0,1,982.871-1093.992Zm-19.854-3.014h18.347v-28.6H963.017Z" fill="#263b4d"/>
        <rect id="Rectangle_5551" data-name="Rectangle 5551" width="14.583" height="8.901" transform="translate(964.899 -1136.014)" fill="#22577a"/>
        <path id="Path_101017" data-name="Path 101017" d="M979.482-1125.607H964.9a1.507,1.507,0,0,1-1.507-1.507v-8.9a1.508,1.508,0,0,1,1.507-1.508h14.583a1.508,1.508,0,0,1,1.507,1.508v8.9A1.507,1.507,0,0,1,979.482-1125.607Zm-13.076-3.014h11.569v-5.886H966.406Z" fill="#263b4d"/>
        <path id="Path_101018" data-name="Path 101018" d="M967.163-1155.41l10.054,5.881v13.515H967.163Z" fill="#d15241"/>
        <path id="Path_101019" data-name="Path 101019" d="M977.218-1134.507H967.163a1.507,1.507,0,0,1-1.507-1.507v-19.4a1.509,1.509,0,0,1,.757-1.307,1.5,1.5,0,0,1,1.511.007l10.054,5.881a1.508,1.508,0,0,1,.747,1.3v13.515A1.507,1.507,0,0,1,977.218-1134.507Zm-8.547-3.015h7.039v-11.142l-7.039-4.119Z" fill="#263b4d"/>
      </g>
      <g id="Group_54059" data-name="Group 54059">
        <path id="Path_101020" data-name="Path 101020" d="M1225.325-1108.948h0Z" fill="#263b4d"/>
        <g id="Group_54049" data-name="Group 54049">
          <path id="Path_101021" data-name="Path 101021" d="M1235.169-1079.46,1134.333-1030.2v-223.2l100.836-49.258Z" fill="#fff"/>
          <path id="Path_101022" data-name="Path 101022" d="M1134.333-1028.6a2.022,2.022,0,0,1-.927-.221,1.577,1.577,0,0,1-.9-1.383v-223.2a1.586,1.586,0,0,1,.94-1.4l100.835-49.258a2.058,2.058,0,0,1,1.819.018,1.578,1.578,0,0,1,.9,1.384v223.2a1.583,1.583,0,0,1-.939,1.4L1135.225-1028.8A2.029,2.029,0,0,1,1134.333-1028.6Zm1.832-223.861v219.525l97.173-47.469v-219.525Zm99,173h0Z" fill="#263b4d"/>
        </g>
        <g id="Group_54050" data-name="Group 54050">
          <path id="Path_101023" data-name="Path 101023" d="M1217.209-1244.032l-62.961,30.762a2.805,2.805,0,0,0-1.575,2.152h0c0,.759.71,1.031,1.575.607l62.961-30.762a2.758,2.758,0,0,0,1.575-2.137h0c0-.758-.709-1.031-1.575-.622Z" fill="#263b4d" fill-rule="evenodd"/>
        </g>
        <g id="Group_54051" data-name="Group 54051">
          <path id="Path_101024" data-name="Path 101024" d="M1217.209-1223.868l-62.961,30.747a2.8,2.8,0,0,0-1.575,2.152h0c0,.758.71,1.031,1.575.607l62.961-30.747a2.8,2.8,0,0,0,1.575-2.152h0c0-.758-.709-1.031-1.575-.607Z" fill="#263b4d" fill-rule="evenodd"/>
        </g>
        <g id="Group_54052" data-name="Group 54052">
          <path id="Path_101025" data-name="Path 101025" d="M1217.209-1203.7l-62.961,30.747a2.805,2.805,0,0,0-1.575,2.152h0c0,.758.71,1.031,1.575.607l62.961-30.762a2.758,2.758,0,0,0,1.575-2.137h0c0-.758-.709-1.031-1.575-.607Z" fill="#263b4d" fill-rule="evenodd"/>
        </g>
        <g id="Group_54053" data-name="Group 54053">
          <path id="Path_101026" data-name="Path 101026" d="M1217.209-1183.555l-62.961,30.762a2.76,2.76,0,0,0-1.575,2.137h0c0,.758.71,1.031,1.575.607l62.961-30.747a2.8,2.8,0,0,0,1.575-2.153h0c0-.758-.709-1.03-1.575-.606Z" fill="#263b4d" fill-rule="evenodd"/>
        </g>
        <g id="Group_54054" data-name="Group 54054">
          <path id="Path_101027" data-name="Path 101027" d="M1217.209-1163.391l-62.961,30.746a2.808,2.808,0,0,0-1.575,2.153h0c0,.758.71,1.031,1.575.607l62.961-30.747a2.8,2.8,0,0,0,1.575-2.153h0c0-.758-.709-1.03-1.575-.606Z" fill="#263b4d" fill-rule="evenodd"/>
        </g>
        <g id="Group_54055" data-name="Group 54055">
          <path id="Path_101028" data-name="Path 101028" d="M1217.209-1143.242l-62.961,30.761a2.786,2.786,0,0,0-1.575,2.138h0c0,.758.71,1.031,1.575.622l62.961-30.762a2.781,2.781,0,0,0,1.575-2.137h0c0-.774-.709-1.047-1.575-.622Z" fill="#263b4d" fill-rule="evenodd"/>
        </g>
        <g id="Group_54056" data-name="Group 54056">
          <path id="Path_101029" data-name="Path 101029" d="M1217.209-1123.078l-62.961,30.746a2.808,2.808,0,0,0-1.575,2.153h0c0,.758.71,1.031,1.575.607l62.961-30.747a2.8,2.8,0,0,0,1.575-2.153h0c0-.758-.709-1.031-1.575-.606Z" fill="#263b4d" fill-rule="evenodd"/>
        </g>
        <g id="Group_54057" data-name="Group 54057">
          <path id="Path_101030" data-name="Path 101030" d="M1217.209-1102.929l-62.961,30.761a2.786,2.786,0,0,0-1.575,2.138h0c0,.758.71,1.031,1.575.622l62.961-30.762a2.782,2.782,0,0,0,1.575-2.138h0c0-.758-.709-1.046-1.575-.621Z" fill="#263b4d" fill-rule="evenodd"/>
        </g>
        <g id="Group_54058" data-name="Group 54058">
          <path id="Path_101031" data-name="Path 101031" d="M1033.5-1079.46l100.835,49.258v-223.2L1033.5-1302.659Z" fill="#fff"/>
          <path id="Path_101032" data-name="Path 101032" d="M1134.333-1028.6a2.025,2.025,0,0,1-.891-.2l-100.836-49.258a1.583,1.583,0,0,1-.939-1.4v-223.2a1.579,1.579,0,0,1,.9-1.384,2.06,2.06,0,0,1,1.82-.018l100.835,49.258a1.586,1.586,0,0,1,.94,1.4v223.2a1.577,1.577,0,0,1-.9,1.383A2.036,2.036,0,0,1,1134.333-1028.6Zm-99-51.8,97.173,47.469v-219.525l-97.173-47.469Z" fill="#263b4d"/>
        </g>
        <path id="Path_101033" data-name="Path 101033" d="M1059.56-1127.4a90.588,90.588,0,0,1-26.671-4.28,1.633,1.633,0,0,1-1.222-1.513v-136.54a1.552,1.552,0,0,1,.774-1.309,2.048,2.048,0,0,1,1.666-.2c43.634,13.5,79.133,55.617,79.133,93.889,0,18.018-7.809,32.781-21.988,41.571C1082.262-1130.21,1071.444-1127.4,1059.56-1127.4Z" fill="#263b4d"/>
        <path id="Path_101034" data-name="Path 101034" d="M1035.329-1134.334c20.636,6.1,39.705,4.674,53.808-4.069,13.181-8.171,20.44-22,20.44-38.951,0-36.307-33.085-76.209-74.248-90.074Z" fill="#e56353"/>
      </g>
      <g id="Group_54064" data-name="Group 54064">
        <rect id="Rectangle_5552" data-name="Rectangle 5552" width="188.766" height="75.529" transform="translate(718.792 -1128.169)" fill="#c7f9cc"/>
        <path id="Path_101035" data-name="Path 101035" d="M907.558-1051.522H718.792a1.119,1.119,0,0,1-1.118-1.118v-75.529a1.119,1.119,0,0,1,1.118-1.118H907.558a1.118,1.118,0,0,1,1.118,1.118v75.529A1.118,1.118,0,0,1,907.558-1051.522Zm-187.648-2.236H906.441v-73.293H719.91Z" fill="#263b4d"/>
        <rect id="Rectangle_5553" data-name="Rectangle 5553" width="188.766" height="10.613" transform="translate(718.792 -1052.64)" fill="#57cc99"/>
        <path id="Path_101036" data-name="Path 101036" d="M907.558-1040.909H718.792a1.118,1.118,0,0,1-1.118-1.118v-10.613a1.119,1.119,0,0,1,1.118-1.118H907.558a1.118,1.118,0,0,1,1.118,1.118v10.613A1.117,1.117,0,0,1,907.558-1040.909Zm-187.648-2.235H906.441v-8.378H719.91Z" fill="#263b4d"/>
        <rect id="Rectangle_5554" data-name="Rectangle 5554" width="188.766" height="10.898" transform="translate(718.792 -1042.027)" fill="#e56353"/>
        <path id="Path_101037" data-name="Path 101037" d="M907.558-1030.01H718.792a1.119,1.119,0,0,1-1.118-1.118v-10.9a1.118,1.118,0,0,1,1.118-1.117H907.558a1.117,1.117,0,0,1,1.118,1.117v10.9A1.118,1.118,0,0,1,907.558-1030.01Zm-187.648-2.236H906.441v-8.663H719.91Z" fill="#263b4d"/>
        <rect id="Rectangle_5555" data-name="Rectangle 5555" width="40.231" height="47.501" transform="translate(737.167 -1116.067)" fill="#e56353"/>
        <path id="Path_101038" data-name="Path 101038" d="M777.4-1067.448H737.167a1.117,1.117,0,0,1-1.117-1.117v-47.5a1.117,1.117,0,0,1,1.117-1.117H777.4a1.117,1.117,0,0,1,1.118,1.117v47.5A1.117,1.117,0,0,1,777.4-1067.448Zm-39.113-2.235h38v-45.266h-38Z" fill="#263b4d"/>
        <rect id="Rectangle_5556" data-name="Rectangle 5556" width="115.766" height="47.501" transform="translate(777.398 -1116.067)" fill="#ffc94a"/>
        <path id="Path_101039" data-name="Path 101039" d="M893.164-1067.448H777.4a1.117,1.117,0,0,1-1.117-1.117v-47.5a1.117,1.117,0,0,1,1.117-1.117H893.164a1.117,1.117,0,0,1,1.118,1.117v47.5A1.117,1.117,0,0,1,893.164-1067.448Zm-114.648-2.235H892.047v-45.266H778.516Z" fill="#263b4d"/>
        <g id="Group_54060" data-name="Group 54060">
          <path id="Path_101040" data-name="Path 101040" d="M786.649-1106.277H861.43a.965.965,0,0,1,.961.961h0a.965.965,0,0,1-.961.961H786.649a.965.965,0,0,1-.961-.961h0a.965.965,0,0,1,.961-.961Z" fill="#263b4d" fill-rule="evenodd"/>
        </g>
        <g id="Group_54061" data-name="Group 54061">
          <path id="Path_101041" data-name="Path 101041" d="M786.649-1094.534h93.22a.965.965,0,0,1,.961.961h0a.956.956,0,0,1-.961.951h-93.22a.956.956,0,0,1-.961-.951h0a.965.965,0,0,1,.961-.961Z" fill="#263b4d" fill-rule="evenodd"/>
        </g>
        <g id="Group_54062" data-name="Group 54062">
          <path id="Path_101042" data-name="Path 101042" d="M786.649-1082.8h44.513a.965.965,0,0,1,.961.961h0a.965.965,0,0,1-.961.961H786.649a.965.965,0,0,1-.961-.961h0a.965.965,0,0,1,.961-.961Z" fill="#263b4d" fill-rule="evenodd"/>
        </g>
        <g id="Group_54063" data-name="Group 54063">
          <path id="Path_101043" data-name="Path 101043" d="M842.948-1082.8h23.931a.965.965,0,0,1,.961.961h0a.965.965,0,0,1-.961.961H842.948a.965.965,0,0,1-.961-.961h0a.965.965,0,0,1,.961-.961Z" fill="#263b4d" fill-rule="evenodd"/>
        </g>
      </g>
      <rect id="Rectangle_5557" data-name="Rectangle 5557" width="233.596" height="44.929" transform="translate(302.742 -1073.871)" fill="#57cc99"/>
      <path id="Path_101044" data-name="Path 101044" d="M536.338-1027.888h-233.6a1.054,1.054,0,0,1-1.054-1.054v-44.929a1.054,1.054,0,0,1,1.054-1.054h233.6a1.054,1.054,0,0,1,1.054,1.054v44.929A1.054,1.054,0,0,1,536.338-1027.888ZM303.8-1030H535.284v-42.821H303.8Z" fill="#263b4d"/>
      <rect id="Rectangle_5558" data-name="Rectangle 5558" width="70.105" height="26.289" transform="translate(312.278 -1066.354)" fill="#ffc94a"/>
      <path id="Path_101045" data-name="Path 101045" d="M382.384-1039.011H312.278a1.054,1.054,0,0,1-1.054-1.054v-26.289a1.054,1.054,0,0,1,1.054-1.054h70.106a1.054,1.054,0,0,1,1.054,1.054v26.289A1.054,1.054,0,0,1,382.384-1039.011Zm-69.051-2.108h68V-1065.3h-68Z" fill="#263b4d"/>
      <rect id="Rectangle_5559" data-name="Rectangle 5559" width="144.275" height="26.289" transform="translate(382.384 -1066.354)" fill="#fff"/>
      <path id="Path_101046" data-name="Path 101046" d="M526.659-1039.011H382.384a1.054,1.054,0,0,1-1.054-1.054v-26.289a1.054,1.054,0,0,1,1.054-1.054H526.659a1.054,1.054,0,0,1,1.054,1.054v26.289A1.054,1.054,0,0,1,526.659-1039.011Zm-143.221-2.108H525.6V-1065.3H383.438Z" fill="#263b4d"/>
      <g id="Group_54065" data-name="Group 54065">
        <path id="Path_101047" data-name="Path 101047" d="M391.11-1059.069H496.726a.91.91,0,0,1,.907.906h0a.911.911,0,0,1-.907.907H391.11a.911.911,0,0,1-.907-.907h0a.91.91,0,0,1,.907-.906Z" fill="#263b4d" fill-rule="evenodd"/>
      </g>
      <g id="Group_54066" data-name="Group 54066">
        <path id="Path_101048" data-name="Path 101048" d="M391.11-1050.569H433.1a.911.911,0,0,1,.907.907h0a.91.91,0,0,1-.907.906H391.11a.91.91,0,0,1-.907-.906h0a.911.911,0,0,1,.907-.907Z" fill="#263b4d" fill-rule="evenodd"/>
      </g>
      <g id="Group_54067" data-name="Group 54067">
        <path id="Path_101049" data-name="Path 101049" d="M444.212-1050.569h57.654a.911.911,0,0,1,.907.907h0a.91.91,0,0,1-.907.906H444.212a.91.91,0,0,1-.907-.906h0a.911.911,0,0,1,.907-.907Z" fill="#263b4d" fill-rule="evenodd"/>
      </g>
      <g id="Group_54076" data-name="Group 54076">
        <g id="Group_54068" data-name="Group 54068">
          <rect id="Rectangle_5560" data-name="Rectangle 5560" width="155.401" height="158.036" transform="translate(739.889 -1300.995)" fill="#fff"/>
          <path id="Path_101050" data-name="Path 101050" d="M895.29-1141.639h-155.4a1.32,1.32,0,0,1-1.319-1.32v-158.036a1.32,1.32,0,0,1,1.319-1.32h155.4a1.32,1.32,0,0,1,1.32,1.32v158.036A1.32,1.32,0,0,1,895.29-1141.639Zm-154.081-2.639H893.971v-155.4H741.209Z" fill="#263b4d"/>
        </g>
        <rect id="Rectangle_5561" data-name="Rectangle 5561" width="134.88" height="114.463" transform="translate(750.15 -1289.75)" fill="#ffc94a"/>
        <rect id="Rectangle_5562" data-name="Rectangle 5562" width="134.88" height="48.162" transform="translate(750.15 -1223.449)" fill="#57cc99"/>
        <path id="Path_101051" data-name="Path 101051" d="M885.029-1173.967H750.15a1.32,1.32,0,0,1-1.32-1.32V-1289.75a1.32,1.32,0,0,1,1.32-1.319H885.029a1.32,1.32,0,0,1,1.32,1.319v114.463A1.32,1.32,0,0,1,885.029-1173.967Zm-133.56-2.639H883.71V-1288.43H751.469Z" fill="#263b4d"/>
        <g id="Group_54069" data-name="Group 54069">
          <path id="Path_101052" data-name="Path 101052" d="M778.822-1213.611h13.041a1.138,1.138,0,0,1,1.135,1.134h0a1.139,1.139,0,0,1-1.135,1.135H778.822a1.139,1.139,0,0,1-1.134-1.135h0a1.138,1.138,0,0,1,1.134-1.134Z" fill="#263b4d" fill-rule="evenodd"/>
        </g>
        <g id="Group_54070" data-name="Group 54070">
          <path id="Path_101053" data-name="Path 101053" d="M811.923-1213.611h13.041a1.139,1.139,0,0,1,1.135,1.134h0a1.14,1.14,0,0,1-1.135,1.135H811.923a1.139,1.139,0,0,1-1.134-1.135h0a1.138,1.138,0,0,1,1.134-1.134Z" fill="#263b4d" fill-rule="evenodd"/>
        </g>
        <g id="Group_54071" data-name="Group 54071">
          <path id="Path_101054" data-name="Path 101054" d="M846.4-1213.611h13.041a1.138,1.138,0,0,1,1.135,1.134h0a1.139,1.139,0,0,1-1.135,1.135H846.4a1.139,1.139,0,0,1-1.134-1.135h0a1.138,1.138,0,0,1,1.134-1.134Z" fill="#263b4d" fill-rule="evenodd"/>
        </g>
        <g id="Group_54072" data-name="Group 54072">
          <path id="Path_101055" data-name="Path 101055" d="M791.14-1199.461h13.041a1.139,1.139,0,0,1,1.134,1.135h0a1.138,1.138,0,0,1-1.134,1.134H791.14a1.138,1.138,0,0,1-1.134-1.134h0a1.139,1.139,0,0,1,1.134-1.135Z" fill="#263b4d" fill-rule="evenodd"/>
        </g>
        <g id="Group_54073" data-name="Group 54073">
          <path id="Path_101056" data-name="Path 101056" d="M832.133-1199.461h13.041a1.139,1.139,0,0,1,1.134,1.135h0a1.138,1.138,0,0,1-1.134,1.134H832.133a1.138,1.138,0,0,1-1.135-1.134h0a1.139,1.139,0,0,1,1.135-1.135Z" fill="#263b4d" fill-rule="evenodd"/>
        </g>
        <path id="Path_101057" data-name="Path 101057" d="M845.4-1222.042h-55.6a1.319,1.319,0,0,1-1.32-1.319,29.155,29.155,0,0,1,29.122-29.122,29.155,29.155,0,0,1,29.122,29.122A1.319,1.319,0,0,1,845.4-1222.042Z" fill="#263b4d"/>
        <path id="Path_101058" data-name="Path 101058" d="M791.146-1224.68h52.9a26.515,26.515,0,0,0-26.45-25.164A26.515,26.515,0,0,0,791.146-1224.68Z" fill="#e56353"/>
        <g id="Group_54074" data-name="Group 54074">
          <path id="Path_101059" data-name="Path 101059" d="M831.97-1154.331a1.309,1.309,0,0,1-.615-.153,1.319,1.319,0,0,1-.551-1.783c.2-.387,5.076-9.488,11.415-10.583a5.367,5.367,0,0,1,3.987.739,15.143,15.143,0,0,1,3.707-1.618c4.441-1.255,6.809.09,7.993,1.37a11.264,11.264,0,0,1,7.718-.688,6.682,6.682,0,0,1,2.235,1.251,22.369,22.369,0,0,1,5.84-.911,1.319,1.319,0,0,1,1.319,1.319,1.319,1.319,0,0,1-1.319,1.32,20.289,20.289,0,0,0-4.342.6,5.043,5.043,0,0,1,.184,1.338,6.728,6.728,0,0,1-3.9,5.991,3.633,3.633,0,0,1-4.481-1.584c-.785-1.453-.647-3.746,2.095-5.822a12.082,12.082,0,0,1,1.542-.995l-.028-.01a8.566,8.566,0,0,0-5.552.522,6.637,6.637,0,0,1-.8,5.624c-1.523,2-4.5,3.1-6.5,2.394a2.919,2.919,0,0,1-1.98-2.978c.07-2.244,2.921-4.451,4.144-5.3.394-.272.813-.54,1.25-.8-1.315-.786-3.2-.53-4.7-.106a12.444,12.444,0,0,0-2.732,1.146,6.044,6.044,0,0,1,.362,1.081,6.394,6.394,0,0,1-4.125,7.665,3.048,3.048,0,0,1-3.189-.463,3.12,3.12,0,0,1-.654-3.212,11.409,11.409,0,0,1,3.468-5.308,3.526,3.526,0,0,0-1.1.032c-4.208.727-8.3,6.9-9.528,9.215A1.319,1.319,0,0,1,831.97-1154.331Zm10.818-3.386h0a2.046,2.046,0,0,0,.577-.106,3.8,3.8,0,0,0,2.327-4.533c-.007-.029-.014-.059-.022-.09a10.408,10.408,0,0,0-2.465,3.154A3.3,3.3,0,0,0,842.788-1157.717Zm13.994-5.154c-.419.24-.82.494-1.2.755-2.223,1.537-2.995,2.843-3.006,3.2-.009.332.081.364.218.412a3.874,3.874,0,0,0,3.521-1.5A3.973,3.973,0,0,0,856.782-1162.871Zm10.069.254a10.1,10.1,0,0,0-2,1.171c-1.326,1-1.643,1.962-1.37,2.467a1,1,0,0,0,1.274.352,4.183,4.183,0,0,0,2.148-3.491A2.52,2.52,0,0,0,866.851-1162.617Z" fill="#263b4d"/>
        </g>
        <g id="Group_54075" data-name="Group 54075">
          <path id="Path_101060" data-name="Path 101060" d="M751.284-1224.495H883.9a1.138,1.138,0,0,1,1.134,1.134h0a1.139,1.139,0,0,1-1.134,1.135H751.284a1.139,1.139,0,0,1-1.134-1.135h0a1.138,1.138,0,0,1,1.134-1.134Z" fill="#263b4d" fill-rule="evenodd"/>
        </g>
      </g>
    </g>
  </g>
</svg>
