<svg xmlns="http://www.w3.org/2000/svg" width="191" height="169" viewBox="0 0 191 169">
  <g id="t4-i7" transform="translate(-2154 859)">
    <rect id="Rectángulo_5374" data-name="Rectángulo 5374" width="191" height="169" transform="translate(2154 -859)" fill="none"/>
    <g id="Group_53867" data-name="Group 53867">
      <circle id="Ellipse_4119" data-name="Ellipse 4119" cx="84.5" cy="84.5" r="84.5" transform="translate(2165 -859)" fill="#c7f9cc"/>
      <path id="Path_100771" data-name="Path 100771" d="M2249.8-825.4a54.156,54.156,0,0,0-54.156,54.156,53.9,53.9,0,0,0,8.841,29.66h0l-5.976,16.89.208,3.382,20.707-5.092a53.907,53.907,0,0,0,30.377,9.317,54.157,54.157,0,0,0,54.157-54.157A54.156,54.156,0,0,0,2249.8-825.4Z" fill="#d6a636"/>
      <path id="Path_100772" data-name="Path 100772" d="M2249.5-828.657a54.157,54.157,0,0,0-54.157,54.157,53.9,53.9,0,0,0,8.841,29.66h0l-5.768,20.272,20.707-5.092a53.9,53.9,0,0,0,30.377,9.317,54.157,54.157,0,0,0,54.157-54.157A54.157,54.157,0,0,0,2249.5-828.657Z" fill="#ffc94a"/>
      <g id="Group_53865" data-name="Group 53865">
        <path id="Path_100773" data-name="Path 100773" d="M2243.338-760.272a29.052,29.052,0,0,1,1.473-10.287,16.094,16.094,0,0,1,4.775-6.538,31.728,31.728,0,0,0,5.02-5.065,8.268,8.268,0,0,0,1.719-5.065q0-6.738-5.8-6.739a5.383,5.383,0,0,0-4.329,1.964,8.355,8.355,0,0,0-1.741,5.311h-15.084q.09-8.925,5.623-13.9t15.531-4.976q9.951,0,15.419,4.6t5.466,13.076a15.232,15.232,0,0,1-1.472,6.738,22.778,22.778,0,0,1-4.731,6.2l-5.132,4.775a12.069,12.069,0,0,0-3.035,4.306,17.055,17.055,0,0,0-.937,5.6Zm-1.83,13.566a6.927,6.927,0,0,1,2.388-5.422,8.648,8.648,0,0,1,5.958-2.119,8.651,8.651,0,0,1,5.957,2.119,6.93,6.93,0,0,1,2.388,5.422,6.927,6.927,0,0,1-2.388,5.423,8.646,8.646,0,0,1-5.957,2.119,8.643,8.643,0,0,1-5.958-2.119A6.924,6.924,0,0,1,2241.508-746.706Z" fill="#d6a636"/>
      </g>
      <g id="Group_53866" data-name="Group 53866">
        <path id="Path_100774" data-name="Path 100774" d="M2241.8-762.577a29.067,29.067,0,0,1,1.472-10.286,16.1,16.1,0,0,1,4.775-6.538,31.747,31.747,0,0,0,5.021-5.065,8.269,8.269,0,0,0,1.718-5.065q0-6.738-5.8-6.739a5.381,5.381,0,0,0-4.329,1.964,8.341,8.341,0,0,0-1.741,5.31h-15.084q.089-8.925,5.623-13.9t15.531-4.976q9.951,0,15.418,4.6t5.467,13.075a15.224,15.224,0,0,1-1.473,6.739,22.751,22.751,0,0,1-4.731,6.2l-5.131,4.775a12.073,12.073,0,0,0-3.035,4.307,17.036,17.036,0,0,0-.937,5.6Zm-1.83,13.567a6.928,6.928,0,0,1,2.387-5.422,8.646,8.646,0,0,1,5.958-2.12,8.647,8.647,0,0,1,5.958,2.12,6.928,6.928,0,0,1,2.387,5.422,6.926,6.926,0,0,1-2.387,5.422,8.642,8.642,0,0,1-5.958,2.12,8.641,8.641,0,0,1-5.958-2.12A6.927,6.927,0,0,1,2239.972-749.01Z" fill="#22577a"/>
      </g>
    </g>
  </g>
</svg>
