<svg xmlns="http://www.w3.org/2000/svg" width="85" height="85" viewBox="0 0 85 85">
  <g id="t4-i4" transform="translate(-2685.672 225.077)">
    <rect id="Rectangle_5509" data-name="Rectangle 5509" width="85" height="85" transform="translate(2685.672 -225.077)" fill="none"/>
    <circle id="Ellipse_4112" data-name="Ellipse 4112" cx="40.674" cy="40.674" r="40.674" transform="translate(2687.498 -223.25)" fill="#22577a"/>
    <rect id="Rectangle_5510" data-name="Rectangle 5510" width="17.93" height="7.665" transform="translate(2714.663 -162.019)" fill="#57cc99"/>
    <rect id="Rectangle_5511" data-name="Rectangle 5511" width="3.294" height="7.665" transform="translate(2714.663 -162.019)" fill="#45a178"/>
    <path id="Path_100668" data-name="Path 100668" d="M2781.979-9.99a.833.833,0,0,1-.83.83h-33.038a.833.833,0,0,1-.83-.83v-3.32a.833.833,0,0,1,.83-.83h33.038a.833.833,0,0,1,.83.83Z" transform="translate(-41.001 -140.38)" fill="#263b4d"/>
    <path id="Path_100669" data-name="Path 100669" d="M2750.575-9.99v-3.32a.833.833,0,0,1,.83-.83h-3.294a.833.833,0,0,0-.83.83v3.32a.833.833,0,0,0,.83.83h3.294A.833.833,0,0,1,2750.575-9.99Z" transform="translate(-41.001 -140.38)" fill="#121c24"/>
    <path id="Path_100670" data-name="Path 100670" d="M2685.672-59.835a1.665,1.665,0,0,0,1.66,1.66h49.834V-69.29h-51.494Z" transform="translate(0 -103.677)" fill="#263b4d"/>
    <path id="Path_100671" data-name="Path 100671" d="M2688.966-59.835V-69.29h-3.294v9.455a1.665,1.665,0,0,0,1.66,1.66h3.294A1.665,1.665,0,0,1,2688.966-59.835Z" transform="translate(0 -103.677)" fill="#121c24"/>
    <path id="Path_100672" data-name="Path 100672" d="M2737.166-159.109a.665.665,0,0,1,.664-.664h23.755v-35.946a1.83,1.83,0,0,0-1.825-1.825H2687.5a1.83,1.83,0,0,0-1.825,1.825v41.242h51.494Z" transform="translate(0 -18.323)" fill="#57cc99"/>
    <path id="Path_100673" data-name="Path 100673" d="M2744.427-151.848a.665.665,0,0,1,.664-.664H2765.2V-185.8a.833.833,0,0,0-.83-.83h-66.954a.833.833,0,0,0-.83.83V-151.7a.833.833,0,0,0,.83.83h47.014v-.981Z" transform="translate(-7.261 -25.585)" fill="#eef6ff"/>
    <circle id="Ellipse_4113" data-name="Ellipse 4113" cx="2.309" cy="2.309" r="2.309" transform="translate(2721.319 -169.578)" fill="#57cc99"/>
    <path id="Path_100674" data-name="Path 100674" d="M2836.678-148.319a.833.833,0,0,1-.83.83h-26.306a.833.833,0,0,1-.83-.83v-12.072a.833.833,0,0,1,.83-.83h26.306a.833.833,0,0,1,.83.83v12.072Z" transform="translate(-81.884 -42.496)" fill="#ffc94a"/>
    <path id="Path_100675" data-name="Path 100675" d="M2812.007-148.319v-12.072a.832.832,0,0,1,.83-.83h-3.294a.833.833,0,0,0-.83.83v12.072a.833.833,0,0,0,.83.83h3.294A.832.832,0,0,1,2812.007-148.319Z" transform="translate(-81.885 -42.496)" fill="#d6a636"/>
    <g id="Group_53852" data-name="Group 53852" transform="translate(2726.952 -187.703)">
      <path id="Path_100676" data-name="Path 100676" d="M2817.486-110.854h-7.157a1.245,1.245,0,0,1-1.245-1.245,1.245,1.245,0,0,1,1.245-1.245h7.157a1.245,1.245,0,0,1,1.245,1.245A1.245,1.245,0,0,1,2817.486-110.854Z" transform="translate(-2809.084 113.344)" fill="#c3ddf4"/>
      <path id="Path_100677" data-name="Path 100677" d="M2817.486-99.54h-7.157a1.245,1.245,0,0,1-1.245-1.245,1.245,1.245,0,0,1,1.245-1.245h7.157a1.245,1.245,0,0,1,1.245,1.245A1.245,1.245,0,0,1,2817.486-99.54Z" transform="translate(-2809.084 105.814)" fill="#c3ddf4"/>
      <path id="Path_100678" data-name="Path 100678" d="M2846.953-110.854h-5.322a1.245,1.245,0,0,1-1.245-1.245,1.245,1.245,0,0,1,1.245-1.245h5.322a1.245,1.245,0,0,1,1.245,1.245A1.245,1.245,0,0,1,2846.953-110.854Z" transform="translate(-2829.915 113.344)" fill="#c3ddf4"/>
      <path id="Path_100679" data-name="Path 100679" d="M2846.953-99.54h-5.322a1.245,1.245,0,0,1-1.245-1.245,1.245,1.245,0,0,1,1.245-1.245h5.322a1.245,1.245,0,0,1,1.245,1.245A1.245,1.245,0,0,1,2846.953-99.54Z" transform="translate(-2829.915 105.814)" fill="#c3ddf4"/>
      <path id="Path_100680" data-name="Path 100680" d="M2874.077-110.854H2867.3a1.245,1.245,0,0,1-1.245-1.245,1.245,1.245,0,0,1,1.245-1.245h6.779a1.245,1.245,0,0,1,1.245,1.245A1.245,1.245,0,0,1,2874.077-110.854Z" transform="translate(-2846.997 113.344)" fill="#c3ddf4"/>
      <path id="Path_100681" data-name="Path 100681" d="M2874.077-99.54H2867.3a1.245,1.245,0,0,1-1.245-1.245,1.245,1.245,0,0,1,1.245-1.245h6.779a1.245,1.245,0,0,1,1.245,1.245A1.245,1.245,0,0,1,2874.077-99.54Z" transform="translate(-2846.997 105.814)" fill="#c3ddf4"/>
    </g>
    <g id="Group_53853" data-name="Group 53853" transform="translate(2741.846 -209.291)">
      <path id="Path_100682" data-name="Path 100682" d="M2857.1-175.228a.833.833,0,0,1-.83.83h-1.826a.832.832,0,0,1-.83-.83v-1.826a.833.833,0,0,1,.83-.83h1.826a.833.833,0,0,1,.83.83Z" transform="translate(-2853.61 177.884)" fill="#e56353"/>
      <path id="Path_100683" data-name="Path 100683" d="M2870.992-175.228a.832.832,0,0,1-.83.83h-1.826a.832.832,0,0,1-.83-.83v-1.826a.833.833,0,0,1,.83-.83h1.826a.833.833,0,0,1,.83.83Z" transform="translate(-2862.858 177.884)" fill="#e56353"/>
      <path id="Path_100684" data-name="Path 100684" d="M2884.888-175.228a.832.832,0,0,1-.83.83h-1.826a.832.832,0,0,1-.83-.83v-1.826a.833.833,0,0,1,.83-.83h1.826a.833.833,0,0,1,.83.83Z" transform="translate(-2872.106 177.884)" fill="#e56353"/>
    </g>
    <g id="Group_53854" data-name="Group 53854" transform="translate(2692.752 -207.478)">
      <path id="Path_100685" data-name="Path 100685" d="M2774.969-102.474h-1.494a1.245,1.245,0,0,1-1.245-1.245,1.245,1.245,0,0,1,1.245-1.245h1.494a1.245,1.245,0,0,1,1.245,1.245A1.245,1.245,0,0,1,2774.969-102.474Z" transform="translate(-2750.356 127.542)" fill="#69cdff"/>
      <path id="Path_100686" data-name="Path 100686" d="M2758.094-102.474H2756.6a1.245,1.245,0,0,1-1.245-1.245,1.245,1.245,0,0,1,1.245-1.245h1.494a1.245,1.245,0,0,1,1.245,1.245A1.245,1.245,0,0,1,2758.094-102.474Z" transform="translate(-2739.126 127.542)" fill="#69cdff"/>
      <path id="Path_100687" data-name="Path 100687" d="M2741.218-102.474h-1.494a1.245,1.245,0,0,1-1.245-1.245,1.245,1.245,0,0,1,1.245-1.245h1.494a1.245,1.245,0,0,1,1.245,1.245A1.245,1.245,0,0,1,2741.218-102.474Z" transform="translate(-2727.895 127.542)" fill="#69cdff"/>
      <path id="Path_100688" data-name="Path 100688" d="M2724.343-102.474h-1.494a1.245,1.245,0,0,1-1.245-1.245,1.245,1.245,0,0,1,1.245-1.245h1.494a1.245,1.245,0,0,1,1.245,1.245A1.245,1.245,0,0,1,2724.343-102.474Z" transform="translate(-2716.665 127.542)" fill="#69cdff"/>
      <path id="Path_100689" data-name="Path 100689" d="M2792.459-120.783a1.245,1.245,0,0,1-1.245-1.245v-1.494a1.245,1.245,0,0,1,1.245-1.245,1.245,1.245,0,0,1,1.245,1.245v1.494A1.245,1.245,0,0,1,2792.459-120.783Z" transform="translate(-2762.991 140.721)" fill="#69cdff"/>
      <path id="Path_100690" data-name="Path 100690" d="M2792.459-137.658a1.245,1.245,0,0,1-1.245-1.245V-140.4a1.245,1.245,0,0,1,1.245-1.245,1.245,1.245,0,0,1,1.245,1.245v1.494A1.245,1.245,0,0,1,2792.459-137.658Z" transform="translate(-2762.991 151.952)" fill="#69cdff"/>
      <path id="Path_100691" data-name="Path 100691" d="M2792.459-154.533a1.245,1.245,0,0,1-1.245-1.245v-1.494a1.245,1.245,0,0,1,1.245-1.245,1.245,1.245,0,0,1,1.245,1.245v1.494A1.245,1.245,0,0,1,2792.459-154.533Z" transform="translate(-2762.991 163.182)" fill="#69cdff"/>
      <path id="Path_100692" data-name="Path 100692" d="M2708.083-120.783a1.245,1.245,0,0,1-1.245-1.245v-1.494a1.245,1.245,0,0,1,1.245-1.245,1.245,1.245,0,0,1,1.245,1.245v1.494A1.245,1.245,0,0,1,2708.083-120.783Z" transform="translate(-2706.838 140.721)" fill="#69cdff"/>
      <path id="Path_100693" data-name="Path 100693" d="M2708.083-137.658a1.245,1.245,0,0,1-1.245-1.245V-140.4a1.245,1.245,0,0,1,1.245-1.245,1.245,1.245,0,0,1,1.245,1.245v1.494A1.245,1.245,0,0,1,2708.083-137.658Z" transform="translate(-2706.838 151.952)" fill="#69cdff"/>
      <path id="Path_100694" data-name="Path 100694" d="M2708.083-154.533a1.245,1.245,0,0,1-1.245-1.245v-1.494a1.245,1.245,0,0,1,1.245-1.245,1.245,1.245,0,0,1,1.245,1.245v1.494A1.245,1.245,0,0,1,2708.083-154.533Z" transform="translate(-2706.838 163.182)" fill="#69cdff"/>
      <path id="Path_100695" data-name="Path 100695" d="M2774.969-169.974h-1.494a1.245,1.245,0,0,1-1.245-1.245,1.245,1.245,0,0,1,1.245-1.245h1.494a1.245,1.245,0,0,1,1.245,1.245A1.245,1.245,0,0,1,2774.969-169.974Z" transform="translate(-2750.356 172.464)" fill="#69cdff"/>
      <path id="Path_100696" data-name="Path 100696" d="M2758.094-169.974H2756.6a1.245,1.245,0,0,1-1.245-1.245,1.245,1.245,0,0,1,1.245-1.245h1.494a1.245,1.245,0,0,1,1.245,1.245A1.245,1.245,0,0,1,2758.094-169.974Z" transform="translate(-2739.126 172.464)" fill="#69cdff"/>
      <path id="Path_100697" data-name="Path 100697" d="M2741.218-169.974h-1.494a1.245,1.245,0,0,1-1.245-1.245,1.245,1.245,0,0,1,1.245-1.245h1.494a1.245,1.245,0,0,1,1.245,1.245A1.245,1.245,0,0,1,2741.218-169.974Z" transform="translate(-2727.895 172.464)" fill="#69cdff"/>
      <path id="Path_100698" data-name="Path 100698" d="M2724.343-169.974h-1.494a1.245,1.245,0,0,1-1.245-1.245,1.245,1.245,0,0,1,1.245-1.245h1.494a1.245,1.245,0,0,1,1.245,1.245A1.245,1.245,0,0,1,2724.343-169.974Z" transform="translate(-2716.665 172.464)" fill="#69cdff"/>
    </g>
    <path id="Path_100699" data-name="Path 100699" d="M2742.07-143.708a.833.833,0,0,1-.83.83h-19.922a.833.833,0,0,1-.83-.83v-14.277a.833.833,0,0,1,.83-.83h19.922a.833.833,0,0,1,.83.83Z" transform="translate(-23.17 -44.098)" fill="#5dc1d8"/>
    <path id="Path_100700" data-name="Path 100700" d="M2723.781-143.708v-14.277a.833.833,0,0,1,.83-.83h-3.294a.833.833,0,0,0-.83.83v14.277a.833.833,0,0,0,.83.83h3.294A.833.833,0,0,1,2723.781-143.708Z" transform="translate(-23.17 -44.098)" fill="#28a5a5"/>
    <g id="Group_53855" data-name="Group 53855" transform="translate(2691.839 -209.304)">
      <path id="Path_100701" data-name="Path 100701" d="M2791.644-173.605a.832.832,0,0,1-.83.83h-3.487a.832.832,0,0,1-.83-.83v-3.486a.833.833,0,0,1,.83-.83h3.487a.833.833,0,0,1,.83.83Z" transform="translate(-2758.938 177.922)" fill="#52bbef"/>
      <path id="Path_100702" data-name="Path 100702" d="M2709.254-172.613a.833.833,0,0,1-.83.83h-3.486a.833.833,0,0,1-.83-.83V-176.1a.833.833,0,0,1,.83-.83h3.486a.833.833,0,0,1,.83.83Z" transform="translate(-2704.108 177.261)" fill="#52bbef"/>
      <path id="Path_100703" data-name="Path 100703" d="M2791.644-104.183a.833.833,0,0,1-.83.83h-3.487a.833.833,0,0,1-.83-.83v-3.486a.833.833,0,0,1,.83-.83h3.487a.833.833,0,0,1,.83.83Z" transform="translate(-2758.938 131.72)" fill="#52bbef"/>
      <path id="Path_100704" data-name="Path 100704" d="M2709.254-104.183a.833.833,0,0,1-.83.83h-3.486a.833.833,0,0,1-.83-.83v-3.486a.833.833,0,0,1,.83-.83h3.486a.833.833,0,0,1,.83.83Z" transform="translate(-2704.108 131.72)" fill="#52bbef"/>
    </g>
    <g id="Group_53856" data-name="Group 53856" transform="translate(2691.839 -209.304)">
      <path id="Path_100705" data-name="Path 100705" d="M2788.327-173.605v-3.486a.832.832,0,0,1,.83-.83h-1.83a.833.833,0,0,0-.83.83v3.486a.832.832,0,0,0,.83.83h1.83A.832.832,0,0,1,2788.327-173.605Z" transform="translate(-2758.938 177.922)" fill="#1e99d6"/>
      <path id="Path_100706" data-name="Path 100706" d="M2705.938-172.613V-176.1a.833.833,0,0,1,.83-.83h-1.83a.833.833,0,0,0-.83.83v3.486a.833.833,0,0,0,.83.83h1.83A.833.833,0,0,1,2705.938-172.613Z" transform="translate(-2704.108 177.261)" fill="#1e99d6"/>
      <path id="Path_100707" data-name="Path 100707" d="M2788.327-104.183v-3.486a.832.832,0,0,1,.83-.83h-1.83a.833.833,0,0,0-.83.83v3.486a.833.833,0,0,0,.83.83h1.83A.832.832,0,0,1,2788.327-104.183Z" transform="translate(-2758.938 131.72)" fill="#1e99d6"/>
      <path id="Path_100708" data-name="Path 100708" d="M2705.938-104.183v-3.486a.833.833,0,0,1,.83-.83h-1.83a.833.833,0,0,0-.83.83v3.486a.833.833,0,0,0,.83.83h1.83A.833.833,0,0,1,2705.938-104.183Z" transform="translate(-2704.108 131.72)" fill="#1e99d6"/>
    </g>
    <path id="Path_100709" data-name="Path 100709" d="M2860.087-71.044a.231.231,0,0,1-.02-.123h.02a.3.3,0,0,1,.1.022l6.99,2.568V-84.29a.833.833,0,0,0-.83-.83h-26.4a.832.832,0,0,0-.83.83v19.059a.832.832,0,0,0,.83.83h22.575Z" transform="translate(-102.122 -93.142)" fill="#e56353"/>
    <path id="Path_100710" data-name="Path 100710" d="M2842.416-65.231V-84.29a.833.833,0,0,1,.83-.83h-3.294a.832.832,0,0,0-.83.83v19.059a.833.833,0,0,0,.83.83h3.294A.833.833,0,0,1,2842.416-65.231Z" transform="translate(-102.122 -93.142)" fill="#d15241"/>
    <path id="Path_100711" data-name="Path 100711" d="M2901.583-43.873c-.273-.1-.415.041-.314.315l4.377,11.917a.313.313,0,0,0,.557.123l2.324-2.324a.532.532,0,0,1,.75,0l2.677,2.678a.533.533,0,0,0,.75,0l1.274-1.274a.532.532,0,0,0,0-.75l-2.678-2.678a.532.532,0,0,1,0-.749l2.324-2.324a.313.313,0,0,0-.123-.557Z" transform="translate(-143.46 -120.571)" fill="#22577a"/>
  </g>
</svg>
