<svg xmlns="http://www.w3.org/2000/svg" width="85" height="85" viewBox="0 0 85 85">
  <g id="t4-i3" transform="translate(-2680.569 496.113)">
    <rect id="Rectangle_5512" data-name="Rectangle 5512" width="85" height="85" transform="translate(2680.569 -496.113)" fill="none"/>
    <circle id="Ellipse_4114" data-name="Ellipse 4114" cx="40.674" cy="40.674" r="40.674" transform="translate(2682.395 -494.287)" fill="#22577a"/>
    <path id="Path_100712" data-name="Path 100712" d="M2706.394-327.251a.616.616,0,0,1-.615.615h-24.6a.616.616,0,0,1-.615-.615V-343.73a.617.617,0,0,1,.615-.615h24.6a.616.616,0,0,1,.615.615v16.479Z" transform="translate(0 -101.003)" fill="#80ed99"/>
    <path id="Path_100713" data-name="Path 100713" d="M2700.5-322.642a.5.5,0,0,0-.792,0l-3.2,3.793a.5.5,0,0,1-.792,0l-6.034-7.158a.5.5,0,0,0-.792,0l-8.319,9.869v.962a.616.616,0,0,0,.615.615h24.6a.616.616,0,0,0,.615-.615v-.468Z" transform="translate(0 -113.077)" fill="#57cc99"/>
    <path id="Path_100714" data-name="Path 100714" d="M2683.863-315.177v-.962l7.068-8.385-1.251-1.484a.5.5,0,0,0-.792,0l-8.319,9.869v.962a.616.616,0,0,0,.615.615h3.294A.616.616,0,0,1,2683.863-315.177Z" transform="translate(0 -113.077)" fill="#45a178"/>
    <circle id="Ellipse_4115" data-name="Ellipse 4115" cx="1.844" cy="1.844" r="1.844" transform="translate(2682.19 -443.967)" fill="#fff"/>
    <path id="Path_100715" data-name="Path 100715" d="M2686.94-338.374a1.843,1.843,0,0,1,1.083-1.678,1.834,1.834,0,0,0-.762-.166,1.845,1.845,0,0,0-1.845,1.844,1.845,1.845,0,0,0,1.845,1.845,1.834,1.834,0,0,0,.762-.166A1.845,1.845,0,0,1,2686.94-338.374Z" transform="translate(-3.227 -103.749)" fill="#d9eafc"/>
    <path id="Path_100716" data-name="Path 100716" d="M2877.752-330.378a.832.832,0,0,1-.83.83h-18.11a.833.833,0,0,1-.83-.83v-12.962a.833.833,0,0,1,.83-.83h18.11a.832.832,0,0,1,.83.83Z" transform="translate(-118.07 -101.12)" fill="#e56353"/>
    <path id="Path_100717" data-name="Path 100717" d="M2861.276-330.378v-12.962a.832.832,0,0,1,.83-.83h-3.294a.833.833,0,0,0-.83.83v12.962a.833.833,0,0,0,.83.83h3.294A.833.833,0,0,1,2861.276-330.378Z" transform="translate(-118.07 -101.12)" fill="#d15241"/>
    <path id="Path_100718" data-name="Path 100718" d="M2877.882-332.027c0-.913.647-1.286,1.438-.83l4.447,2.567a.877.877,0,0,1,0,1.66l-4.447,2.568c-.791.456-1.438.083-1.438-.83Z" transform="translate(-131.314 -108.518)" fill="#fff"/>
    <path id="Path_100719" data-name="Path 100719" d="M2903.494-384.864h-14.851a.331.331,0,0,0-.33.331V-375a.332.332,0,0,0,.33.331h14.851a.331.331,0,0,0,.33-.331v-9.529A.332.332,0,0,0,2903.494-384.864Z" transform="translate(-138.256 -74.037)" fill="#f2b322"/>
    <path id="Path_100720" data-name="Path 100720" d="M2891.606-375v-9.529a.332.332,0,0,1,.33-.331h-3.294a.332.332,0,0,0-.33.331V-375a.332.332,0,0,0,.33.332h3.294A.332.332,0,0,1,2891.606-375Z" transform="translate(-138.255 -74.037)" fill="#d6a636"/>
    <path id="Path_100721" data-name="Path 100721" d="M2903.652-384.864H2888.8a.327.327,0,0,0-.251.118l7.415,5.731a.451.451,0,0,0,.523,0l7.415-5.731A.328.328,0,0,0,2903.652-384.864Z" transform="translate(-138.413 -74.037)" fill="#ffd00d"/>
    <path id="Path_100722" data-name="Path 100722" d="M2714.4-483.131h-14.851a.332.332,0,0,0-.33.331v9.529a.332.332,0,0,0,.33.331H2714.4a.331.331,0,0,0,.33-.331V-482.8A.332.332,0,0,0,2714.4-483.131Z" transform="translate(-12.415 -8.639)" fill="#f2b322"/>
    <path id="Path_100723" data-name="Path 100723" d="M2702.517-473.269V-482.8a.332.332,0,0,1,.33-.331h-3.294a.332.332,0,0,0-.33.331v9.529a.332.332,0,0,0,.33.331h3.294A.332.332,0,0,1,2702.517-473.269Z" transform="translate(-12.415 -8.64)" fill="#d6a636"/>
    <g id="Group_53858" data-name="Group 53858" transform="translate(2686.888 -491.77)">
      <path id="Path_100724" data-name="Path 100724" d="M2714.563-483.131h-14.852a.327.327,0,0,0-.25.118l7.415,5.73a.451.451,0,0,0,.523,0l7.414-5.73A.328.328,0,0,0,2714.563-483.131Z" transform="translate(-2699.461 483.131)" fill="#ffc94a"/>
      <path id="Path_100725" data-name="Path 100725" d="M2761.221-474.523a23.233,23.233,0,0,0-23.207,23.207,23.154,23.154,0,0,0,10.5,19.419,1.706,1.706,0,0,1,.651.8l2.552,6.441h19.014l2.552-6.441a1.711,1.711,0,0,1,.651-.8,23.153,23.153,0,0,0,10.5-19.419A23.233,23.233,0,0,0,2761.221-474.523Z" transform="translate(-2725.118 477.402)" fill="#ffc94a"/>
    </g>
    <path id="Path_100726" data-name="Path 100726" d="M2751.8-431.9a23.153,23.153,0,0,1-10.5-19.419,23.237,23.237,0,0,1,21.559-23.148c-.544-.038-1.093-.059-1.647-.059a23.233,23.233,0,0,0-23.207,23.207,23.154,23.154,0,0,0,10.5,19.419,1.712,1.712,0,0,1,.651.8l2.552,6.441h3.294l-2.552-6.441A1.709,1.709,0,0,0,2751.8-431.9Z" transform="translate(-38.23 -14.368)" fill="#d6a636"/>
    <path id="Path_100727" data-name="Path 100727" d="M2806.16-342.434v-8.539c-.411.028-.826.043-1.245.043s-.834-.015-1.245-.043v8.539Z" transform="translate(-81.925 -96.592)" fill="#7e8bab"/>
    <path id="Path_100728" data-name="Path 100728" d="M2770.925-423.282a18.35,18.35,0,0,1-18.329-18.329,18.35,18.35,0,0,1,18.329-18.329,18.35,18.35,0,0,1,18.329,18.329A18.35,18.35,0,0,1,2770.925-423.282Z" transform="translate(-47.935 -24.073)" fill="#b7092b"/>
    <path id="Path_100729" data-name="Path 100729" d="M2779.927-418.805a13.82,13.82,0,0,1-13.8-13.8,13.82,13.82,0,0,1,13.8-13.805,13.821,13.821,0,0,1,13.8,13.805A13.821,13.821,0,0,1,2779.927-418.805Z" transform="translate(-56.937 -33.074)" fill="#fff"/>
    <path id="Path_100730" data-name="Path 100730" d="M2768.586-432.611a13.822,13.822,0,0,1,12.573-13.747c-.406-.036-.816-.058-1.232-.058a13.82,13.82,0,0,0-13.8,13.805,13.82,13.82,0,0,0,13.8,13.8c.416,0,.826-.022,1.232-.058A13.821,13.821,0,0,1,2768.586-432.611Z" transform="translate(-56.937 -33.074)" fill="#d9eafc"/>
    <circle id="Ellipse_4116" data-name="Ellipse 4116" cx="9.281" cy="9.281" r="9.281" transform="translate(2713.71 -474.965)" fill="#b7092b"/>
    <path id="Path_100731" data-name="Path 100731" d="M2799.112-409.263a4.166,4.166,0,0,1-4.162-4.161,4.167,4.167,0,0,1,4.162-4.162,4.166,4.166,0,0,1,4.162,4.162A4.166,4.166,0,0,1,2799.112-409.263Z" transform="translate(-76.122 -52.26)" fill="#fff"/>
    <path id="Path_100732" data-name="Path 100732" d="M2797.58-413.424a4.168,4.168,0,0,1,2.846-3.948,4.141,4.141,0,0,0-1.315-.214,4.167,4.167,0,0,0-4.162,4.162,4.166,4.166,0,0,0,4.162,4.161,4.13,4.13,0,0,0,1.315-.214A4.168,4.168,0,0,1,2797.58-413.424Z" transform="translate(-76.122 -52.26)" fill="#d9eafc"/>
    <path id="Path_100733" data-name="Path 100733" d="M2788.752-278.7v3.394a1.665,1.665,0,0,0,1.66,1.66h9.15a1.665,1.665,0,0,0,1.66-1.66V-278.7Z" transform="translate(-71.997 -144.692)" fill="#aec1ed"/>
    <path id="Path_100734" data-name="Path 100734" d="M2792.046-275.3V-278.7h-3.294v3.394a1.665,1.665,0,0,0,1.66,1.66h3.294A1.665,1.665,0,0,1,2792.046-275.3Z" transform="translate(-71.997 -144.692)" fill="#d9eafc"/>
    <path id="Path_100735" data-name="Path 100735" d="M2795.3-310.8a.832.832,0,0,1-.83.83h-22.782a.832.832,0,0,1-.83-.83v-14.309a.832.832,0,0,1,.83-.83h22.782a.832.832,0,0,1,.83.83Z" transform="translate(-60.087 -113.251)" fill="#aec1ed"/>
    <path id="Path_100736" data-name="Path 100736" d="M2774.15-310.8v-14.309a.832.832,0,0,1,.83-.83h-3.295a.832.832,0,0,0-.83.83V-310.8a.832.832,0,0,0,.83.83h3.295A.832.832,0,0,1,2774.15-310.8Z" transform="translate(-60.087 -113.251)" fill="#d9eafc"/>
    <g id="Group_53859" data-name="Group 53859" transform="translate(2701.881 -466.712)">
      <path id="Path_100737" data-name="Path 100737" d="M2792.5-311.26h-25.092a1.245,1.245,0,0,1-1.245-1.245,1.245,1.245,0,0,1,1.245-1.245H2792.5a1.245,1.245,0,0,1,1.245,1.245A1.245,1.245,0,0,1,2792.5-311.26Z" transform="translate(-2758.844 345.348)" fill="#7e8bab"/>
      <path id="Path_100738" data-name="Path 100738" d="M2792.5-295.347h-25.092a1.245,1.245,0,0,1-1.245-1.245,1.245,1.245,0,0,1,1.245-1.245H2792.5a1.245,1.245,0,0,1,1.245,1.245A1.245,1.245,0,0,1,2792.5-295.347Z" transform="translate(-2758.844 334.758)" fill="#7e8bab"/>
      <path id="Path_100739" data-name="Path 100739" d="M2765.393-408.217h-21.11l.817.88a.546.546,0,0,1,0,.73l-.817.88h21.11a1.245,1.245,0,0,0,1.245-1.245A1.245,1.245,0,0,0,2765.393-408.217Z" transform="translate(-2744.283 408.217)" fill="#7e8bab"/>
    </g>
    <path id="Path_100740" data-name="Path 100740" d="M2713.434-408.747c-.274,0-.341-.16-.149-.355l3.528-3.587a.51.51,0,0,0,0-.71l-3.528-3.587c-.192-.2-.125-.355.149-.355h6.982a1.31,1.31,0,0,1,.837.365l3.311,3.567a.547.547,0,0,1,0,.73l-3.311,3.567a1.308,1.308,0,0,1-.837.365Z" transform="translate(-21.7 -52.423)" fill="#fe3745"/>
    <path id="Path_100741" data-name="Path 100741" d="M2716.247-409.1l3.528-3.587a.51.51,0,0,0,0-.71l-3.528-3.587c-.192-.2-.125-.355.149-.355h-2.962c-.274,0-.341.16-.149.355l3.528,3.587a.51.51,0,0,1,0,.71l-3.528,3.587c-.192.2-.125.355.149.355h2.962C2716.122-408.746,2716.055-408.905,2716.247-409.1Z" transform="translate(-21.7 -52.424)" fill="#b7092b"/>
  </g>
</svg>
