<svg xmlns="http://www.w3.org/2000/svg" width="87" height="87" viewBox="0 0 87 87">
  <g id="t5-i8" transform="translate(-2082 452)">
    <circle id="Ellipse_4130" data-name="Ellipse 4130" cx="43.5" cy="43.5" r="43.5" transform="translate(2082 -452)" fill="#c7f9cc"/>
    <g id="Group_53890" data-name="Group 53890" transform="translate(2092.296 -441.704)">
      <path id="Path_100786" data-name="Path 100786" d="M2135.145-432a32.106,32.106,0,0,1,23.6,9.665,31.912,31.912,0,0,1,9.665,23.539,31.625,31.625,0,0,1-9.487,23.361,32.778,32.778,0,0,1-23.776,9.842,32.14,32.14,0,0,1-23.361-9.783A31.954,31.954,0,0,1,2102-398.8a32.475,32.475,0,0,1,9.784-23.539A31.825,31.825,0,0,1,2135.145-432Zm.118,5.989a25.752,25.752,0,0,0-19.151,8,26.518,26.518,0,0,0-8.123,19.211,25.967,25.967,0,0,0,8.064,19.093,26.228,26.228,0,0,0,19.211,8.064,26.652,26.652,0,0,0,19.329-8.123,25.41,25.41,0,0,0,7.827-19.033,25.92,25.92,0,0,0-7.946-19.211A25.947,25.947,0,0,0,2135.263-426.01Zm-14.823,22.531a14.831,14.831,0,0,1,4.921-9.457,14.491,14.491,0,0,1,9.665-3.35q7.826,0,12.451,5.04t4.625,12.926a17.765,17.765,0,0,1-4.8,12.718,16.378,16.378,0,0,1-12.452,5.069,14.781,14.781,0,0,1-9.724-3.38,14.363,14.363,0,0,1-4.921-9.605h8.361q.3,6.048,7.293,6.048a6.587,6.587,0,0,0,5.632-3.024,13.716,13.716,0,0,0,2.135-8.064q0-5.276-1.957-8.034a6.484,6.484,0,0,0-5.633-2.758q-6.641,0-7.471,5.87h2.431l-6.582,6.582-6.581-6.582Z" transform="translate(-2102 431.999)" fill="#263b4d"/>
    </g>
  </g>
</svg>
