<svg xmlns="http://www.w3.org/2000/svg" width="86" height="86" viewBox="0 0 86 86">
  <g id="t5-i6" transform="translate(-1893 637)">
    <circle id="Ellipse_4129" data-name="Ellipse 4129" cx="43" cy="43" r="43" transform="translate(1893 -637)" fill="#c7f9cc"/>
    <g id="Group_53888" data-name="Group 53888" transform="translate(1903.177 -626.822)">
      <path id="Path_100785" data-name="Path 100785" d="M1945.764-617a31.737,31.737,0,0,1,23.327,9.554,31.545,31.545,0,0,1,9.554,23.268,31.261,31.261,0,0,1-9.378,23.093,32.4,32.4,0,0,1-23.5,9.729,31.771,31.771,0,0,1-23.093-9.67A31.586,31.586,0,0,1,1913-584.177a32.1,32.1,0,0,1,9.671-23.268A31.46,31.46,0,0,1,1945.764-617Zm.117,5.92a25.456,25.456,0,0,0-18.931,7.913,26.214,26.214,0,0,0-8.03,18.99,25.669,25.669,0,0,0,7.971,18.873,25.927,25.927,0,0,0,18.99,7.971,26.345,26.345,0,0,0,19.107-8.03,25.118,25.118,0,0,0,7.737-18.814,25.622,25.622,0,0,0-7.854-18.99A25.649,25.649,0,0,0,1945.881-611.079Zm12.367,19.165v5.627h-23.855v-5.627Zm0,10.55v5.627h-23.855v-5.627Z" transform="translate(-1913 616.999)" fill="#263b4d"/>
    </g>
  </g>
</svg>
