<svg xmlns="http://www.w3.org/2000/svg" width="87" height="87" viewBox="0 0 87 87">
  <g id="t5-i7" transform="translate(-2078 636.667)">
    <circle id="Ellipse_4132" data-name="Ellipse 4132" cx="43.5" cy="43.5" r="43.5" transform="translate(2078 -636.666)" fill="#c7f9cc"/>
    <g id="Group_53894" data-name="Group 53894" transform="translate(2088.335 -626.665)">
      <path id="Path_100788" data-name="Path 100788" d="M2131.272-617a32.2,32.2,0,0,1,23.689,9.642,32.1,32.1,0,0,1,9.7,23.689q0,14.049-9.523,23.392a32.935,32.935,0,0,1-23.868,9.94,32.036,32.036,0,0,1-23.451-9.881A32.006,32.006,0,0,1,2098-583.669a32.667,32.667,0,0,1,9.821-23.689A31.92,31.92,0,0,1,2131.272-617ZM2105.5-592.657a26.206,26.206,0,0,0-1.488,8.988,26.2,26.2,0,0,0,8.095,19.166,26.558,26.558,0,0,0,19.285,8.035,26.5,26.5,0,0,0,19.4-8.154,24.447,24.447,0,0,0,4.583-5.833l-12.558-5.6a8.588,8.588,0,0,1-3.184,5.149,10.949,10.949,0,0,1-5.982,2.291v5.119h-3.869v-5.119a15.459,15.459,0,0,1-10.118-3.987l4.583-4.643a10.642,10.642,0,0,0,7.44,3.035,5.392,5.392,0,0,0,2.946-.774,2.8,2.8,0,0,0,1.22-2.56,2.548,2.548,0,0,0-.892-2.023l-3.214-1.369-3.928-1.785-5.3-2.322Zm25.891-18.391a25.854,25.854,0,0,0-19.225,8.035,31.954,31.954,0,0,0-3.691,4.465l12.737,5.714a7.82,7.82,0,0,1,3.155-4.2,10.524,10.524,0,0,1,5.416-1.755v-5.119h3.869v5.119a14.733,14.733,0,0,1,8.333,3.095l-4.345,4.464a9.847,9.847,0,0,0-5.714-1.964,6.235,6.235,0,0,0-2.767.6,2.076,2.076,0,0,0-1.22,2.024,1.421,1.421,0,0,0,.3.834l4.226,1.9,2.917,1.31,5.357,2.381,17.082,7.619a30.86,30.86,0,0,0,.833-7.143,26.093,26.093,0,0,0-7.976-19.344A26.05,26.05,0,0,0,2131.391-611.048Z" transform="translate(-2098 617)" fill="#263b4d"/>
    </g>
  </g>
</svg>
