<svg xmlns="http://www.w3.org/2000/svg" width="250" height="87.5" viewBox="0 0 250 87.5">
  <g id="t5-i12" transform="translate(-1646.535 1247.5)">
    <g id="Group_53950" data-name="Group 53950" transform="translate(1646.535 -1247.5)">
      <path id="Path_100856" data-name="Path 100856" d="M1653.151-1246.976l236.153.42c3.3,0,6.251-.488,6.251,6.584l-.29,77.767H1647.192v-78.055C1647.192-1243.748,1647.529-1246.976,1653.151-1246.976Z" transform="translate(-1646.051 1247.886)" fill="#aab2ab"/>
      <g id="Group_53942" data-name="Group 53942" transform="translate(10.974 8.114)">
        <path id="Path_100857" data-name="Path 100857" d="M1712.048-1212.008a28.407,28.407,0,0,1-28.389,28.421,28.405,28.405,0,0,1-28.422-28.387v-.033a28.4,28.4,0,0,1,28.387-28.42,28.4,28.4,0,0,1,28.424,28.386Z" transform="translate(-1651.101 1244.594)" fill="#fff"/>
        <g id="Group_53941" data-name="Group 53941">
          <path id="Path_100858" data-name="Path 100858" d="M1708.487-1233.374a31.446,31.446,0,0,1,9.449,23.133q0,13.687-9.286,22.892a32.112,32.112,0,0,1-23.293,9.69,31.249,31.249,0,0,1-22.89-9.61,31.351,31.351,0,0,1-9.613-22.972,31.882,31.882,0,0,1,9.613-23.133,30.991,30.991,0,0,1,22.89-9.453A31.441,31.441,0,0,1,1708.487-1233.374Zm-41.78,4.235a26.015,26.015,0,0,0-7.987,18.905,25.616,25.616,0,0,0,7.906,18.744,25.722,25.722,0,0,0,18.827,7.9,26.11,26.11,0,0,0,18.987-7.985,24.884,24.884,0,0,0,7.663-18.662,25.784,25.784,0,0,0-7.786-18.945,25.692,25.692,0,0,0-18.864-7.782A25.231,25.231,0,0,0,1666.708-1229.139Zm14.014,15.728a3.909,3.909,0,0,0-3.655-2.66q-4.31,0-4.308,5.8t4.308,5.8a4.173,4.173,0,0,0,4.063-2.825l3.981,2.117a9.216,9.216,0,0,1-8.539,5.06,9.412,9.412,0,0,1-7.036-2.691,10.138,10.138,0,0,1-2.643-7.425,10,10,0,0,1,2.724-7.384,9.207,9.207,0,0,1,6.791-2.731q6.018,0,8.622,4.74Zm18.73,0q-1.222-2.662-3.582-2.66-4.394,0-4.4,5.8t4.4,5.8a4.035,4.035,0,0,0,3.988-2.825l4.07,2.117a9.2,9.2,0,0,1-8.526,5.06,9.391,9.391,0,0,1-7.023-2.691,10.167,10.167,0,0,1-2.639-7.425,10.1,10.1,0,0,1,2.681-7.384,9.146,9.146,0,0,1,6.82-2.731q6.006,0,8.605,4.74Z" transform="translate(-1652.855 1242.827)"/>
        </g>
      </g>
      <g id="Group_53944" data-name="Group 53944" transform="translate(107.815 6.973)">
        <path id="Path_100859" data-name="Path 100859" d="M1732.044-1242.173a22.37,22.37,0,0,1,22.373,22.371,22.37,22.37,0,0,1-22.373,22.371,22.371,22.371,0,0,1-22.373-22.371A22.371,22.371,0,0,1,1732.044-1242.173Z" transform="translate(-1707.86 1244.449)" fill="#fff"/>
        <g id="Group_53943" data-name="Group 53943" transform="translate(17.657 8.555)">
          <path id="Path_100860" data-name="Path 100860" d="M1731.8-1232.357a1.561,1.561,0,0,0-1.561-1.559h-9.881a1.561,1.561,0,0,0-1.561,1.559v9.88h2.756v11.7h7.49v-11.7h2.758v-9.88Z" transform="translate(-1718.797 1241.974)"/>
          <path id="Path_100861" data-name="Path 100861" d="M1723.976-1238.557a3.377,3.377,0,0,1,3.377,3.379,3.376,3.376,0,0,1-3.377,3.377,3.378,3.378,0,0,1-3.381-3.377A3.379,3.379,0,0,1,1723.976-1238.557Z" transform="translate(-1717.473 1238.557)"/>
        </g>
        <path id="Path_100862" data-name="Path 100862" d="M1732.755-1243.484a23.022,23.022,0,0,0-16.992,7,23.618,23.618,0,0,0-7.135,17.15,23.227,23.227,0,0,0,7.135,17.03,23.216,23.216,0,0,0,16.992,7.126,23.844,23.844,0,0,0,17.3-7.188,22.9,22.9,0,0,0,6.895-16.968,23.3,23.3,0,0,0-7.015-17.15A23.362,23.362,0,0,0,1732.755-1243.484Zm.061,4.346a18.925,18.925,0,0,1,13.969,5.8,18.942,18.942,0,0,1,5.808,14.01,18.422,18.422,0,0,1-5.685,13.828,19.393,19.393,0,0,1-14.092,5.919,19.088,19.088,0,0,1-13.967-5.857,18.967,18.967,0,0,1-5.867-13.891,19.266,19.266,0,0,1,5.926-14.01A18.734,18.734,0,0,1,1732.815-1239.138Z" transform="translate(-1708.628 1243.484)"/>
      </g>
      <path id="Path_100863" data-name="Path 100863" d="M1891.855-1247.5H1651.216a4.688,4.688,0,0,0-4.681,4.681v81.761a1.057,1.057,0,0,0,1.058,1.057h247.883a1.057,1.057,0,0,0,1.059-1.057v-81.761A4.687,4.687,0,0,0,1891.855-1247.5Zm-240.639,2.115h240.639a2.567,2.567,0,0,1,2.563,2.566v56.678H1722.425a37,37,0,0,1-32.388,19.136,36.979,36.979,0,0,1-32.386-19.136h-9v-56.678A2.569,2.569,0,0,1,1651.216-1245.385Z" transform="translate(-1646.535 1247.5)"/>
      <g id="Group_53945" data-name="Group 53945" transform="translate(118.488 68.224)">
        <path id="Path_100864" data-name="Path 100864" d="M1721.28-1208.208a8.6,8.6,0,0,1,1.8.174,3.881,3.881,0,0,1,1.393.569,2.65,2.65,0,0,1,.9,1.052,3.707,3.707,0,0,1,.319,1.623,3,3,0,0,1-.476,1.738,3.415,3.415,0,0,1-1.4,1.139,3.307,3.307,0,0,1,1.912,1.285,3.828,3.828,0,0,1,.63,2.214,3.764,3.764,0,0,1-.406,1.806,3.546,3.546,0,0,1-1.094,1.247,4.832,4.832,0,0,1-1.568.716,7.1,7.1,0,0,1-1.812.233h-6.7v-13.8Zm-.387,5.579a2.192,2.192,0,0,0,1.335-.385,1.45,1.45,0,0,0,.523-1.252,1.626,1.626,0,0,0-.174-.792,1.276,1.276,0,0,0-.465-.479,1.963,1.963,0,0,0-.667-.243,4.439,4.439,0,0,0-.783-.066h-2.844v3.218Zm.177,5.855a4.025,4.025,0,0,0,.852-.086,2.142,2.142,0,0,0,.715-.288,1.466,1.466,0,0,0,.5-.552,1.857,1.857,0,0,0,.184-.889,1.776,1.776,0,0,0-.6-1.514,2.568,2.568,0,0,0-1.587-.453h-3.311v3.783Z" transform="translate(-1714.775 1208.208)" fill="#fff"/>
        <path id="Path_100865" data-name="Path 100865" d="M1721.753-1208.208h3.4l3.231,5.446,3.21-5.446h3.381l-5.119,8.5v5.294h-3.044v-5.371Z" transform="translate(-1709.636 1208.208)" fill="#fff"/>
      </g>
      <g id="Group_53946" data-name="Group 53946" transform="translate(176.009 68.224)">
        <path id="Path_100866" data-name="Path 100866" d="M1750.922-1208.208l5.762,9.253h.032v-9.253h2.848v13.794h-3.035l-5.741-9.237h-.038v9.237H1747.9v-13.794Z" transform="translate(-1747.903 1208.208)" fill="#fff"/>
        <path id="Path_100867" data-name="Path 100867" d="M1762.108-1208.208a7.126,7.126,0,0,1,2.488.424,5.43,5.43,0,0,1,1.993,1.276,5.9,5.9,0,0,1,1.314,2.125,8.548,8.548,0,0,1,.474,3,9.507,9.507,0,0,1-.386,2.782,6.149,6.149,0,0,1-1.17,2.2,5.507,5.507,0,0,1-1.957,1.458,6.579,6.579,0,0,1-2.757.531h-5.959v-13.8Zm-.212,11.239a3.891,3.891,0,0,0,1.276-.212,2.831,2.831,0,0,0,1.1-.7,3.566,3.566,0,0,0,.773-1.285,5.686,5.686,0,0,0,.29-1.931,8.043,8.043,0,0,0-.2-1.882,3.792,3.792,0,0,0-.668-1.438,2.943,2.943,0,0,0-1.226-.915,4.924,4.924,0,0,0-1.884-.318h-2.167v8.683Z" transform="translate(-1741.83 1208.208)" fill="#fff"/>
      </g>
      <g id="Group_53949" data-name="Group 53949" transform="translate(167.005 7.053)">
        <path id="Path_100868" data-name="Path 100868" d="M1788.215-1220.169a22.055,22.055,0,0,1-22.038,22.067,22.055,22.055,0,0,1-22.067-22.036v-.031a22.053,22.053,0,0,1,22.038-22.065,22.048,22.048,0,0,1,22.067,22.034Z" transform="translate(-1741.691 1244.324)" fill="#fff"/>
        <g id="Group_53948" data-name="Group 53948">
          <path id="Path_100869" data-name="Path 100869" d="M1766.844-1243.438a23.03,23.03,0,0,0-16.994,7,23.627,23.627,0,0,0-7.133,17.153,23.229,23.229,0,0,0,7.133,17.032,23.216,23.216,0,0,0,16.994,7.126,23.869,23.869,0,0,0,17.3-7.188,22.922,22.922,0,0,0,6.894-16.969,23.314,23.314,0,0,0-7.017-17.153A23.37,23.37,0,0,0,1766.844-1243.438Zm.061,4.346a18.919,18.919,0,0,1,13.969,5.8,18.934,18.934,0,0,1,5.8,14.009,18.421,18.421,0,0,1-5.685,13.828,19.394,19.394,0,0,1-14.088,5.919,19.083,19.083,0,0,1-13.971-5.86,18.96,18.96,0,0,1-5.865-13.887,19.262,19.262,0,0,1,5.926-14.009A18.723,18.723,0,0,1,1766.9-1239.092Z" transform="translate(-1742.717 1243.438)"/>
          <g id="Group_53947" data-name="Group 53947" transform="translate(15.722 18.431)">
            <path id="Path_100870" data-name="Path 100870" d="M1769.335-1232.823h-17.563v4.159h17.563Zm0,7.763h-17.563v4.159h17.563Z" transform="translate(-1751.772 1232.823)"/>
          </g>
        </g>
      </g>
    </g>
  </g>
</svg>
