<svg xmlns="http://www.w3.org/2000/svg" width="250" height="87.5" viewBox="0 0 250 87.5">
  <g id="t5-i10" transform="translate(-1648.546 1115.403)">
    <g id="Group_53929" data-name="Group 53929" transform="translate(1648.546 -1115.403)">
      <path id="Path_100827" data-name="Path 100827" d="M1655.161-1114.876l236.156.42c3.3,0,6.249-.49,6.249,6.583l-.288,77.771H1649.2v-78.06C1649.2-1111.65,1649.54-1114.876,1655.161-1114.876Z" transform="translate(-1648.062 1115.791)" fill="#aab2ab"/>
      <g id="Group_53923" data-name="Group 53923" transform="translate(10.974 8.119)">
        <path id="Path_100828" data-name="Path 100828" d="M1714.061-1079.907a28.4,28.4,0,0,1-28.39,28.419,28.406,28.406,0,0,1-28.424-28.384v-.035a28.407,28.407,0,0,1,28.39-28.422,28.406,28.406,0,0,1,28.424,28.387Z" transform="translate(-1653.113 1112.493)" fill="#fff"/>
        <g id="Group_53922" data-name="Group 53922">
          <path id="Path_100829" data-name="Path 100829" d="M1710.5-1101.278a31.467,31.467,0,0,1,9.449,23.137,30.941,30.941,0,0,1-9.286,22.892,32.112,32.112,0,0,1-23.295,9.694,31.246,31.246,0,0,1-22.89-9.614,31.353,31.353,0,0,1-9.611-22.972,31.9,31.9,0,0,1,9.611-23.137,31,31,0,0,1,22.89-9.449A31.46,31.46,0,0,1,1710.5-1101.278Zm-41.78,4.239a26.012,26.012,0,0,0-7.989,18.905,25.608,25.608,0,0,0,7.907,18.742,25.706,25.706,0,0,0,18.826,7.9,26.107,26.107,0,0,0,18.989-7.985,24.885,24.885,0,0,0,7.663-18.661,25.79,25.79,0,0,0-7.786-18.945,25.69,25.69,0,0,0-18.865-7.782A25.223,25.223,0,0,0,1668.718-1097.039Zm14.014,15.728a3.915,3.915,0,0,0-3.657-2.662q-4.308,0-4.308,5.8t4.308,5.8a4.172,4.172,0,0,0,4.063-2.827l3.981,2.118a9.212,9.212,0,0,1-8.54,5.058,9.406,9.406,0,0,1-7.034-2.691,10.13,10.13,0,0,1-2.645-7.423,9.995,9.995,0,0,1,2.724-7.383,9.2,9.2,0,0,1,6.792-2.733q6.019,0,8.623,4.739Zm18.73,0q-1.222-2.662-3.584-2.662-4.394,0-4.395,5.8t4.395,5.8a4.037,4.037,0,0,0,3.99-2.827l4.07,2.118a9.2,9.2,0,0,1-8.527,5.058,9.39,9.39,0,0,1-7.024-2.691,10.157,10.157,0,0,1-2.637-7.423,10.088,10.088,0,0,1,2.681-7.383,9.133,9.133,0,0,1,6.819-2.733q6.008,0,8.605,4.739Z" transform="translate(-1654.866 1110.727)"/>
        </g>
      </g>
      <path id="Path_100830" data-name="Path 100830" d="M1893.866-1115.4h-240.64a4.686,4.686,0,0,0-4.681,4.68v81.765a1.056,1.056,0,0,0,1.056,1.056h247.886a1.057,1.057,0,0,0,1.058-1.056v-81.765A4.685,4.685,0,0,0,1893.866-1115.4Zm-240.64,2.113h240.64a2.567,2.567,0,0,1,2.564,2.566v56.685H1724.437a37,37,0,0,1-32.388,19.138,36.98,36.98,0,0,1-32.388-19.138h-9v-56.685A2.569,2.569,0,0,1,1653.227-1113.29Z" transform="translate(-1648.546 1115.403)"/>
      <g id="Group_53924" data-name="Group 53924" transform="translate(118.489 68.223)">
        <path id="Path_100831" data-name="Path 100831" d="M1723.29-1076.112a8.7,8.7,0,0,1,1.8.174,3.857,3.857,0,0,1,1.394.571,2.657,2.657,0,0,1,.9,1.052,3.7,3.7,0,0,1,.319,1.624,3,3,0,0,1-.475,1.735,3.406,3.406,0,0,1-1.405,1.142,3.319,3.319,0,0,1,1.914,1.285,3.825,3.825,0,0,1,.63,2.214,3.8,3.8,0,0,1-.406,1.808,3.524,3.524,0,0,1-1.1,1.245,4.816,4.816,0,0,1-1.566.715,7.123,7.123,0,0,1-1.813.233h-6.7v-13.8Zm-.387,5.581a2.209,2.209,0,0,0,1.335-.385,1.449,1.449,0,0,0,.521-1.252,1.634,1.634,0,0,0-.172-.792,1.3,1.3,0,0,0-.466-.481,1.959,1.959,0,0,0-.668-.243,4.427,4.427,0,0,0-.783-.064h-2.844v3.218Zm.177,5.855a4.005,4.005,0,0,0,.853-.087,2.141,2.141,0,0,0,.715-.29,1.479,1.479,0,0,0,.5-.551,1.887,1.887,0,0,0,.182-.889,1.782,1.782,0,0,0-.6-1.516,2.569,2.569,0,0,0-1.585-.453h-3.313v3.785Z" transform="translate(-1716.786 1076.112)" fill="#fff"/>
        <path id="Path_100832" data-name="Path 100832" d="M1723.764-1076.112h3.4l3.231,5.448,3.21-5.448h3.382l-5.119,8.5v5.294h-3.044v-5.371Z" transform="translate(-1711.648 1076.112)" fill="#fff"/>
      </g>
      <g id="Group_53925" data-name="Group 53925" transform="translate(177.051 67.884)">
        <path id="Path_100833" data-name="Path 100833" d="M1753.532-1076.112l5.766,9.255h.032v-9.255h2.844v13.8h-3.033l-5.743-9.237h-.037v9.237h-2.848v-13.8Z" transform="translate(-1750.513 1076.451)" fill="#fff"/>
        <path id="Path_100834" data-name="Path 100834" d="M1767.875-1072.291a2.976,2.976,0,0,0-.679-.766,3.108,3.108,0,0,0-.917-.512,3.134,3.134,0,0,0-1.07-.184,3.527,3.527,0,0,0-1.741.4,3.257,3.257,0,0,0-1.16,1.059,4.738,4.738,0,0,0-.649,1.517,7.523,7.523,0,0,0-.2,1.759,6.991,6.991,0,0,0,.2,1.688,4.574,4.574,0,0,0,.649,1.478,3.294,3.294,0,0,0,1.16,1.054,3.545,3.545,0,0,0,1.741.4,2.807,2.807,0,0,0,2.172-.851,3.933,3.933,0,0,0,.957-2.242h2.938a7.064,7.064,0,0,1-.6,2.339,5.644,5.644,0,0,1-1.276,1.781,5.4,5.4,0,0,1-1.856,1.123,6.73,6.73,0,0,1-2.335.389,7.1,7.1,0,0,1-2.854-.552,6.15,6.15,0,0,1-2.139-1.518,6.664,6.664,0,0,1-1.333-2.271,8.333,8.333,0,0,1-.467-2.815,8.613,8.613,0,0,1,.467-2.868,6.84,6.84,0,0,1,1.333-2.313,6.083,6.083,0,0,1,2.139-1.545,6.953,6.953,0,0,1,2.854-.561,6.942,6.942,0,0,1,2.151.328,5.863,5.863,0,0,1,1.818.958,5.2,5.2,0,0,1,1.325,1.558,5.6,5.6,0,0,1,.656,2.127h-2.938A2.459,2.459,0,0,0,1767.875-1072.291Z" transform="translate(-1744.694 1076.307)" fill="#fff"/>
      </g>
      <g id="Group_53926" data-name="Group 53926" transform="translate(167.002 7.053)">
        <path id="Path_100835" data-name="Path 100835" d="M1788.191-1088.624a20.752,20.752,0,0,1-20.737,20.765,20.748,20.748,0,0,1-20.764-20.734v-.031a20.748,20.748,0,0,1,20.734-20.763,20.75,20.75,0,0,1,20.767,20.734Z" transform="translate(-1743.28 1112.78)" fill="#fff"/>
        <path id="Path_100836" data-name="Path 100836" d="M1768.856-1111.341a23.375,23.375,0,0,1,17.172,7,23.315,23.315,0,0,1,7.015,17.154,22.928,22.928,0,0,1-6.893,16.973,23.865,23.865,0,0,1-17.294,7.183,23.212,23.212,0,0,1-17-7.127,23.219,23.219,0,0,1-7.135-17.029,23.635,23.635,0,0,1,7.135-17.154A23.042,23.042,0,0,1,1768.856-1111.341Zm-18.7,17.666a19.326,19.326,0,0,0-1.078,6.49,18.971,18.971,0,0,0,5.864,13.891,19.09,19.09,0,0,0,13.971,5.856,19.382,19.382,0,0,0,14.088-5.919,18.533,18.533,0,0,0,3.3-4.225l-9.1-4.054a7.006,7.006,0,0,1-6.649,5.376v3.725h-2.777v-3.725a11.471,11.471,0,0,1-7.331-2.893l3.323-3.355a7.283,7.283,0,0,0,5.395,2.184c1.417,0,2.99-.554,2.99-2.4a1.8,1.8,0,0,0-.653-1.45l-2.3-1.026-2.869-1.276-3.825-1.7Zm18.756-13.318a18.727,18.727,0,0,0-13.91,5.8,22.448,22.448,0,0,0-2.691,3.263l9.237,4.113c.833-2.562,3.268-4.118,6.221-4.29v-3.725h2.777v3.725a10.406,10.406,0,0,1,6.068,2.216l-3.174,3.262a7.339,7.339,0,0,0-4.127-1.415c-1.2,0-2.9.368-2.9,1.875a.976.976,0,0,0,.217.613l3.091,1.375,2.091.932c1.335.6,2.613,1.164,3.879,1.728l12.379,5.51a21.044,21.044,0,0,0,.615-5.171,18.949,18.949,0,0,0-5.8-14.011A18.931,18.931,0,0,0,1768.917-1106.993Z" transform="translate(-1744.726 1111.341)"/>
      </g>
      <g id="Group_53928" data-name="Group 53928" transform="translate(107.815 7.053)">
        <path id="Path_100837" data-name="Path 100837" d="M1734.055-1110.029a22.371,22.371,0,0,1,22.373,22.371,22.371,22.371,0,0,1-22.373,22.371,22.372,22.372,0,0,1-22.373-22.371A22.372,22.372,0,0,1,1734.055-1110.029Z" transform="translate(-1709.871 1112.307)" fill="#fff"/>
        <g id="Group_53927" data-name="Group 53927" transform="translate(17.657 8.555)">
          <path id="Path_100838" data-name="Path 100838" d="M1733.81-1100.209a1.562,1.562,0,0,0-1.559-1.563h-9.881a1.563,1.563,0,0,0-1.561,1.563v9.88h2.754v11.7h7.492v-11.7h2.756v-9.88Z" transform="translate(-1720.808 1109.832)"/>
          <path id="Path_100839" data-name="Path 100839" d="M1725.988-1106.414a3.379,3.379,0,0,1,3.377,3.381,3.378,3.378,0,0,1-3.377,3.379,3.38,3.38,0,0,1-3.383-3.379A3.382,3.382,0,0,1,1725.988-1106.414Z" transform="translate(-1719.484 1106.414)"/>
        </g>
        <path id="Path_100840" data-name="Path 100840" d="M1734.766-1111.341a23.021,23.021,0,0,0-16.992,7.006,23.622,23.622,0,0,0-7.135,17.15,23.228,23.228,0,0,0,7.135,17.032,23.218,23.218,0,0,0,16.992,7.124,23.861,23.861,0,0,0,17.3-7.185,22.91,22.91,0,0,0,6.9-16.971,23.306,23.306,0,0,0-7.015-17.15A23.364,23.364,0,0,0,1734.766-1111.341Zm.061,4.347a18.93,18.93,0,0,1,13.969,5.8,18.945,18.945,0,0,1,5.806,14.011,18.427,18.427,0,0,1-5.685,13.83,19.39,19.39,0,0,1-14.091,5.917,19.085,19.085,0,0,1-13.967-5.856,18.96,18.96,0,0,1-5.867-13.891,19.273,19.273,0,0,1,5.926-14.011A18.736,18.736,0,0,1,1734.826-1106.993Z" transform="translate(-1710.639 1111.341)"/>
      </g>
    </g>
  </g>
</svg>
