<svg xmlns="http://www.w3.org/2000/svg" width="87" height="87" viewBox="0 0 87 87">
  <g id="t5-i5" transform="translate(-1893 452)">
    <circle id="Ellipse_4131" data-name="Ellipse 4131" cx="43.5" cy="43.5" r="43.5" transform="translate(1893 -452)" fill="#c7f9cc"/>
    <g id="Group_53892" data-name="Group 53892" transform="translate(1903.296 -441.704)">
      <path id="Path_100787" data-name="Path 100787" d="M1946.145-432a32.078,32.078,0,0,1,23.6,9.606,32.107,32.107,0,0,1,9.665,23.6q0,13.994-9.487,23.3a32.806,32.806,0,0,1-23.776,9.9,32.139,32.139,0,0,1-23.361-9.784A31.952,31.952,0,0,1,1913-398.8a32.542,32.542,0,0,1,9.784-23.6A31.8,31.8,0,0,1,1946.145-432Zm.118,5.989a25.851,25.851,0,0,0-19.151,7.945,26.714,26.714,0,0,0-8.123,19.27,26.091,26.091,0,0,0,8.064,19.092,26.228,26.228,0,0,0,19.211,8.064,26.655,26.655,0,0,0,19.329-8.123,25.289,25.289,0,0,0,7.827-19.033,26.242,26.242,0,0,0-7.946-19.27A26.173,26.173,0,0,0,1946.263-426.011Zm8.894,18.974v13.578h-3.795v16.127h-10.317V-393.46h-3.795v-13.578a2.061,2.061,0,0,1,.623-1.512,2.06,2.06,0,0,1,1.512-.622h13.637a2.092,2.092,0,0,1,1.483.622A2.016,2.016,0,0,1,1955.157-407.037Zm-13.578-8.538q0-4.683,4.624-4.684t4.625,4.684q0,4.625-4.625,4.625T1941.579-415.576Z" transform="translate(-1913 432)" fill="#263b4d"/>
    </g>
  </g>
</svg>
