<svg xmlns="http://www.w3.org/2000/svg" width="120" height="120.003" viewBox="0 0 120 120.003"><defs><style>.a{fill:#c7f9cc;}.b{fill:#bae1e5;}.c{fill:#ffc94a;}.d{fill:#ffbb1a;}.e{fill:#fff;}.f{fill:#80ed99;}.g{fill:#57cc99;}.h{fill:#f6f6f6;}.i{fill:#e8e8e8;}</style></defs><g transform="translate(1.758 1.758)"><path class="a" d="M121.587,104.512a14.6,14.6,0,0,0-10.268-10.268,31.54,31.54,0,0,0-3.731-.71C94.905,91.75,65.742,91.75,65.742,91.75s-36.462,0-45.577,2.4A14.888,14.888,0,0,0,9.9,104.512c-2.4,9.115-2.4,28.02-2.4,28.02s0,19,2.4,28.018a14.6,14.6,0,0,0,10.266,10.268c9.211,2.5,45.577,2.5,45.577,2.5s29.367,0,41.977-1.734a32.044,32.044,0,0,0,3.6-.666,14.6,14.6,0,0,0,10.268-10.266c2.4-9.117,2.4-28.023,2.4-28.023s.1-19-2.4-28.114Z" transform="translate(-7.5 -72.003)"/><path class="b" d="M448.54,110.338a14.6,14.6,0,0,0-10.268-10.268,31.543,31.543,0,0,0-3.731-.71,15.041,15.041,0,0,1,9.239,10.146c2.569,9.387,2.47,28.951,2.47,28.951s0,19.465-2.47,28.852a15.044,15.044,0,0,1-9.108,10.1,32.053,32.053,0,0,0,3.6-.666,14.6,14.6,0,0,0,10.268-10.266c2.4-9.117,2.4-28.023,2.4-28.023S451.033,119.454,448.54,110.338Z" transform="translate(-334.453 -77.83)"/><path class="c" d="M137.772,129.337l-.007-.028A7.548,7.548,0,0,0,132.459,124l-.028-.007a34.839,34.839,0,0,0-4.884-.795c-9.49-1.043-27.6-1.451-38.836-1.451-13.718,0-37.69.586-43.748,2.156a7.9,7.9,0,0,0-5.3,5.386C37.889,136.057,37.5,150.5,37.5,155.5c0,5.032.391,19.554,2.163,26.211a7.531,7.531,0,0,0,5.3,5.285c6.059,1.643,30.049,2.252,43.748,2.255,11.255,0,29.4-.4,38.911-1.4a36.614,36.614,0,0,0,4.859-.759,7.548,7.548,0,0,0,5.28-5.283c1.772-6.764,2.161-21.209,2.161-26.211v-.035C139.945,150.537,139.6,136.038,137.772,129.337Z" transform="translate(-30.469 -94.972)"/><path class="d" d="M431.919,134.048a7.548,7.548,0,0,0-5.306-5.306l-.028-.007a34.838,34.838,0,0,0-4.884-.795c.016.049.026.073.026.073a.132.132,0,0,1,.028.009,7.717,7.717,0,0,1,5.428,5.428l.007.028c1.875,6.853,2.222,21.685,2.2,26.823v.035c0,5.114-.4,19.89-2.21,26.811a7.765,7.765,0,0,1-5.4,5.438v0a36.614,36.614,0,0,0,4.859-.759,7.548,7.548,0,0,0,5.281-5.283c1.772-6.764,2.161-21.209,2.161-26.211V160.3c.023-5.023-.316-19.522-2.149-26.223l-.007-.028Z" transform="translate(-324.622 -99.711)"/><path class="e" d="M222.377,235.9l22.862-13.168-22.862-13.168Z" transform="translate(-172.016 -162.205)"/><g transform="translate(58.489)"><path class="f" d="M300.289,11.588V36.336a4.087,4.087,0,0,1-4.088,4.088H282.959L278.675,46.6l-4.285-6.176H261.148a4.085,4.085,0,0,1-4.088-4.088V11.588A4.087,4.087,0,0,1,261.148,7.5H296.2a4.088,4.088,0,0,1,4.088,4.088Z" transform="translate(-257.06 -7.5)"/><path class="g" d="M412.835,11.588V36.336a4.087,4.087,0,0,1-4.088,4.088H404.06a4.087,4.087,0,0,0,4.088-4.088V11.588A4.088,4.088,0,0,0,404.06,7.5h4.688a4.088,4.088,0,0,1,4.088,4.088Z" transform="translate(-369.606 -7.5)"/><path class="e" d="M330.111,49.666a4.083,4.083,0,0,0-5.774,0l-.963.963-.963-.963a4.08,4.08,0,1,0-5.77,5.77l6.732,6.732,6.732-6.732a4.082,4.082,0,0,0,0-5.774Z" transform="translate(-301.759 -38.869)"/></g><g transform="translate(20.768 84.122)"><path class="h" d="M137.565,377.435v17.724a3.614,3.614,0,0,1-3.612,3.616H99.724a3.615,3.615,0,0,1-3.614-3.616V366.41l9.748,7.411h28.1A3.613,3.613,0,0,1,137.565,377.435Z" transform="translate(-96.11 -366.41)"/><path class="i" d="M245.869,401.644v17.724a3.614,3.614,0,0,1-3.612,3.616H237.57a3.615,3.615,0,0,0,3.612-3.616V401.644a3.613,3.613,0,0,0-3.612-3.614h4.688A3.613,3.613,0,0,1,245.869,401.644Z" transform="translate(-204.414 -390.619)"/></g></g><g transform="translate(0 0)"><path d="M240.375,218.514a1.758,1.758,0,0,0,0-3.046L217.513,202.3a1.758,1.758,0,0,0-2.635,1.523v26.336a1.758,1.758,0,0,0,2.635,1.523l9.748-5.615a1.758,1.758,0,1,0-1.755-3.046l-7.113,4.1V206.864l17.582,10.127-3.829,2.205a1.758,1.758,0,0,0,1.755,3.046Z" transform="translate(-164.516 -154.704)"/><path d="M15.808,163.763c-.339-.072-.65-.146-.927-.221a12.831,12.831,0,0,1-9.026-9.023c-2.312-8.692-2.34-27.38-2.34-27.568s.027-18.778,2.339-27.563a13.136,13.136,0,0,1,9.018-9.12c4.639-1.221,18.547-2.056,38.157-2.291a1.758,1.758,0,0,0-.021-3.515h-.022C41.3,84.6,20.694,85.1,13.96,86.874a16.721,16.721,0,0,0-11.5,11.611C.028,107.715,0,126.171,0,126.952s.028,19.335,2.46,28.477a16.359,16.359,0,0,0,11.506,11.508c.336.091.71.18,1.112.266a1.758,1.758,0,0,0,.731-3.439Z" transform="translate(0 -64.666)"/><path d="M343.89,113.86a16.387,16.387,0,0,0-6.191-8.968,1.758,1.758,0,1,0-2.064,2.846,12.862,12.862,0,0,1,4.862,7.044c2.4,8.778,2.337,27.454,2.336,27.651S342.8,161.216,340.5,170a12.829,12.829,0,0,1-9.018,9.024c-4.321,1.138-16.436,1.93-34.112,2.232a1.758,1.758,0,0,0,.029,3.516h.031c12.7-.217,29.069-.8,34.956-2.35A16.363,16.363,0,0,0,343.892,170.9c2.428-9.229,2.456-27.687,2.456-28.459s.069-19.346-2.458-28.581Z" transform="translate(-226.349 -80.05)"/><path d="M80.976,116.17a1.758,1.758,0,0,0-1.757-1.737H79.2c-5.04.059-30.516.443-37.177,2.171l-.033.009a9.589,9.589,0,0,0-6.528,6.632,53.053,53.053,0,0,0-1.216,7.211,1.758,1.758,0,1,0,3.494.392,49.721,49.721,0,0,1,1.118-6.7A6.174,6.174,0,0,1,42.92,120c4.884-1.257,22.61-1.892,36.319-2.054A1.757,1.757,0,0,0,80.976,116.17Z" transform="translate(-26.211 -87.612)"/><path d="M297.4,209.838h.032c8.072-.142,27.458-.633,33.152-2.121a9.318,9.318,0,0,0,6.52-6.532c1.82-6.946,2.219-21.6,2.219-26.656V174.5c.025-5.088-.325-19.8-2.211-26.7l-.01-.035a1.758,1.758,0,1,0-3.39.93l.008.033c1.782,6.513,2.111,20.8,2.086,25.759v.036c0,4.933-.378,19.178-2.1,25.749a5.776,5.776,0,0,1-4.029,4.043c-3.684.963-15.761,1.712-32.308,2a1.758,1.758,0,0,0,.03,3.515Z" transform="translate(-226.35 -112.146)"/><path d="M32.2,210.044A1.756,1.756,0,0,0,30.35,211.7c-.259,4.547-.351,8.87-.351,11.4,0,5.1.4,19.824,2.223,26.669a9.308,9.308,0,0,0,5.521,6.187,1.758,1.758,0,1,0,1.3-3.265,5.773,5.773,0,0,1-3.427-3.831c-1.723-6.475-2.1-20.791-2.1-25.76,0-2.48.091-6.725.345-11.2A1.758,1.758,0,0,0,32.2,210.044Z" transform="translate(-22.968 -160.811)"/><path d="M255.4,36.44h12.323l3.76,5.419a1.758,1.758,0,0,0,2.889,0l3.76-5.419h12.324a5.852,5.852,0,0,0,5.845-5.845V5.845A5.852,5.852,0,0,0,290.456,0H268.165a1.758,1.758,0,1,0,0,3.516h22.292a2.332,2.332,0,0,1,2.33,2.33V30.595a2.332,2.332,0,0,1-2.33,2.33H277.213a1.758,1.758,0,0,0-1.444.756l-2.84,4.093-2.84-4.093a1.758,1.758,0,0,0-1.444-.756H255.4a2.332,2.332,0,0,1-2.33-2.33V5.845a2.332,2.332,0,0,1,2.33-2.33h4.667a1.758,1.758,0,1,0,0-3.516H255.4a5.852,5.852,0,0,0-5.845,5.845V30.595A5.852,5.852,0,0,0,255.4,36.44Z" transform="translate(-191.067 0)"/><path d="M316.4,57.682a1.758,1.758,0,0,0,2.486,0l6.732-6.732a5.847,5.847,0,0,0,0-8.26h0a5.848,5.848,0,0,0-7.98-.258,5.837,5.837,0,0,0-7.975,8.518Zm-4.25-12.506a2.327,2.327,0,0,1,3.287,0l.963.963a1.758,1.758,0,0,0,2.486,0l.963-.963a2.322,2.322,0,1,1,3.283,3.283l-5.489,5.489-5.489-5.489a2.327,2.327,0,0,1,0-3.287Z" transform="translate(-235.78 -31.378)"/><path d="M128.212,366.319h-27.5l-9.276-7.052a1.758,1.758,0,0,0-2.822,1.4v28.75a5.379,5.379,0,0,0,5.372,5.374h3.8a1.758,1.758,0,1,0,0-3.516h-3.8a1.859,1.859,0,0,1-1.856-1.858v-25.2l6.926,5.265a1.758,1.758,0,0,0,1.064.358h28.095a1.859,1.859,0,0,1,1.856,1.858v17.723a1.859,1.859,0,0,1-1.856,1.858H105.874a1.758,1.758,0,1,0,0,3.516h22.338a5.379,5.379,0,0,0,5.372-5.374V371.694A5.379,5.379,0,0,0,128.212,366.319Z" transform="translate(-67.844 -274.788)"/><path d="M131.182,464.586h23.425a1.758,1.758,0,1,0,0-3.516H131.182a1.758,1.758,0,1,0,0,3.516Z" transform="translate(-99.09 -353.004)"/><path d="M131.182,430.586h21.083a1.758,1.758,0,1,0,0-3.516H131.182a1.758,1.758,0,1,0,0,3.516Z" transform="translate(-99.09 -326.973)"/></g></svg>