<svg xmlns="http://www.w3.org/2000/svg" width="130" height="130" viewBox="0 0 130 130"><defs><style>.a{fill:#ffc94a;}.b{fill:#22577a;}</style></defs><g transform="translate(-1893 452)"><circle class="a" cx="65" cy="65" r="65" transform="translate(1893 -452)"/><g transform="translate(1908.385 -436.615)"><path class="b" d="M1962.527-432q20.908,0,35.261,14.354,14.44,14.442,14.442,35.262,0,20.911-14.176,34.819-15.064,14.8-35.528,14.8-20.114,0-34.908-14.619a47.743,47.743,0,0,1-14.619-35q0-20.377,14.619-35.262A47.513,47.513,0,0,1,1962.527-432Zm.177,8.948a38.629,38.629,0,0,0-28.617,11.872q-12.141,12.405-12.138,28.795,0,16.48,12.049,28.529a39.191,39.191,0,0,0,28.706,12.05q16.567,0,28.883-12.138,11.7-11.251,11.7-28.441a39.211,39.211,0,0,0-11.873-28.795A39.108,39.108,0,0,0,1962.7-423.052Zm13.289,28.352v20.288h-5.67v24.1h-15.416v-24.1h-5.671V-394.7a3.079,3.079,0,0,1,.931-2.26,3.078,3.078,0,0,1,2.259-.93H1972.8a3.126,3.126,0,0,1,2.215.93A3.013,3.013,0,0,1,1975.993-394.7ZM1955.7-407.458q0-7,6.91-7t6.912,7q0,6.91-6.912,6.911T1955.7-407.458Z" transform="translate(-1913 432)"/></g></g></svg>