<svg xmlns="http://www.w3.org/2000/svg" width="130" height="130" viewBox="0 0 130 130"><defs><style>.a{fill:#ffc94a;}.b{fill:#22577a;}</style></defs><g transform="translate(-2082 452)"><circle class="a" cx="65" cy="65" r="65" transform="translate(2082 -452)"/><g transform="translate(2097.385 -436.615)"><path class="b" d="M2151.527-432q20.818,0,35.261,14.442,14.44,14.353,14.442,35.173t-14.176,34.908q-14.974,14.708-35.527,14.707-20.115,0-34.908-14.618a47.746,47.746,0,0,1-14.62-35q0-20.287,14.62-35.173A47.554,47.554,0,0,1,2151.527-432Zm.177,8.948a38.481,38.481,0,0,0-28.617,11.961q-12.14,12.316-12.138,28.705A38.8,38.8,0,0,0,2123-353.855a39.193,39.193,0,0,0,28.706,12.049q16.567,0,28.883-12.138,11.7-11.34,11.7-28.44a38.73,38.73,0,0,0-11.873-28.705A38.77,38.77,0,0,0,2151.7-423.051Zm-22.15,33.667q1.417-9.125,7.354-14.132a21.653,21.653,0,0,1,14.442-5.005q11.695,0,18.6,7.531t6.912,19.315q0,11.429-7.177,19t-18.606,7.575a22.087,22.087,0,0,1-14.53-5.051q-6.113-5.049-7.354-14.352h12.494q.442,9.037,10.9,9.037a9.843,9.843,0,0,0,8.416-4.518q3.19-4.518,3.19-12.049,0-7.884-2.924-12a9.688,9.688,0,0,0-8.417-4.121q-9.924,0-11.163,8.772h3.632l-9.834,9.835-9.834-9.835Z" transform="translate(-2102 431.999)"/></g></g></svg>