<svg xmlns="http://www.w3.org/2000/svg" width="49.917" height="50" viewBox="0 0 49.917 50"><path d="M49.3,51.56H9.766A2.261,2.261,0,0,1,7.5,49.3V9.766A2.261,2.261,0,0,1,9.766,7.5H49.3A2.261,2.261,0,0,1,51.56,9.766V49.3A2.261,2.261,0,0,1,49.3,51.56Zm0,0" transform="translate(-6.771 -6.772)" fill="#c7f9cc"/><path d="M412.42,9.769V49.3a2.261,2.261,0,0,1-2.262,2.261h-2.74A2.261,2.261,0,0,0,409.68,49.3V9.769a2.261,2.261,0,0,0-2.262-2.261h2.74a2.261,2.261,0,0,1,2.262,2.261Zm0,0" transform="translate(-367.631 -6.775)" fill="#80ed99"/><path d="M51.56,15.219H7.5V9.766A2.261,2.261,0,0,1,9.766,7.5H49.3A2.261,2.261,0,0,1,51.56,9.765Zm0,0" transform="translate(-6.771 -6.771)" fill="#ffc94a"/><path d="M412.42,9.769v5.454h-2.74V9.769a2.261,2.261,0,0,0-2.262-2.261h2.74A2.261,2.261,0,0,1,412.42,9.769Zm0,0" transform="translate(-367.631 -6.775)" fill="#ffbb1a"/><g transform="translate(5.35 12.772)"><path d="M59.323,133.056a2.271,2.271,0,1,1-2.271-2.271A2.271,2.271,0,0,1,59.323,133.056Zm0,0" transform="translate(-54.781 -130.785)" fill="#ffc94a"/><path d="M59.323,239.232a2.271,2.271,0,1,1-2.271-2.271A2.271,2.271,0,0,1,59.323,239.232Zm0,0" transform="translate(-54.781 -226.592)" fill="#ffc94a"/><path d="M59.323,338.185a2.271,2.271,0,1,1-2.271-2.271A2.271,2.271,0,0,1,59.323,338.185Zm0,0" transform="translate(-54.781 -315.882)" fill="#ffc94a"/></g><path d="M353.327,346.048a8.134,8.134,0,1,1-8.134-8.134A8.134,8.134,0,0,1,353.327,346.048Zm0,0" transform="translate(-304.143 -304.915)" fill="#f6f6f6"/><path d="M385.642,348.79a8.134,8.134,0,0,1-12.77,6.683,8.135,8.135,0,0,0,6.818-14.52A8.135,8.135,0,0,1,385.642,348.79Zm0,0" transform="translate(-336.458 -307.657)" fill="#e8e8e8"/><path d="M372.6,377.863l-1.727-1.727a.683.683,0,0,0-.967,0l-4.409,4.409-1.39-1.391a.523.523,0,0,0-.739,0l-1.955,1.955a.522.522,0,0,0,0,.739l3.655,3.548a.684.684,0,0,0,.967,0l6.567-6.567A.683.683,0,0,0,372.6,377.863Zm0,0" transform="translate(-325.974 -339.223)" fill="#80ed99"/><path d="M403.23,391.944l-6.567,6.567a.685.685,0,0,1-.967,0l-.492-.478a.644.644,0,0,0,.088-.074l7.285-7.285a.742.742,0,0,0,.146-.205l.508.508A.685.685,0,0,1,403.23,391.944Zm0,0" transform="translate(-356.608 -352.337)" fill="#57cc99"/><path d="M33.535,33.906a1.418,1.418,0,1,1-1.418-1.418A1.418,1.418,0,0,1,33.535,33.906Zm0,0" transform="translate(-27.701 -29.316)" fill="#80ed99"/><path d="M89.6,33.906a1.418,1.418,0,1,1-1.418-1.418A1.418,1.418,0,0,1,89.6,33.906Zm0,0" transform="translate(-78.292 -29.316)" fill="#80ed99"/><path d="M145.667,33.906a1.418,1.418,0,1,1-1.418-1.418A1.417,1.417,0,0,1,145.667,33.906Zm0,0" transform="translate(-128.883 -29.316)" fill="#80ed99"/><path d="M128.918,146.535h-3.713a.733.733,0,0,0,0,1.466h3.713a.733.733,0,1,0,0-1.466Zm0,0" transform="translate(-112.317 -132.225)" fill="#12263f"/><path d="M191,146.535h-1.759a.733.733,0,0,0,0,1.466H191a.733.733,0,1,0,0-1.466Zm0,0" transform="translate(-170.099 -132.225)" fill="#12263f"/><path d="M156.488,173.756a.733.733,0,0,0,.733.733h2.443a.733.733,0,1,0,0-1.466h-2.443A.733.733,0,0,0,156.488,173.756Zm0,0" transform="translate(-141.206 -156.126)" fill="#12263f"/><path d="M182.507,201.927a.733.733,0,1,0,0-1.466h-1.27a.733.733,0,1,0,0,1.466Zm0,0" transform="translate(-162.876 -180.885)" fill="#12263f"/><path d="M277.726,200.461h-2.443a.733.733,0,1,0,0,1.466h2.443a.733.733,0,0,0,0-1.466Zm0,0" transform="translate(-247.739 -180.885)" fill="#12263f"/><path d="M211.111,173.023h-5.862a.733.733,0,0,0,0,1.466h5.862a.733.733,0,0,0,0-1.466Zm0,0" transform="translate(-184.543 -156.126)" fill="#12263f"/><path d="M219.77,200.461h-3.518a.733.733,0,0,0,0,1.466h3.518a.733.733,0,0,0,0-1.466Zm0,0" transform="translate(-194.472 -180.885)" fill="#12263f"/><path d="M125.206,250.935h2.052a.733.733,0,1,0,0-1.466h-2.052a.733.733,0,1,0,0,1.466Zm0,0" transform="translate(-112.317 -225.107)" fill="#12263f"/><path d="M166.5,250.2a.733.733,0,0,0,.733.733h7.523a.733.733,0,0,0,0-1.466h-7.523A.733.733,0,0,0,166.5,250.2Zm0,0" transform="translate(-150.236 -225.107)" fill="#12263f"/><path d="M156.488,276.694a.733.733,0,0,0,.733.733h7.133a.733.733,0,1,0,0-1.466h-7.133A.733.733,0,0,0,156.488,276.694Zm0,0" transform="translate(-141.206 -249.012)" fill="#12263f"/><path d="M250.539,276.694a.733.733,0,0,0,.733.733h1.368a.733.733,0,1,0,0-1.466h-1.368A.733.733,0,0,0,250.539,276.694Zm0,0" transform="translate(-226.072 -249.012)" fill="#12263f"/><path d="M125.206,349.415h3.713a.733.733,0,0,0,0-1.466h-3.713a.733.733,0,0,0,0,1.466Zm0,0" transform="translate(-112.317 -313.97)" fill="#12263f"/><path d="M189.241,349.415H191a.733.733,0,0,0,0-1.466h-1.759a.733.733,0,0,0,0,1.466Zm0,0" transform="translate(-170.099 -313.97)" fill="#12263f"/><path d="M156.488,375.174a1.246,1.246,0,0,0,.437.832h2.443c.7-.1,1.029-.428,1.029-.832a.733.733,0,0,0-.733-.733h-2.443A.733.733,0,0,0,156.488,375.174Zm0,0" transform="translate(-141.206 -337.875)" fill="#12263f"/><path d="M181.237,403.341h1.27a.733.733,0,0,0,0-1.466h-1.27a.733.733,0,0,0,0,1.466Zm0,0" transform="translate(-162.876 -362.63)" fill="#12263f"/><path d="M275.284,403.341h2.443a.733.733,0,0,0,0-1.466h-2.443a.733.733,0,0,0,0,1.466Zm0,0" transform="translate(-247.739 -362.63)" fill="#12263f"/><path d="M211.844,375.174a.733.733,0,0,0-.733-.733h-5.862a.733.733,0,0,0,0,1.466h5.862A.733.733,0,0,0,211.844,375.174Zm0,0" transform="translate(-184.543 -337.875)" fill="#12263f"/><path d="M216.252,401.875a.733.733,0,1,0,0,1.466h3.518a.733.733,0,1,0,0-1.466Zm0,0" transform="translate(-194.472 -362.629)" fill="#12263f"/><path d="M54.391,116.811a.733.733,0,0,0-1.034-.072L52.1,117.831a3.005,3.005,0,1,0,.915,1.147l1.3-1.134a.733.733,0,0,0,.072-1.034Zm-4.11,4.946a1.538,1.538,0,1,1,0-3.075,1.524,1.524,0,0,1,.666.154l-1.147,1a.733.733,0,1,0,.962,1.106l1.044-.908a1.531,1.531,0,0,1-1.525,1.727Zm0,0" transform="translate(-42.66 -105.176)" fill="#12263f"/><path d="M50.281,227.861a3,3,0,0,0,2.678-4.361l1.36-1.183a.733.733,0,1,0-.962-1.106L52,222.394a3,3,0,1,0-1.715,5.467Zm0-4.541a1.525,1.525,0,0,1,.537.1L49.8,224.3a.733.733,0,1,0,.962,1.106l1.02-.887a1.538,1.538,0,1,1-1.5-1.2Zm0,0" transform="translate(-42.66 -199.446)" fill="#12263f"/><path d="M50.281,327.282a3,3,0,0,0,2.7-4.326l1.342-1.167a.733.733,0,1,0-.962-1.106l-1.328,1.155a3,3,0,1,0-1.748,5.444Zm0-4.541a1.531,1.531,0,0,1,.579.114l-1.06.921a.733.733,0,1,0,.962,1.106l1.028-.894a1.519,1.519,0,0,1,.029.291,1.538,1.538,0,1,1-1.538-1.538Zm0,0" transform="translate(-42.66 -289.204)" fill="#12263f"/><path d="M25.346,24.984a2.151,2.151,0,1,0,2.15,2.151A2.153,2.153,0,0,0,25.346,24.984Zm0,2.835a.685.685,0,1,1,.685-.685A.686.686,0,0,1,25.346,27.82Zm0,0" transform="translate(-20.93 -22.545)" fill="#12263f"/><path d="M81.412,24.984a2.151,2.151,0,1,0,2.15,2.151A2.153,2.153,0,0,0,81.412,24.984Zm0,2.835a.685.685,0,1,1,.685-.685A.686.686,0,0,1,81.412,27.82Zm0,0" transform="translate(-71.521 -22.545)" fill="#12263f"/><path d="M137.479,24.984a2.151,2.151,0,1,0,2.15,2.151A2.153,2.153,0,0,0,137.479,24.984Zm0,2.835a.685.685,0,1,1,.685-.685A.686.686,0,0,1,137.479,27.82Zm0,0" transform="translate(-122.113 -22.545)" fill="#12263f"/><path d="M45.522,33.48V2.994A3,3,0,0,0,42.528,0H2.995A3,3,0,0,0,0,2.994V16.488a.733.733,0,1,0,1.466,0V9.181h42.59V32.792a8.825,8.825,0,0,0-3.006-.525,8.933,8.933,0,0,0-1.669.157.733.733,0,0,0,.274,1.44,7.4,7.4,0,1,1-3.611,1.818.733.733,0,0,0-.991-1.079,8.866,8.866,0,0,0-2.375,9.454H2.995a1.531,1.531,0,0,1-1.529-1.529V20.975a.733.733,0,0,0-1.466,0V42.527a3,3,0,0,0,2.995,2.994H33.348A8.865,8.865,0,1,0,45.522,33.48ZM44.056,7.715H1.466V2.994A1.531,1.531,0,0,1,2.995,1.466H42.528a1.531,1.531,0,0,1,1.529,1.529Zm0,0" transform="translate(0)" fill="#12263f"/><path d="M353.75,374.714a1.247,1.247,0,0,0,.368.888l.008.007,3.652,3.545a1.418,1.418,0,0,0,2,0l6.567-6.567a1.419,1.419,0,0,0,0-2l-1.727-1.727a1.419,1.419,0,0,0-2,0l-3.891,3.891-.872-.872a1.256,1.256,0,0,0-1.776,0l-1.955,1.955A1.247,1.247,0,0,0,353.75,374.714Zm3.211-1.658L358.2,374.3a.733.733,0,0,0,1.036,0l4.374-4.375,1.658,1.658-6.5,6.5-3.469-3.368Zm0,0" transform="translate(-319.204 -332.457)" fill="#12263f"/></svg>