<svg xmlns="http://www.w3.org/2000/svg" width="50" height="50" viewBox="0 0 50 50"><g transform="translate(0.001)"><path d="M53.543,56.034H9.991A2.491,2.491,0,0,1,7.5,53.543V9.991A2.491,2.491,0,0,1,9.991,7.5H53.543a2.491,2.491,0,0,1,2.491,2.491V53.543A2.491,2.491,0,0,1,53.543,56.034Zm0,0" transform="translate(-6.768 -6.767)" fill="#c7f9cc"/><path d="M457.755,9.995V53.547a2.491,2.491,0,0,1-2.492,2.491H452.7a2.491,2.491,0,0,0,2.491-2.491V9.995A2.491,2.491,0,0,0,452.7,7.5h2.568a2.491,2.491,0,0,1,2.492,2.491Zm0,0" transform="translate(-408.488 -6.771)" fill="#80ed99"/><path d="M56.035,16H7.5V9.991A2.491,2.491,0,0,1,9.991,7.5H53.543a2.491,2.491,0,0,1,2.491,2.491Zm0,0" transform="translate(-6.768 -6.768)" fill="#ffc94a"/><path d="M457.755,9.995V16h-2.568V9.995A2.491,2.491,0,0,0,452.7,7.5h2.568A2.491,2.491,0,0,1,457.755,9.995Zm0,0" transform="translate(-408.488 -6.771)" fill="#ffbb1a"/><path d="M43.092,37.711a1.417,1.417,0,1,1-1.417-1.418A1.417,1.417,0,0,1,43.092,37.711Zm0,0" transform="translate(-36.327 -32.749)" fill="#80ed99"/><path d="M99.139,37.711a1.417,1.417,0,1,1-1.417-1.418A1.417,1.417,0,0,1,99.139,37.711Zm0,0" transform="translate(-86.9 -32.749)" fill="#80ed99"/><path d="M155.186,37.711a1.417,1.417,0,1,1-1.417-1.418A1.417,1.417,0,0,1,155.186,37.711Zm0,0" transform="translate(-137.474 -32.749)" fill="#80ed99"/><path d="M72.657,354.826H58.487a1.583,1.583,0,0,1-1.583-1.583v-7.187a1.583,1.583,0,0,1,1.583-1.583h14.17a1.583,1.583,0,0,1,1.583,1.583v7.187A1.583,1.583,0,0,1,72.657,354.826Zm0,0" transform="translate(-51.347 -310.833)" fill="#f6f6f6"/><path d="M292.2,354.826h-14.17a1.583,1.583,0,0,1-1.584-1.583v-7.187a1.583,1.583,0,0,1,1.584-1.583H292.2a1.583,1.583,0,0,1,1.583,1.583v7.187A1.583,1.583,0,0,1,292.2,354.826Zm0,0" transform="translate(-249.446 -310.833)" fill="#f6f6f6"/><path d="M200.853,346.057v7.187a1.583,1.583,0,0,1-1.583,1.583h-2.051a1.583,1.583,0,0,0,1.583-1.583v-7.187a1.583,1.583,0,0,0-1.583-1.583h2.051A1.583,1.583,0,0,1,200.853,346.057Zm0,0" transform="translate(-177.96 -310.833)" fill="#e8e8e8"/><path d="M420.392,346.057v7.187a1.584,1.584,0,0,1-1.583,1.583h-2.051a1.584,1.584,0,0,0,1.583-1.583v-7.187a1.584,1.584,0,0,0-1.583-1.583h2.051A1.584,1.584,0,0,1,420.392,346.057Zm0,0" transform="translate(-376.06 -310.833)" fill="#e8e8e8"/><path d="M94.1,155.289H58.486a1.584,1.584,0,0,1-1.584-1.584V140.295a1.584,1.584,0,0,1,1.584-1.583H94.1a1.583,1.583,0,0,1,1.583,1.583v13.411A1.584,1.584,0,0,1,94.1,155.289Zm0,0" transform="translate(-51.346 -125.165)" fill="#fff"/><path d="M420.392,140.292V153.7a1.584,1.584,0,0,1-1.583,1.583h-2.051a1.584,1.584,0,0,0,1.583-1.583V140.292a1.584,1.584,0,0,0-1.583-1.584h2.051A1.584,1.584,0,0,1,420.392,140.292Zm0,0" transform="translate(-376.06 -125.162)" fill="#c7f9cc"/><path d="M100.984,206.889l10.753-10.748a.471.471,0,0,1,.685.021l9.519,10.728Zm0,0" transform="translate(-91.123 -176.862)" fill="#80ed99"/><path d="M236.18,226.434l8.637-8.633a.47.47,0,0,1,.685.021l7.642,8.612Zm0,0" transform="translate(-213.116 -196.407)" fill="#80ed99"/><path d="M363.806,167.775a2.057,2.057,0,1,1-2.057-2.057A2.057,2.057,0,0,1,363.806,167.775Zm0,0" transform="translate(-324.566 -149.535)" fill="#ffc94a"/><path d="M369.7,167.78a2.057,2.057,0,0,1-3.476,1.487,2.055,2.055,0,0,0,1.372-3.543c.016,0,.031,0,.047,0A2.056,2.056,0,0,1,369.7,167.78Zm0,0" transform="translate(-330.459 -149.539)" fill="#ffb509"/><path d="M34.9,28.793a2.15,2.15,0,1,0,2.15,2.15A2.152,2.152,0,0,0,34.9,28.793Zm0,2.834a.685.685,0,1,1,.685-.684A.685.685,0,0,1,34.9,31.627Zm0,0" transform="translate(-29.556 -25.981)" fill="#12263f"/><path d="M90.95,28.793a2.15,2.15,0,1,0,2.15,2.15A2.152,2.152,0,0,0,90.95,28.793Zm0,2.834a.685.685,0,1,1,.685-.684A.685.685,0,0,1,90.95,31.627Zm0,0" transform="translate(-80.129 -25.981)" fill="#12263f"/><path d="M147,28.793a2.15,2.15,0,1,0,2.15,2.15A2.152,2.152,0,0,0,147,28.793Zm0,2.834a.685.685,0,1,1,.685-.684A.685.685,0,0,1,147,31.627Zm0,0" transform="translate(-130.703 -25.981)" fill="#12263f"/><path d="M46.775,0H3.223A3.227,3.227,0,0,0,0,3.224V46.776A3.228,3.228,0,0,0,3.223,50H46.775A3.228,3.228,0,0,0,50,46.776v-11.1a.733.733,0,1,0-1.465,0v11.1a1.761,1.761,0,0,1-1.759,1.759H3.223a1.761,1.761,0,0,1-1.759-1.759V9.965h47.07V31.154a.733.733,0,0,0,1.465,0V3.224A3.227,3.227,0,0,0,46.775,0Zm1.759,8.5H1.465V3.224A1.761,1.761,0,0,1,3.223,1.465H46.775a1.761,1.761,0,0,1,1.759,1.759Zm0,0" fill="#12263f"/><path d="M89.644,133.524a2.319,2.319,0,0,0-2.316-2.317H51.719a2.319,2.319,0,0,0-2.316,2.317v4.3a.733.733,0,0,0,1.465,0v-4.3a.852.852,0,0,1,.851-.851H87.328a.852.852,0,0,1,.851.851v13.41a.852.852,0,0,1-.851.851H85.022l-7.509-8.463a1.2,1.2,0,0,0-1.751-.052l-3.978,3.976-5.358-6.038a1.2,1.2,0,0,0-1.751-.053L54.04,147.785H51.719a.852.852,0,0,1-.851-.851V142.45a.733.733,0,1,0-1.465,0v4.485a2.319,2.319,0,0,0,2.316,2.316H87.328a2.319,2.319,0,0,0,2.316-2.316ZM56.112,147.785l9.4-9.4,7.129,8.034a.733.733,0,1,0,1.1-.972l-.981-1.105L76.6,140.5l6.462,7.283Zm0,0" transform="translate(-44.579 -118.394)" fill="#12263f"/><path d="M51.718,336.973a2.318,2.318,0,0,0-2.316,2.316v7.187a2.318,2.318,0,0,0,2.316,2.316h14.17a2.319,2.319,0,0,0,2.316-2.316v-7.187a2.319,2.319,0,0,0-2.316-2.316Zm15.021,2.316v7.187a.852.852,0,0,1-.851.851H51.718a.851.851,0,0,1-.851-.851v-7.187a.852.852,0,0,1,.851-.851h14.17A.852.852,0,0,1,66.739,339.289Zm0,0" transform="translate(-44.579 -304.065)" fill="#12263f"/><path d="M271.257,336.973a2.318,2.318,0,0,0-2.316,2.316v7.187a2.318,2.318,0,0,0,2.316,2.316h14.17a2.319,2.319,0,0,0,2.316-2.316v-7.187a2.319,2.319,0,0,0-2.316-2.316Zm15.021,2.316v7.187a.852.852,0,0,1-.851.851h-14.17a.851.851,0,0,1-.851-.851v-7.187a.852.852,0,0,1,.851-.851h14.17A.852.852,0,0,1,286.278,339.289Zm0,0" transform="translate(-242.678 -304.065)" fill="#12263f"/><path d="M80.889,366.734H82.87a.733.733,0,0,0,0-1.465H80.889a.733.733,0,1,0,0,1.465Zm0,0" transform="translate(-72.329 -329.598)" fill="#12263f"/><path d="M80.889,392.153h1.03a.732.732,0,0,0,0-1.465h-1.03a.732.732,0,1,0,0,1.465Zm0,0" transform="translate(-72.329 -352.535)" fill="#12263f"/><path d="M171.64,390.688H168.9a.732.732,0,1,0,0,1.465h2.735a.732.732,0,0,0,0-1.465Zm0,0" transform="translate(-151.75 -352.535)" fill="#12263f"/><path d="M126.9,366.734h6.642a.733.733,0,0,0,0-1.465H126.9a.733.733,0,0,0,0,1.465Zm0,0" transform="translate(-113.848 -329.598)" fill="#12263f"/><path d="M176.608,414.691h-1.981a.733.733,0,0,0,0,1.465h1.981a.733.733,0,0,0,0-1.465Zm0,0" transform="translate(-156.913 -374.194)" fill="#12263f"/><path d="M87.531,414.691H80.889a.733.733,0,1,0,0,1.465h6.642a.733.733,0,0,0,0-1.465Zm0,0" transform="translate(-72.329 -374.194)" fill="#12263f"/><path d="M114.693,392.153h2.853a.732.732,0,0,0,0-1.465h-2.853a.732.732,0,1,0,0,1.465Zm0,0" transform="translate(-102.833 -352.535)" fill="#12263f"/><path d="M300.428,366.734h1.981a.733.733,0,0,0,0-1.465h-1.981a.733.733,0,1,0,0,1.465Zm0,0" transform="translate(-270.429 -329.598)" fill="#12263f"/><path d="M300.428,392.153h1.03a.732.732,0,0,0,0-1.465h-1.03a.732.732,0,1,0,0,1.465Zm0,0" transform="translate(-270.429 -352.535)" fill="#12263f"/><path d="M391.179,390.688h-2.735a.732.732,0,1,0,0,1.465h2.735a.732.732,0,0,0,0-1.465Zm0,0" transform="translate(-349.849 -352.535)" fill="#12263f"/><path d="M346.436,366.734h6.642a.733.733,0,0,0,0-1.465h-6.642a.733.733,0,1,0,0,1.465Zm0,0" transform="translate(-311.944 -329.598)" fill="#12263f"/><path d="M396.147,414.691h-1.981a.733.733,0,0,0,0,1.465h1.981a.733.733,0,0,0,0-1.465Zm0,0" transform="translate(-355.013 -374.194)" fill="#12263f"/><path d="M307.07,414.691h-6.642a.733.733,0,1,0,0,1.465h6.642a.733.733,0,0,0,0-1.465Zm0,0" transform="translate(-270.429 -374.194)" fill="#12263f"/><path d="M334.232,392.153h2.853a.732.732,0,0,0,0-1.465h-2.853a.732.732,0,1,0,0,1.465Zm0,0" transform="translate(-300.932 -352.535)" fill="#12263f"/><path d="M357.771,161a2.79,2.79,0,1,0-2.79,2.79A2.793,2.793,0,0,0,357.771,161Zm-4.114,0a1.325,1.325,0,1,1,1.324,1.325A1.326,1.326,0,0,1,353.656,161Zm0,0" transform="translate(-317.798 -142.764)" fill="#12263f"/></g></svg>