<svg xmlns="http://www.w3.org/2000/svg" width="50" height="50" viewBox="0 0 50 50"><path d="M53.534,56.026H9.98a2.491,2.491,0,0,1-2.491-2.491V9.98A2.491,2.491,0,0,1,9.98,7.489H53.534A2.491,2.491,0,0,1,56.026,9.98V53.535A2.491,2.491,0,0,1,53.534,56.026Zm0,0" transform="translate(-6.757 -6.757)" fill="#c7f9cc"/><path d="M457.764,9.979V53.534a2.492,2.492,0,0,1-2.492,2.492H452.7a2.492,2.492,0,0,0,2.492-2.492V9.979A2.492,2.492,0,0,0,452.7,7.488h2.568a2.492,2.492,0,0,1,2.492,2.491Zm0,0" transform="translate(-408.494 -6.757)" fill="#80ed99"/><path d="M56.026,15.988H7.489V9.98A2.491,2.491,0,0,1,9.98,7.488H53.535A2.492,2.492,0,0,1,56.027,9.98v6.009Zm0,0" transform="translate(-6.758 -6.757)" fill="#ffc94a"/><path d="M457.764,9.979v6.009H455.2V9.979A2.492,2.492,0,0,0,452.7,7.488h2.568A2.492,2.492,0,0,1,457.764,9.979Zm0,0" transform="translate(-408.494 -6.757)" fill="#ffbb1a"/><path d="M43.077,37.7a1.417,1.417,0,1,1-1.417-1.418A1.417,1.417,0,0,1,43.077,37.7Zm0,0" transform="translate(-36.312 -32.738)" fill="#80ed99"/><path d="M99.127,37.7a1.417,1.417,0,1,1-1.417-1.418A1.417,1.417,0,0,1,99.127,37.7Zm0,0" transform="translate(-86.889 -32.738)" fill="#80ed99"/><path d="M155.178,37.7a1.417,1.417,0,1,1-1.417-1.418A1.417,1.417,0,0,1,155.178,37.7Zm0,0" transform="translate(-137.466 -32.738)" fill="#80ed99"/><path d="M254.417,39.211H235a1.465,1.465,0,1,1,0-2.93h19.421a1.465,1.465,0,0,1,0,2.93Zm0,0" transform="translate(-210.725 -32.738)" fill="#fff"/><path d="M427.161,37.75a1.464,1.464,0,0,1-1.464,1.465h-2.349a1.465,1.465,0,0,0,0-2.93H425.7A1.464,1.464,0,0,1,427.161,37.75Zm0,0" transform="translate(-382.005 -32.742)" fill="#f6f6f6"/><path d="M286.1,152.995h-17.56a.781.781,0,0,1-.781-.781V145.6a.781.781,0,0,1,.781-.781H286.1a.781.781,0,0,1,.781.781v6.613A.781.781,0,0,1,286.1,152.995Zm0,0" transform="translate(-241.609 -130.677)" fill="#fff"/><path d="M434.6,145.6v6.613a.781.781,0,0,1-.782.781h-2.354a.781.781,0,0,0,.78-.781V145.6a.781.781,0,0,0-.78-.78h2.354A.781.781,0,0,1,434.6,145.6Zm0,0" transform="translate(-389.326 -130.682)" fill="#c7f9cc"/><path d="M286.672,178.06l5.24-5.238a.586.586,0,0,1,.853.026l4.625,5.212Zm0,0" transform="translate(-258.677 -155.79)" fill="#80ed99"/><path d="M355.816,188.056l4.158-4.156a.586.586,0,0,1,.853.026l3.665,4.131Zm0,0" transform="translate(-321.068 -165.787)" fill="#80ed99"/><path d="M286.1,348.453h-17.56a.781.781,0,0,1-.781-.781V336.281a.781.781,0,0,1,.781-.781H286.1a.781.781,0,0,1,.781.781v11.391A.781.781,0,0,1,286.1,348.453Zm0,0" transform="translate(-241.609 -302.736)" fill="#ffc94a"/><path d="M437.413,336.278v11.39a.781.781,0,0,1-.782.781h-2.049a.781.781,0,0,0,.781-.781v-11.39a.781.781,0,0,0-.781-.782h2.049A.782.782,0,0,1,437.413,336.278Zm0,0" transform="translate(-392.142 -302.733)" fill="#ffbb1a"/><path d="M344.517,375.255l-3.684-2.127a.683.683,0,0,0-1.025.591v4.254a.683.683,0,0,0,1.025.592l3.684-2.127a.683.683,0,0,0,0-1.183Zm0,0" transform="translate(-306.624 -336.606)" fill="#e7e7e7"/><path d="M344.521,394.393l-3.683,2.127a.683.683,0,0,1-1.025-.592v-.553l4.229-2.441.478.276A.683.683,0,0,1,344.521,394.393Zm0,0" transform="translate(-306.628 -354.561)" fill="#cecece"/><path d="M34.906,28.8a2.148,2.148,0,1,0,2.148,2.148A2.151,2.151,0,0,0,34.906,28.8Zm0,2.834a.686.686,0,1,1,.686-.686A.687.687,0,0,1,34.906,31.631Zm0,0" transform="translate(-29.559 -25.985)" fill="#12263f"/><path d="M90.957,28.8a2.148,2.148,0,1,0,2.148,2.148A2.151,2.151,0,0,0,90.957,28.8Zm0,2.834a.686.686,0,1,1,.686-.686A.687.687,0,0,1,90.957,31.631Zm0,0" transform="translate(-80.136 -25.985)" fill="#12263f"/><path d="M147.007,28.8a2.148,2.148,0,1,0,2.148,2.148A2.151,2.151,0,0,0,147.007,28.8Zm0,2.834a.686.686,0,1,1,.686-.686A.687.687,0,0,1,147.007,31.631Zm0,0" transform="translate(-130.713 -25.985)" fill="#12263f"/><path d="M60.366,137.332H48a.731.731,0,1,0,0,1.462H60.366a.731.731,0,1,0,0-1.462Zm0,0" transform="translate(-42.654 -123.921)" fill="#12263f"/><path d="M60.366,172.52H48a.731.731,0,1,0,0,1.462H60.366a.731.731,0,1,0,0-1.462Zm0,0" transform="translate(-42.654 -155.672)" fill="#12263f"/><path d="M60.366,207.7H48a.731.731,0,1,0,0,1.462H60.366a.731.731,0,1,0,0-1.462Zm0,0" transform="translate(-42.654 -187.42)" fill="#12263f"/><path d="M60.366,242.891H48a.731.731,0,1,0,0,1.462H60.366a.731.731,0,1,0,0-1.462Zm0,0" transform="translate(-42.654 -219.171)" fill="#12263f"/><path d="M60.366,278.078H48a.731.731,0,1,0,0,1.462H60.366a.731.731,0,1,0,0-1.462Zm0,0" transform="translate(-42.654 -250.922)" fill="#12263f"/><path d="M60.366,313.266H48a.731.731,0,1,0,0,1.462H60.366a.731.731,0,1,0,0-1.462Zm0,0" transform="translate(-42.654 -282.674)" fill="#12263f"/><path d="M60.366,348.449H48a.731.731,0,1,0,0,1.462H60.366a.731.731,0,1,0,0-1.462Zm0,0" transform="translate(-42.654 -314.421)" fill="#12263f"/><path d="M60.366,383.637H48a.731.731,0,1,0,0,1.462H60.366a.731.731,0,1,0,0-1.462Zm0,0" transform="translate(-42.654 -346.172)" fill="#12263f"/><path d="M60.366,418.824H48a.731.731,0,1,0,0,1.462H60.366a.731.731,0,1,0,0-1.462Zm0,0" transform="translate(-42.654 -377.923)" fill="#12263f"/><path d="M60.366,454.008H48a.731.731,0,1,0,0,1.462H60.366a.731.731,0,1,0,0-1.462Zm0,0" transform="translate(-42.654 -409.671)" fill="#12263f"/><path d="M217.438,125.872v33.307a.731.731,0,0,0,1.462,0V125.872a.731.731,0,1,0-1.462,0Zm0,0" transform="translate(-196.204 -112.92)" fill="#12263f"/><path d="M46.777,0H3.223A3.226,3.226,0,0,0,0,3.223V46.777A3.226,3.226,0,0,0,3.223,50H25a.731.731,0,1,0,0-1.462H3.223a1.762,1.762,0,0,1-1.76-1.76V9.962H48.538V46.777a1.762,1.762,0,0,1-1.76,1.76H29.512a.731.731,0,0,0,0,1.462H46.777A3.226,3.226,0,0,0,50,46.777V3.223A3.226,3.226,0,0,0,46.777,0Zm1.76,8.5H1.462V3.223a1.763,1.763,0,0,1,1.76-1.76H46.777a1.762,1.762,0,0,1,1.76,1.76Zm0,0" fill="#12263f"/><path d="M247.66,28.8H243.4a.731.731,0,0,0,0,1.462h4.264a.734.734,0,0,1,0,1.468H228.239a.734.734,0,1,1,0-1.468h10.608a.731.731,0,0,0,0-1.462H228.239a2.2,2.2,0,1,0,0,4.392H247.66a2.2,2.2,0,0,0,0-4.392Zm0,0" transform="translate(-203.968 -25.985)" fill="#12263f"/><path d="M280.857,138.844a1.514,1.514,0,0,0-1.512-1.512h-17.56a1.514,1.514,0,0,0-1.512,1.512v6.613a1.514,1.514,0,0,0,1.512,1.512h17.56a1.514,1.514,0,0,0,1.512-1.512Zm-16.288,6.663,3.93-3.929,3.067,3.457a.731.731,0,0,0,1.14-.913l1.463-1.462,2.526,2.847Zm14.826-.05a.05.05,0,0,1-.05.05h-.695l-3.49-3.933a1.317,1.317,0,0,0-1.916-.057l-1.508,1.507-2.246-2.531a1.318,1.318,0,0,0-1.917-.057l-5.074,5.072h-.715a.05.05,0,0,1-.05-.05v-6.613a.05.05,0,0,1,.05-.05h17.56a.05.05,0,0,1,.05.05Zm0,0" transform="translate(-234.856 -123.92)" fill="#12263f"/><path d="M261,264.931h3.505a.731.731,0,0,0,0-1.462H261a.731.731,0,0,0,0,1.462Zm0,0" transform="translate(-234.856 -237.739)" fill="#12263f"/><path d="M329.071,264.2a.731.731,0,0,0-.731-.731h-6.355a.731.731,0,1,0,0,1.462h6.355A.731.731,0,0,0,329.071,264.2Zm0,0" transform="translate(-289.882 -237.739)" fill="#12263f"/><path d="M421.079,263.469h-3.867a.731.731,0,1,0,0,1.462h3.867a.731.731,0,0,0,0-1.462Zm0,0" transform="translate(-375.808 -237.74)" fill="#12263f"/><path d="M261,293.408h4.441a.731.731,0,0,0,0-1.462H261a.731.731,0,0,0,0,1.462Zm0,0" transform="translate(-234.856 -263.435)" fill="#12263f"/><path d="M335.539,293.408h7.526a.731.731,0,0,0,0-1.462h-7.526a.731.731,0,0,0,0,1.462Zm0,0" transform="translate(-302.112 -263.435)" fill="#12263f"/><path d="M440.856,291.941h-1.727a.731.731,0,0,0,0,1.462h1.727a.731.731,0,0,0,0-1.462Zm0,0" transform="translate(-395.586 -263.431)" fill="#12263f"/><path d="M280.857,340.918V329.528a1.514,1.514,0,0,0-1.512-1.512h-17.56a1.514,1.514,0,0,0-1.512,1.512v11.391a1.514,1.514,0,0,0,1.512,1.512h17.56A1.514,1.514,0,0,0,280.857,340.918Zm-19.122,0V329.528a.05.05,0,0,1,.05-.05h17.56a.05.05,0,0,1,.05.05v11.391a.05.05,0,0,1-.05.05h-17.56A.05.05,0,0,1,261.735,340.918Zm0,0" transform="translate(-234.856 -295.983)" fill="#12263f"/><path d="M338.126,367.855l-3.683-2.127a1.414,1.414,0,0,0-2.122,1.225v4.254a1.411,1.411,0,0,0,2.122,1.225l3.683-2.127a1.414,1.414,0,0,0,0-2.449Zm-4.343,3.268v-4.087l3.54,2.044Zm0,0" transform="translate(-299.867 -329.84)" fill="#12263f"/></svg>