<svg xmlns="http://www.w3.org/2000/svg" width="483.929" height="380.901" viewBox="0 0 483.929 380.901"><g transform="translate(9930.21 10217.901)"><rect width="413.937" height="172.259" transform="translate(-9907.258 -10217.901)" fill="#f0f0f0"/><rect width="397.741" height="156.063" transform="translate(-9899.154 -10209.809)" fill="#fafafa"/><path d="M3467.924-1425.663l40.8-156.063H3538.8L3498-1425.663Z" transform="translate(-13314.717 -8628.073)" fill="#fff"/><path d="M3503.144-1425.663l40.81-156.063h13.453l-40.8,156.063Z" transform="translate(-13312.921 -8628.073)" fill="#fff"/><path d="M3565.793-1425.663l40.8-156.063h30.08l-40.8,156.063Z" transform="translate(-13309.726 -8628.073)" fill="#fff"/><path d="M3637.964-1425.663l40.8-156.063h13.453l-40.8,156.063Z" transform="translate(-13306.045 -8628.073)" fill="#fff"/><rect width="2.06" height="156.063" transform="translate(-9794.664 -10209.799)" fill="#e0e0e0"/><rect width="2.06" height="156.063" transform="translate(-9899.154 -10209.809)" fill="#e0e0e0"/><rect width="8.103" height="156.063" transform="translate(-9802.768 -10209.799)" fill="#f0f0f0"/><rect width="2.06" height="156.063" transform="translate(-9694.241 -10209.809)" fill="#e0e0e0"/><rect width="8.103" height="156.063" transform="translate(-9702.344 -10209.809)" fill="#f0f0f0"/><rect width="2.06" height="156.063" transform="translate(-9593.775 -10209.809)" fill="#e0e0e0"/><rect width="8.103" height="156.063" transform="translate(-9601.879 -10209.799)" fill="#f0f0f0"/><rect width="2.06" height="172.259" transform="translate(-9493.311 -10217.901)" fill="#e0e0e0"/><rect width="9.133" height="0.263" transform="translate(-9625.521 -9881.952)" fill="#ebebeb"/><rect width="20.169" height="0.263" transform="translate(-9547.684 -9894.563)" fill="#ebebeb"/><rect width="45.393" height="0.263" transform="translate(-9909.364 -9892.798)" fill="#ebebeb"/><rect width="6.653" height="0.263" transform="translate(-9854.607 -9892.798)" fill="#ebebeb"/><rect width="98.458" height="0.263" transform="translate(-9826.325 -9888.362)" fill="#ebebeb"/><path d="M3736.381-1318.873c.126-12.749-1.177-26.611.8-38.425a12.1,12.1,0,0,0-.347-6.085c-4.372,2.827-4.866,14.073-5,18.634-3.647-10.962-5.875-23.259-4.687-34.494.431-4.078.431-10.121-3.857-6.432-3.8,3.269-2.4,14.651-1.524,18.455-2.88-8.923-6.443-17.867-9.333-26.538-3.426-10.31-12.265-7.788-5.644,2.186,4.331,6.516,10.71,21.745,10.71,21.745s-20.305-24.625-23.826-20.6c-2.6,2.964,20.452,19.6,24.057,25.529-3.1-3.153-13.757-10.6-15.765-6.222-1.051,2.4,2.953,3.353,5.5,4.6,6.8,3.363,12.391,7.967,15.828,14.977,1.629,3.72,2.375,5.612,3.731,9.459-2.1-3.311-10.941-10.752-12.307-7.7-.925,2.1,4.477,6.106,7.125,8.755,6.516,6.527,9.879,13.663,11.7,22.607Z" transform="translate(-13303.214 -8618.824)" fill="#e6e6e6"/><path d="M3739.819-1321.479c2.9-10.51,7.241-21.5,8.408-31.635a10.25,10.25,0,0,1,1.723-4.908c2.911,3.353.652,12.612-.3,16.427,5.57-8.1,10.3-17.636,11.981-27.116.609-3.437,2.039-8.408,4.677-4.362,2.333,3.584-1.5,12.612-3.153,15.471,4.467-6.621,9.459-13.074,13.894-19.517,5.255-7.63,11.876-3.479,4.1,3.153-5.076,4.309-13.894,15.271-13.894,15.271s22.439-15.355,24.362-11.235c1.429,3.037-21.356,11.214-25.708,15.219,3.269-1.818,13.758-5.434,14.336-1.387.315,2.218-3.216,2.1-5.581,2.47-6.369,1.146-12.034,3.594-16.49,8.524a84.526,84.526,0,0,0-5.255,6.853c2.533-2.207,11.488-6.222,11.887-3.405.273,1.913-5.108,3.941-7.893,5.486-6.874,3.8-11.3,8.818-14.914,15.765Z" transform="translate(-13300.85 -8617.848)" fill="#e0e0e0"/><path d="M3738.753-1315.81c-2.386-15.891-3.153-33.4-7.672-47.8a15.141,15.141,0,0,1-.62-7.662c5.938,2.775,8.5,16.711,9.459,22.376,2.649-14.3,3.29-30.027-.136-43.848-1.251-5.013-2.3-12.549,3.689-8.7,5.318,3.426,5.528,17.867,5.108,22.775,2.1-11.645,4.939-23.374,7.031-34.736,2.491-13.463,13.957-11.845,7.42,1.745-4.267,8.881-9.585,29-9.585,29s21.072-34.252,26.149-29.848c3.752,3.258-22.071,28.009-25.571,36.039,3.321-4.414,15.313-15.618,18.529-10.51,1.765,2.806-3.1,4.7-6.054,6.705-7.9,5.371-14.083,12.087-17.142,21.43-1.4,4.919-2.007,7.41-3.027,12.433,2.1-4.5,11.792-15.313,14.02-11.74,1.5,2.407-4.53,8.408-7.357,12.16-6.989,9.281-9.953,18.708-10.657,30.237Z" transform="translate(-13301.339 -8619.964)" fill="#f5f5f5"/><path d="M3717.419-1329.758l4.887,37.437a7.576,7.576,0,0,0,7.5,6.59h22.3a7.578,7.578,0,0,0,7.5-6.59l4.887-37.437Z" transform="translate(-13301.992 -8615.223)" fill="#ebebeb"/><rect width="88.074" height="117.197" transform="translate(-9882.848 -10018.15)" fill="#f0f0f0"/><rect width="16.806" height="117.197" transform="translate(-9794.774 -10018.15)" fill="#e6e6e6"/><rect width="76.187" height="28.461" transform="translate(-9876.679 -10009.459)" fill="#fafafa"/><path d="M3466.279-1391.108l.336,3.794a2.427,2.427,0,0,0,2.417,2.218h14.378a2.429,2.429,0,0,0,2.406-2.218l.336-3.794Z" transform="translate(-13314.801 -8618.352)" fill="#ebebeb"/><rect width="76.187" height="28.461" transform="translate(-9876.679 -9977.887)" fill="#fafafa"/><path d="M3466.279-1361.068l.336,3.794a2.416,2.416,0,0,0,2.417,2.207h14.378a2.417,2.417,0,0,0,2.406-2.207l.336-3.794Z" transform="translate(-13314.801 -8616.819)" fill="#ebebeb"/><rect width="76.187" height="28.461" transform="translate(-9876.679 -9946.314)" fill="#fafafa"/><path d="M3466.279-1331l.336,3.794a2.416,2.416,0,0,0,2.417,2.207h14.378a2.417,2.417,0,0,0,2.406-2.207l.336-3.794Z" transform="translate(-13314.801 -8615.285)" fill="#ebebeb"/><g transform="translate(-9930.21 -10217.608)"><g transform="translate(19.615 356.813)"><ellipse cx="203.779" cy="11.897" rx="203.779" ry="11.897" fill="#f5f5f5"/></g><g transform="translate(369.952 75.227)"><path d="M3848.115-1464.543H3740.555l6.415-73.307h107.561Z" transform="translate(-3740.555 1537.849)" fill="#edf9ee"/><rect width="58.387" height="0.576" transform="translate(12.513 60.255)" fill="#e0e0e0"/><path d="M3812.066-1488.65h-58.882v-.318l3.551-40.544h58.9v.317Zm-58.27-.605H3811.5l3.469-39.7h-57.707Z" transform="translate(-3739.911 1538.274)" fill="#e0e0e0"/><path d="M3755.641-1471.926h-1.587a2.261,2.261,0,0,1-2.3-2.217,2.652,2.652,0,0,1,.013-.286l.141-1.588a2.732,2.732,0,0,1,2.673-2.458h1.587a2.259,2.259,0,0,1,2.3,2.217,2.17,2.17,0,0,1-.013.287l-.139,1.587A2.733,2.733,0,0,1,3755.641-1471.926Zm-1.062-5.973a2.142,2.142,0,0,0-2.1,1.927l-.141,1.587a1.729,1.729,0,0,0,.436,1.336,1.7,1.7,0,0,0,1.277.547h1.587a2.149,2.149,0,0,0,2.1-1.927l.132-1.588a1.725,1.725,0,0,0-.435-1.336,1.691,1.691,0,0,0-1.277-.547Z" transform="translate(-3739.984 1540.877)" fill="#e0e0e0"/><path d="M3782.3-1483.576h-29.736l.273-3.152h29.736Zm-29.086-.575h28.578l.176-2h-28.6Z" transform="translate(-3739.942 1540.456)" fill="#e0e0e0"/><path d="M3808.271-1473.7H3796.46l.273-3.152h11.826Zm-11.213-.576h10.689l.177-2h-10.689Z" transform="translate(-3737.704 1540.96)" fill="#e0e0e0"/><path d="M3808.757-1483.576H3805.6l.273-3.152h3.159Zm-2.532-.575h2l.177-2h-2Z" transform="translate(-3737.238 1540.456)" fill="#e0e0e0"/><path d="M3804.613-1483.576h-3.152l.273-3.152h3.159Zm-2.524-.575h2l.17-2h-1.993Z" transform="translate(-3737.448 1540.456)" fill="#e0e0e0"/><path d="M3800.448-1483.576H3797.3l.273-3.152h3.152Zm-2.524-.575h1.993l.178-2H3798.1Z" transform="translate(-3737.661 1540.456)" fill="#e0e0e0"/><path d="M3815.038-1532.285h-44.293l.243-2.79h44.294Zm-43.688-.576h43.156l.148-1.638h-43.172Z" transform="translate(-3739.015 1537.991)" fill="#e0e0e0"/><path d="M3768.508-1532.091H3756.7l.273-3.152h11.812Zm-11.214-.583h10.69l.177-1.993h-10.667Z" transform="translate(-3739.732 1537.982)" fill="#e0e0e0"/><path d="M3840.345-1516.316h-20.811l1.048-11.952h20.811Zm-20.183-.576h19.652l.952-10.816h-19.659Z" transform="translate(-3736.527 1538.338)" fill="#e0e0e0"/><path d="M3838.483-1494.956h-20.817l1.048-11.959h20.811Zm-20.182-.576h19.652l.945-10.807h-19.659Z" transform="translate(-3736.622 1539.427)" fill="#e0e0e0"/><path d="M3836.608-1473.6H3815.8l1.049-11.959h20.81Zm-20.176-.576h19.652l.952-10.807h-19.666Z" transform="translate(-3736.718 1540.516)" fill="#e0e0e0"/><rect width="24.089" height="0.576" transform="matrix(0.881, -0.473, 0.473, 0.881, 83.189, 21.48)" fill="#e0e0e0"/><path d="M3839.875-1516.355l-19.231-11.384.288-.495,19.238,11.376Z" transform="translate(-3736.47 1538.34)" fill="#e0e0e0"/><rect width="24.089" height="0.576" transform="matrix(0.882, -0.472, 0.472, 0.882, 81.218, 43.933)" fill="#e0e0e0"/><rect width="0.576" height="22.354" transform="translate(82.208 33.055) rotate(-59.39)" fill="#e0e0e0"/><path d="M3815.776-1473.372l1.086-12.366,9.907,5.84,10.475-5.611.273.51-10.165,5.441,9.176,5.433-.3.495-9.479-5.6Zm1.58-11.405-.923,10.394,9.694-5.168Z" transform="translate(-3736.719 1540.507)" fill="#e0e0e0"/><rect width="73.801" height="0.576" transform="matrix(0.838, -0.546, 0.546, 0.838, 13.408, 49.085)" fill="#e0e0e0"/><rect width="0.576" height="68.006" transform="matrix(0.592, -0.806, 0.806, 0.592, 16.919, 9.279)" fill="#e0e0e0"/></g><g transform="translate(0 106.758)"><path d="M3496.115-1434.543H3388.555l6.415-73.307h107.561Z" transform="translate(-3388.555 1507.849)" fill="#edf9ee"/><rect width="58.387" height="0.576" transform="translate(12.513 60.255)" fill="#e0e0e0"/><path d="M3460.066-1458.65h-58.882v-.317l3.551-40.544h58.9v.317Zm-58.27-.605H3459.5l3.469-39.7h-57.707Z" transform="translate(-3387.911 1508.274)" fill="#e0e0e0"/><path d="M3403.641-1441.926h-1.587a2.261,2.261,0,0,1-2.3-2.217,2.652,2.652,0,0,1,.013-.286l.141-1.588a2.732,2.732,0,0,1,2.673-2.458h1.587a2.259,2.259,0,0,1,2.3,2.217,2.212,2.212,0,0,1-.013.287l-.139,1.587A2.733,2.733,0,0,1,3403.641-1441.926Zm-1.062-5.973a2.142,2.142,0,0,0-2.1,1.927l-.141,1.587a1.729,1.729,0,0,0,.436,1.336,1.7,1.7,0,0,0,1.277.547h1.587a2.149,2.149,0,0,0,2.1-1.926l.132-1.588a1.725,1.725,0,0,0-.435-1.336,1.691,1.691,0,0,0-1.277-.547Z" transform="translate(-3387.984 1510.877)" fill="#e0e0e0"/><path d="M3430.3-1453.576h-29.736l.273-3.152h29.736Zm-29.086-.575h28.578l.177-2h-28.6Z" transform="translate(-3387.942 1510.456)" fill="#e0e0e0"/><path d="M3456.271-1443.7H3444.46l.273-3.152h11.826Zm-11.213-.576h10.689l.177-2h-10.689Z" transform="translate(-3385.704 1510.96)" fill="#e0e0e0"/><path d="M3456.757-1453.576H3453.6l.273-3.152h3.159Zm-2.532-.575h2l.177-2h-2Z" transform="translate(-3385.238 1510.456)" fill="#e0e0e0"/><path d="M3452.613-1453.576h-3.152l.273-3.152h3.159Zm-2.524-.575h2l.17-2h-1.993Z" transform="translate(-3385.449 1510.456)" fill="#e0e0e0"/><path d="M3448.448-1453.576H3445.3l.273-3.152h3.152Zm-2.524-.575h1.993l.177-2H3446.1Z" transform="translate(-3385.661 1510.456)" fill="#e0e0e0"/><path d="M3463.038-1502.285h-44.293l.243-2.79h44.294Zm-43.688-.576h43.156l.148-1.638h-43.172Z" transform="translate(-3387.015 1507.991)" fill="#e0e0e0"/><path d="M3416.508-1502.091H3404.7l.273-3.152h11.812Zm-11.214-.583h10.69l.177-1.993h-10.667Z" transform="translate(-3387.732 1507.982)" fill="#e0e0e0"/><path d="M3488.345-1486.316h-20.811l1.048-11.952h20.811Zm-20.183-.576h19.652l.952-10.816h-19.659Z" transform="translate(-3384.527 1508.338)" fill="#e0e0e0"/><path d="M3486.483-1464.956h-20.817l1.048-11.959h20.811Zm-20.182-.576h19.652l.945-10.807h-19.659Z" transform="translate(-3384.622 1509.427)" fill="#e0e0e0"/><path d="M3484.608-1443.6H3463.8l1.049-11.959h20.81Zm-20.176-.576h19.652l.952-10.807h-19.666Z" transform="translate(-3384.718 1510.516)" fill="#e0e0e0"/><rect width="24.089" height="0.576" transform="matrix(0.881, -0.473, 0.473, 0.881, 83.189, 21.48)" fill="#e0e0e0"/><path d="M3487.875-1486.355l-19.231-11.384.288-.495,19.238,11.376Z" transform="translate(-3384.47 1508.34)" fill="#e0e0e0"/><rect width="24.089" height="0.576" transform="matrix(0.882, -0.472, 0.472, 0.882, 81.218, 43.933)" fill="#e0e0e0"/><rect width="0.576" height="22.354" transform="translate(82.208 33.055) rotate(-59.39)" fill="#e0e0e0"/><path d="M3463.776-1443.372l1.086-12.366,9.907,5.84,10.475-5.611.273.51-10.165,5.441,9.176,5.433-.3.5-9.479-5.6Zm1.58-11.405-.923,10.395,9.694-5.168Z" transform="translate(-3384.719 1510.507)" fill="#e0e0e0"/><rect width="73.801" height="0.576" transform="matrix(0.838, -0.546, 0.546, 0.838, 13.408, 49.085)" fill="#e0e0e0"/><rect width="0.576" height="68.006" transform="matrix(0.592, -0.806, 0.806, 0.592, 16.919, 9.279)" fill="#e0e0e0"/></g><g transform="translate(201.725)"><rect width="12.168" height="0.904" transform="translate(201.295 167.581) rotate(-85.66)" fill="#133347"/><path d="M3771.1-1417.821H3759.7v-.9h10.568l2.007-26.325.9.072Z" transform="translate(-3571.352 1617.81)" fill="#133347"/><path d="M3777.306-1412.6H3580.491l14.962-196.824h196.824Z" transform="translate(-3580.491 1609.426)" fill="#133347"/><path d="M3667.611-1412.6h-22.573l95.546-196.824h22.564Z" transform="translate(-3577.199 1609.426)" fill="#fff" opacity="0.1" style="isolation:isolate"/><path d="M3641.8-1412.6h-22.564l95.546-196.824h22.564Z" transform="translate(-3578.516 1609.426)" fill="#fff" opacity="0.1" style="isolation:isolate"/><path d="M3779.913-1456.2H3583.089l.3-3.96h196.824Z" transform="translate(-3580.359 1617.039)" fill="#fff"/><path d="M3627.468-1456.2h-44.379l.3-3.96h44.378Z" transform="translate(-3580.359 1617.039)" fill="#80ed99"/><path d="M3625.235-1454.082h0a1.366,1.366,0,0,1-1.38-1.351,1.25,1.25,0,0,1,.005-.142l.38-5a1.644,1.644,0,0,1,1.6-1.491h0a1.365,1.365,0,0,1,1.38,1.349,1.256,1.256,0,0,1-.005.142l-.381,5A1.646,1.646,0,0,1,3625.235-1454.082Z" transform="translate(-3578.28 1616.942)" fill="#80ed99"/><path d="M3686.851-1566.522c-18.524,0-34.687,15.025-36.1,33.549s12.466,33.548,31,33.548,34.7-15.016,36.1-33.548S3705.384-1566.522,3686.851-1566.522Zm-4.782,62.957c-16.272,0-28.4-13.163-27.166-29.408s15.369-29.4,31.64-29.4,28.405,13.163,27.176,29.4S3698.314-1503.565,3682.069-1503.565Z" transform="translate(-3576.913 1611.614)" fill="#fff"/><path d="M3696.87-1537.658l-17.954-10.849a4.257,4.257,0,0,0-5.841,1.459,4.259,4.259,0,0,0-.595,1.859l-1.645,21.7a4.249,4.249,0,0,0,3.891,4.578,4.258,4.258,0,0,0,2.437-.537l19.608-10.848a4.249,4.249,0,0,0,1.634-5.783A4.244,4.244,0,0,0,3696.87-1537.658Z" transform="translate(-3575.885 1612.502)" fill="#fff"/><path d="M3607.868-1441.387l-8.9-5.37a2.108,2.108,0,0,0-2.894.712,2.119,2.119,0,0,0-.3.934l-.8,10.739a2.115,2.115,0,0,0,1.957,2.263,2.122,2.122,0,0,0,1.171-.255l9.7-5.352a2.107,2.107,0,0,0,.858-2.853A2.108,2.108,0,0,0,3607.868-1441.387Z" transform="translate(-3579.753 1617.707)" fill="#fff"/><path d="M3668.648-1441.387l-8.905-5.37a2.106,2.106,0,0,0-2.893.712,2.106,2.106,0,0,0-.3.934l-.813,10.749a2.106,2.106,0,0,0,1.936,2.263,2.1,2.1,0,0,0,1.182-.256l9.719-5.36a2.1,2.1,0,0,0,.876-2.833A2.1,2.1,0,0,0,3668.648-1441.387Z" transform="translate(-3576.654 1617.707)" fill="#fff"/><path d="M3676.011-1441.387l-8.9-5.37a2.107,2.107,0,0,0-2.893.712,2.115,2.115,0,0,0-.3.934l-.822,10.749a2.116,2.116,0,0,0,1.957,2.263,2.114,2.114,0,0,0,1.171-.256l9.719-5.36a2.1,2.1,0,0,0,.869-2.836A2.1,2.1,0,0,0,3676.011-1441.387Z" transform="translate(-3576.279 1617.707)" fill="#fff"/><path d="M3627.028-1431.978h0a1.809,1.809,0,0,1-1.813-1.8c0-.044,0-.088,0-.131l.841-11.147a2.144,2.144,0,0,1,2.088-1.935h0a1.809,1.809,0,0,1,1.813,1.8c0,.043,0,.087,0,.13l-.85,11.147A2.134,2.134,0,0,1,3627.028-1431.978Z" transform="translate(-3578.21 1617.71)" fill="#fff"/><path d="M3633.763-1431.978h0a1.809,1.809,0,0,1-1.813-1.8c0-.044,0-.088.005-.131l.849-11.147a2.134,2.134,0,0,1,2.079-1.935h0a1.808,1.808,0,0,1,1.813,1.8c0,.043,0,.087,0,.13l-.85,11.147A2.134,2.134,0,0,1,3633.763-1431.978Z" transform="translate(-3577.867 1617.71)" fill="#fff"/><path d="M3674.285-1431.978h0a1.809,1.809,0,0,1-1.813-1.8c0-.044,0-.088,0-.131l.841-11.147a2.144,2.144,0,0,1,2.088-1.935h0a1.809,1.809,0,0,1,1.813,1.8c0,.043,0,.087,0,.13l-.841,11.147A2.144,2.144,0,0,1,3674.285-1431.978Z" transform="translate(-3575.8 1617.71)" fill="#fff"/><path d="M3754.973-1432.792h-20.485a2.712,2.712,0,0,1-2.721-2.7,2.312,2.312,0,0,1,.009-.235l.588-7.629a3.227,3.227,0,0,1,3.164-2.938h20.485a2.713,2.713,0,0,1,2.722,2.7c0,.078,0,.156-.01.235l-.579,7.629A3.228,3.228,0,0,1,3754.973-1432.792Zm-19.563-12.2a1.808,1.808,0,0,0-1.717,1.591l-.578,7.63a1.464,1.464,0,0,0,1.332,1.586c.047,0,.095.005.142.005h20.493a1.745,1.745,0,0,0,1.709-1.591l.588-7.63a1.465,1.465,0,0,0-1.332-1.586c-.05,0-.1-.005-.151-.005Z" transform="translate(-3572.776 1617.746)" fill="#fff"/></g><path d="M3529.151-1567.357a22.734,22.734,0,0,0,2.219-6.322l7.538-1.815-.283-7.321-7.659-1.232a22.8,22.8,0,0,0-7.061-11.229l2.192-7.432-6.478-3.419-4.89,6.011a22.851,22.851,0,0,0-13.266.505l-5.334-5.623-6.205,3.886,2.776,7.243a22.857,22.857,0,0,0-6.194,11.755l-7.532,1.81.277,7.32,7.654,1.233a22.9,22.9,0,0,0,7.066,11.239l-2.22,7.426,6.484,3.42,4.9-6.006a22.867,22.867,0,0,0,13.259-.516l5.335,5.623,6.205-3.886-2.776-7.215A22.683,22.683,0,0,0,3529.151-1567.357Zm-25.965.25a11.878,11.878,0,0,1-4.962-16.049,11.879,11.879,0,0,1,16.049-4.961,11.879,11.879,0,0,1,4.962,16.049l0,0a11.872,11.872,0,0,1-16.018,4.956Z" transform="translate(-3383.944 1609.595)" fill="#bde5ff"/><path d="M3481.421-1552.211a17.951,17.951,0,0,0,.054-5.29l5.174-3.273-2.073-5.4-6.039,1.026a17.992,17.992,0,0,0-8.132-6.6l-.249-6.113-5.711-.91-2.128,5.736a18.042,18.042,0,0,0-9.788,3.748l-5.417-2.847-3.651,4.481,3.915,4.71a18.052,18.052,0,0,0-1.644,10.362l-5.171,3.266,2.068,5.4,6.035-1.025a18.078,18.078,0,0,0,8.138,6.608l.228,6.116,5.715.908,2.134-5.733a18.068,18.068,0,0,0,9.782-3.755l5.416,2.848,3.652-4.482-3.909-4.689A17.9,17.9,0,0,0,3481.421-1552.211Zm-19.347,6.785a9.379,9.379,0,0,1-7.787-10.737,9.379,9.379,0,0,1,10.737-7.787,9.379,9.379,0,0,1,7.787,10.737v0a9.373,9.373,0,0,1-10.715,7.776Z" transform="translate(-3385.903 1610.99)" fill="#bde5ff"/><g transform="translate(65.893 56.277)"><g opacity="0.8"><path d="M3564.047-1447.438H3451.664l9.451-108.073h112.391Z" transform="translate(-3451.229 1555.899)" fill="#ffe4a6"/><path d="M3564.425-1447.031H3451.25l.039-.427,9.5-108.422h113.167Zm-112.321-.777h111.607l9.389-107.3H3461.493Z" transform="translate(-3451.25 1555.88)" fill="#419973"/></g><path d="M3557.239-1477.649H3462.57l6.05-69.165h94.669Z" transform="translate(-3450.673 1556.342)" fill="#fff" opacity="0.8" style="isolation:isolate"/><path d="M3557.617-1477.242h-95.453l6.12-69.941h95.453Zm-94.607-.777H3556.9l5.98-68.388H3469Z" transform="translate(-3450.693 1556.324)" fill="#419973"/><rect width="0.777" height="112.414" transform="translate(17.705 9.822) rotate(-52.03)" fill="#419973"/><line y1="69.165" x2="100.718" transform="translate(11.898 9.529)" fill="none"/><rect width="122.184" height="0.777" transform="translate(11.692 78.38) rotate(-34.5)" fill="#419973"/><path d="M3497.84-1471.2a3.976,3.976,0,0,1-3.883,3.572,3.223,3.223,0,0,1-3.28-3.165,3.3,3.3,0,0,1,.019-.408,3.984,3.984,0,0,1,3.882-3.572,3.224,3.224,0,0,1,3.281,3.165A3.3,3.3,0,0,1,3497.84-1471.2Z" transform="translate(-3449.239 1560.017)" fill="#22577a"/><path d="M3510.5-1471.2a3.976,3.976,0,0,1-3.884,3.572,3.222,3.222,0,0,1-3.271-3.172,3.329,3.329,0,0,1,.018-.4,3.977,3.977,0,0,1,3.884-3.572,3.216,3.216,0,0,1,3.274,3.156A3.292,3.292,0,0,1,3510.5-1471.2Z" transform="translate(-3448.593 1560.017)" fill="#22577a"/><path d="M3523.177-1471.2a3.977,3.977,0,0,1-3.883,3.572,3.215,3.215,0,0,1-3.274-3.155,3.217,3.217,0,0,1,.02-.417,3.976,3.976,0,0,1,3.882-3.572,3.222,3.222,0,0,1,3.272,3.173A3.3,3.3,0,0,1,3523.177-1471.2Z" transform="translate(-3447.947 1560.017)" fill="#22577a"/></g><g transform="translate(149.433 30.73)"><path d="M3612.61-1518.116h-81.873l4.34-62.072h81.873Z" transform="translate(-3530.737 1580.188)" fill="#133347"/><path d="M3612.61-1518.116h-81.873l4.34-62.072h81.873Z" transform="translate(-3530.737 1580.188)" fill="#c9c9c9" opacity="0.5" style="isolation:isolate"/><path d="M3562.107-1566.7h52.287l.82-11.593h-52.3Z" transform="translate(-3529.137 1580.285)" opacity="0.3" style="isolation:isolate"/><path d="M3616.61-1578.191h-81.883l.147-2h81.873Z" transform="translate(-3530.533 1580.188)" fill="#fff" opacity="0.4" style="isolation:isolate"/><path d="M3557.148-1569.972H3539.48a1.293,1.293,0,0,1-1.308-1.277c0-.044,0-.087.005-.131h0a1.524,1.524,0,0,1,1.492-1.4h17.667a1.282,1.282,0,0,1,1.309,1.256,1.311,1.311,0,0,1-.005.142h0A1.524,1.524,0,0,1,3557.148-1569.972Z" transform="translate(-3530.358 1580.566)" fill="#fff" opacity="0.5" style="isolation:isolate"/><path d="M3544.934-1556.591h-7.767l.536-7.767h7.767Z" transform="translate(-3530.409 1580.995)" fill="#57cc99"/><g transform="translate(10.279 20.442)"><path d="M3548.452-1552.813h-7.935l.221-3.132h1.5l-.116,1.64h4.929l.347-4.94h-1.64l.105-1.492H3549Z" transform="translate(-3540.517 1560.738)" fill="#133347"/></g><g transform="translate(73.791 3.847)" opacity="0.5"><path d="M3609.859-1575.025h-8.492l.105-1.5h8.492Z" transform="translate(-3600.926 1576.528)" fill="#fff"/><path d="M3609.639-1572h-8.482l.1-1.492h8.482Z" transform="translate(-3600.936 1576.683)" fill="#fff"/><path d="M3609.428-1568.955h-8.481l.1-1.5h8.482Z" transform="translate(-3600.947 1576.837)" fill="#fff"/></g><g transform="translate(60.338 16.637)" opacity="0.5"><path d="M3597.059-1562.865h-8.492l.105-1.492h8.492Z" transform="translate(-3588.125 1564.358)" fill="#fff"/><path d="M3596.838-1559.825h-8.482l.105-1.5h8.481Z" transform="translate(-3588.136 1564.512)" fill="#fff"/><path d="M3596.628-1556.8h-8.481l.1-1.492h8.481Z" transform="translate(-3588.147 1564.667)" fill="#fff"/></g><g transform="translate(61.473 4.435)" opacity="0.5"><path d="M3594.318-1575.968l-1.135,1.062,2.134,2.291-2.459,2.291.988,1.062,3.584-3.353Z" transform="translate(-3589.042 1575.968)" fill="#fff"/><path d="M3590.677-1575.968l-1.135,1.062,2.134,2.291-2.449,2.291.977,1.062,3.594-3.353Z" transform="translate(-3589.227 1575.968)" fill="#fff"/></g><g transform="translate(73.139 16.637)" opacity="0.5"><path d="M3605.308-1559.9l-.231,3.185h3.5l.221-3.185Z" transform="translate(-3600.085 1564.585)" fill="#fff"/><path d="M3605.4-1561.173h3.49l.22-3.185h-3.489Z" transform="translate(-3600.068 1564.358)" fill="#fff"/><path d="M3604.136-1561.173l.221-3.185h-3.489l-.221,3.185Z" transform="translate(-3600.311 1564.358)" fill="#fff"/><path d="M3604.047-1559.9h-3.489l-.231,3.185h3.5Z" transform="translate(-3600.327 1564.585)" fill="#fff"/></g><path d="M3547.447-1537.017h10.731l.746-10.731h-10.731Z" transform="translate(-3529.885 1581.842)" fill="#263238"/><path d="M3547.447-1537.017h10.731l.746-10.731h-10.731Z" transform="translate(-3529.885 1581.842)" fill="#2e6e99"/><path d="M3558.607-1537.017h10.731l.757-10.731h-10.741Z" transform="translate(-3529.316 1581.842)" fill="#263238"/><path d="M3558.607-1537.017h10.731l.757-10.731h-10.741Z" transform="translate(-3529.316 1581.842)" fill="#22577a"/><path d="M3546.657-1525.827H3557.4l.746-10.731h-10.731Z" transform="translate(-3529.925 1582.413)" fill="#407bff"/><path d="M3546.657-1525.827H3557.4l.746-10.731h-10.731Z" transform="translate(-3529.925 1582.413)" fill="#a3fad3"/><path d="M3557.827-1525.827h10.731l.746-10.731h-10.731Z" transform="translate(-3529.355 1582.413)" fill="#407bff"/><path d="M3557.827-1525.827h10.731l.746-10.731h-10.731Z" transform="translate(-3529.355 1582.413)" fill="#85f2c2"/><path d="M3536.277-1537.017h10.741l.746-10.731h-10.731Z" transform="translate(-3530.455 1581.842)" fill="#263238"/><path d="M3536.277-1537.017h10.741l.746-10.731h-10.731Z" transform="translate(-3530.455 1581.842)" fill="#3a8abf"/><path d="M3535.5-1525.827h10.731l.757-10.731h-10.731Z" transform="translate(-3530.494 1582.413)" fill="#407bff"/><path d="M3535.5-1525.827h10.731l.757-10.731h-10.731Z" transform="translate(-3530.494 1582.413)" fill="#b8ffdf"/><path d="M3591.307-1525.827h10.741l.746-10.731h-10.731Z" transform="translate(-3527.648 1582.413)" fill="#407bff"/><path d="M3591.307-1525.827h10.741l.746-10.731h-10.731Z" transform="translate(-3527.648 1582.413)" fill="#57cc99"/><path d="M3580.927-1537.017h10.741l.747-10.731h-10.731Z" transform="translate(-3528.177 1581.842)" fill="#133347"/><path d="M3568.987-1525.827h10.731l.757-10.731h-10.741Z" transform="translate(-3528.786 1582.413)" fill="#68e8b0"/><path d="M3569.767-1537.017H3580.5l.757-10.731h-10.741Z" transform="translate(-3528.747 1581.842)" fill="#263238"/><path d="M3569.767-1537.017H3580.5l.757-10.731h-10.741Z" transform="translate(-3528.747 1581.842)" fill="#194059"/><path d="M3580.147-1525.827h10.731l.757-10.731h-10.741Z" transform="translate(-3528.217 1582.413)" fill="#407bff"/><path d="M3580.147-1525.827h10.731l.757-10.731h-10.741Z" transform="translate(-3528.217 1582.413)" fill="#5cd9a2"/></g><g transform="translate(217.551 81.608)"><path d="M3615.07-1523.03l-18.382-7.578,7.588,18.371,2.648-6.243,7.5,7.5,1.9-1.892-7.515-7.5Z" transform="translate(-3595.491 1531.838)" fill="#407bff"/><path d="M3615.07-1523.03l-18.382-7.578,7.588,18.371,2.648-6.243,7.5,7.5,1.9-1.892-7.515-7.5Z" transform="translate(-3595.491 1531.838)" fill="#fff" opacity="0.9" style="isolation:isolate"/><path d="M3614.488-1509.938l-7.284-7.283-2.848,6.789-8.807-21.346,21.346,8.807-6.811,2.88,7.284,7.283Zm-7.735-9.638,7.735,7.735.956-.946-7.746-7.735,5.686-2.417-15.4-6.306,6.306,15.4Z" transform="translate(-3595.549 1531.778)" fill="#22577a"/><rect width="9.606" height="9.606" transform="translate(19.054 22.87)" fill="#407bff"/><rect width="9.606" height="9.606" transform="translate(19.054 22.87)" fill="#fff" opacity="0.9" style="isolation:isolate"/><path d="M3623.749-1499.948h-10.51v-10.51h10.51Zm-9.606-.893h8.713v-8.713h-8.713Z" transform="translate(-3594.647 1532.865)" fill="#22577a"/><path d="M3621.753-1505.958h-2.68v-2.68h-1.334v2.68h-2.68v1.345h2.68v2.68h1.334v-2.68h2.68Z" transform="translate(-3594.554 1532.958)" fill="#22577a"/></g><g transform="translate(88.139 150.741)"><rect width="6.615" height="36.913" transform="translate(51.648 138.337)" fill="#263238"/><rect width="6.615" height="36.913" transform="translate(51.648 138.337)" fill="#fff" opacity="0.2" style="isolation:isolate"/><path d="M3560.168-1265.313l-33.519-12.347-33.89,12.359a1.79,1.79,0,0,1-2.3-1.065,1.759,1.759,0,0,1-.109-.621h0a1.8,1.8,0,0,1,1.034-1.628l35.262-16.358,34.878,16.358a1.769,1.769,0,0,1,1.024,1.617h0a1.79,1.79,0,0,1-1.794,1.787A1.788,1.788,0,0,1,3560.168-1265.313Z" transform="translate(-3471.502 1475.232)" fill="#263238"/><path d="M3560.168-1265.313l-33.519-12.347-33.89,12.359a1.79,1.79,0,0,1-2.3-1.065,1.759,1.759,0,0,1-.109-.621h0a1.8,1.8,0,0,1,1.034-1.628l35.262-16.358,34.878,16.358a1.769,1.769,0,0,1,1.024,1.617h0a1.79,1.79,0,0,1-1.794,1.787A1.788,1.788,0,0,1,3560.168-1265.313Z" transform="translate(-3471.502 1475.232)" fill="#fff" opacity="0.3" style="isolation:isolate"/><path d="M3517.366-1274.777l7.906-2.883,7.534,2.779v-6.569l-7.534-3.522-7.906,3.662Z" transform="translate(-3470.124 1475.232)" opacity="0.2" style="isolation:isolate"/><path d="M3524.9-1263.515h0a2.977,2.977,0,0,1-2.965-2.686l-.942-9.94v-38.611h7.871v38.6l-.942,9.94A2.976,2.976,0,0,1,3524.9-1263.515Z" transform="translate(-3469.939 1473.714)" fill="#263238"/><path d="M3524.9-1263.515h0a2.977,2.977,0,0,1-2.965-2.686l-.942-9.94v-38.611h7.871v38.6l-.942,9.94A2.976,2.976,0,0,1,3524.9-1263.515Z" transform="translate(-3469.939 1473.714)" fill="#fff" opacity="0.3" style="isolation:isolate"/><circle cx="4.36" cy="4.36" r="4.36" transform="translate(15.816 211.001)" fill="#22577a"/><circle cx="2.174" cy="2.174" r="2.174" transform="translate(18.002 213.186)" fill="#3a96d1"/><circle cx="4.36" cy="4.36" r="4.36" transform="translate(86.713 211.001)" fill="#22577a"/><circle cx="2.174" cy="2.174" r="2.174" transform="translate(88.899 213.186)" fill="#263238"/><ellipse cx="3.197" cy="4.36" rx="3.197" ry="4.36" transform="translate(51.765 211.001)" fill="#22577a"/><rect width="5.15" height="14.335" transform="translate(20.176 59.674)" fill="#263238"/><rect width="5.15" height="14.335" transform="translate(20.176 59.674)" fill="#fff" opacity="0.3" style="isolation:isolate"/><path d="M3512.342-1404.476a2.917,2.917,0,0,1,2.616,1.511,101.022,101.022,0,0,1,12.649,69.757,2.557,2.557,0,0,1-2.43,2.267c-1.9.128-35.634,0-36.854,0a3.406,3.406,0,0,1-3.476-3.336,3.391,3.391,0,0,1,.046-.629,94.3,94.3,0,0,0-12.01-64.851,3.139,3.139,0,0,1,1.237-4.263,3.137,3.137,0,0,1,1.6-.387C3476.7-1404.488,3510.191-1404.43,3512.342-1404.476Z" transform="translate(-3472.413 1469.137)" fill="#ffc94a"/><path d="M3512.342-1404.476a2.917,2.917,0,0,1,2.616,1.511,101.022,101.022,0,0,1,12.649,69.757,2.557,2.557,0,0,1-2.43,2.267c-1.9.128-35.634,0-36.854,0a3.406,3.406,0,0,1-3.476-3.336,3.391,3.391,0,0,1,.046-.629,94.3,94.3,0,0,0-12.01-64.851,3.139,3.139,0,0,1,1.237-4.263,3.137,3.137,0,0,1,1.6-.387C3476.7-1404.488,3510.191-1404.43,3512.342-1404.476Z" transform="translate(-3472.413 1469.137)" opacity="0.2" style="isolation:isolate"/><path d="M3484.9-1334.928a94.306,94.306,0,0,0-12.01-64.851c-2.094-3.487,3.359-6.661,5.453-3.186a101.012,101.012,0,0,1,12.637,69.757c-.721,3.989-6.8,2.326-6.08-1.686Z" transform="translate(-3472.417 1469.138)" fill="#ffc94a"/><path d="M3589.216-1339.878a106.833,106.833,0,0,0-23.648-3.255c-8.208-.209-38.948,0-46.249,0a106.985,106.985,0,0,0-26.392,3.291c-5.418,1.383-3.744,9.208,1.163,9.3h93.7C3592.889-1330.355,3594.761-1338.459,3589.216-1339.878Z" transform="translate(-3471.542 1472.261)" fill="#ffc94a"/><path d="M3589.216-1339.878a106.833,106.833,0,0,0-23.648-3.255c-8.208-.209-38.948,0-46.249,0a106.985,106.985,0,0,0-26.392,3.291c-5.418,1.383-3.744,9.208,1.163,9.3h93.7C3592.889-1330.355,3594.761-1338.459,3589.216-1339.878Z" transform="translate(-3471.542 1472.261)" opacity="0.3" style="isolation:isolate"/><path d="M3495.448-1330.742a97.071,97.071,0,0,1,47.807,0c5.906,1.511,8.416-7.615,2.511-9.126a107.3,107.3,0,0,0-52.783,0c-5.894,1.511-3.395,10.637,2.523,9.126Z" transform="translate(-3471.539 1472.264)" fill="#ffc94a"/><path d="M3504.612-1404.172a2.07,2.07,0,0,0,2.14-1.64,52.527,52.527,0,0,0,0-25.763,2.07,2.07,0,0,0-1.931-1.639h-20.206a2.326,2.326,0,0,0-2.574,2.047,2.327,2.327,0,0,0,.051.812,47.385,47.385,0,0,1,0,23.311,2.325,2.325,0,0,0,1.693,2.819,2.349,2.349,0,0,0,.842.052Z" transform="translate(-3471.926 1467.671)" fill="#ffc94a"/><path d="M3504.612-1404.172a2.07,2.07,0,0,0,2.14-1.64,52.527,52.527,0,0,0,0-25.763,2.07,2.07,0,0,0-1.931-1.639h-20.206a2.326,2.326,0,0,0-2.574,2.047,2.327,2.327,0,0,0,.051.812,47.385,47.385,0,0,1,0,23.311,2.325,2.325,0,0,0,1.693,2.819,2.349,2.349,0,0,0,.842.052Z" transform="translate(-3471.926 1467.671)" opacity="0.2" style="isolation:isolate"/><path d="M3482.093-1407.044a47.385,47.385,0,0,0,0-23.311c-.732-2.871,3.72-4.1,4.453-1.22a52.222,52.222,0,0,1,0,25.763c-.732,2.872-5.185,1.651-4.453-1.232Z" transform="translate(-3471.927 1467.672)" fill="#ffc94a"/><path d="M3573.594-1294.9l-5.476,23.845,6.8,2.628,9.789-23.985Z" transform="translate(-3467.536 1474.726)" fill="#ce7a63"/><path d="M3575.033-1270.672l-6.174-3.3a.65.65,0,0,0-.8.14l-4.407,5.1a1.081,1.081,0,0,0,.1,1.526l.01.008a1.01,1.01,0,0,0,.186.128c2.593,1.337,4.952,2.43,8.138,4.15,3.779,2.035,2.581,1.976,6.977,4.417,2.662,1.477,4.778-1.291,3.731-2.058-4.835-3.487-5.476-5.813-6.487-8.765A2.578,2.578,0,0,0,3575.033-1270.672Z" transform="translate(-3467.777 1475.789)" fill="#133347"/><path d="M3520.917-1365.182l33.39-1.849s55.469,8.684,54.643,24.194-23.356,64.467-23.356,64.467l-13.243-3.686s10.092-49.155,16.66-57.3c0,0-41.424-4.86-51.794-7.627C3531.52-1348.568,3517.766-1346,3520.917-1365.182Z" transform="translate(-3469.967 1471.047)" fill="#22577a"/><path d="M3583.408-1340.129a29.677,29.677,0,0,0-2.546-13.394c-3.081-6.975-28.472-11.149-40.622-12.789l-19.323,1.07c-3.151,19.183,10.6,16.614,16.277,18.137C3545.227-1344.943,3571.735-1341.571,3583.408-1340.129Z" transform="translate(-3469.967 1471.084)" fill="#133347"/><path d="M3551.789-1288.645l-.872,24.45,7.36.349,4.895-24.45Z" transform="translate(-3468.413 1475.045)" fill="#ce7a63"/><path d="M3557.866-1267.185l-7.14.151a.7.7,0,0,0-.639.535l-1.36,6.731a1.162,1.162,0,0,0,.848,1.3.789.789,0,0,0,.234,0c2.964-.1,5.6-.313,9.3-.372,4.371-.081,3.268.466,8.406.443,3.08,0,3.592-3.488,2.325-3.686-6.011-.651-7.777-2.453-10.138-4.557A2.679,2.679,0,0,0,3557.866-1267.185Z" transform="translate(-3468.526 1476.139)" fill="#133347"/><path d="M3530.454-1365.272s44.692,1.569,47.319,15.242-12.347,74.931-12.347,74.931h-13.417s1.582-54.945,6.047-66.514c0,0-36.8,5.813-46.5-2.57-6.976-5.975,1.314-21.089,1.314-21.089Z" transform="translate(-3470.563 1471.137)" fill="#22577a"/><path d="M3568.914-1288.977l16.66,4.639-3.046,6.406-15.184-3.779Z" transform="translate(-3467.575 1475.028)" fill="#263238"/><path d="M3568.914-1288.977l16.66,4.639-3.046,6.406-15.184-3.779Z" transform="translate(-3467.575 1475.028)" fill="#fff" opacity="0.3" style="isolation:isolate"/><path d="M3548.66-1282.727l16.835.791-1.581,6.7-15.254-.791Z" transform="translate(-3468.528 1475.347)" fill="#263238"/><path d="M3548.66-1282.727l16.835.791-1.581,6.7-15.254-.791Z" transform="translate(-3468.528 1475.347)" fill="#fff" opacity="0.3" style="isolation:isolate"/><path d="M3565.233-1392.861l21.659.372,10.882-4.7,6.976,5.929-2.755,3.046-7.2-1.244-9.15,2.534-21.59,1.291Z" transform="translate(-3467.743 1469.509)" fill="#ce7a63"/><path d="M3565.233-1392.861l21.659.372,10.882-4.7,6.976,5.929-2.755,3.046-7.2-1.244-9.15,2.534-21.59,1.291Z" transform="translate(-3467.743 1469.509)" opacity="0.1" style="isolation:isolate"/><path d="M3562.771-1425.737s4.243,3.093,3.22,13.289-5.953,20.659-.441,20.927h1.429v7.394s-13.684,3.488-14.544-3.22S3562.771-1425.737,3562.771-1425.737Z" transform="translate(-3468.338 1468.053)" fill="#407bff"/><path d="M3562.771-1425.737s4.243,3.093,3.22,13.289-5.953,20.659-.441,20.927h1.429v7.394s-13.684,3.488-14.544-3.22S3562.771-1425.737,3562.771-1425.737Z" transform="translate(-3468.338 1468.053)" fill="#80ed99"/><path d="M3552.436-1387.49c.86,6.743,14.544,3.22,14.544,3.22v-1.942c-8.371,1.43-7.324-2.208-6.812-4.29,4.917-19.868,3-29.879,1.906-33.343C3559.655-1416.812,3551.68-1393.21,3552.436-1387.49Z" transform="translate(-3468.338 1468.15)" opacity="0.1" style="isolation:isolate"/><path d="M3564.457-1394.52l.011,10.313,3.953-.4v-9.266Z" transform="translate(-3467.722 1469.645)" fill="#407bff"/><path d="M3564.457-1394.52l.011,10.313,3.953-.4v-9.266Z" transform="translate(-3467.722 1469.645)" fill="#c7ffd3"/><path d="M3510.7-1359.14s4.65-59.294,11.323-67.909,38.634-5.115,42.878,1.64c4.557,7.244-5.964,22.194-8.429,61.909C3556.468-1363.5,3529.6-1355.827,3510.7-1359.14Z" transform="translate(-3470.464 1467.726)" fill="#407bff"/><path d="M3510.7-1359.14s4.65-59.294,11.323-67.909,38.634-5.115,42.878,1.64c4.557,7.244-5.964,22.194-8.429,61.909C3556.468-1363.5,3529.6-1355.827,3510.7-1359.14Z" transform="translate(-3470.464 1467.726)" fill="#57cc99"/><path d="M3545.19-1433.887c0,.059-5.627-.523-5.627-.523l-1.966,2.326a40.836,40.836,0,0,1,4.244,15.51s2.86-4.5,4.72-4.581,3.546,2.175,3.546,2.175,2.384-2.476,3.732-2.476,3.243,3.755,3.243,3.755-1.441-14.382-3.115-15.254S3545.19-1433.887,3545.19-1433.887Z" transform="translate(-3469.092 1467.611)" fill="#407bff"/><path d="M3545.19-1433.887c0,.059-5.627-.523-5.627-.523l-1.966,2.326a40.836,40.836,0,0,1,4.244,15.51s2.86-4.5,4.72-4.581,3.546,2.175,3.546,2.175,2.384-2.476,3.732-2.476,3.243,3.755,3.243,3.755-1.441-14.382-3.115-15.254S3545.19-1433.887,3545.19-1433.887Z" transform="translate(-3469.092 1467.611)" fill="#80ed99"/><path d="M3540.654-1433.3s-.523,2.15,1.964,6.684a7.3,7.3,0,0,0,7.2,4.069c1.965,0,4.721-1.383,3.989-6.034S3547.63-1433.234,3540.654-1433.3Z" transform="translate(-3468.939 1467.667)" fill="#ce7a63"/><path d="M3552.963-1434.828l-7.371-8.011c-.7,6.139-3.092,9.627-4.488,11.185l.663,3.011c8.94,10.045,11,.4,11,.4C3550.592-1430.062,3552.963-1434.828,3552.963-1434.828Z" transform="translate(-3468.913 1467.181)" fill="#ce7a63"/><path d="M3548.354-1439.736l-3.489-.348s.151,10.3,7.209,11.184c-1.314-2.069.65-6.034.65-6.034Z" transform="translate(-3468.721 1467.322)" fill="#263238" opacity="0.1" style="isolation:isolate"/><path d="M3561.669-1456.325s6.825-1.464,7.278,1.047-5.476,3.209-5.476,3.209Z" transform="translate(-3467.865 1466.472)" fill="#0d2330"/><path d="M3546.424-1450.842c-1.6,7.29-2.906,11.452-.384,16.277a9.686,9.686,0,0,0,13.029,4.224,9.689,9.689,0,0,0,4.12-4.026c3.348-5.917,5.406-16.835-.7-21.9a9.789,9.789,0,0,0-13.815.884,9.786,9.786,0,0,0-2.252,4.557Z" transform="translate(-3468.734 1466.371)" fill="#ce7a63"/><path d="M3555.986-1445.984c-.173.581,0,1.163.4,1.233s.8-.255.976-.826,0-1.162-.4-1.243S3556.149-1446.565,3555.986-1445.984Z" transform="translate(-3468.158 1466.977)" fill="#133347"/><path d="M3562.17-1443.992c-.174.581,0,1.162.4,1.243s.8-.255.976-.837,0-1.164-.4-1.244S3562.333-1444.574,3562.17-1443.992Z" transform="translate(-3467.842 1467.079)" fill="#133347"/><path d="M3554.657-1448.605a.37.37,0,0,1-.151-.07.349.349,0,0,1,0-.488h0a3.485,3.485,0,0,1,3.186-.57.348.348,0,0,1,.2.451v0h0a.348.348,0,0,1-.444.212l-.009,0h0a2.745,2.745,0,0,0-2.476.43A.315.315,0,0,1,3554.657-1448.605Z" transform="translate(-3468.235 1466.821)" fill="#133347"/><path d="M3565.519-1445.135a.327.327,0,0,1-.2-.255,2.959,2.959,0,0,0-1.477-2.174.373.373,0,0,1-.092-.5.36.36,0,0,1,.4-.14h0a3.653,3.653,0,0,1,1.86,2.685.349.349,0,0,1-.279.408h0A.3.3,0,0,1,3565.519-1445.135Z" transform="translate(-3467.761 1466.907)" fill="#133347"/><path d="M3555.665-1437.154a5.752,5.752,0,0,0,.988.2.186.186,0,0,0,.219-.146l0-.017h0a.209.209,0,0,0-.174-.221,5.4,5.4,0,0,1-4.116-2.651.2.2,0,0,0-.263-.095l0,0a.2.2,0,0,0-.1.263l0,0A5.636,5.636,0,0,0,3555.665-1437.154Z" transform="translate(-3468.347 1467.321)" fill="#133347"/><path d="M3546.925-1443.285s1.441,2.162,2.325.57.267-7.778.267-7.778,4.175-2.825,6.883-3.116,12.021.291,13.567-6.2c1.325-5.545-8.591-2.232-8.591-2.232a5.151,5.151,0,0,0-6.185-3.825c-3.245.535-5.372,3.732-5.372,3.732s-6.045-.558-8.65,2.221c-1.954,2.093,0,5.046,0,5.046a7.081,7.081,0,0,0-2.209,5.813c.163,2.545,1.268,3.325,1.268,3.325s1.686,6.487,3.964,8.044c1.047.709.547-.407.965-1.813A18.678,18.678,0,0,1,3546.925-1443.285Z" transform="translate(-3469.024 1466)" fill="#133347"/><path d="M3560.087-1444.387a23.058,23.058,0,0,0,1.325,5.813,3.489,3.489,0,0,1-2.906-.337Z" transform="translate(-3468.026 1467.102)" fill="#ba4d3c"/><path d="M3564.525-1445.49a4.522,4.522,0,0,0-2.511-.28l-2.232-.7a4.54,4.54,0,0,0-2.232-1.162,5.562,5.562,0,0,0-2.15-.361l-9.394-.313v.581l8.324.267a2.157,2.157,0,0,0-.453.813,3.219,3.219,0,0,0,2.329,3.914,3.22,3.22,0,0,0,3.809-1.995,2.026,2.026,0,0,0,.071-1.035l1.278.407a2.066,2.066,0,0,0-.522.884,3.22,3.22,0,0,0,2.219,3.977,3.22,3.22,0,0,0,3.931-2.07C3567.6-1444.536,3565.747-1445.13,3564.525-1445.49Zm-5.069.581a2.639,2.639,0,0,1-3.378,1.586,2.64,2.64,0,0,1-1.656-3.156c.372-1.162,1.256-1.162,2.953-.616S3559.829-1446.106,3559.457-1444.908Zm6.976,2.162a2.64,2.64,0,0,1-3.4,1.55,2.638,2.638,0,0,1-1.638-3.108c.372-1.162,1.255-1.162,2.952-.627S3566.8-1443.967,3566.433-1442.746Z" transform="translate(-3468.663 1466.902)" fill="#57cc99"/><path d="M3542.145-1446.151a6.581,6.581,0,0,0,1.849,4.453c1.523,1.557,3.278.384,3.662-1.663.361-1.86,0-4.895-1.941-5.674S3542.122-1448.221,3542.145-1446.151Z" transform="translate(-3468.86 1466.855)" fill="#ce7a63"/><path d="M3545.6-1394.167l23.787,2.325,11.01-4.8,4.86,3.778-1.744,2.174-5.325.884-7.359,3.255-24.613.616Z" transform="translate(-3468.684 1469.537)" fill="#ce7a63"/><path d="M3529.419-1392.281a62.778,62.778,0,0,1-8.335-22.449c-.14,10.928,1.918,32.9,21.043,30.228A17.558,17.558,0,0,1,3529.419-1392.281Z" transform="translate(-3469.935 1468.615)" fill="#419973"/><path d="M3523.478-1427.9c4.337-2.244,8.337,1.64,11.824,17.52s13.952,16.812,13.952,16.812l.93,9.545s-14.161,3.29-21.206-7.558S3516.351-1424.225,3523.478-1427.9Z" transform="translate(-3469.981 1467.913)" fill="#407bff"/><path d="M3523.478-1427.9c4.337-2.244,8.337,1.64,11.824,17.52s13.952,16.812,13.952,16.812l.93,9.545s-14.161,3.29-21.206-7.558S3516.351-1424.225,3523.478-1427.9Z" transform="translate(-3469.981 1467.913)" fill="#80ed99"/><path d="M3546.736-1396.644l1.349,12.44,4.092-.535-1.267-11.37Z" transform="translate(-3468.626 1469.537)" fill="#407bff"/><path d="M3546.736-1396.644l1.349,12.44,4.092-.535-1.267-11.37Z" transform="translate(-3468.626 1469.537)" fill="#c7ffd3"/></g><g transform="translate(166.26 167.655)"><rect width="179.973" height="3.999" transform="translate(8.929 72.512)" fill="#263238"/><rect width="93.3" height="3.999" transform="translate(8.929 72.512)" fill="#fff" opacity="0.3" style="isolation:isolate"/><rect width="86.673" height="3.999" transform="translate(102.241 72.512)" fill="#fff" opacity="0.2" style="isolation:isolate"/><rect width="197.854" height="3.999" transform="translate(0 68.524)" fill="#ffc94a"/><rect width="104.554" height="3.999" transform="translate(93.3 68.524)" opacity="0.3" style="isolation:isolate"/><path d="M3625.9-1253.627l-25.635-8.208v-115.274h-9.394v115.274l-25.647,8.208v5.046h2.616l27.728-3.337,27.729,3.337h2.6Z" transform="translate(-3545.804 1453.62)" fill="#263238"/><path d="M3625.9-1253.627l-25.635-8.208v-115.274h-9.394v115.274l-25.647,8.208v5.046h2.616l27.728-3.337,27.729,3.337h2.6Z" transform="translate(-3545.804 1453.62)" fill="#fff" opacity="0.1" style="isolation:isolate"/><path d="M3597.657-1261.835v-115.274h-6.79v115.274l-25.647,8.208v5.046l29.042-3.488,29.031,3.488v-5.046Z" transform="translate(-3545.804 1453.62)" fill="#263238"/><path d="M3597.657-1261.835v-115.274h-6.79v115.274l-25.647,8.208v5.046l29.042-3.488,29.031,3.488v-5.046Z" transform="translate(-3545.804 1453.62)" fill="#fff" opacity="0.3" style="isolation:isolate"/><path d="M3719.46-1253.627l-25.647-8.208v-115.274h-9.382v115.274l-25.647,8.208v5.046h2.6l27.728-3.337,27.74,3.337h2.6Z" transform="translate(-3541.033 1453.62)" fill="#263238"/><path d="M3691.208-1261.835v-115.274h-6.778v115.274l-25.647,8.208v5.046l29.031-3.488,29.042,3.488v-5.046Z" transform="translate(-3541.033 1453.62)" fill="#263238"/><path d="M3691.208-1261.835v-115.274h-6.778v115.274l-25.647,8.208v5.046l29.031-3.488,29.042,3.488v-5.046Z" transform="translate(-3541.033 1453.62)" fill="#fff" opacity="0.2" style="isolation:isolate"/><path d="M3613.3-1389.077l-24.38,1.163v3.465h40.075v-4.627Z" transform="translate(-3544.596 1453.009)" fill="#ffc94a"/><path d="M3613.3-1384.45h-24.38v-3.465l24.38-1.163Z" transform="translate(-3544.596 1453.009)" fill="#fff" opacity="0.3" style="isolation:isolate"/><rect width="15.695" height="4.627" transform="translate(68.699 63.932)" fill="#fff" opacity="0.6" style="isolation:isolate"/><path d="M3572.057-1384.353a1.616,1.616,0,0,1-1.606-1.626,1.625,1.625,0,0,1,.164-.7c1.465-2.953,5.7-4.313,9.406-4.313,3.941,0,6.022,1.534,6.533,4.871a1.6,1.6,0,0,1-1.407,1.779,1.55,1.55,0,0,1-.2.011Z" transform="translate(-3545.538 1452.912)" fill="#57cc99"/><path d="M3693.826-1449.628l-55.248-.279-5.813,55.41,55.306-.29a8.07,8.07,0,0,0,4.231-6.162l4.464-42.517A6.29,6.29,0,0,0,3693.826-1449.628Z" transform="translate(-3542.36 1449.907)" fill="#57cc99"/><path d="M3691.5-1449.628l-52.922-.279-5.813,55.41,52.981-.29a8.07,8.07,0,0,0,4.231-6.162l4.465-42.517A6.29,6.29,0,0,0,3691.5-1449.628Z" transform="translate(-3542.36 1449.907)" fill="#fff" opacity="0.15" style="isolation:isolate"/><path d="M3633.277-1394.787l-.523.29,5.813-55.41.465.279a6.312,6.312,0,0,1,2.93,6.162l-4.464,42.517A8.072,8.072,0,0,1,3633.277-1394.787Z" transform="translate(-3542.36 1449.907)" fill="#407bff"/><path d="M3633.277-1394.787l-.523.29,5.813-55.41.465.279a6.312,6.312,0,0,1,2.93,6.162l-4.464,42.517A8.072,8.072,0,0,1,3633.277-1394.787Z" transform="translate(-3542.36 1449.907)" fill="#80ed99"/><path d="M3656.5-1396.975l-.291.162,11.277-.058-1.034-9.371-5.313-.779-.408,3.884A8.07,8.07,0,0,1,3656.5-1396.975Z" transform="translate(-3541.164 1452.094)" opacity="0.1" style="isolation:isolate"/><path d="M3676.233-1385.844h-10.743l-4.65-21.264h10.742Z" transform="translate(-3540.928 1452.09)" fill="#419973"/><path d="M3667.134-1389.077l-24.38,1.163v3.465h40.075v-4.627Z" transform="translate(-3541.85 1453.009)" fill="#419973"/><path d="M3667.134-1384.45h-24.38v-3.465l24.38-1.163Z" transform="translate(-3541.85 1453.009)" fill="#fff" opacity="0.3" style="isolation:isolate"/><rect width="15.695" height="4.627" transform="translate(125.284 63.932)" fill="#fff" opacity="0.6" style="isolation:isolate"/></g></g></g></svg>