<svg xmlns="http://www.w3.org/2000/svg" width="130" height="130" viewBox="0 0 130 130"><defs><style>.a{fill:#ffc94a;}.b{fill:#22577a;}</style></defs><g transform="translate(-2078 636.667)"><circle class="a" cx="65" cy="65" r="65" transform="translate(2078 -636.666)"/><g transform="translate(2093.444 -621.721)"><path class="b" d="M2147.716-617q20.99,0,35.4,14.408,14.5,14.408,14.5,35.4t-14.23,34.953q-15.122,14.854-35.665,14.853-20.279,0-35.041-14.765Q2098-546.828,2098-567.2q0-20.455,14.675-35.4A47.7,47.7,0,0,1,2147.716-617Zm-38.51,36.375a39.162,39.162,0,0,0-2.224,13.43q0,16.543,12.1,28.639a39.684,39.684,0,0,0,28.816,12.006,39.6,39.6,0,0,0,28.994-12.184,36.523,36.523,0,0,0,6.848-8.716l-18.766-8.36a12.832,12.832,0,0,1-4.758,7.694,16.362,16.362,0,0,1-8.938,3.423v7.649h-5.781v-7.649a23.1,23.1,0,0,1-15.12-5.958l6.849-6.937a15.9,15.9,0,0,0,11.117,4.536,8.057,8.057,0,0,0,4.4-1.156,4.18,4.18,0,0,0,1.823-3.825,3.808,3.808,0,0,0-1.333-3.023l-4.8-2.046-5.869-2.668-7.916-3.469Zm38.688-27.481a38.632,38.632,0,0,0-28.727,12.006,47.739,47.739,0,0,0-5.515,6.672l19.033,8.538a11.683,11.683,0,0,1,4.714-6.271,15.724,15.724,0,0,1,8.093-2.623v-7.649h5.781v7.649a22.017,22.017,0,0,1,12.452,4.625l-6.493,6.67a14.714,14.714,0,0,0-8.538-2.935,9.317,9.317,0,0,0-4.135.89,3.1,3.1,0,0,0-1.823,3.024,2.123,2.123,0,0,0,.444,1.245l6.315,2.845,4.358,1.957,8,3.557,25.525,11.384a46.118,46.118,0,0,0,1.246-10.673,38.99,38.99,0,0,0-11.919-28.9A38.924,38.924,0,0,0,2147.895-608.106Z" transform="translate(-2098 617)"/></g></g></svg>