<svg xmlns="http://www.w3.org/2000/svg" width="295" height="170" viewBox="0 0 295 170">
  <g id="t1-i1" transform="translate(-180 -404)">
    <rect id="Rectangle_5563" data-name="Rectangle 5563" width="295" height="129.194" rx="10" transform="translate(180 404)" fill="#c7f9cc"/>
    <g id="Group_54079" data-name="Group 54079" transform="translate(-1210.002 1914)">
      <path id="Path_101061" data-name="Path 101061" d="M1601.318-1483.038h-13.337a2.343,2.343,0,0,0-2.344,2.344,2.343,2.343,0,0,0,2.344,2.343h13.337a12.024,12.024,0,0,1,11.995,12.026v89.513a12.024,12.024,0,0,1-11.995,12.025H1474.683a12.023,12.023,0,0,1-11.995-12.025V-1393.4a2.343,2.343,0,0,0-2.344-2.344A2.343,2.343,0,0,0,1458-1393.4v16.592a16.717,16.717,0,0,0,16.682,16.713h47.582l-4.719,15.411h-10.4a2.345,2.345,0,0,0-2.344,2.344,2.344,2.344,0,0,0,2.344,2.344h61.7a2.343,2.343,0,0,0,2.344-2.344,2.344,2.344,0,0,0-2.344-2.344h-10.394l-4.719-15.411h47.582A16.716,16.716,0,0,0,1618-1376.812v-89.513a16.715,16.715,0,0,0-16.682-16.713Zm-78.87,138.351,4.72-15.412h21.666l4.719,15.412Z" fill="#22577a"/>
      <path id="Path_101062" data-name="Path 101062" d="M1460.344-1401.962a2.343,2.343,0,0,0,2.344-2.344v-62.019a12.023,12.023,0,0,1,11.995-12.025h6.806a2.343,2.343,0,0,0,2.343-2.344,2.343,2.343,0,0,0-2.343-2.344h-6.806A16.716,16.716,0,0,0,1458-1466.325v62.019A2.344,2.344,0,0,0,1460.344-1401.962Z" fill="#22577a"/>
      <path id="Path_101063" data-name="Path 101063" d="M1608.649-1466.714a7.424,7.424,0,0,0-7.41-7.421H1592.9a2.344,2.344,0,0,0-2.344,2.344,2.345,2.345,0,0,0,2.344,2.344h8.342a2.731,2.731,0,0,1,2.723,2.733v45.957a2.343,2.343,0,0,0,2.344,2.344,2.343,2.343,0,0,0,2.343-2.344Z" fill="#22577a"/>
      <path id="Path_101064" data-name="Path 101064" d="M1608.649-1386.107v-23.615a2.343,2.343,0,0,0-2.343-2.344,2.343,2.343,0,0,0-2.344,2.344v23.615a2.732,2.732,0,0,1-2.723,2.734H1474.762a2.732,2.732,0,0,1-2.723-2.734v-80.607a2.731,2.731,0,0,1,2.723-2.733h4.415a2.344,2.344,0,0,0,2.343-2.344,2.343,2.343,0,0,0-2.343-2.344h-4.415a7.424,7.424,0,0,0-7.41,7.421v80.607a7.424,7.424,0,0,0,7.41,7.422h126.477A7.424,7.424,0,0,0,1608.649-1386.107Z" fill="#22577a"/>
      <path id="Path_101065" data-name="Path 101065" d="M1478.018-1374.07a2.343,2.343,0,0,0-2.344,2.344,2.344,2.344,0,0,0,2.344,2.344h9.574a2.344,2.344,0,0,0,2.344-2.344,2.343,2.343,0,0,0-2.344-2.344Z" fill="#22577a"/>
      <path id="Path_101066" data-name="Path 101066" d="M1496.768-1374.07a2.343,2.343,0,0,0-2.344,2.344,2.344,2.344,0,0,0,2.344,2.344h9.574a2.344,2.344,0,0,0,2.344-2.344,2.343,2.343,0,0,0-2.344-2.344Z" fill="#22577a"/>
      <path id="Path_101067" data-name="Path 101067" d="M1538.136-1392.548a53.781,53.781,0,0,0,27.056-7.287,54.061,54.061,0,0,0,19.272-19.152,2.343,2.343,0,0,0-.824-3.21,2.346,2.346,0,0,0-3.211.825,49.37,49.37,0,0,1-10.833,12.739q-2.891-1.3-5.992-2.342c5-9.179,7.87-20.707,8.195-32.955h15.365a48.785,48.785,0,0,1-2.539,13.431,2.344,2.344,0,0,0,1.465,2.973,2.34,2.34,0,0,0,.755.125,2.342,2.342,0,0,0,2.218-1.59,53.588,53.588,0,0,0,2.844-17.282A53.81,53.81,0,0,0,1538.136-1500a53.241,53.241,0,0,0-24.355,5.814,54.292,54.292,0,0,0-17.393,14.049,7.787,7.787,0,0,0-2.343-.358,7.821,7.821,0,0,0-7.815,7.81,7.788,7.788,0,0,0,2.333,5.562,53.248,53.248,0,0,0-4.2,20.849,53.81,53.81,0,0,0,53.772,53.726Zm-49.029-51.382h15.365c.325,12.248,3.195,23.775,8.195,32.955q-3.086,1.035-5.971,2.332A48.958,48.958,0,0,1,1489.107-1443.93Zm21.943,38.534q2.005-.8,4.109-1.463a41.284,41.284,0,0,0,5.129,6.268A49.012,49.012,0,0,1,1511.05-1405.4Zm24.742,8c-5.792-.8-11.28-4.537-15.841-10.79a77.7,77.7,0,0,1,15.841-2.033Zm0-17.512a81.762,81.762,0,0,0-18.523,2.562c-4.933-8.632-7.776-19.717-8.107-31.583h26.63v6.426a7.823,7.823,0,0,0-5.471,7.451,7.823,7.823,0,0,0,5.471,7.451v7.693Zm4.687,17.512v-12.823a77.7,77.7,0,0,1,15.841,2.033C1551.759-1401.934,1546.272-1398.194,1540.479-1397.4Zm24.764-7.99q-1.182.784-2.412,1.5a48.59,48.59,0,0,1-6.862,3.307,41.271,41.271,0,0,0,5.143-6.282Q1563.225-1406.188,1565.243-1405.387Zm2.648-54.389a3.129,3.129,0,0,1-3.128-3.123,3.13,3.13,0,0,1,3.128-3.123,3.129,3.129,0,0,1,3.128,3.123A3.129,3.129,0,0,1,1567.891-1459.776Zm19.272,11.158H1571.8c-.065-2.438-.232-4.865-.5-7.253a7.818,7.818,0,0,0,4.408-7.028,7.822,7.822,0,0,0-7.519-7.8,62.308,62.308,0,0,0-4.582-10.869q3.086-1.035,5.97-2.331A48.946,48.946,0,0,1,1587.163-1448.618Zm-21.942-38.534q-2.005.8-4.109,1.463a42.187,42.187,0,0,0-4.272-5.373q-.439-.465-.886-.906A48.915,48.915,0,0,1,1565.221-1487.152Zm-24.742-7.995c5.825.82,11.338,4.67,15.828,10.789a77.733,77.733,0,0,1-15.828,2.03Zm0,17.508A81.714,81.714,0,0,0,1559-1480.2a56.475,56.475,0,0,1,4.664,10.737,7.808,7.808,0,0,0-3.586,6.565,7.825,7.825,0,0,0,6.582,7.713c.238,2.163.389,4.359.451,6.568h-26.63Zm0,33.709h26.63c-.331,11.866-3.173,22.95-8.107,31.583a81.762,81.762,0,0,0-18.523-2.562v-7.693a7.824,7.824,0,0,0,5.472-7.451,7.824,7.824,0,0,0-5.472-7.451Zm-2.343,10.754a3.129,3.129,0,0,1,3.127,3.123,3.129,3.129,0,0,1-3.127,3.123,3.129,3.129,0,0,1-3.128-3.123A3.129,3.129,0,0,1,1538.136-1433.176Zm-2.344-61.975v12.823a77.611,77.611,0,0,1-15.863-2.039C1524.407-1490.5,1529.918-1494.338,1535.792-1495.151Zm-19.887,5.144q2.2-1.119,4.476-2a41.093,41.093,0,0,0-5.216,6.324q-2.117-.672-4.134-1.473A48.655,48.655,0,0,1,1515.905-1490.007Zm-21.861,14.2a3.129,3.129,0,0,1,3.128,3.123,3.129,3.129,0,0,1-3.128,3.123,3.129,3.129,0,0,1-3.127-3.123A3.129,3.129,0,0,1,1494.044-1475.808Zm-1.295,10.826a7.781,7.781,0,0,0,1.295.108,7.822,7.822,0,0,0,7.816-7.811,7.766,7.766,0,0,0-1.621-4.756,49.652,49.652,0,0,1,6.44-6.471q2.889,1.3,5.988,2.34a64.219,64.219,0,0,0-5.582,14.307,2.342,2.342,0,0,0,1.667,2.864,2.31,2.31,0,0,0,.6.079,2.346,2.346,0,0,0,2.265-1.746,59.236,59.236,0,0,1,5.632-14.139,81.626,81.626,0,0,0,18.542,2.568v29.022h-26.629c.069-2.435.245-4.858.525-7.23a2.344,2.344,0,0,0-2.052-2.6,2.349,2.349,0,0,0-2.6,2.052c-.3,2.553-.49,5.161-.56,7.78h-15.366a48.433,48.433,0,0,1,3.643-16.364Z" fill="#22577a"/>
      <path id="Path_101068" data-name="Path 101068" d="M1492.1-1406.66h-10.044a2.343,2.343,0,0,0-2.344,2.344,2.344,2.344,0,0,0,2.344,2.344H1492.1a2.345,2.345,0,0,0,2.344-2.344A2.344,2.344,0,0,0,1492.1-1406.66Z" fill="#22577a"/>
      <path id="Path_101069" data-name="Path 101069" d="M1479.713-1393.379a2.343,2.343,0,0,0,2.344,2.344h16.284a2.343,2.343,0,0,0,2.344-2.344,2.343,2.343,0,0,0-2.344-2.343h-16.284A2.343,2.343,0,0,0,1479.713-1393.379Z" fill="#22577a"/>
    </g>
  </g>
</svg>
