<svg xmlns="http://www.w3.org/2000/svg" width="295" height="170" viewBox="0 0 295 170">
  <g id="t3-i1" transform="translate(-180 -398)">
    <rect id="Rectangle_5564" data-name="Rectangle 5564" width="295" height="129.194" rx="10" transform="translate(180 398)" fill="#c7f9cc"/>
    <g id="Group_54080" data-name="Group 54080" transform="translate(-1328.999 1908)">
      <path id="Path_101070" data-name="Path 101070" d="M1579.328-1445.076a2.33,2.33,0,0,0,2.33-2.329v-18.18a11.952,11.952,0,0,1,11.919-11.956h3.532a2.329,2.329,0,0,0,2.329-2.329,2.329,2.329,0,0,0-2.329-2.329h-3.532A16.615,16.615,0,0,0,1577-1465.585v18.18A2.329,2.329,0,0,0,1579.328-1445.076Z" fill="#22577a"/>
      <path id="Path_101071" data-name="Path 101071" d="M1719.421-1482.2h-54.815a2.329,2.329,0,0,0-2.329,2.329,2.329,2.329,0,0,0,2.329,2.329h54.816a11.951,11.951,0,0,1,11.919,11.956v88.99a11.951,11.951,0,0,1-11.919,11.956H1593.577a11.952,11.952,0,0,1-11.919-11.956v-59.972a2.329,2.329,0,0,0-2.33-2.329,2.329,2.329,0,0,0-2.329,2.329v59.972a16.615,16.615,0,0,0,16.578,16.614h47.286l-4.69,15.323h-10.33a2.329,2.329,0,0,0-2.329,2.329,2.329,2.329,0,0,0,2.329,2.329h61.313a2.329,2.329,0,0,0,2.329-2.329,2.329,2.329,0,0,0-2.329-2.329h-10.329l-4.69-15.324h47.285A16.615,16.615,0,0,0,1736-1376.6v-88.989a16.616,16.616,0,0,0-16.579-16.614Zm-78.377,137.541,4.69-15.324h21.531l4.69,15.324Z" fill="#22577a"/>
      <path id="Path_101072" data-name="Path 101072" d="M1593.656-1468.69h3.763a2.33,2.33,0,0,0,2.329-2.329,2.329,2.329,0,0,0-2.329-2.329h-3.763a7.379,7.379,0,0,0-7.364,7.377v80.135a7.38,7.38,0,0,0,7.364,7.377h43.418a2.329,2.329,0,0,0,2.329-2.329,2.33,2.33,0,0,0-2.329-2.33h-43.418a2.715,2.715,0,0,1-2.706-2.718v-80.135A2.716,2.716,0,0,1,1593.656-1468.69Z" fill="#22577a"/>
      <path id="Path_101073" data-name="Path 101073" d="M1724.377-1427.17a2.329,2.329,0,0,0-2.329,2.329v39a2.715,2.715,0,0,1-2.706,2.718h-5.037a2.33,2.33,0,0,0-2.329,2.33,2.329,2.329,0,0,0,2.329,2.329h5.037a7.38,7.38,0,0,0,7.365-7.377v-39A2.33,2.33,0,0,0,1724.377-1427.17Z" fill="#22577a"/>
      <path id="Path_101074" data-name="Path 101074" d="M1726.707-1465.971a7.379,7.379,0,0,0-7.365-7.377h-54.347a2.329,2.329,0,0,0-2.329,2.329,2.329,2.329,0,0,0,2.329,2.329h54.347a2.716,2.716,0,0,1,2.706,2.719v30.16a2.329,2.329,0,0,0,2.329,2.329,2.33,2.33,0,0,0,2.33-2.329Z" fill="#22577a"/>
      <path id="Path_101075" data-name="Path 101075" d="M1643.665-1437.208a5.972,5.972,0,0,0-5.156,5.9v1.393H1634.2a2.329,2.329,0,0,0-2.329,2.329,2.329,2.329,0,0,0,2.329,2.329h4.309v1.394a5.971,5.971,0,0,0,5.156,5.9l.6.082v9.184a2.329,2.329,0,0,0,2.329,2.329,2.329,2.329,0,0,0,2.329-2.329v-8.557l12.749,1.716a6.992,6.992,0,0,0,6.88,5.808,6.991,6.991,0,0,0,6.981-6.987v-21.738a6.992,6.992,0,0,0-6.981-6.988,6.993,6.993,0,0,0-6.88,5.809Zm17.912,16.958-17.29-2.328a1.3,1.3,0,0,1-1.119-1.284v-7.445a1.3,1.3,0,0,1,1.119-1.285l17.29-2.328Zm4.658-18.2a2.329,2.329,0,0,1,2.323-2.329,2.328,2.328,0,0,1,2.322,2.329v21.738a2.328,2.328,0,0,1-2.322,2.329,2.328,2.328,0,0,1-2.323-2.329Z" fill="#22577a"/>
      <path id="Path_101076" data-name="Path 101076" d="M1611.067-1456.8h13.88l4.19,6.039a2.329,2.329,0,0,0,1.914,1,2.328,2.328,0,0,0,1.913-1l4.19-6.039h13.881a7,7,0,0,0,6.989-6.989v-28.218a7,7,0,0,0-6.989-6.989h-23.812a2.329,2.329,0,0,0-2.329,2.329,2.329,2.329,0,0,0,2.329,2.329h23.812a2.334,2.334,0,0,1,2.331,2.331v28.218a2.333,2.333,0,0,1-2.331,2.331h-15.1a2.329,2.329,0,0,0-1.914,1l-2.971,4.283-2.972-4.283a2.329,2.329,0,0,0-1.914-1h-15.1a2.334,2.334,0,0,1-2.331-2.331v-28.218a2.334,2.334,0,0,1,2.331-2.331h5.322a2.329,2.329,0,0,0,2.329-2.329,2.329,2.329,0,0,0-2.329-2.329h-5.322a7,7,0,0,0-6.989,6.989v28.218a7,7,0,0,0,6.99,6.989Z" fill="#22577a"/>
      <path id="Path_101077" data-name="Path 101077" d="M1596.891-1373.869a2.329,2.329,0,0,0-2.329,2.329,2.329,2.329,0,0,0,2.329,2.329h9.515a2.328,2.328,0,0,0,2.329-2.329,2.329,2.329,0,0,0-2.329-2.329Z" fill="#22577a"/>
      <path id="Path_101078" data-name="Path 101078" d="M1615.524-1373.869a2.329,2.329,0,0,0-2.329,2.329,2.329,2.329,0,0,0,2.329,2.329h9.515a2.329,2.329,0,0,0,2.329-2.329,2.329,2.329,0,0,0-2.329-2.329Z" fill="#22577a"/>
      <path id="Path_101079" data-name="Path 101079" d="M1629.4-1468.456a2.32,2.32,0,0,0,1.647.683,2.322,2.322,0,0,0,1.647-.683l7.675-7.675a6.991,6.991,0,0,0,.005-9.877,6.927,6.927,0,0,0-4.933-2.043h-.006a6.937,6.937,0,0,0-4.389,1.553,6.937,6.937,0,0,0-4.388-1.553h-.006a6.931,6.931,0,0,0-4.934,2.043,6.993,6.993,0,0,0,.005,9.877Zm-4.387-14.258a2.3,2.3,0,0,1,1.64-.679h0a2.315,2.315,0,0,1,1.647.684l1.1,1.1a2.328,2.328,0,0,0,3.294,0l1.1-1.1a2.314,2.314,0,0,1,1.647-.683h0a2.3,2.3,0,0,1,1.639.679,2.327,2.327,0,0,1-.005,3.289l-6.029,6.029-6.029-6.029a2.329,2.329,0,0,1,0-3.289Z" fill="#22577a"/>
      <path id="Path_101080" data-name="Path 101080" d="M1606.406-1406.022h9.982a2.329,2.329,0,0,0,2.329-2.329,2.329,2.329,0,0,0-2.329-2.329h-9.982a2.329,2.329,0,0,0-2.329,2.329A2.329,2.329,0,0,0,1606.406-1406.022Z" fill="#22577a"/>
      <path id="Path_101081" data-name="Path 101081" d="M1606.406-1395.153h16.184a2.329,2.329,0,0,0,2.329-2.329,2.329,2.329,0,0,0-2.329-2.329h-16.184a2.329,2.329,0,0,0-2.329,2.329A2.329,2.329,0,0,0,1606.406-1395.153Z" fill="#22577a"/>
      <path id="Path_101082" data-name="Path 101082" d="M1709.919-1443.1a2.329,2.329,0,0,0-2.329-2.329h-9.982a2.329,2.329,0,0,0-2.329,2.329,2.329,2.329,0,0,0,2.329,2.329h9.982A2.329,2.329,0,0,0,1709.919-1443.1Z" fill="#22577a"/>
      <path id="Path_101083" data-name="Path 101083" d="M1707.59-1456.3h-16.184a2.329,2.329,0,0,0-2.329,2.329,2.329,2.329,0,0,0,2.329,2.329h16.184a2.329,2.329,0,0,0,2.329-2.329A2.329,2.329,0,0,0,1707.59-1456.3Z" fill="#22577a"/>
      <path id="Path_101084" data-name="Path 101084" d="M1654.131-1386.172h2.063a2.328,2.328,0,0,0,1.886-.963l4.052-5.595,4.052,5.595a2.331,2.331,0,0,0,1.887.963h12.845a2.329,2.329,0,0,0,2.329-2.329,2.329,2.329,0,0,0-2.329-2.329H1669.26l-5.241-7.237a2.331,2.331,0,0,0-1.887-.963,2.329,2.329,0,0,0-1.886.963l-5.241,7.237h-.873a10.047,10.047,0,0,0-10.03,10.042,10.046,10.046,0,0,0,10.03,10.041h43.224a10.046,10.046,0,0,0,10.03-10.041,10.047,10.047,0,0,0-10.03-10.042h-5.662a2.329,2.329,0,0,0-2.329,2.329,2.329,2.329,0,0,0,2.329,2.33h5.662a5.384,5.384,0,0,1,5.372,5.383,5.384,5.384,0,0,1-5.372,5.383h-43.225a5.383,5.383,0,0,1-5.371-5.383,5.384,5.384,0,0,1,5.371-5.384Z" fill="#22577a"/>
    </g>
  </g>
</svg>
