<svg xmlns="http://www.w3.org/2000/svg" width="85" height="85" viewBox="0 0 85 85">
  <g id="t4-i5" transform="translate(-2683.529 -34.073)">
    <rect id="Rectangle_5508" data-name="Rectangle 5508" width="85" height="85" transform="translate(2683.529 34.074)" fill="none"/>
    <circle id="Ellipse_4104" data-name="Ellipse 4104" cx="40.674" cy="40.674" r="40.674" transform="translate(2685.355 37.726)" fill="#22577a"/>
    <path id="Path_100636" data-name="Path 100636" d="M2757.326,100.906a.665.665,0,0,1,.664-.664h.725a.166.166,0,0,0,.117-.283l-7.888-7.888a2.332,2.332,0,0,1,0-3.287l.33-.329a2.332,2.332,0,0,1,3.287,0l2.067,2.067a.166.166,0,0,0,.283-.117V73.543a2.327,2.327,0,0,1,2.324-2.324h.069a2.319,2.319,0,0,1,1.755.8V35.734a1.665,1.665,0,0,0-1.66-1.66H2724.25a1.665,1.665,0,0,0-1.66,1.66v64.655a1.665,1.665,0,0,0,1.66,1.66h33.075v-1.144Z" transform="translate(-25.995 0)" fill="#263b4d"/>
    <path id="Path_100637" data-name="Path 100637" d="M2754.913,102.937a2.308,2.308,0,0,1,.678-1.644l.329-.329a2.332,2.332,0,0,1,3.287,0l2.067,2.068a.166.166,0,0,0,.117.049.162.162,0,0,0,.063-.013.166.166,0,0,0,.1-.153V86.053a2.327,2.327,0,0,1,1.813-2.266V53.747a.879.879,0,0,0-.876-.876h-32.049a.879.879,0,0,0-.876.876v49.291a.878.878,0,0,0,.876.876h24.682A2.329,2.329,0,0,1,2754.913,102.937Z" transform="translate(-30.641 -12.51)" fill="#c3ddf4"/>
    <path id="Path_100638" data-name="Path 100638" d="M2732.864,103.038V53.747a.878.878,0,0,1,.875-.876h-3.294a.879.879,0,0,0-.876.876v49.291a.878.878,0,0,0,.876.876h3.294A.878.878,0,0,1,2732.864,103.038Z" transform="translate(-30.641 -12.51)" fill="#aec1ed"/>
    <g id="Group_53847" data-name="Group 53847" transform="translate(2707.737 35.801)">
      <circle id="Ellipse_4105" data-name="Ellipse 4105" cx="3.081" cy="3.081" r="3.081" transform="translate(5.011 57.284)" fill="#22577a"/>
      <path id="Path_100639" data-name="Path 100639" d="M2778.676,42.193h-9.524a1.245,1.245,0,0,1,0-2.49h9.524a1.245,1.245,0,0,1,0,2.49Z" transform="translate(-2763.891 -39.548)" fill="#22577a"/>
      <circle id="Ellipse_4106" data-name="Ellipse 4106" cx="1.401" cy="1.401" r="1.401" transform="translate(0)" fill="#22577a"/>
    </g>
    <path id="Path_100640" data-name="Path 100640" d="M2762.5,52.871h-32.049a.879.879,0,0,0-.876.876v3.888h33.8V53.747A.879.879,0,0,0,2762.5,52.871Z" transform="translate(-30.641 -12.51)" fill="#ffc94a"/>
    <path id="Path_100641" data-name="Path 100641" d="M2733.74,52.871h-3.294a.879.879,0,0,0-.876.876v3.888h3.294V53.747A.878.878,0,0,1,2733.74,52.871Z" transform="translate(-30.641 -12.51)" fill="#f2b322"/>
    <path id="Path_100642" data-name="Path 100642" d="M2765.934,125.492a1.665,1.665,0,0,1-1.66,1.66h-25.3a1.665,1.665,0,0,1-1.66-1.66v-8.068a1.665,1.665,0,0,1,1.66-1.66h25.3a1.665,1.665,0,0,1,1.66,1.66Z" transform="translate(-35.793 -54.366)" fill="#263b4d"/>
    <path id="Path_100643" data-name="Path 100643" d="M2754.913,172.542a2.308,2.308,0,0,1,.678-1.644l.329-.329a2.332,2.332,0,0,1,3.287,0l2.067,2.068a.166.166,0,0,0,.117.049.162.162,0,0,0,.063-.013.166.166,0,0,0,.1-.153V157.46H2729.57v15.183a.878.878,0,0,0,.876.876h24.682A2.329,2.329,0,0,1,2754.913,172.542Z" transform="translate(-30.641 -82.115)" fill="#eef6ff"/>
    <path id="Path_100644" data-name="Path 100644" d="M2732.864,172.643V157.46h-3.294v15.183a.878.878,0,0,0,.876.876h3.294A.878.878,0,0,1,2732.864,172.643Z" transform="translate(-30.641 -82.115)" fill="#d9eafc"/>
    <g id="Group_53848" data-name="Group 53848" transform="translate(2703.979 77.538)">
      <path id="Path_100645" data-name="Path 100645" d="M2759.153,166.5h-13.242a1.245,1.245,0,1,1,0-2.49h13.242a1.245,1.245,0,1,1,0,2.49Z" transform="translate(-2744.666 -164.015)" fill="#5dc1d8"/>
      <path id="Path_100646" data-name="Path 100646" d="M2759.153,178.846h-13.242a1.245,1.245,0,1,1,0-2.49h13.242a1.245,1.245,0,1,1,0,2.49Z" transform="translate(-2744.666 -172.228)" fill="#5dc1d8"/>
      <path id="Path_100647" data-name="Path 100647" d="M2752.559,191.186h-6.647a1.245,1.245,0,1,1,0-2.49h6.647a1.245,1.245,0,0,1,0,2.49Z" transform="translate(-2744.666 -180.44)" fill="#5dc1d8"/>
    </g>
    <path id="Path_100648" data-name="Path 100648" d="M2804.566,175.907a1.245,1.245,0,0,1-1.006-1.979l1.63-2.236-1.629-2.236a1.245,1.245,0,0,1,2.013-1.467l2.163,2.969a1.246,1.246,0,0,1,0,1.467l-2.164,2.969A1.244,1.244,0,0,1,2804.566,175.907Z" transform="translate(-79.723 -88.782)" fill="#ff9518"/>
    <path id="Path_100649" data-name="Path 100649" d="M2830.973,252.218v11.46a40.455,40.455,0,0,0,16.552-6.811v-4.649Z" transform="translate(-98.125 -145.177)" fill="#f2b322"/>
    <path id="Path_100650" data-name="Path 100650" d="M2830.973,252.218v11.46q1.671-.282,3.294-.7V252.218Z" transform="translate(-98.125 -145.177)" fill="#d6a636"/>
    <path id="Path_100651" data-name="Path 100651" d="M2830.42,173.815V156.561a2.5,2.5,0,0,0-2.49-2.49h-.069a2.486,2.486,0,0,1-4.56,0h-.069a2.486,2.486,0,0,1-4.56,0h-.069a2.492,2.492,0,0,0-2.07,1.111v-8.066a2.5,2.5,0,0,0-2.49-2.49h-.069a2.5,2.5,0,0,0-2.49,2.49v16.862l-2.068-2.067a2.5,2.5,0,0,0-3.521,0l-.329.329a2.5,2.5,0,0,0,0,3.522l8.054,8.054Z" transform="translate(-80.733 -73.574)" fill="#ffe2b8"/>
    <path id="Path_100652" data-name="Path 100652" d="M2816.912,206.763l-8.053-8.054a2.5,2.5,0,0,1,0-3.522l.329-.329c.037-.036.076-.069.114-.1a2.5,2.5,0,0,0-3.408.1l-.329.329a2.5,2.5,0,0,0,0,3.522l8.054,8.054Z" transform="translate(-80.732 -106.521)" fill="#ffc987"/>
    <path id="Path_100653" data-name="Path 100653" d="M2845.86,237.7a.832.832,0,0,1-.83.83h-18.259a.833.833,0,0,1-.83-.83v-5.471a.833.833,0,0,1,.83-.83h18.259a.833.833,0,0,1,.83.83Z" transform="translate(-94.776 -131.319)" fill="#ffc94a"/>
    <path id="Path_100654" data-name="Path 100654" d="M2829.234,237.7v-5.471a.833.833,0,0,1,.83-.83h-3.294a.833.833,0,0,0-.83.83V237.7a.833.833,0,0,0,.83.83h3.294A.833.833,0,0,1,2829.234,237.7Z" transform="translate(-94.775 -131.319)" fill="#f2b322"/>
    <circle id="Ellipse_4107" data-name="Ellipse 4107" cx="1.543" cy="1.543" r="1.543" transform="translate(2745.894 102.099)" fill="#d6a636"/>
    <path id="Path_100655" data-name="Path 100655" d="M2870.325,117.3a.833.833,0,0,1-.83.83h-23.871a.833.833,0,0,1-.83-.83V100.074a.832.832,0,0,1,.83-.83h23.871a.833.833,0,0,1,.83.83Z" transform="translate(-107.323 -43.372)" fill="#e56353"/>
    <path id="Path_100656" data-name="Path 100656" d="M2870.493,114.072c0-.913.647-1.287,1.438-.83l6.58,3.8a.878.878,0,0,1,0,1.66l-6.58,3.8c-.791.457-1.438.083-1.438-.83Z" transform="translate(-124.426 -52.557)" fill="#fff"/>
    <path id="Path_100657" data-name="Path 100657" d="M2868.327,63.491a3.732,3.732,0,0,1-3.6-4.722h-19.1a.832.832,0,0,0-.83.83v9.847a.833.833,0,0,0,.83.83h23.871a.833.833,0,0,0,.83-.83V62.909A3.71,3.71,0,0,1,2868.327,63.491Z" transform="translate(-107.323 -16.435)" fill="#ffc94a"/>
    <path id="Path_100658" data-name="Path 100658" d="M2848.088,117.3V100.074a.832.832,0,0,1,.83-.83h-3.294a.832.832,0,0,0-.83.83V117.3a.833.833,0,0,0,.83.83h3.294A.833.833,0,0,1,2848.088,117.3Z" transform="translate(-107.323 -43.372)" fill="#d15241"/>
    <path id="Path_100659" data-name="Path 100659" d="M2848.088,69.446V59.6a.832.832,0,0,1,.83-.83h-3.294a.832.832,0,0,0-.83.83v9.847a.833.833,0,0,0,.83.83h3.294A.833.833,0,0,1,2848.088,69.446Z" transform="translate(-107.323 -16.435)" fill="#f2b322"/>
    <circle id="Ellipse_4108" data-name="Ellipse 4108" cx="3.901" cy="3.901" r="3.901" transform="translate(2757.103 39.42)" fill="#d15241"/>
    <path id="Path_100660" data-name="Path 100660" d="M2912.675,59.611a.83.83,0,0,1-.83-.83V56.976a.83.83,0,0,1,.239-1.625h.591a.83.83,0,0,1,.83.83v2.6A.83.83,0,0,1,2912.675,59.611Z" transform="translate(-151.553 -14.16)" fill="#eef6ff"/>
    <g id="Group_53849" data-name="Group 53849" transform="translate(2740.244 44.902)">
      <path id="Path_100661" data-name="Path 100661" d="M2866.215,68.935h-11.886a1.245,1.245,0,0,1,0-2.49h11.886a1.245,1.245,0,0,1,0,2.49Z" transform="translate(-2853.084 -66.445)" fill="#d6a636"/>
      <path id="Path_100662" data-name="Path 100662" d="M2869.809,80.445h-15.479a1.245,1.245,0,0,1,0-2.49h15.479a1.245,1.245,0,0,1,0,2.49Z" transform="translate(-2853.084 -74.105)" fill="#d6a636"/>
    </g>
    <circle id="Ellipse_4109" data-name="Ellipse 4109" cx="6.197" cy="6.197" r="6.197" transform="translate(2709.632 47.134)" fill="#d15241"/>
    <circle id="Ellipse_4110" data-name="Ellipse 4110" cx="4.98" cy="4.98" r="4.98" transform="translate(2710.849 48.351)" fill="#e56353"/>
    <path id="Path_100663" data-name="Path 100663" d="M2776.567,85.85h-1.106v-.266a2.462,2.462,0,1,0-1.69,0v.266h-1.106a.805.805,0,0,0-.8.8v1.931a4.978,4.978,0,0,0,5.509,0V86.653A.805.805,0,0,0,2776.567,85.85Z" transform="translate(-58.786 -31.104)" fill="#fff"/>
    <path id="Path_100664" data-name="Path 100664" d="M2750.556,128.753a.833.833,0,0,1-.83.83h-4.815a.832.832,0,0,1-.83-.83v-4.814a.832.832,0,0,1,.83-.83h4.815a.833.833,0,0,1,.83.83Z" transform="translate(-40.298 -59.253)" fill="#ff9518"/>
    <path id="Path_100665" data-name="Path 100665" d="M2746.158,128.753v-4.814a.833.833,0,0,1,.83-.83h-2.077a.832.832,0,0,0-.83.83v4.814a.832.832,0,0,0,.83.83h2.077A.833.833,0,0,1,2746.158,128.753Z" transform="translate(-40.298 -59.253)" fill="#ef8318"/>
    <g id="Group_53850" data-name="Group 53850" transform="translate(2711.614 65.847)">
      <path id="Path_100666" data-name="Path 100666" d="M2777.2,130.309a2.033,2.033,0,0,1,.426-1.245h-8.893a1.245,1.245,0,1,0,0,2.49h8.893A2.033,2.033,0,0,1,2777.2,130.309Z" transform="translate(-2767.49 -129.064)" fill="#22577a"/>
      <path id="Path_100667" data-name="Path 100667" d="M2809.526,129.064H2807.5a2.034,2.034,0,0,1,0,2.49h2.031a1.245,1.245,0,0,0,0-2.49Z" transform="translate(-2794.114 -129.064)" fill="#22577a"/>
    </g>
    <circle id="Ellipse_4111" data-name="Ellipse 4111" cx="2.213" cy="2.213" r="2.213" transform="translate(2721.159 64.879)" fill="#ff9518"/>
  </g>
</svg>
