<svg xmlns="http://www.w3.org/2000/svg" width="85" height="85" viewBox="0 0 85 85">
  <g id="t4-i6" transform="translate(-2674.691 -324.593)">
    <rect id="Rectangle_5507" data-name="Rectangle 5507" width="85" height="85" transform="translate(2674.691 324.593)" fill="none"/>
    <circle id="Ellipse_4103" data-name="Ellipse 4103" cx="40.674" cy="40.674" r="40.674" transform="translate(2676.191 328.245)" fill="#22577a"/>
    <path id="Path_100595" data-name="Path 100595" d="M2877.579,419.79h-23.67a.833.833,0,0,0-.83.83v11.72a4.623,4.623,0,0,1,1.06,6.846h6.392a.833.833,0,0,1,.83.83v4.624c0,.457.26.562.579.235l4.951-5.093a2.259,2.259,0,0,1,1.408-.6h9.281a.832.832,0,0,0,.83-.83V420.62A.833.833,0,0,0,2877.579,419.79Z" transform="translate(-118.718 -63.354)" fill="#e56353"/>
    <path id="Path_100596" data-name="Path 100596" d="M2856.372,438.356V420.62a.833.833,0,0,1,.83-.83h-3.294a.833.833,0,0,0-.83.83v11.72a4.623,4.623,0,0,1,1.06,6.846h3.065A.832.832,0,0,1,2856.372,438.356Z" transform="translate(-118.718 -63.354)" fill="#d15241"/>
    <path id="Path_100597" data-name="Path 100597" d="M2708.84,399.306a10.216,10.216,0,0,1,4.516-8.475v-2.9a.832.832,0,0,0-.83-.83h-27.157a.832.832,0,0,0-.83.83v17.736a.833.833,0,0,0,.83.83h10.787a2.5,2.5,0,0,1,1.446.557l5.718,5.17c.338.306.616.183.616-.273v-4.624a.832.832,0,0,1,.83-.83h4.075v-7.2Z" transform="translate(-6.554 -41.602)" fill="#57cc99"/>
    <path id="Path_100598" data-name="Path 100598" d="M2726.824,325.423a.833.833,0,0,1,.83-.83h27.572a.832.832,0,0,1,.83.83v16.4a.832.832,0,0,1-.83.83h-7.9a.833.833,0,0,0-.83.83v2.9c0,.457-.314.627-.7.379l-5.655-3.655a3.318,3.318,0,0,0-1.527-.451h-10.967a.832.832,0,0,1-.83-.83v-16.4Z" transform="translate(-34.695)" fill="#e56353"/>
    <path id="Path_100599" data-name="Path 100599" d="M2730.118,341.825v-16.4a.833.833,0,0,1,.83-.83h-3.294a.833.833,0,0,0-.83.83v16.4a.832.832,0,0,0,.83.83h3.294A.832.832,0,0,1,2730.118,341.825Z" transform="translate(-34.695)" fill="#d15241"/>
    <g id="Group_53841" data-name="Group 53841" transform="translate(2694.573 328.807)">
      <path id="Path_100600" data-name="Path 100600" d="M2738.209,337.745c.212-.429.558-.429.769,0l.74,1.5a1.855,1.855,0,0,0,1.245.9l1.654.24c.473.069.58.4.238.732l-1.2,1.166a1.858,1.858,0,0,0-.476,1.463l.283,1.647c.081.471-.2.675-.623.453l-1.479-.778a1.858,1.858,0,0,0-1.539,0l-1.479.778c-.423.222-.7.019-.623-.453l.282-1.647a1.858,1.858,0,0,0-.476-1.463l-1.2-1.166c-.342-.334-.235-.663.238-.732l1.653-.24a1.856,1.856,0,0,0,1.245-.9Z" transform="translate(-2734.133 -337.346)" fill="#fff"/>
      <path id="Path_100601" data-name="Path 100601" d="M2777.174,339.682h-11.11a1.245,1.245,0,0,1,0-2.49h11.11a1.245,1.245,0,1,1,0,2.49Z" transform="translate(-2754.555 -337.192)" fill="#fff"/>
      <path id="Path_100602" data-name="Path 100602" d="M2777.174,349.594h-11.11a1.245,1.245,0,0,1,0-2.49h11.11a1.245,1.245,0,1,1,0,2.49Z" transform="translate(-2754.555 -343.789)" fill="#fff"/>
      <path id="Path_100603" data-name="Path 100603" d="M2771.641,359.505h-5.577a1.245,1.245,0,0,1,0-2.49h5.577a1.245,1.245,0,0,1,0,2.49Z" transform="translate(-2754.555 -350.384)" fill="#fff"/>
    </g>
    <path id="Path_100604" data-name="Path 100604" d="M2772.241,521.78h-9.432l.25.906a1.251,1.251,0,0,1-.356,1.163l-5.144,4.394a.7.7,0,0,1-.456.165.708.708,0,0,1-.513-.215l-3.358-3.542a.943.943,0,0,0-1.378,0l-3.358,3.542a.716.716,0,0,1-.969.051l-5.144-4.394a1.255,1.255,0,0,1-.356-1.163l.25-.906h-9.432a4.55,4.55,0,0,0-4.545,4.545v6.484a40.679,40.679,0,0,0,48.485,0v-6.484A4.551,4.551,0,0,0,2772.241,521.78Z" transform="translate(-35.678 -131.23)" fill="#57cc99"/>
    <path id="Path_100605" data-name="Path 100605" d="M2731.6,526.325a4.55,4.55,0,0,1,4.545-4.545h-3.294a4.55,4.55,0,0,0-4.545,4.545v6.484q1.589,1.182,3.294,2.209v-8.693Z" transform="translate(-35.678 -131.23)" fill="#45a178"/>
    <path id="Path_100606" data-name="Path 100606" d="M2797.694,545.091a1.551,1.551,0,1,1,1.1-.454A1.557,1.557,0,0,1,2797.694,545.091Z" transform="translate(-80.828 -144.681)" fill="#fff"/>
    <path id="Path_100607" data-name="Path 100607" d="M2797.77,544.637a1.55,1.55,0,0,1,.508-2.529,1.55,1.55,0,1,0,0,2.867A1.537,1.537,0,0,1,2797.77,544.637Z" transform="translate(-80.828 -144.681)" fill="#d9eafc"/>
    <path id="Path_100608" data-name="Path 100608" d="M2797.694,563.82a1.552,1.552,0,1,1,1.1-.455A1.554,1.554,0,0,1,2797.694,563.82Z" transform="translate(-80.828 -157.145)" fill="#fff"/>
    <path id="Path_100609" data-name="Path 100609" d="M2797.77,563.366a1.547,1.547,0,0,1,0-2.191,1.538,1.538,0,0,1,.508-.338,1.55,1.55,0,1,0,0,2.867A1.547,1.547,0,0,1,2797.77,563.366Z" transform="translate(-80.828 -157.145)" fill="#d9eafc"/>
    <path id="Path_100610" data-name="Path 100610" d="M2788.634,508.089a14.5,14.5,0,0,1-18.344,0l-1.5,5.442a1.42,1.42,0,0,0,.408,1.333l5.144,4.394a.882.882,0,0,0,1.2-.063l3.358-3.542a.777.777,0,0,1,1.137,0l3.358,3.542a.882.882,0,0,0,1.2.063l5.144-4.394a1.419,1.419,0,0,0,.408-1.333Z" transform="translate(-62.596 -122.118)" fill="#fff"/>
    <path id="Path_100611" data-name="Path 100611" d="M2772.489,514.864a1.421,1.421,0,0,1-.408-1.333l1.009-3.65a14.6,14.6,0,0,1-2.8-1.791l-1.5,5.441a1.42,1.42,0,0,0,.408,1.333l5.144,4.394a.883.883,0,0,0,1.2-.063l.905-.955Z" transform="translate(-62.596 -122.119)" fill="#d9eafc"/>
    <path id="Path_100612" data-name="Path 100612" d="M2814.47,402.592a8.074,8.074,0,0,0-3.108.619,10.171,10.171,0,0,1,1.842,3.473c5.482,1.011,9.363,3.906,9.363,10.15v-6.145A8.1,8.1,0,0,0,2814.47,402.592Z" transform="translate(-90.956 -51.909)" fill="#f2b322"/>
    <path id="Path_100613" data-name="Path 100613" d="M2771.439,399.553a29.471,29.471,0,0,1,5.609.484,10.382,10.382,0,0,0-20.355,2.886v7.221C2756.693,402,2763.294,399.553,2771.439,399.553Z" transform="translate(-54.573 -45.219)" fill="#ffc94a"/>
    <path id="Path_100614" data-name="Path 100614" d="M2759.624,402.821a10.383,10.383,0,0,1,8.922-10.177,10.386,10.386,0,0,0-11.852,10.279v7.221A9.3,9.3,0,0,1,2759.624,402.821Z" transform="translate(-54.573 -45.219)" fill="#f2b322"/>
    <path id="Path_100615" data-name="Path 100615" d="M2746.868,461.224v-6.619h-.451a4.8,4.8,0,1,0,0,9.594h.758A14.551,14.551,0,0,1,2746.868,461.224Z" transform="translate(-44.542 -86.524)" fill="#ffdd8d"/>
    <path id="Path_100616" data-name="Path 100616" d="M2743.377,459.4a4.8,4.8,0,0,1,3.491-4.616v-.181h-.451a4.8,4.8,0,1,0,0,9.594h.758c-.007-.036-.012-.073-.02-.11A4.8,4.8,0,0,1,2743.377,459.4Z" transform="translate(-44.542 -86.524)" fill="#ff9f60"/>
    <path id="Path_100617" data-name="Path 100617" d="M2844.084,454.605h-.451v6.619a14.551,14.551,0,0,1-.307,2.975h.758a4.8,4.8,0,0,0,0-9.594Z" transform="translate(-112.228 -86.524)" fill="#ffc987"/>
    <path id="Path_100618" data-name="Path 100618" d="M2786.185,433.542a14.746,14.746,0,0,1-14.746,14.746h0a14.746,14.746,0,0,1-14.746-14.746V423.6c0-8.144,6.6-10.591,14.746-10.591h0c8.144,0,14.746,2.447,14.746,10.591Z" transform="translate(-54.573 -58.842)" fill="#ffe2b8"/>
    <path id="Path_100619" data-name="Path 100619" d="M2759.621,433.542V423.6c0-7.65,5.825-10.273,13.282-10.563q-.723-.028-1.464-.028c-8.145,0-14.746,2.447-14.746,10.591v9.941a14.746,14.746,0,0,0,14.746,14.746c.494,0,.982-.025,1.464-.073A14.747,14.747,0,0,1,2759.621,433.542Z" transform="translate(-54.573 -58.842)" fill="#ffc987"/>
    <g id="Group_53842" data-name="Group 53842" transform="translate(2708.291 365.972)">
      <path id="Path_100620" data-name="Path 100620" d="M2776.693,454.086a1.55,1.55,0,0,1-1.55-1.55v-2.686a1.55,1.55,0,1,1,3.1,0v2.686A1.549,1.549,0,0,1,2776.693,454.086Z" transform="translate(-2775.143 -448.301)" fill="#263b4d"/>
      <path id="Path_100621" data-name="Path 100621" d="M2818.7,454.086a1.549,1.549,0,0,1-1.549-1.55v-2.686a1.55,1.55,0,1,1,3.1,0v2.686A1.55,1.55,0,0,1,2818.7,454.086Z" transform="translate(-2803.096 -448.301)" fill="#263b4d"/>
      <path id="Path_100622" data-name="Path 100622" d="M2796.365,459h-1.86a2.379,2.379,0,0,1-2.376-2.376v-4.408a1.55,1.55,0,1,1,3.1,0V455.9h1.137a1.55,1.55,0,0,1,0,3.1Z" transform="translate(-2786.447 -449.877)" fill="#263b4d"/>
    </g>
    <path id="Path_100623" data-name="Path 100623" d="M2794,483.6h-8.476a1.3,1.3,0,0,0-1.3,1.3,5.535,5.535,0,1,0,11.071,0A1.3,1.3,0,0,0,2794,483.6Z" transform="translate(-72.898 -105.819)" fill="#fff"/>
    <path id="Path_100624" data-name="Path 100624" d="M2863.38,344.78a.832.832,0,0,0-.83-.83h-31.225a.832.832,0,0,0-.83.83v17.07a.833.833,0,0,0,.83.83h9.091a.833.833,0,0,1,.83.83v3.066c0,.457.321.639.713.405l6.5-3.876a3.568,3.568,0,0,1,1.543-.425h12.544a.833.833,0,0,0,.83-.83Z" transform="translate(-103.689 -12.882)" fill="#ffc94a"/>
    <path id="Path_100625" data-name="Path 100625" d="M2677.985,405.671V387.935a.832.832,0,0,1,.83-.83h-3.294a.832.832,0,0,0-.83.83v17.736a.833.833,0,0,0,.83.83h3.294A.833.833,0,0,1,2677.985,405.671Z" transform="translate(0 -41.602)" fill="#45a178"/>
    <path id="Path_100626" data-name="Path 100626" d="M2833.79,361.85V344.78a.832.832,0,0,1,.83-.83h-3.294a.832.832,0,0,0-.83.83v17.07a.833.833,0,0,0,.83.83h3.294A.832.832,0,0,1,2833.79,361.85Z" transform="translate(-103.689 -12.882)" fill="#f2b322"/>
    <g id="Group_53843" data-name="Group 53843" transform="translate(2729.923 335.627)">
      <path id="Path_100627" data-name="Path 100627" d="M2843.7,357.887c.2-.408.531-.408.732,0l.7,1.426a1.769,1.769,0,0,0,1.185.861l1.574.229c.45.066.552.379.226.7l-1.139,1.11a1.768,1.768,0,0,0-.453,1.393l.269,1.568c.077.449-.19.643-.593.43l-1.408-.74a1.769,1.769,0,0,0-1.465,0l-1.407.74c-.4.212-.67.018-.593-.43l.269-1.568a1.772,1.772,0,0,0-.453-1.393l-1.139-1.11c-.326-.318-.224-.631.226-.7l1.574-.229a1.768,1.768,0,0,0,1.185-.861Z" transform="translate(-2839.815 -357.581)" fill="#22577a"/>
      <path id="Path_100628" data-name="Path 100628" d="M2873.461,357.887c.2-.408.531-.408.732,0l.7,1.426a1.769,1.769,0,0,0,1.185.861l1.574.229c.451.066.552.379.227.7l-1.139,1.11a1.77,1.77,0,0,0-.453,1.393l.269,1.568c.077.449-.19.643-.592.43l-1.408-.74a1.769,1.769,0,0,0-1.465,0l-1.408.74c-.4.212-.67.018-.592-.43l.269-1.568a1.77,1.77,0,0,0-.453-1.393l-1.139-1.11c-.326-.318-.224-.631.226-.7l1.574-.229a1.768,1.768,0,0,0,1.185-.861Z" transform="translate(-2859.625 -357.581)" fill="#22577a"/>
      <path id="Path_100629" data-name="Path 100629" d="M2903.226,357.887c.2-.408.531-.408.732,0l.7,1.426a1.769,1.769,0,0,0,1.185.861l1.574.229c.451.066.552.379.226.7l-1.139,1.11a1.77,1.77,0,0,0-.453,1.393l.269,1.568c.077.449-.19.643-.592.43l-1.408-.74a1.769,1.769,0,0,0-1.465,0l-1.407.74c-.4.212-.67.018-.593-.43l.269-1.568a1.771,1.771,0,0,0-.453-1.393l-1.139-1.11c-.326-.318-.224-.631.226-.7l1.574-.229a1.769,1.769,0,0,0,1.185-.861Z" transform="translate(-2879.433 -357.581)" fill="#22577a"/>
    </g>
    <g id="Group_53844" data-name="Group 53844" transform="translate(2679.644 349.529)">
      <path id="Path_100630" data-name="Path 100630" d="M2707.085,401.633h-16.342a1.245,1.245,0,0,1,0-2.49h16.342a1.245,1.245,0,1,1,0,2.49Z" transform="translate(-2689.498 -399.143)" fill="#45a178"/>
      <path id="Path_100631" data-name="Path 100631" d="M2707.085,413.867h-16.342a1.245,1.245,0,0,1,0-2.49h16.342a1.245,1.245,0,0,1,0,2.49Z" transform="translate(-2689.498 -407.285)" fill="#45a178"/>
      <path id="Path_100632" data-name="Path 100632" d="M2698.946,426.1h-8.2a1.245,1.245,0,0,1,0-2.49h8.2a1.245,1.245,0,1,1,0,2.49Z" transform="translate(-2689.498 -415.427)" fill="#45a178"/>
    </g>
    <g id="Group_53845" data-name="Group 53845" transform="translate(2738.514 360.568)">
      <path id="Path_100633" data-name="Path 100633" d="M2883.085,434.633h-16.342a1.245,1.245,0,1,1,0-2.49h16.342a1.245,1.245,0,1,1,0,2.49Z" transform="translate(-2865.498 -432.143)" fill="#fff"/>
      <path id="Path_100634" data-name="Path 100634" d="M2883.085,446.867h-16.342a1.245,1.245,0,0,1,0-2.49h16.342a1.245,1.245,0,0,1,0,2.49Z" transform="translate(-2865.498 -440.285)" fill="#fff"/>
      <path id="Path_100635" data-name="Path 100635" d="M2874.946,459.1h-8.2a1.245,1.245,0,0,1,0-2.49h8.2a1.245,1.245,0,1,1,0,2.49Z" transform="translate(-2865.498 -448.427)" fill="#fff"/>
    </g>
  </g>
</svg>
