<svg xmlns="http://www.w3.org/2000/svg" width="85" height="85" viewBox="0 0 85 85">
  <g id="t4-i2" transform="translate(-2680.158 754.336)">
    <rect id="Rectangle_5513" data-name="Rectangle 5513" width="85" height="85" transform="translate(2680.158 -754.336)" fill="none"/>
    <circle id="Ellipse_4117" data-name="Ellipse 4117" cx="40.674" cy="40.674" r="40.674" transform="translate(2681.984 -750.684)" fill="#22577a"/>
    <path id="Path_100742" data-name="Path 100742" d="M2781.422-581.1a.331.331,0,0,0-.288-.166.334.334,0,0,0-.165.044,1.46,1.46,0,0,1-.728.195,1.477,1.477,0,0,1-1.278-.733l-.745-1.291a1.472,1.472,0,0,1,.538-2.007.332.332,0,0,0,.121-.453.331.331,0,0,0-.288-.166.328.328,0,0,0-.166.044,1.462,1.462,0,0,1-.729.2,1.477,1.477,0,0,1-1.278-.733l-.745-1.291a1.471,1.471,0,0,1,.538-2.007.332.332,0,0,0,.121-.454.332.332,0,0,0-.288-.166.328.328,0,0,0-.166.045l-.705.407a1.455,1.455,0,0,1-.727.195,1.529,1.529,0,0,1-.22-.016.334.334,0,0,0-.049,0,.332.332,0,0,0-.274.145.333.333,0,0,0-.013.353l.481.832a1.452,1.452,0,0,1-.531,1.981l-1.975,1.14a1.438,1.438,0,0,1-.72.193,1.458,1.458,0,0,1-1.261-.724l-.65-1.126-.281.162,7.356,12.741,4.83-2.788a1.457,1.457,0,0,1-.331-.388l-.745-1.291a1.471,1.471,0,0,1,.538-2.008l.7-.406A.333.333,0,0,0,2781.422-581.1Z" transform="translate(-59.092 -109.305)" fill="#ffe2b8"/>
    <path id="Path_100743" data-name="Path 100743" d="M2851.452-706.408l3.939-2.274a.833.833,0,0,0,.3-1.134l-6.816-11.806a.833.833,0,0,0-1.134-.3l-3.939,2.274Z" transform="translate(-108.909 -21.496)" fill="#fff"/>
    <path id="Path_100744" data-name="Path 100744" d="M2765.544-621.682a1.457,1.457,0,0,1,1.261.724l.722,1.251a.332.332,0,0,0,.288.166h.024a.333.333,0,0,0,.284-.209,1.449,1.449,0,0,1,.628-.732l5.878-3.394.035-.017-3.913-6.778-8.122,4.689,2.517,4.359A1.445,1.445,0,0,1,2765.544-621.682Z" transform="translate(-54.886 -82.299)" fill="#263b4d"/>
    <g id="Group_53861" data-name="Group 53861" transform="translate(2707.744 -709.589)">
      <path id="Path_100745" data-name="Path 100745" d="M2765.544-614.953a1.457,1.457,0,0,1,1.261.724l.722,1.251a.332.332,0,0,0,.288.166h.024a.333.333,0,0,0,.284-.209,1.449,1.449,0,0,1,.628-.732l.055-.031-3.912-6.776-2.264,1.307,2.517,4.359A1.445,1.445,0,0,1,2765.544-614.953Z" transform="translate(-2762.63 620.561)" fill="#121c24"/>
      <path id="Path_100746" data-name="Path 100746" d="M2789.8-577.4a1.471,1.471,0,0,1,.538-2.007l.054-.031-.437-.758a1.477,1.477,0,0,1-1.251-.731l-.745-1.291a1.47,1.47,0,0,1-.009-1.45l-.542-.939a1.478,1.478,0,0,1-1.251-.732l-.745-1.291a1.469,1.469,0,0,1-.009-1.45l-.437-.756-.054.031a1.458,1.458,0,0,1-.727.194,1.473,1.473,0,0,1-.22-.016.342.342,0,0,0-.049,0,.332.332,0,0,0-.275.145.333.333,0,0,0-.013.353l.481.832a1.451,1.451,0,0,1-.252,1.769l4.677,8.1a.832.832,0,0,0,1.134.3l.218-.125Z" transform="translate(-2776.572 599.448)" fill="#121c24"/>
    </g>
    <path id="Path_100747" data-name="Path 100747" d="M2728.774-642.73l-4.4,2.542a.833.833,0,0,0-.3,1.134l3.544,6.138a.832.832,0,0,0,1.134.3l4.4-2.541Z" transform="translate(-29.149 -74.275)" fill="#fff"/>
    <path id="Path_100748" data-name="Path 100748" d="M2726.548-639.494l3.071-1.773-.845-1.463-4.4,2.542a.833.833,0,0,0-.3,1.134l3.544,6.138a.832.832,0,0,0,1.134.3l.613-.354-3.114-5.394A.832.832,0,0,1,2726.548-639.494Z" transform="translate(-29.149 -74.275)" fill="#c7f9cc"/>
    <path id="Path_100749" data-name="Path 100749" d="M2787.282-735.1l-14.352,21.961,6.333,10.968,26.194-1.449Z" transform="translate(-61.74 -12.799)" fill="#fff"/>
    <path id="Path_100750" data-name="Path 100750" d="M2787.282-735.1l-14.352,21.961,1.931,3.345,14.352-21.961Z" transform="translate(-61.74 -12.799)" fill="#c7f9cc"/>
    <path id="Path_100751" data-name="Path 100751" d="M2753.7-660.683a.833.833,0,0,1-.3,1.134l-12.016,6.937a.833.833,0,0,1-1.134-.3l-6.816-11.806a.833.833,0,0,1,.3-1.134l12.016-6.937a.832.832,0,0,1,1.134.3Z" transform="translate(-35.38 -54.194)" fill="#ffc94a"/>
    <path id="Path_100752" data-name="Path 100752" d="M2736.64-663.836a.832.832,0,0,1,.3-1.134l10.711-6.184-.771-1.335a.832.832,0,0,0-1.134-.3l-12.016,6.937a.833.833,0,0,0-.3,1.134l6.816,11.806a.833.833,0,0,0,1.134.3l1.3-.753Z" transform="translate(-35.38 -54.194)" fill="#d6a636"/>
    <path id="Path_100753" data-name="Path 100753" d="M2835.423-715.417a.833.833,0,0,1-.3,1.134l-3.255,1.879a.832.832,0,0,1-1.134-.3L2808.5-751.212a.833.833,0,0,1,.3-1.134l3.255-1.879a.833.833,0,0,1,1.134.3Z" transform="translate(-85.339 0)" fill="#ffc94a"/>
    <path id="Path_100754" data-name="Path 100754" d="M2811.322-750.271a.833.833,0,0,1,.3-1.134l2.264-1.307-.7-1.21a.833.833,0,0,0-1.134-.3l-3.255,1.879a.832.832,0,0,0-.3,1.134l22.231,38.505a.833.833,0,0,0,1.134.3l.991-.572Z" transform="translate(-85.338 0)" fill="#d6a636"/>
    <path id="Path_100755" data-name="Path 100755" d="M2724.9-566.666l-12.3,7.1a40.869,40.869,0,0,0,11.165,9.6l8.08-4.665Z" transform="translate(-21.594 -124.896)" fill="#d9eafc"/>
    <path id="Path_100756" data-name="Path 100756" d="M2724.9-566.666l-12.3,7.1q.875,1.083,1.821,2.1l11.843-6.837Z" transform="translate(-21.594 -124.896)" fill="#aec1ed"/>
    <path id="Path_100757" data-name="Path 100757" d="M2766.155-594.507a1.788,1.788,0,0,1-2.435-.653l-3.358-5.815a1.788,1.788,0,0,1,.652-2.435l1.975-1.14a1.787,1.787,0,0,1,2.435.652l3.358,5.815a1.788,1.788,0,0,1-.652,2.434Z" transform="translate(-53.219 -99.526)" fill="#ffe2b8"/>
    <path id="Path_100758" data-name="Path 100758" d="M2775.933-598.08l-3.358-5.815a1.787,1.787,0,0,0-1.6-.889l3.356,5.813a1.787,1.787,0,0,1-.652,2.434l-1.975,1.14a1.766,1.766,0,0,1-.832.236l0,0a1.788,1.788,0,0,0,2.435.652l1.976-1.141A1.788,1.788,0,0,0,2775.933-598.08Z" transform="translate(-60.369 -99.527)" fill="#ffc987"/>
    <path id="Path_100759" data-name="Path 100759" d="M2874.981-713.45a1.244,1.244,0,0,1-1.08-.623,1.246,1.246,0,0,1,.456-1.7,3.116,3.116,0,0,0,1.139-4.252,3.116,3.116,0,0,0-4.252-1.139,1.245,1.245,0,0,1-1.7-.456,1.245,1.245,0,0,1,.456-1.7,5.609,5.609,0,0,1,7.654,2.051,5.61,5.61,0,0,1-2.051,7.654A1.245,1.245,0,0,1,2874.981-713.45Z" transform="translate(-125.926 -20.141)" fill="#ffc94a"/>
    <path id="Path_100760" data-name="Path 100760" d="M2872.517-719.057a1.245,1.245,0,0,1-1.079-.623,1.245,1.245,0,0,1,.456-1.7,8.1,8.1,0,0,0,2.962-11.055,8.039,8.039,0,0,0-4.914-3.77,8.04,8.04,0,0,0-6.141.808,1.245,1.245,0,0,1-1.7-.456,1.245,1.245,0,0,1,.456-1.7,10.514,10.514,0,0,1,8.031-1.057,10.515,10.515,0,0,1,6.426,4.931,10.6,10.6,0,0,1-3.874,14.457A1.241,1.241,0,0,1,2872.517-719.057Z" transform="translate(-120.972 -10.222)" fill="#ffc94a"/>
    <path id="Path_100761" data-name="Path 100761" d="M2787.728-609.745a1.807,1.807,0,0,1-.659,2.461l-5.878,3.394a1.807,1.807,0,0,1-2.461-.66l-.745-1.291a1.807,1.807,0,0,1,.659-2.461l5.878-3.394a1.807,1.807,0,0,1,2.461.66Z" transform="translate(-64.945 -94.769)" fill="#ffe2b8"/>
    <path id="Path_100762" data-name="Path 100762" d="M2780.531-604.007l-.745-1.291a1.806,1.806,0,0,1,.66-2.46l5.878-3.394a1.76,1.76,0,0,1,.443-.18,1.808,1.808,0,0,0-2.244-.361l-5.878,3.394a1.807,1.807,0,0,0-.659,2.461l.745,1.291a1.807,1.807,0,0,0,2.018.839A1.834,1.834,0,0,1,2780.531-604.007Z" transform="translate(-64.945 -94.77)" fill="#ffc987"/>
    <path id="Path_100763" data-name="Path 100763" d="M2797.451-597.774a1.807,1.807,0,0,1-.659,2.461l-5.878,3.394a1.807,1.807,0,0,1-2.461-.66l-.745-1.29a1.807,1.807,0,0,1,.659-2.461l5.878-3.394a1.807,1.807,0,0,1,2.461.66Z" transform="translate(-71.415 -102.736)" fill="#ffe2b8"/>
    <path id="Path_100764" data-name="Path 100764" d="M2790.254-592.038l-.745-1.291a1.807,1.807,0,0,1,.66-2.461l5.878-3.394a1.786,1.786,0,0,1,.443-.18,1.809,1.809,0,0,0-2.244-.361l-5.878,3.394a1.807,1.807,0,0,0-.659,2.461l.745,1.291a1.807,1.807,0,0,0,2.018.839A1.805,1.805,0,0,1,2790.254-592.038Z" transform="translate(-71.415 -102.736)" fill="#ffc987"/>
    <g id="Group_53862" data-name="Group 53862" transform="translate(2718.599 -698.289)">
      <path id="Path_100765" data-name="Path 100765" d="M2805.065-584.587a1.807,1.807,0,0,1-.659,2.461l-5.878,3.394a1.807,1.807,0,0,1-2.461-.659l-.745-1.291a1.806,1.806,0,0,1,.659-2.461l5.878-3.394a1.807,1.807,0,0,1,2.461.659Z" transform="translate(-2795.082 586.777)" fill="#ffe2b8"/>
      <path id="Path_100766" data-name="Path 100766" d="M2810.568-570.182a1.807,1.807,0,0,1-.659,2.461l-5.878,3.394a1.807,1.807,0,0,1-2.461-.66l-.745-1.29a1.807,1.807,0,0,1,.659-2.461l5.878-3.394a1.807,1.807,0,0,1,2.461.66Z" transform="translate(-2798.744 577.19)" fill="#ffe2b8"/>
    </g>
    <g id="Group_53863" data-name="Group 53863" transform="translate(2718.599 -698.289)">
      <path id="Path_100767" data-name="Path 100767" d="M2797.868-578.851l-.745-1.291a1.807,1.807,0,0,1,.66-2.461l5.878-3.394a1.777,1.777,0,0,1,.443-.18,1.809,1.809,0,0,0-2.245-.361l-5.878,3.394a1.807,1.807,0,0,0-.66,2.461l.745,1.291a1.808,1.808,0,0,0,2.018.839A1.821,1.821,0,0,1,2797.868-578.851Z" transform="translate(-2795.082 586.777)" fill="#ffc987"/>
      <path id="Path_100768" data-name="Path 100768" d="M2803.371-564.445l-.745-1.291a1.806,1.806,0,0,1,.659-2.461l5.878-3.394a1.791,1.791,0,0,1,.443-.18,1.808,1.808,0,0,0-2.244-.36l-5.878,3.394a1.806,1.806,0,0,0-.659,2.461l.745,1.291a1.807,1.807,0,0,0,2.018.839A1.819,1.819,0,0,1,2803.371-564.445Z" transform="translate(-2798.743 577.19)" fill="#ffc987"/>
    </g>
    <path id="Path_100769" data-name="Path 100769" d="M2761.243-568.517a.833.833,0,0,1-.3,1.134l-5.717,3.3a.832.832,0,0,1-1.134-.3L2745.8-578.75a.833.833,0,0,1,.3-1.134l5.717-3.3a.832.832,0,0,1,1.134.3Z" transform="translate(-43.609 -113.829)" fill="#57cc99"/>
    <path id="Path_100770" data-name="Path 100770" d="M2759.359-577.946l-4.822,2.784a.832.832,0,0,0-.3,1.134l7.5,12.989,4.822-2.784a.833.833,0,0,0,.3-1.134Z" transform="translate(-49.224 -117.389)" fill="#80ed99"/>
    <circle id="Ellipse_4118" data-name="Ellipse 4118" cx="1.245" cy="1.245" r="1.245" transform="translate(2711.213 -684.465)" fill="#22577a"/>
  </g>
</svg>
