<svg xmlns="http://www.w3.org/2000/svg" width="295" height="170" viewBox="0 0 295 170">
  <g id="t4-i1" transform="translate(-180 -398)">
    <rect id="Rectangle_5565" data-name="Rectangle 5565" width="295" height="129.194" rx="10" transform="translate(180 398)" fill="#c7f9cc"/>
    <g id="Group_54081" data-name="Group 54081" transform="translate(-1392.999 1908)">
      <path id="Path_101085" data-name="Path 101085" d="M1799.994-1387.329a2.328,2.328,0,0,0-1.964-2.3l-5.3-.84-2.7-6.527,3.149-4.343a2.328,2.328,0,0,0-.239-3.014l-9.621-9.62a2.33,2.33,0,0,0-3.016-.237l-4.335,3.152-6.526-2.7-.842-5.3a2.329,2.329,0,0,0-2.3-1.963h0l-13.6.005a2.33,2.33,0,0,0-2.3,1.966l-.839,5.3-6.52,2.706-4.34-3.15a2.329,2.329,0,0,0-3.016.239l-9.613,9.626a2.328,2.328,0,0,0-.237,3.014l3.15,4.34-2.7,6.531-5.292.843a2.33,2.33,0,0,0-1.963,2.3l.006,13.609a2.328,2.328,0,0,0,1.964,2.3l5.295.84,2.705,6.527-3.149,4.344a2.329,2.329,0,0,0,.239,3.014l9.62,9.619a2.33,2.33,0,0,0,3.016.237l4.335-3.152,6.526,2.7.842,5.3a2.331,2.331,0,0,0,2.3,1.963h0l13.6-.006a2.33,2.33,0,0,0,2.3-1.964l.838-5.3,6.521-2.7,4.34,3.149a2.329,2.329,0,0,0,3.016-.239l9.613-9.626a2.328,2.328,0,0,0,.237-3.014l-3.151-4.34,2.7-6.531,5.292-.843a2.329,2.329,0,0,0,1.963-2.3Zm-9.269,12.358a2.332,2.332,0,0,0-1.786,1.41l-3.7,8.941a2.331,2.331,0,0,0,.267,2.258l2.749,3.786-6.8,6.812-3.785-2.748a2.329,2.329,0,0,0-2.261-.266l-8.929,3.7a2.331,2.331,0,0,0-1.408,1.787l-.732,4.623-9.623,0-.735-4.62a2.329,2.329,0,0,0-1.409-1.786l-8.935-3.7a2.321,2.321,0,0,0-.891-.177,2.326,2.326,0,0,0-1.369.445l-3.781,2.749-6.808-6.808,2.747-3.789a2.33,2.33,0,0,0,.266-2.259l-3.7-8.935a2.331,2.331,0,0,0-1.787-1.409l-4.619-.732,0-9.633,4.616-.735a2.332,2.332,0,0,0,1.786-1.41l3.7-8.941a2.331,2.331,0,0,0-.267-2.258l-2.749-3.786,6.8-6.812,3.785,2.747a2.326,2.326,0,0,0,2.261.266l8.929-3.705a2.329,2.329,0,0,0,1.408-1.787l.731-4.623,9.623,0,.735,4.62a2.331,2.331,0,0,0,1.409,1.786l8.935,3.7a2.332,2.332,0,0,0,2.261-.268l3.781-2.749,6.808,6.807-2.747,3.79a2.33,2.33,0,0,0-.266,2.259l3.7,8.935a2.326,2.326,0,0,0,1.786,1.408l4.62.733,0,9.632Z" fill="#22577a"/>
      <path id="Path_101086" data-name="Path 101086" d="M1652.6-1470.8a2.329,2.329,0,0,0,2.329-2.329v-9.249a11.954,11.954,0,0,1,11.911-11.969h75.106a2.329,2.329,0,0,0,2.329-2.329,2.329,2.329,0,0,0-2.329-2.329H1666.84a16.617,16.617,0,0,0-16.569,16.627v9.249a2.329,2.329,0,0,0,2.329,2.329Z" fill="#22577a"/>
      <path id="Path_101087" data-name="Path 101087" d="M1752.822-1494.342h21.162a11.955,11.955,0,0,1,11.911,11.969v63.637a2.329,2.329,0,0,0,2.329,2.329,2.329,2.329,0,0,0,2.329-2.329v-63.637A16.617,16.617,0,0,0,1773.984-1499h-21.162a2.33,2.33,0,0,0-2.33,2.329,2.33,2.33,0,0,0,2.33,2.329Z" fill="#22577a"/>
      <path id="Path_101088" data-name="Path 101088" d="M1712.606-1372.607H1666.84a11.953,11.953,0,0,1-11.911-11.969v-31.9a2.329,2.329,0,0,0-2.329-2.329,2.329,2.329,0,0,0-2.329,2.329v31.9a16.617,16.617,0,0,0,16.569,16.627h45.766a2.33,2.33,0,0,0,2.33-2.329A2.33,2.33,0,0,0,1712.606-1372.607Z" fill="#22577a"/>
      <path id="Path_101089" data-name="Path 101089" d="M1684.468-1376.807h27.06a2.329,2.329,0,0,0,2.329-2.329,2.329,2.329,0,0,0-2.329-2.329h-27.06a2.329,2.329,0,0,0-2.329,2.329A2.329,2.329,0,0,0,1684.468-1376.807Z" fill="#22577a"/>
      <path id="Path_101090" data-name="Path 101090" d="M1661.887-1423.694a2.329,2.329,0,0,0-2.329,2.329v37.176a7.379,7.379,0,0,0,7.361,7.382h6.647a2.329,2.329,0,0,0,2.329-2.329,2.329,2.329,0,0,0-2.329-2.329h-6.647a2.716,2.716,0,0,1-2.7-2.724v-37.176A2.329,2.329,0,0,0,1661.887-1423.694Z" fill="#22577a"/>
      <path id="Path_101091" data-name="Path 101091" d="M1778.937-1418.5a2.329,2.329,0,0,0,2.329-2.329v-52.291a7.379,7.379,0,0,0-7.361-7.382H1666.919a7.379,7.379,0,0,0-7.361,7.382,2.329,2.329,0,0,0,2.329,2.329,2.329,2.329,0,0,0,2.329-2.329,2.716,2.716,0,0,1,2.7-2.724h106.986a2.717,2.717,0,0,1,2.7,2.724v52.29A2.329,2.329,0,0,0,1778.937-1418.5Z" fill="#22577a"/>
      <path id="Path_101092" data-name="Path 101092" d="M1668.811-1485.233h9.509a2.329,2.329,0,0,0,2.329-2.329,2.329,2.329,0,0,0-2.329-2.329h-9.509a2.329,2.329,0,0,0-2.329,2.329A2.329,2.329,0,0,0,1668.811-1485.233Z" fill="#22577a"/>
      <path id="Path_101093" data-name="Path 101093" d="M1696.942-1485.233a2.329,2.329,0,0,0,2.329-2.329,2.329,2.329,0,0,0-2.329-2.329h-9.509a2.329,2.329,0,0,0-2.329,2.329,2.329,2.329,0,0,0,2.329,2.329Z" fill="#22577a"/>
      <path id="Path_101094" data-name="Path 101094" d="M1687.195-1428.455a7.125,7.125,0,0,0,7.11-7.124v-23.5a7.125,7.125,0,0,0-7.11-7.125h-2.87a2.33,2.33,0,0,0-2.33,2.329,2.33,2.33,0,0,0,2.33,2.329h2.87a2.463,2.463,0,0,1,2.452,2.467v23.5a2.462,2.462,0,0,1-2.452,2.466h-30.97a2.332,2.332,0,0,0-1.412.477l-9.155,6.976v-33.423a2.463,2.463,0,0,1,2.452-2.467h25.517a2.329,2.329,0,0,0,2.329-2.329,2.329,2.329,0,0,0-2.329-2.329H1648.11a7.126,7.126,0,0,0-7.111,7.125v38.126a2.327,2.327,0,0,0,1.3,2.087,2.316,2.316,0,0,0,1.033.242,2.327,2.327,0,0,0,1.412-.476l12.272-9.351Z" fill="#22577a"/>
      <path id="Path_101095" data-name="Path 101095" d="M1683.308-1452.791a2.328,2.328,0,0,0-2.329-2.329h-25.722a2.328,2.328,0,0,0-2.329,2.329,2.329,2.329,0,0,0,2.329,2.329h25.722A2.329,2.329,0,0,0,1683.308-1452.791Z" fill="#22577a"/>
      <path id="Path_101096" data-name="Path 101096" d="M1655.257-1444.552a2.329,2.329,0,0,0-2.329,2.329,2.329,2.329,0,0,0,2.329,2.329h22.623a2.329,2.329,0,0,0,2.329-2.329,2.329,2.329,0,0,0-2.329-2.329Z" fill="#22577a"/>
      <path id="Path_101097" data-name="Path 101097" d="M1777.476-1382.838a2.329,2.329,0,0,0-2.329,2.329,15.792,15.792,0,0,1-15.769,15.78,15.792,15.792,0,0,1-15.769-15.78,15.792,15.792,0,0,1,15.769-15.78,15.735,15.735,0,0,1,13.2,7.142,2.33,2.33,0,0,0,3.225.673,2.33,2.33,0,0,0,.672-3.225,20.38,20.38,0,0,0-17.1-9.249,20.456,20.456,0,0,0-20.427,20.439,20.456,20.456,0,0,0,20.427,20.438,20.456,20.456,0,0,0,20.427-20.438A2.329,2.329,0,0,0,1777.476-1382.838Z" fill="#22577a"/>
      <path id="Path_101098" data-name="Path 101098" d="M1678.866-1404.5h9.976a2.329,2.329,0,0,0,2.329-2.329,2.329,2.329,0,0,0-2.329-2.329h-9.976a2.329,2.329,0,0,0-2.329,2.329A2.329,2.329,0,0,0,1678.866-1404.5Z" fill="#22577a"/>
      <path id="Path_101099" data-name="Path 101099" d="M1678.866-1393.63h16.174a2.329,2.329,0,0,0,2.329-2.329,2.329,2.329,0,0,0-2.329-2.329h-16.174a2.329,2.329,0,0,0-2.329,2.329A2.329,2.329,0,0,0,1678.866-1393.63Z" fill="#22577a"/>
      <path id="Path_101100" data-name="Path 101100" d="M1762.073-1452.575H1752.1a2.329,2.329,0,0,0-2.329,2.33,2.329,2.329,0,0,0,2.329,2.329h9.975a2.329,2.329,0,0,0,2.329-2.329A2.329,2.329,0,0,0,1762.073-1452.575Z" fill="#22577a"/>
      <path id="Path_101101" data-name="Path 101101" d="M1762.073-1463.444H1745.9a2.329,2.329,0,0,0-2.329,2.329,2.328,2.328,0,0,0,2.329,2.329h16.173a2.328,2.328,0,0,0,2.329-2.329A2.329,2.329,0,0,0,1762.073-1463.444Z" fill="#22577a"/>
    </g>
  </g>
</svg>
