<svg xmlns="http://www.w3.org/2000/svg" width="250" height="87.5" viewBox="0 0 250 87.5">
  <g id="t5-i14" transform="translate(-1619.515 968.393)">
    <g id="Group_53908" data-name="Group 53908" transform="translate(1619.515 -968.393)">
      <path id="Path_100789" data-name="Path 100789" d="M1626.134-967.858l236.153.42c3.3,0,6.247-.49,6.247,6.583l-.29,77.769H1620.173v-78.057C1620.173-964.63,1620.511-967.858,1626.134-967.858Z" transform="translate(-1619.031 968.787)" fill="#aab2ab"/>
      <path id="Path_100790" data-name="Path 100790" d="M1864.836-968.393H1624.2a4.688,4.688,0,0,0-4.683,4.681v81.763a1.057,1.057,0,0,0,1.059,1.056h247.884a1.055,1.055,0,0,0,1.057-1.056v-81.763A4.686,4.686,0,0,0,1864.836-968.393ZM1624.2-966.278h240.638a2.566,2.566,0,0,1,2.563,2.566v56.7h-171.99a37.005,37.005,0,0,1-32.39,19.136,36.97,36.97,0,0,1-32.384-19.136h-9v-56.7A2.569,2.569,0,0,1,1624.2-966.278Z" transform="translate(-1619.515 968.393)"/>
      <g id="Group_53897" data-name="Group 53897" transform="translate(10.977 8.133)">
        <path id="Path_100791" data-name="Path 100791" d="M1685.029-932.89a28.4,28.4,0,0,1-28.387,28.419,28.405,28.405,0,0,1-28.424-28.385v-.033a28.4,28.4,0,0,1,28.389-28.42,28.4,28.4,0,0,1,28.422,28.386Z" transform="translate(-1624.084 965.475)" fill="#fff"/>
        <g id="Group_53896" data-name="Group 53896">
          <path id="Path_100792" data-name="Path 100792" d="M1681.469-954.258a31.468,31.468,0,0,1,9.449,23.135q0,13.687-9.288,22.892a32.117,32.117,0,0,1-23.295,9.692,31.245,31.245,0,0,1-22.889-9.614,31.346,31.346,0,0,1-9.61-22.97,31.89,31.89,0,0,1,9.61-23.135,30.994,30.994,0,0,1,22.889-9.451A31.454,31.454,0,0,1,1681.469-954.258Zm-41.781,4.235a26.019,26.019,0,0,0-7.987,18.907,25.609,25.609,0,0,0,7.906,18.742,25.709,25.709,0,0,0,18.827,7.9,26.109,26.109,0,0,0,18.989-7.985,24.88,24.88,0,0,0,7.661-18.66,25.783,25.783,0,0,0-7.788-18.945,25.686,25.686,0,0,0-18.862-7.784A25.233,25.233,0,0,0,1639.688-950.023ZM1653.7-934.3a3.91,3.91,0,0,0-3.655-2.66q-4.308,0-4.306,5.8t4.306,5.8a4.173,4.173,0,0,0,4.063-2.827l3.981,2.12a9.221,9.221,0,0,1-8.541,5.056,9.415,9.415,0,0,1-7.032-2.691,10.133,10.133,0,0,1-2.646-7.423,10,10,0,0,1,2.726-7.385,9.2,9.2,0,0,1,6.791-2.731q6.022,0,8.623,4.739Zm18.73,0q-1.221-2.659-3.582-2.66-4.394,0-4.4,5.8t4.4,5.8a4.033,4.033,0,0,0,3.989-2.827l4.07,2.12a9.2,9.2,0,0,1-8.526,5.056,9.4,9.4,0,0,1-7.023-2.691,10.157,10.157,0,0,1-2.639-7.423,10.086,10.086,0,0,1,2.681-7.385,9.138,9.138,0,0,1,6.819-2.731q6.011,0,8.605,4.739Z" transform="translate(-1625.837 963.709)"/>
        </g>
      </g>
      <g id="Group_53898" data-name="Group 53898" transform="translate(93.689 68.224)">
        <path id="Path_100793" data-name="Path 100793" d="M1679.977-929.1a8.608,8.608,0,0,1,1.8.174,3.862,3.862,0,0,1,1.393.57,2.644,2.644,0,0,1,.9,1.052,3.708,3.708,0,0,1,.32,1.624,2.99,2.99,0,0,1-.474,1.735,3.427,3.427,0,0,1-1.4,1.141,3.318,3.318,0,0,1,1.912,1.286,3.817,3.817,0,0,1,.63,2.214,3.791,3.791,0,0,1-.406,1.806,3.527,3.527,0,0,1-1.094,1.245,4.817,4.817,0,0,1-1.568.717,7.1,7.1,0,0,1-1.812.231h-6.7V-929.1Zm-.386,5.579a2.187,2.187,0,0,0,1.334-.387,1.445,1.445,0,0,0,.523-1.25,1.614,1.614,0,0,0-.174-.792,1.307,1.307,0,0,0-.465-.483,1.969,1.969,0,0,0-.667-.24,4.441,4.441,0,0,0-.785-.068h-2.842v3.219Zm.176,5.855a4,4,0,0,0,.853-.087,2.158,2.158,0,0,0,.715-.29,1.475,1.475,0,0,0,.495-.55,1.889,1.889,0,0,0,.184-.889,1.78,1.78,0,0,0-.6-1.516,2.579,2.579,0,0,0-1.587-.451h-3.311v3.783Z" transform="translate(-1673.473 929.101)" fill="#fff"/>
        <path id="Path_100794" data-name="Path 100794" d="M1680.451-929.1h3.4l3.231,5.448,3.211-5.448h3.382l-5.122,8.5v5.294h-3.04v-5.371Z" transform="translate(-1668.334 929.101)" fill="#fff"/>
      </g>
      <g id="Group_53899" data-name="Group 53899" transform="translate(148.059 67.882)">
        <path id="Path_100795" data-name="Path 100795" d="M1707.8-929.1l5.764,9.253h.032V-929.1h2.846v13.794h-3.035l-5.741-9.237h-.039v9.237h-2.846V-929.1Z" transform="translate(-1704.786 929.443)" fill="#fff"/>
        <path id="Path_100796" data-name="Path 100796" d="M1722.147-925.282a3.018,3.018,0,0,0-.679-.764,3.025,3.025,0,0,0-.915-.511,3.1,3.1,0,0,0-1.073-.186,3.538,3.538,0,0,0-1.741.4,3.241,3.241,0,0,0-1.158,1.061,4.742,4.742,0,0,0-.651,1.516,7.609,7.609,0,0,0-.2,1.757,7.069,7.069,0,0,0,.2,1.689,4.6,4.6,0,0,0,.651,1.478,3.3,3.3,0,0,0,1.158,1.054,3.557,3.557,0,0,0,1.741.4,2.811,2.811,0,0,0,2.174-.851,3.931,3.931,0,0,0,.955-2.242h2.938a6.936,6.936,0,0,1-.6,2.337,5.588,5.588,0,0,1-1.276,1.783,5.435,5.435,0,0,1-1.856,1.123,6.724,6.724,0,0,1-2.337.387,7.087,7.087,0,0,1-2.854-.55,6.157,6.157,0,0,1-2.135-1.518,6.7,6.7,0,0,1-1.335-2.271,8.342,8.342,0,0,1-.467-2.816,8.635,8.635,0,0,1,.467-2.869,6.882,6.882,0,0,1,1.335-2.311,6.134,6.134,0,0,1,2.135-1.546,6.975,6.975,0,0,1,2.854-.562,6.961,6.961,0,0,1,2.155.33,5.813,5.813,0,0,1,1.814.96,5.117,5.117,0,0,1,1.327,1.554,5.6,5.6,0,0,1,.655,2.129h-2.938A2.455,2.455,0,0,0,1722.147-925.282Z" transform="translate(-1698.967 929.298)" fill="#fff"/>
      </g>
      <g id="Group_53900" data-name="Group 53900" transform="translate(201.888 68.224)">
        <path id="Path_100797" data-name="Path 100797" d="M1738.806-929.1l5.764,9.253h.033V-929.1h2.846v13.794h-3.035l-5.741-9.237h-.037v9.237h-2.848V-929.1Z" transform="translate(-1735.787 929.101)" fill="#fff"/>
        <path id="Path_100798" data-name="Path 100798" d="M1749.994-929.1a7.135,7.135,0,0,1,2.486.424,5.426,5.426,0,0,1,1.993,1.276,5.887,5.887,0,0,1,1.314,2.125,8.543,8.543,0,0,1,.476,3,9.6,9.6,0,0,1-.387,2.783,6.234,6.234,0,0,1-1.172,2.2,5.5,5.5,0,0,1-1.954,1.459,6.649,6.649,0,0,1-2.757.53h-5.959V-929.1Zm-.212,11.239a3.859,3.859,0,0,0,1.273-.212,2.794,2.794,0,0,0,1.1-.707,3.474,3.474,0,0,0,.774-1.281,5.656,5.656,0,0,0,.29-1.931,8.019,8.019,0,0,0-.2-1.882,3.765,3.765,0,0,0-.667-1.438,2.951,2.951,0,0,0-1.229-.915,4.88,4.88,0,0,0-1.884-.318h-2.165v8.683Z" transform="translate(-1729.714 929.101)" fill="#fff"/>
      </g>
      <g id="Group_53902" data-name="Group 53902" transform="translate(138.011 7.055)">
        <g id="Group_53901" data-name="Group 53901">
          <path id="Path_100799" data-name="Path 100799" d="M1742.461-941.613a20.746,20.746,0,0,1-20.736,20.763,20.752,20.752,0,0,1-20.765-20.734v-.03a20.751,20.751,0,0,1,20.735-20.763,20.747,20.747,0,0,1,20.765,20.732Z" transform="translate(-1697.554 965.769)" fill="#fff"/>
          <path id="Path_100800" data-name="Path 100800" d="M1723.126-964.33a23.377,23.377,0,0,1,17.176,7,23.329,23.329,0,0,1,7.015,17.153,22.925,22.925,0,0,1-6.893,16.969,23.865,23.865,0,0,1-17.3,7.187,23.222,23.222,0,0,1-16.992-7.128A23.215,23.215,0,0,1,1699-940.174a23.629,23.629,0,0,1,7.135-17.153A23.028,23.028,0,0,1,1723.126-964.33Zm-18.694,17.666a19.377,19.377,0,0,0-1.082,6.49,18.971,18.971,0,0,0,5.867,13.889,19.093,19.093,0,0,0,13.969,5.857,19.382,19.382,0,0,0,14.089-5.917,18.643,18.643,0,0,0,3.3-4.225l-9.109-4.056a7,7,0,0,1-6.647,5.376v3.725h-2.774v-3.725a11.461,11.461,0,0,1-7.333-2.893l3.329-3.354a7.267,7.267,0,0,0,5.391,2.186c1.417,0,2.986-.556,2.986-2.4a1.8,1.8,0,0,0-.651-1.452l-2.3-1.023-2.868-1.28c-1.418-.632-2.62-1.165-3.827-1.7Zm18.754-13.318a18.718,18.718,0,0,0-13.908,5.8,21.922,21.922,0,0,0-2.689,3.263l9.234,4.112c.833-2.563,3.268-4.117,6.225-4.289v-3.724h2.774v3.724a10.4,10.4,0,0,1,6.067,2.214l-3.174,3.264a7.316,7.316,0,0,0-4.127-1.415c-1.2,0-2.9.366-2.9,1.877a.991.991,0,0,0,.219.613l3.091,1.372,2.089.934c1.339.6,2.617,1.161,3.877,1.726L1742.347-935a21.112,21.112,0,0,0,.615-5.169,18.944,18.944,0,0,0-5.806-14.011A18.917,18.917,0,0,0,1723.186-959.982Z" transform="translate(-1698.999 964.33)"/>
        </g>
      </g>
      <g id="Group_53905" data-name="Group 53905" transform="translate(192.366 7.055)">
        <path id="Path_100801" data-name="Path 100801" d="M1775.8-941.061A22.047,22.047,0,0,1,1753.768-919a22.05,22.05,0,0,1-22.069-22.034v-.03a22.051,22.051,0,0,1,22.036-22.065,22.045,22.045,0,0,1,22.065,22.032Z" transform="translate(-1729.275 965.216)" fill="#fff"/>
        <g id="Group_53904" data-name="Group 53904">
          <path id="Path_100802" data-name="Path 100802" d="M1754.433-964.33a23.022,23.022,0,0,0-16.992,7,23.623,23.623,0,0,0-7.138,17.153,23.218,23.218,0,0,0,7.138,17.028,23.214,23.214,0,0,0,16.992,7.128,23.864,23.864,0,0,0,17.3-7.187,22.932,22.932,0,0,0,6.9-16.969,23.323,23.323,0,0,0-7.014-17.153A23.383,23.383,0,0,0,1754.433-964.33Zm.059,4.344a18.928,18.928,0,0,1,13.971,5.8,18.938,18.938,0,0,1,5.8,14.011,18.428,18.428,0,0,1-5.681,13.828,19.4,19.4,0,0,1-14.092,5.917,19.084,19.084,0,0,1-13.969-5.86,18.962,18.962,0,0,1-5.865-13.885,19.257,19.257,0,0,1,5.928-14.011A18.721,18.721,0,0,1,1754.492-959.986Z" transform="translate(-1730.303 964.33)"/>
          <g id="Group_53903" data-name="Group 53903" transform="translate(15.728 18.43)">
            <path id="Path_100803" data-name="Path 100803" d="M1756.92-953.716h-17.56v4.159h17.56Zm0,7.765h-17.56v4.159h17.56Z" transform="translate(-1739.361 953.716)"/>
          </g>
        </g>
      </g>
      <g id="Group_53907" data-name="Group 53907" transform="translate(83.659 7.055)">
        <path id="Path_100804" data-name="Path 100804" d="M1691.112-963.018a22.371,22.371,0,0,1,22.373,22.369,22.373,22.373,0,0,1-22.373,22.371,22.372,22.372,0,0,1-22.373-22.371A22.369,22.369,0,0,1,1691.112-963.018Z" transform="translate(-1666.928 965.296)" fill="#fff"/>
        <g id="Group_53906" data-name="Group 53906" transform="translate(17.655 8.553)">
          <path id="Path_100805" data-name="Path 100805" d="M1690.867-953.2a1.559,1.559,0,0,0-1.561-1.559h-9.882a1.559,1.559,0,0,0-1.561,1.559v9.88h2.756v11.7h7.49v-11.7h2.757v-9.88Z" transform="translate(-1677.864 962.823)"/>
          <path id="Path_100806" data-name="Path 100806" d="M1683.043-959.4a3.38,3.38,0,0,1,3.379,3.381,3.378,3.378,0,0,1-3.379,3.379,3.38,3.38,0,0,1-3.381-3.379A3.382,3.382,0,0,1,1683.043-959.4Z" transform="translate(-1676.54 959.404)"/>
        </g>
        <path id="Path_100807" data-name="Path 100807" d="M1691.82-964.33a23.026,23.026,0,0,0-16.99,7,23.621,23.621,0,0,0-7.134,17.15,23.224,23.224,0,0,0,7.134,17.03,23.222,23.222,0,0,0,16.99,7.126,23.854,23.854,0,0,0,17.3-7.188,22.912,22.912,0,0,0,6.893-16.968,23.3,23.3,0,0,0-7.015-17.15A23.371,23.371,0,0,0,1691.82-964.33Zm.064,4.346a18.924,18.924,0,0,1,13.968,5.8,18.945,18.945,0,0,1,5.806,14.01,18.425,18.425,0,0,1-5.687,13.83,19.391,19.391,0,0,1-14.087,5.917,19.087,19.087,0,0,1-13.97-5.858,18.966,18.966,0,0,1-5.865-13.889,19.268,19.268,0,0,1,5.924-14.01A18.739,18.739,0,0,1,1691.885-959.984Z" transform="translate(-1667.696 964.33)"/>
      </g>
    </g>
  </g>
</svg>
