<svg xmlns="http://www.w3.org/2000/svg" width="505" height="339" viewBox="0 0 505 339">
  <g id="t5-i4" transform="translate(-1968 1124)">
    <g id="Rectángulo_5389" data-name="Rectángulo 5389">
      <rect id="Rectangle_5518" data-name="Rectangle 5518" width="505" height="339" transform="translate(1968 -1124)" fill="none"/>
      <rect id="Rectangle_5519" data-name="Rectangle 5519" width="504" height="338" transform="translate(1968.5 -1123.5)" fill="none"/>
    </g>
    <circle id="Ellipse_4126" data-name="Ellipse 4126" cx="159.5" cy="159.5" r="159.5" transform="translate(2061 -1114)" fill="#c7f9cc"/>
    <circle id="Ellipse_4127" data-name="Ellipse 4127" cx="116.102" cy="116.102" r="116.102" transform="translate(2104.398 -1064.204)" fill="#d6a636"/>
    <circle id="Ellipse_4128" data-name="Ellipse 4128" cx="116.102" cy="116.102" r="116.102" transform="translate(2104.398 -1071)" fill="#ffc94a"/>
    <g id="Group_53884" data-name="Group 53884">
      <g id="Group_53883" data-name="Group 53883">
        <path id="Path_100783" data-name="Path 100783" d="M2220.362-1025.2q32.454,0,55.247,22.652a74.38,74.38,0,0,1,16.574,24.931,78.73,78.73,0,0,1,5.663,29.764,78.882,78.882,0,0,1-5.594,29.764,70.941,70.941,0,0,1-16.506,24.515,79.467,79.467,0,0,1-25.689,17.127,76.993,76.993,0,0,1-29.695,5.939,75.2,75.2,0,0,1-29.351-5.87,77.755,77.755,0,0,1-25.137-16.988,77.027,77.027,0,0,1-16.919-25.068,75.859,75.859,0,0,1-5.8-29.419,76.208,76.208,0,0,1,5.871-29.488,77.6,77.6,0,0,1,17.056-25.345Q2188.177-1025.2,2220.362-1025.2Zm.276,13.95q-26.518,0-44.612,18.508a66.53,66.53,0,0,0-14.019,20.788,60.964,60.964,0,0,0-4.9,24.1,60.61,60.61,0,0,0,4.9,23.962,64.046,64.046,0,0,0,14.019,20.58,63.7,63.7,0,0,0,20.58,13.812,61.985,61.985,0,0,0,24.032,4.765,62.368,62.368,0,0,0,24.1-4.835,66.72,66.72,0,0,0,21.064-13.948q18.092-17.679,18.093-44.336a63.52,63.52,0,0,0-4.7-24.309,61.861,61.861,0,0,0-13.673-20.442Q2246.88-1011.253,2220.638-1011.254Zm-.967,50.552-10.359,5.387a10.618,10.618,0,0,0-4.074-4.835,9.172,9.172,0,0,0-4.489-1.381q-10.359,0-10.359,13.674,0,6.215,2.624,9.943a8.848,8.848,0,0,0,7.735,3.731q6.766,0,9.53-6.631l9.53,4.834a22.717,22.717,0,0,1-8.426,8.909,22.564,22.564,0,0,1-11.877,3.246q-10.359,0-16.712-6.353t-6.354-17.679q0-11.049,6.423-17.542a21.872,21.872,0,0,1,16.228-6.491Q2213.455-971.89,2219.671-960.7Zm44.611,0-10.219,5.387a10.61,10.61,0,0,0-4.076-4.835,9.368,9.368,0,0,0-4.627-1.381q-10.358,0-10.358,13.674,0,6.215,2.624,9.943a8.848,8.848,0,0,0,7.734,3.731q6.768,0,9.53-6.631l9.669,4.834a23.748,23.748,0,0,1-8.564,8.909,22.317,22.317,0,0,1-11.739,3.246q-10.5,0-16.781-6.353t-6.284-17.679q0-11.049,6.422-17.542a21.873,21.873,0,0,1,16.229-6.491Q2258.2-971.89,2264.282-960.7Z" fill="#d6a636"/>
      </g>
    </g>
    <g id="Group_53886" data-name="Group 53886">
      <g id="Group_53885" data-name="Group 53885">
        <path id="Path_100784" data-name="Path 100784" d="M2220.362-1032q32.454,0,55.247,22.652a74.377,74.377,0,0,1,16.574,24.93,78.74,78.74,0,0,1,5.663,29.765,78.882,78.882,0,0,1-5.594,29.764,70.96,70.96,0,0,1-16.506,24.515,79.483,79.483,0,0,1-25.689,17.127,76.992,76.992,0,0,1-29.695,5.939,75.2,75.2,0,0,1-29.351-5.871,77.74,77.74,0,0,1-25.137-16.988,77.023,77.023,0,0,1-16.919-25.067,75.859,75.859,0,0,1-5.8-29.419,76.208,76.208,0,0,1,5.871-29.488,77.619,77.619,0,0,1,17.056-25.346Q2188.177-1032,2220.362-1032Zm.276,13.95q-26.518,0-44.612,18.508a66.538,66.538,0,0,0-14.019,20.787,60.973,60.973,0,0,0-4.9,24.1,60.611,60.611,0,0,0,4.9,23.962,64.046,64.046,0,0,0,14.019,20.58,63.7,63.7,0,0,0,20.58,13.812,61.984,61.984,0,0,0,24.032,4.764,62.366,62.366,0,0,0,24.1-4.834,66.736,66.736,0,0,0,21.064-13.948Q2283.895-928,2283.9-954.653a63.516,63.516,0,0,0-4.7-24.309,61.851,61.851,0,0,0-13.673-20.442Q2246.88-1018.049,2220.638-1018.05Zm-.967,50.552-10.359,5.386a10.615,10.615,0,0,0-4.074-4.834,9.171,9.171,0,0,0-4.489-1.381q-10.359,0-10.359,13.674,0,6.213,2.624,9.943a8.848,8.848,0,0,0,7.735,3.731q6.766,0,9.53-6.631l9.53,4.834a22.721,22.721,0,0,1-8.426,8.908,22.565,22.565,0,0,1-11.877,3.247q-10.359,0-16.712-6.353t-6.354-17.679q0-11.051,6.423-17.542a21.872,21.872,0,0,1,16.228-6.491Q2213.455-978.686,2219.671-967.5Zm44.611,0-10.219,5.386a10.606,10.606,0,0,0-4.076-4.834,9.367,9.367,0,0,0-4.627-1.381q-10.358,0-10.358,13.674,0,6.213,2.624,9.943a8.848,8.848,0,0,0,7.734,3.731q6.768,0,9.53-6.631l9.669,4.834a23.753,23.753,0,0,1-8.564,8.908,22.318,22.318,0,0,1-11.739,3.247q-10.5,0-16.781-6.353t-6.284-17.679q0-11.051,6.422-17.542a21.873,21.873,0,0,1,16.229-6.491Q2258.2-978.686,2264.282-967.5Z" fill="#22577a"/>
      </g>
    </g>
  </g>
</svg>
