<svg xmlns="http://www.w3.org/2000/svg" width="250" height="87.499" viewBox="0 0 250 87.499">
  <g id="t5-i11" transform="translate(-1645.704 1041.898)">
    <g id="Group_53920" data-name="Group 53920" transform="translate(1645.704 -1041.898)">
      <path id="Path_100808" data-name="Path 100808" d="M1652.322-1041.355l236.151.42c3.3,0,6.251-.49,6.251,6.584l-.289,77.769H1646.361v-78.059C1646.361-1038.129,1646.7-1041.355,1652.322-1041.355Z" transform="translate(-1645.22 1042.298)" fill="#aab2ab"/>
      <path id="Path_100809" data-name="Path 100809" d="M1891.024-1041.9H1650.387a4.688,4.688,0,0,0-4.683,4.681v81.763a1.057,1.057,0,0,0,1.057,1.056h247.885a1.056,1.056,0,0,0,1.058-1.056v-81.763A4.686,4.686,0,0,0,1891.024-1041.9Zm-240.637,2.115h240.637a2.568,2.568,0,0,1,2.563,2.566v56.711H1721.6a37.006,37.006,0,0,1-32.389,19.136,36.977,36.977,0,0,1-32.385-19.136h-9v-56.711A2.571,2.571,0,0,1,1650.387-1039.783Z" transform="translate(-1645.704 1041.898)"/>
      <g id="Group_53911" data-name="Group 53911" transform="translate(10.975 8.147)">
        <path id="Path_100810" data-name="Path 100810" d="M1711.219-1006.388a28.408,28.408,0,0,1-28.389,28.422,28.409,28.409,0,0,1-28.424-28.387v-.035a28.4,28.4,0,0,1,28.389-28.419,28.4,28.4,0,0,1,28.424,28.384Z" transform="translate(-1650.272 1038.973)" fill="#fff"/>
        <g id="Group_53910" data-name="Group 53910">
          <path id="Path_100811" data-name="Path 100811" d="M1707.657-1027.755a31.465,31.465,0,0,1,9.449,23.133q0,13.689-9.288,22.892a32.113,32.113,0,0,1-23.294,9.692,31.247,31.247,0,0,1-22.888-9.61,31.353,31.353,0,0,1-9.611-22.974,31.888,31.888,0,0,1,9.611-23.133,30.992,30.992,0,0,1,22.888-9.451A31.454,31.454,0,0,1,1707.657-1027.755Zm-41.781,4.237a26.014,26.014,0,0,0-7.989,18.905,25.605,25.605,0,0,0,7.907,18.74,25.708,25.708,0,0,0,18.827,7.907,26.118,26.118,0,0,0,18.989-7.985,24.885,24.885,0,0,0,7.661-18.662,25.788,25.788,0,0,0-7.786-18.947,25.7,25.7,0,0,0-18.864-7.781A25.233,25.233,0,0,0,1665.876-1023.518Zm14.014,15.728a3.91,3.91,0,0,0-3.656-2.662q-4.306,0-4.3,5.8t4.3,5.8a4.172,4.172,0,0,0,4.064-2.825l3.981,2.118a9.217,9.217,0,0,1-8.541,5.06,9.4,9.4,0,0,1-7.032-2.693,10.135,10.135,0,0,1-2.646-7.425,9.993,9.993,0,0,1,2.726-7.381,9.2,9.2,0,0,1,6.792-2.733q6.019,0,8.621,4.74Zm18.73,0q-1.221-2.661-3.582-2.662-4.393,0-4.395,5.8t4.395,5.8a4.032,4.032,0,0,0,3.989-2.825l4.07,2.118a9.2,9.2,0,0,1-8.526,5.06,9.387,9.387,0,0,1-7.023-2.693,10.159,10.159,0,0,1-2.639-7.425,10.087,10.087,0,0,1,2.681-7.381,9.134,9.134,0,0,1,6.821-2.733q6.008,0,8.605,4.74Z" transform="translate(-1652.025 1037.206)"/>
        </g>
      </g>
      <g id="Group_53913" data-name="Group 53913" transform="translate(83.657 7.069)">
        <path id="Path_100812" data-name="Path 100812" d="M1717.3-1036.515a22.372,22.372,0,0,1,22.373,22.369,22.371,22.371,0,0,1-22.373,22.369,22.37,22.37,0,0,1-22.373-22.369A22.371,22.371,0,0,1,1717.3-1036.515Z" transform="translate(-1693.116 1038.793)" fill="#fff"/>
        <g id="Group_53912" data-name="Group 53912" transform="translate(17.657 8.555)">
          <path id="Path_100813" data-name="Path 100813" d="M1717.055-1026.7a1.561,1.561,0,0,0-1.561-1.561h-9.88a1.56,1.56,0,0,0-1.561,1.561v9.88h2.755v11.7h7.489v-11.7h2.757v-9.88Z" transform="translate(-1704.053 1036.317)"/>
          <path id="Path_100814" data-name="Path 100814" d="M1709.231-1032.9a3.379,3.379,0,0,1,3.379,3.379,3.379,3.379,0,0,1-3.379,3.379,3.38,3.38,0,0,1-3.381-3.379A3.38,3.38,0,0,1,1709.231-1032.9Z" transform="translate(-1702.73 1032.9)"/>
        </g>
        <path id="Path_100815" data-name="Path 100815" d="M1718.011-1037.827a23.029,23.029,0,0,0-16.992,7,23.621,23.621,0,0,0-7.135,17.15,23.231,23.231,0,0,0,7.135,17.032,23.225,23.225,0,0,0,16.992,7.124,23.86,23.86,0,0,0,17.3-7.185,22.917,22.917,0,0,0,6.893-16.971,23.3,23.3,0,0,0-7.013-17.15A23.372,23.372,0,0,0,1718.011-1037.827Zm.062,4.344a18.932,18.932,0,0,1,13.967,5.8,18.944,18.944,0,0,1,5.808,14.01,18.421,18.421,0,0,1-5.687,13.828,19.38,19.38,0,0,1-14.089,5.919,19.087,19.087,0,0,1-13.97-5.857,18.964,18.964,0,0,1-5.867-13.891,19.267,19.267,0,0,1,5.927-14.01A18.743,18.743,0,0,1,1718.073-1033.483Z" transform="translate(-1693.884 1037.827)"/>
      </g>
      <g id="Group_53914" data-name="Group 53914" transform="translate(94.332 68.224)">
        <path id="Path_100816" data-name="Path 100816" d="M1706.536-1002.606a8.581,8.581,0,0,1,1.8.174,3.924,3.924,0,0,1,1.4.569,2.659,2.659,0,0,1,.9,1.052,3.7,3.7,0,0,1,.319,1.624,2.987,2.987,0,0,1-.475,1.735,3.435,3.435,0,0,1-1.4,1.143,3.3,3.3,0,0,1,1.91,1.285,3.806,3.806,0,0,1,.632,2.214,3.785,3.785,0,0,1-.406,1.806,3.553,3.553,0,0,1-1.1,1.247,4.832,4.832,0,0,1-1.568.715,7.083,7.083,0,0,1-1.811.231h-6.7v-13.793Zm-.389,5.579a2.186,2.186,0,0,0,1.335-.387,1.44,1.44,0,0,0,.524-1.25,1.619,1.619,0,0,0-.173-.792,1.313,1.313,0,0,0-.468-.483,1.944,1.944,0,0,0-.665-.24,4.479,4.479,0,0,0-.787-.066h-2.843v3.217Zm.179,5.855a3.977,3.977,0,0,0,.851-.087,2.2,2.2,0,0,0,.717-.288,1.46,1.46,0,0,0,.493-.552,1.913,1.913,0,0,0,.184-.889,1.785,1.785,0,0,0-.6-1.516,2.585,2.585,0,0,0-1.589-.452h-3.311v3.784Z" transform="translate(-1700.032 1002.606)" fill="#fff"/>
        <path id="Path_100817" data-name="Path 100817" d="M1707.01-1002.606h3.4l3.231,5.448,3.212-5.448h3.383l-5.124,8.5v5.294h-3.041v-5.371Z" transform="translate(-1694.893 1002.606)" fill="#fff"/>
      </g>
      <g id="Group_53915" data-name="Group 53915" transform="translate(201.889 67.882)">
        <path id="Path_100818" data-name="Path 100818" d="M1765.172-992.076a2.212,2.212,0,0,0,.665.781,2.818,2.818,0,0,0,.974.444,4.484,4.484,0,0,0,1.158.144,5.761,5.761,0,0,0,.867-.066,2.971,2.971,0,0,0,.866-.262,1.893,1.893,0,0,0,.675-.531,1.335,1.335,0,0,0,.269-.86,1.2,1.2,0,0,0-.357-.906,2.783,2.783,0,0,0-.934-.58,9.578,9.578,0,0,0-1.313-.408c-.488-.115-.984-.243-1.484-.385a13.42,13.42,0,0,1-1.505-.472,5.2,5.2,0,0,1-1.314-.726,3.41,3.41,0,0,1-.932-1.11,3.368,3.368,0,0,1-.358-1.615,3.638,3.638,0,0,1,.452-1.846,4.169,4.169,0,0,1,1.188-1.306,5.115,5.115,0,0,1,1.662-.771,6.943,6.943,0,0,1,1.851-.254,8.626,8.626,0,0,1,2.077.245,5.171,5.171,0,0,1,1.766.781,3.976,3.976,0,0,1,1.228,1.384,4.267,4.267,0,0,1,.452,2.038h-2.941a2.459,2.459,0,0,0-.261-1.021,1.686,1.686,0,0,0-.587-.639,2.447,2.447,0,0,0-.837-.328,5.128,5.128,0,0,0-1.028-.1,3.611,3.611,0,0,0-.731.076,1.934,1.934,0,0,0-.664.271,1.648,1.648,0,0,0-.49.484,1.3,1.3,0,0,0-.194.733,1.247,1.247,0,0,0,.155.656,1.358,1.358,0,0,0,.609.467,7.8,7.8,0,0,0,1.252.422c.536.142,1.236.326,2.1.542.257.054.615.146,1.07.283a5.123,5.123,0,0,1,1.361.644,4.206,4.206,0,0,1,1.168,1.191,3.379,3.379,0,0,1,.49,1.9,4.232,4.232,0,0,1-.368,1.759,3.772,3.772,0,0,1-1.091,1.4,5.237,5.237,0,0,1-1.8.919,8.43,8.43,0,0,1-2.483.328,8.863,8.863,0,0,1-2.214-.28,5.615,5.615,0,0,1-1.891-.882,4.4,4.4,0,0,1-1.307-1.53,4.555,4.555,0,0,1-.462-2.205h2.945A2.522,2.522,0,0,0,1765.172-992.076Z" transform="translate(-1761.977 1002.803)" fill="#fff"/>
        <path id="Path_100819" data-name="Path 100819" d="M1777.2-1002.606l5.159,13.793h-3.15l-1.045-3.072H1773l-1.083,3.072h-3.053l5.218-13.793Zm.172,8.458-1.738-5.058h-.042l-1.794,5.058Z" transform="translate(-1756.904 1002.948)" fill="#fff"/>
      </g>
      <g id="Group_53916" data-name="Group 53916" transform="translate(148.059 67.882)">
        <path id="Path_100820" data-name="Path 100820" d="M1733.994-1002.606l5.766,9.253h.032v-9.253h2.844v13.794H1739.6l-5.743-9.237h-.037v9.237h-2.848v-13.794Z" transform="translate(-1730.975 1002.948)" fill="#fff"/>
        <path id="Path_100821" data-name="Path 100821" d="M1748.335-998.787a3.03,3.03,0,0,0-.675-.764,3.074,3.074,0,0,0-.918-.51,3.1,3.1,0,0,0-1.072-.186,3.536,3.536,0,0,0-1.742.4,3.256,3.256,0,0,0-1.158,1.061,4.634,4.634,0,0,0-.648,1.516,7.518,7.518,0,0,0-.2,1.757,6.975,6.975,0,0,0,.2,1.689,4.519,4.519,0,0,0,.648,1.479,3.331,3.331,0,0,0,1.158,1.052,3.559,3.559,0,0,0,1.742.4,2.808,2.808,0,0,0,2.174-.851,3.941,3.941,0,0,0,.957-2.242h2.936a6.994,6.994,0,0,1-.6,2.337,5.572,5.572,0,0,1-1.278,1.783,5.4,5.4,0,0,1-1.854,1.123,6.73,6.73,0,0,1-2.337.387,7.067,7.067,0,0,1-2.853-.551,6.148,6.148,0,0,1-2.137-1.516,6.727,6.727,0,0,1-1.337-2.273,8.345,8.345,0,0,1-.463-2.816,8.641,8.641,0,0,1,.463-2.869,6.922,6.922,0,0,1,1.337-2.311,6.111,6.111,0,0,1,2.137-1.545,6.956,6.956,0,0,1,2.853-.563,6.941,6.941,0,0,1,2.153.33,5.81,5.81,0,0,1,1.816.96,5.113,5.113,0,0,1,1.325,1.554,5.609,5.609,0,0,1,.658,2.129h-2.938A2.488,2.488,0,0,0,1748.335-998.787Z" transform="translate(-1725.155 1002.803)" fill="#fff"/>
      </g>
      <g id="Group_53918" data-name="Group 53918" transform="translate(192.369 7.053)">
        <path id="Path_100822" data-name="Path 100822" d="M1801.886-1014.567a22.053,22.053,0,0,1-22.038,22.067,22.052,22.052,0,0,1-22.067-22.036v-.031a22.053,22.053,0,0,1,22.034-22.065,22.055,22.055,0,0,1,22.071,22.032Z" transform="translate(-1755.546 1038.723)" fill="#fff"/>
        <g id="Group_53917" data-name="Group 53917">
          <path id="Path_100823" data-name="Path 100823" d="M1780.622-1037.836a23.031,23.031,0,0,0-16.992,7,23.636,23.636,0,0,0-7.136,17.151,23.237,23.237,0,0,0,7.136,17.032,23.222,23.222,0,0,0,16.992,7.126,23.87,23.87,0,0,0,17.3-7.185,22.933,22.933,0,0,0,6.893-16.973,23.3,23.3,0,0,0-7.015-17.151A23.375,23.375,0,0,0,1780.622-1037.836Zm.059,4.349a18.921,18.921,0,0,1,13.97,5.8,18.935,18.935,0,0,1,5.8,14.009,18.427,18.427,0,0,1-5.685,13.83,19.389,19.389,0,0,1-14.09,5.917,19.1,19.1,0,0,1-13.969-5.858,18.969,18.969,0,0,1-5.864-13.889,19.264,19.264,0,0,1,5.924-14.009A18.73,18.73,0,0,1,1780.681-1033.487Z" transform="translate(-1756.494 1037.836)"/>
          <path id="Path_100824" data-name="Path 100824" d="M1765.033-1021.931c.963-6.079,5.241-9.328,10.6-9.328,7.711,0,12.413,5.6,12.413,13.057,0,7.282-5,12.938-12.535,12.938a10.352,10.352,0,0,1-10.665-9.446h6.087c.181,3.247,2.291,4.393,5.3,4.393,3.435,0,5.664-3.19,5.664-8.064,0-5.117-1.926-7.822-5.544-7.822-2.649,0-4.94.964-5.421,4.271l1.77-.012-4.79,4.792-4.793-4.792Z" transform="translate(-1751.612 1042.679)"/>
        </g>
      </g>
      <g id="Group_53919" data-name="Group 53919" transform="translate(138.013 7.053)">
        <path id="Path_100825" data-name="Path 100825" d="M1771.108-1014.386A22.474,22.474,0,0,1,1748.65-991.9a22.474,22.474,0,0,1-22.491-22.456v-.031a22.474,22.474,0,0,1,22.458-22.489,22.475,22.475,0,0,1,22.491,22.456Z" transform="translate(-1724.475 1038.544)" fill="#fff"/>
        <path id="Path_100826" data-name="Path 100826" d="M1749.316-1037.836a23.375,23.375,0,0,1,17.174,7,23.3,23.3,0,0,1,7.017,17.153,22.932,22.932,0,0,1-6.893,16.971,23.874,23.874,0,0,1-17.3,7.185,23.224,23.224,0,0,1-16.99-7.126,23.223,23.223,0,0,1-7.136-17.03,23.631,23.631,0,0,1,7.136-17.153A23.032,23.032,0,0,1,1749.316-1037.836Zm-18.69,17.667a19.279,19.279,0,0,0-1.083,6.491,18.971,18.971,0,0,0,5.867,13.891,19.1,19.1,0,0,0,13.967,5.855,19.389,19.389,0,0,0,14.091-5.917,18.722,18.722,0,0,0,3.3-4.224l-9.105-4.056a7,7,0,0,1-6.65,5.376v3.726h-2.775v-3.726a11.481,11.481,0,0,1-7.333-2.893l3.329-3.355a7.281,7.281,0,0,0,5.391,2.186c1.42,0,2.992-.554,2.992-2.4a1.81,1.81,0,0,0-.653-1.452l-2.3-1.026-2.868-1.276-3.827-1.7Zm18.75-13.318a18.723,18.723,0,0,0-13.906,5.8,22.4,22.4,0,0,0-2.693,3.262l9.238,4.112c.833-2.563,3.268-4.117,6.221-4.289v-3.726h2.775v3.726a10.42,10.42,0,0,1,6.072,2.216l-3.174,3.261a7.352,7.352,0,0,0-4.131-1.415c-1.2,0-2.9.368-2.9,1.875a.967.967,0,0,0,.217.613l3.091,1.377,2.089.932c1.339.6,2.615,1.162,3.881,1.726l12.38,5.511a21.135,21.135,0,0,0,.611-5.171,18.947,18.947,0,0,0-5.8-14.01A18.932,18.932,0,0,0,1749.376-1033.487Z" transform="translate(-1725.189 1037.836)"/>
      </g>
    </g>
  </g>
</svg>
