<svg xmlns="http://www.w3.org/2000/svg" width="505" height="339" viewBox="0 0 505 339">
  <g id="t5-i3" transform="translate(-2499 1488)">
    <g id="Rectángulo_5389" data-name="Rectángulo 5389">
      <rect id="Rectangle_5516" data-name="Rectangle 5516" width="505" height="339" transform="translate(2499 -1488)" fill="none"/>
      <rect id="Rectangle_5517" data-name="Rectangle 5517" width="504" height="338" transform="translate(2499.5 -1487.5)" fill="none"/>
    </g>
    <circle id="Ellipse_4123" data-name="Ellipse 4123" cx="159.5" cy="159.5" r="159.5" transform="translate(2592 -1478)" fill="#c7f9cc"/>
    <circle id="Ellipse_4124" data-name="Ellipse 4124" cx="116.102" cy="116.102" r="116.102" transform="translate(2635.398 -1428.204)" fill="#d6a636"/>
    <circle id="Ellipse_4125" data-name="Ellipse 4125" cx="116.102" cy="116.102" r="116.102" transform="translate(2635.398 -1435)" fill="#ffc94a"/>
    <g id="Group_53876" data-name="Group 53876">
      <g id="Group_53875" data-name="Group 53875">
        <g id="Group_53873" data-name="Group 53873">
          <g id="Group_53872" data-name="Group 53872">
            <path id="Path_100779" data-name="Path 100779" d="M2674.154-1311.858a77.346,77.346,0,0,0,77.346,77.346,77.346,77.346,0,0,0,77.346-77.346A77.346,77.346,0,0,0,2751.5-1389.2,77.346,77.346,0,0,0,2674.154-1311.858Zm15.048,0a62.3,62.3,0,0,1,62.3-62.3,62.3,62.3,0,0,1,62.3,62.3,62.3,62.3,0,0,1-62.3,62.3A62.3,62.3,0,0,1,2689.2-1311.858Z" fill="#d6a636"/>
          </g>
        </g>
        <g id="Group_53874" data-name="Group 53874">
          <path id="Path_100780" data-name="Path 100780" d="M2728.947-1304.334a23.781,23.781,0,0,0,22.553,16.252,23.776,23.776,0,0,0,23.776-23.776,23.775,23.775,0,0,0-23.776-23.775,23.78,23.78,0,0,0-22.553,16.251h-15.535a38.831,38.831,0,0,1,38.088-31.3,38.823,38.823,0,0,1,38.823,38.823,38.823,38.823,0,0,1-38.823,38.824,38.83,38.83,0,0,1-38.088-31.3Z" fill="#d6a636"/>
        </g>
      </g>
    </g>
    <g id="Group_53881" data-name="Group 53881">
      <g id="Group_53880" data-name="Group 53880">
        <g id="Group_53878" data-name="Group 53878">
          <g id="Group_53877" data-name="Group 53877">
            <path id="Path_100781" data-name="Path 100781" d="M2674.154-1318.654a77.346,77.346,0,0,0,77.346,77.346,77.346,77.346,0,0,0,77.346-77.346A77.346,77.346,0,0,0,2751.5-1396,77.346,77.346,0,0,0,2674.154-1318.654Zm15.048,0a62.3,62.3,0,0,1,62.3-62.3,62.3,62.3,0,0,1,62.3,62.3,62.3,62.3,0,0,1-62.3,62.3A62.3,62.3,0,0,1,2689.2-1318.654Z" fill="#22577a"/>
          </g>
        </g>
        <g id="Group_53879" data-name="Group 53879">
          <path id="Path_100782" data-name="Path 100782" d="M2728.947-1311.13a23.781,23.781,0,0,0,22.553,16.252,23.776,23.776,0,0,0,23.776-23.776,23.776,23.776,0,0,0-23.776-23.776,23.781,23.781,0,0,0-22.553,16.252h-15.535a38.83,38.83,0,0,1,38.088-31.3,38.822,38.822,0,0,1,38.823,38.823,38.822,38.822,0,0,1-38.823,38.823,38.83,38.83,0,0,1-38.088-31.3Z" fill="#22577a"/>
        </g>
      </g>
    </g>
  </g>
</svg>
