<svg xmlns="http://www.w3.org/2000/svg" width="250" height="87.5" viewBox="0 0 250 87.5">
  <g id="t5-i13" transform="translate(-1647.703 1181.451)">
    <g id="Group_53939" data-name="Group 53939" transform="translate(1647.703 -1181.451)">
      <path id="Path_100841" data-name="Path 100841" d="M1654.319-1180.88l236.153.42c3.3,0,6.25-.49,6.25,6.584l-.29,77.769H1648.36v-78.057C1648.36-1177.652,1648.7-1180.88,1654.319-1180.88Z" transform="translate(-1647.219 1181.871)" fill="#aab2ab"/>
      <g id="Group_53932" data-name="Group 53932" transform="translate(10.974 8.197)">
        <path id="Path_100842" data-name="Path 100842" d="M1713.218-1145.912a28.4,28.4,0,0,1-28.389,28.418,28.4,28.4,0,0,1-28.424-28.384v-.035a28.4,28.4,0,0,1,28.389-28.419,28.4,28.4,0,0,1,28.424,28.384Z" transform="translate(-1652.269 1178.496)" fill="#fff"/>
        <g id="Group_53931" data-name="Group 53931">
          <path id="Path_100843" data-name="Path 100843" d="M1709.657-1167.281a31.471,31.471,0,0,1,9.449,23.135q0,13.687-9.288,22.89a32.1,32.1,0,0,1-23.295,9.694,31.246,31.246,0,0,1-22.888-9.613,31.342,31.342,0,0,1-9.613-22.972,31.886,31.886,0,0,1,9.613-23.135,30.993,30.993,0,0,1,22.888-9.449A31.451,31.451,0,0,1,1709.657-1167.281Zm-41.781,4.237a26.013,26.013,0,0,0-7.987,18.905,25.605,25.605,0,0,0,7.906,18.74,25.707,25.707,0,0,0,18.827,7.906,26.1,26.1,0,0,0,18.987-7.986,24.876,24.876,0,0,0,7.662-18.66,25.787,25.787,0,0,0-7.786-18.945,25.686,25.686,0,0,0-18.864-7.782A25.232,25.232,0,0,0,1667.875-1163.044Zm14.016,15.726a3.912,3.912,0,0,0-3.657-2.658q-4.308,0-4.308,5.8t4.308,5.8a4.173,4.173,0,0,0,4.063-2.826l3.981,2.118a9.212,9.212,0,0,1-8.539,5.058,9.413,9.413,0,0,1-7.036-2.691,10.136,10.136,0,0,1-2.643-7.423,9.985,9.985,0,0,1,2.724-7.383,9.2,9.2,0,0,1,6.791-2.733q6.019,0,8.622,4.739Zm18.729,0q-1.222-2.659-3.582-2.658-4.394,0-4.4,5.8t4.4,5.8a4.034,4.034,0,0,0,3.988-2.826l4.07,2.118a9.2,9.2,0,0,1-8.525,5.058,9.385,9.385,0,0,1-7.023-2.691,10.156,10.156,0,0,1-2.638-7.423,10.092,10.092,0,0,1,2.679-7.383,9.143,9.143,0,0,1,6.821-2.733q6.006,0,8.605,4.739Z" transform="translate(-1654.023 1176.73)"/>
        </g>
      </g>
      <path id="Path_100844" data-name="Path 100844" d="M1893.024-1181.451H1652.384a4.687,4.687,0,0,0-4.681,4.681v81.759a1.058,1.058,0,0,0,1.056,1.059h247.886a1.059,1.059,0,0,0,1.058-1.059v-81.759A4.685,4.685,0,0,0,1893.024-1181.451Zm-240.639,2.115h240.639a2.567,2.567,0,0,1,2.563,2.566v56.759H1723.6a37,37,0,0,1-32.39,19.135,36.977,36.977,0,0,1-32.386-19.135h-9v-56.759A2.571,2.571,0,0,1,1652.384-1179.336Z" transform="translate(-1647.703 1181.451)"/>
      <g id="Group_53933" data-name="Group 53933" transform="translate(176.521 67.882)">
        <path id="Path_100845" data-name="Path 100845" d="M1752.561-1131.63a2.215,2.215,0,0,0,.665.783,2.87,2.87,0,0,0,.973.445,4.594,4.594,0,0,0,1.158.144,5.774,5.774,0,0,0,.868-.068,2.931,2.931,0,0,0,.866-.26,1.878,1.878,0,0,0,.674-.53,1.328,1.328,0,0,0,.273-.861,1.223,1.223,0,0,0-.357-.908,2.868,2.868,0,0,0-.936-.58,9.774,9.774,0,0,0-1.311-.406c-.49-.116-.985-.243-1.486-.387a13.145,13.145,0,0,1-1.509-.471,5.309,5.309,0,0,1-1.309-.724,3.43,3.43,0,0,1-.936-1.111,3.4,3.4,0,0,1-.358-1.616,3.619,3.619,0,0,1,.453-1.844,4.132,4.132,0,0,1,1.19-1.3,5.1,5.1,0,0,1,1.66-.775,7.074,7.074,0,0,1,1.853-.252,8.643,8.643,0,0,1,2.075.245,5.076,5.076,0,0,1,1.766.783,3.909,3.909,0,0,1,1.226,1.38,4.257,4.257,0,0,1,.455,2.042h-2.945a2.5,2.5,0,0,0-.257-1.025,1.743,1.743,0,0,0-.587-.639,2.467,2.467,0,0,0-.839-.326,5,5,0,0,0-1.03-.1,3.563,3.563,0,0,0-.727.078,1.908,1.908,0,0,0-.663.271,1.618,1.618,0,0,0-.493.485,1.317,1.317,0,0,0-.191.731,1.235,1.235,0,0,0,.153.66,1.4,1.4,0,0,0,.609.464,7.847,7.847,0,0,0,1.252.425c.533.141,1.233.323,2.1.54q.385.078,1.07.281a5.209,5.209,0,0,1,1.36.646,4.2,4.2,0,0,1,1.17,1.19,3.39,3.39,0,0,1,.49,1.9,4.222,4.222,0,0,1-.366,1.761,3.814,3.814,0,0,1-1.092,1.4,5.225,5.225,0,0,1-1.8.918,8.46,8.46,0,0,1-2.483.328,8.7,8.7,0,0,1-2.214-.281,5.6,5.6,0,0,1-1.9-.88,4.379,4.379,0,0,1-1.3-1.53,4.575,4.575,0,0,1-.464-2.205h2.945A2.54,2.54,0,0,0,1752.561-1131.63Z" transform="translate(-1749.366 1142.356)" fill="#fff"/>
        <path id="Path_100846" data-name="Path 100846" d="M1764.584-1142.159l5.162,13.794h-3.153l-1.042-3.072h-5.164l-1.08,3.072h-3.054l5.219-13.794Zm.173,8.458-1.736-5.058h-.042l-1.8,5.058Z" transform="translate(-1744.294 1142.501)" fill="#fff"/>
      </g>
      <g id="Group_53934" data-name="Group 53934" transform="translate(118.488 68.224)">
        <path id="Path_100847" data-name="Path 100847" d="M1722.448-1142.159a8.622,8.622,0,0,1,1.8.174,3.841,3.841,0,0,1,1.393.57,2.645,2.645,0,0,1,.9,1.05,3.688,3.688,0,0,1,.318,1.623,3,3,0,0,1-.475,1.738,3.42,3.42,0,0,1-1.4,1.139,3.317,3.317,0,0,1,1.911,1.287,3.812,3.812,0,0,1,.631,2.214,3.773,3.773,0,0,1-.406,1.806,3.527,3.527,0,0,1-1.094,1.245,4.835,4.835,0,0,1-1.568.717,7.09,7.09,0,0,1-1.811.231h-6.7v-13.794Zm-.387,5.579a2.189,2.189,0,0,0,1.337-.387,1.453,1.453,0,0,0,.521-1.252,1.616,1.616,0,0,0-.173-.79,1.277,1.277,0,0,0-.466-.481,1.96,1.96,0,0,0-.667-.241,4.449,4.449,0,0,0-.785-.068h-2.842v3.219Zm.177,5.855a3.993,3.993,0,0,0,.852-.087,2.166,2.166,0,0,0,.717-.29,1.469,1.469,0,0,0,.493-.551,1.869,1.869,0,0,0,.184-.889,1.78,1.78,0,0,0-.6-1.516,2.566,2.566,0,0,0-1.587-.451h-3.311v3.784Z" transform="translate(-1715.943 1142.159)" fill="#fff"/>
        <path id="Path_100848" data-name="Path 100848" d="M1722.922-1142.159h3.4l3.231,5.449,3.21-5.449h3.382l-5.119,8.5v5.294h-3.044v-5.371Z" transform="translate(-1710.804 1142.159)" fill="#fff"/>
      </g>
      <g id="Group_53936" data-name="Group 53936" transform="translate(167.005 7.053)">
        <path id="Path_100849" data-name="Path 100849" d="M1789.276-1154.12a22.053,22.053,0,0,1-22.036,22.065,22.055,22.055,0,0,1-22.071-22.034v-.031a22.053,22.053,0,0,1,22.038-22.066,22.052,22.052,0,0,1,22.069,22.033Z" transform="translate(-1742.94 1178.276)" fill="#fff"/>
        <g id="Group_53935" data-name="Group 53935">
          <path id="Path_100850" data-name="Path 100850" d="M1768.01-1177.389a23.03,23.03,0,0,0-16.992,7,23.624,23.624,0,0,0-7.133,17.151,23.221,23.221,0,0,0,7.133,17.03,23.215,23.215,0,0,0,16.992,7.128,23.872,23.872,0,0,0,17.3-7.189,22.919,22.919,0,0,0,6.893-16.969,23.32,23.32,0,0,0-7.016-17.151A23.379,23.379,0,0,0,1768.01-1177.389Zm.06,4.348a18.93,18.93,0,0,1,13.971,5.8,18.951,18.951,0,0,1,5.8,14.01,18.431,18.431,0,0,1-5.681,13.83,19.394,19.394,0,0,1-14.093,5.916,19.088,19.088,0,0,1-13.969-5.855,18.971,18.971,0,0,1-5.865-13.891,19.273,19.273,0,0,1,5.926-14.01A18.727,18.727,0,0,1,1768.07-1173.041Z" transform="translate(-1743.885 1177.389)"/>
          <path id="Path_100851" data-name="Path 100851" d="M1752.42-1161.486c.964-6.077,5.244-9.326,10.605-9.326,7.711,0,12.412,5.6,12.412,13.057,0,7.281-5,12.938-12.533,12.938a10.35,10.35,0,0,1-10.665-9.446h6.085c.181,3.249,2.291,4.391,5.3,4.391,3.433,0,5.664-3.188,5.664-8.063,0-5.114-1.927-7.822-5.546-7.822-2.648,0-4.94.964-5.421,4.271l1.771-.009-4.793,4.789-4.79-4.789Z" transform="translate(-1739.004 1182.232)"/>
        </g>
      </g>
      <g id="Group_53938" data-name="Group 53938" transform="translate(107.815 7.053)">
        <path id="Path_100852" data-name="Path 100852" d="M1733.212-1176.077a22.372,22.372,0,0,1,22.374,22.369,22.372,22.372,0,0,1-22.374,22.371,22.372,22.372,0,0,1-22.373-22.371A22.372,22.372,0,0,1,1733.212-1176.077Z" transform="translate(-1709.028 1178.355)" fill="#fff"/>
        <g id="Group_53937" data-name="Group 53937" transform="translate(17.657 8.555)">
          <path id="Path_100853" data-name="Path 100853" d="M1732.969-1166.261a1.56,1.56,0,0,0-1.561-1.559h-9.882a1.561,1.561,0,0,0-1.561,1.559v9.882h2.756v11.7h7.49v-11.7h2.757v-9.882Z" transform="translate(-1719.965 1175.88)"/>
          <path id="Path_100854" data-name="Path 100854" d="M1725.144-1172.462a3.378,3.378,0,0,1,3.377,3.379,3.377,3.377,0,0,1-3.377,3.379,3.38,3.38,0,0,1-3.381-3.379A3.381,3.381,0,0,1,1725.144-1172.462Z" transform="translate(-1718.641 1172.462)"/>
        </g>
        <path id="Path_100855" data-name="Path 100855" d="M1733.922-1177.389a23.022,23.022,0,0,0-16.991,7.006,23.613,23.613,0,0,0-7.135,17.15,23.227,23.227,0,0,0,7.135,17.03,23.22,23.22,0,0,0,16.991,7.124,23.85,23.85,0,0,0,17.3-7.186,22.9,22.9,0,0,0,6.9-16.968,23.3,23.3,0,0,0-7.015-17.15A23.363,23.363,0,0,0,1733.922-1177.389Zm.063,4.348a18.93,18.93,0,0,1,13.969,5.8,18.945,18.945,0,0,1,5.806,14.01,18.431,18.431,0,0,1-5.685,13.83,19.4,19.4,0,0,1-14.09,5.916,19.085,19.085,0,0,1-13.969-5.857,18.959,18.959,0,0,1-5.865-13.889,19.269,19.269,0,0,1,5.925-14.01A18.736,18.736,0,0,1,1733.985-1173.041Z" transform="translate(-1709.796 1177.389)"/>
      </g>
    </g>
  </g>
</svg>
