<svg xmlns="http://www.w3.org/2000/svg" width="250" height="87.499" viewBox="0 0 250 87.499">
  <g id="t5-i9" transform="translate(-1646.535 1313.548)">
    <g id="Group_53957" data-name="Group 53957" transform="translate(1646.535 -1313.548)">
      <path id="Path_100871" data-name="Path 100871" d="M1652.831-1312.94l236.153.42c3.3,0,6.246-.49,6.246,6.584l-.288,77.769H1646.87v-78.057C1646.87-1309.712,1647.208-1312.94,1652.831-1312.94Z" transform="translate(-1646.288 1313.996)" fill="#aab2ab"/>
      <path id="Path_100872" data-name="Path 100872" d="M1891.85-1313.548H1651.216a4.686,4.686,0,0,0-4.681,4.679v81.764a1.057,1.057,0,0,0,1.058,1.056h247.883a1.057,1.057,0,0,0,1.059-1.056v-81.764A4.687,4.687,0,0,0,1891.85-1313.548Zm-240.634,2.113H1891.85a2.569,2.569,0,0,1,2.568,2.566v56.825H1721.868a37,37,0,0,1-32.388,19.136,36.982,36.982,0,0,1-32.388-19.136h-8.442v-56.825A2.569,2.569,0,0,1,1651.216-1311.435Z" transform="translate(-1646.535 1313.548)"/>
      <g id="Group_53952" data-name="Group 53952" transform="translate(147.266 68.224)">
        <path id="Path_100873" data-name="Path 100873" d="M1737.85-1274.256a8.759,8.759,0,0,1,1.8.172,3.858,3.858,0,0,1,1.391.571,2.64,2.64,0,0,1,.9,1.05,3.713,3.713,0,0,1,.319,1.624,2.989,2.989,0,0,1-.476,1.736,3.435,3.435,0,0,1-1.4,1.141,3.322,3.322,0,0,1,1.914,1.287,3.823,3.823,0,0,1,.63,2.212,3.8,3.8,0,0,1-.406,1.807,3.513,3.513,0,0,1-1.1,1.245,4.788,4.788,0,0,1-1.568.715,7,7,0,0,1-1.811.233h-6.7v-13.793Zm-.385,5.579a2.2,2.2,0,0,0,1.335-.387,1.45,1.45,0,0,0,.523-1.252,1.606,1.606,0,0,0-.174-.79,1.308,1.308,0,0,0-.465-.483,1.889,1.889,0,0,0-.669-.24,4.419,4.419,0,0,0-.783-.068h-2.844v3.219Zm.177,5.855a3.89,3.89,0,0,0,.853-.089,2.168,2.168,0,0,0,.715-.288,1.458,1.458,0,0,0,.493-.55,1.869,1.869,0,0,0,.184-.889,1.788,1.788,0,0,0-.6-1.516,2.573,2.573,0,0,0-1.587-.453h-3.313v3.785Z" transform="translate(-1731.349 1274.256)" fill="#fff"/>
        <path id="Path_100874" data-name="Path 100874" d="M1738.326-1274.256h3.4l3.231,5.448,3.21-5.448h3.381l-5.121,8.5v5.293h-3.042v-5.371Z" transform="translate(-1726.212 1274.256)" fill="#fff"/>
      </g>
      <g id="Group_53954" data-name="Group 53954" transform="translate(10.416 8.26)">
        <path id="Path_100875" data-name="Path 100875" d="M1711.727-1277.972a28.405,28.405,0,0,1-28.387,28.421,28.408,28.408,0,0,1-28.424-28.387v-.033a28.405,28.405,0,0,1,28.389-28.42,28.4,28.4,0,0,1,28.422,28.386Z" transform="translate(-1650.781 1310.557)" fill="#fff"/>
        <g id="Group_53953" data-name="Group 53953">
          <path id="Path_100876" data-name="Path 100876" d="M1708.166-1299.34a31.472,31.472,0,0,1,9.449,23.135q0,13.687-9.286,22.89a32.106,32.106,0,0,1-23.295,9.694,31.248,31.248,0,0,1-22.889-9.612,31.345,31.345,0,0,1-9.612-22.972,31.886,31.886,0,0,1,9.612-23.135,31,31,0,0,1,22.889-9.451A31.459,31.459,0,0,1,1708.166-1299.34Zm-41.781,4.237a26.011,26.011,0,0,0-7.985,18.907,25.6,25.6,0,0,0,7.905,18.739,25.7,25.7,0,0,0,18.826,7.907,26.116,26.116,0,0,0,18.989-7.985,24.889,24.889,0,0,0,7.661-18.661,25.79,25.79,0,0,0-7.784-18.947,25.692,25.692,0,0,0-18.865-7.782A25.234,25.234,0,0,0,1666.385-1295.1Zm14.016,15.728a3.913,3.913,0,0,0-3.656-2.662q-4.308,0-4.308,5.8t4.308,5.8a4.173,4.173,0,0,0,4.064-2.825l3.979,2.12a9.212,9.212,0,0,1-8.539,5.056,9.417,9.417,0,0,1-7.034-2.69,10.136,10.136,0,0,1-2.644-7.425,9.99,9.99,0,0,1,2.726-7.383,9.2,9.2,0,0,1,6.791-2.733q6.017,0,8.621,4.74Zm18.73,0q-1.224-2.662-3.584-2.662-4.393,0-4.395,5.8t4.395,5.8a4.033,4.033,0,0,0,3.989-2.825l4.07,2.12a9.2,9.2,0,0,1-8.525,5.056,9.4,9.4,0,0,1-7.023-2.69,10.161,10.161,0,0,1-2.637-7.425,10.092,10.092,0,0,1,2.681-7.383,9.14,9.14,0,0,1,6.819-2.733q6.009,0,8.605,4.74Z" transform="translate(-1652.534 1308.791)"/>
        </g>
      </g>
      <g id="Group_53956" data-name="Group 53956" transform="translate(134.705 7.053)">
        <path id="Path_100877" data-name="Path 100877" d="M1747.533-1308.175A22.37,22.37,0,0,1,1769.9-1285.8a22.371,22.371,0,0,1-22.371,22.371,22.375,22.375,0,0,1-22.376-22.371A22.374,22.374,0,0,1,1747.533-1308.175Z" transform="translate(-1723.348 1310.451)" fill="#fff"/>
        <g id="Group_53955" data-name="Group 53955" transform="translate(17.659 8.553)">
          <path id="Path_100878" data-name="Path 100878" d="M1747.285-1298.358a1.56,1.56,0,0,0-1.558-1.559h-9.883a1.56,1.56,0,0,0-1.559,1.559v9.882h2.754v11.7h7.491v-11.7h2.755v-9.882Z" transform="translate(-1734.285 1307.979)"/>
          <path id="Path_100879" data-name="Path 100879" d="M1739.46-1304.56a3.382,3.382,0,0,1,3.383,3.381,3.381,3.381,0,0,1-3.383,3.381,3.381,3.381,0,0,1-3.379-3.381A3.381,3.381,0,0,1,1739.46-1304.56Z" transform="translate(-1732.962 1304.56)"/>
        </g>
        <path id="Path_100880" data-name="Path 100880" d="M1748.243-1309.486a23.027,23.027,0,0,0-16.993,7,23.622,23.622,0,0,0-7.135,17.152,23.221,23.221,0,0,0,7.135,17.028,23.219,23.219,0,0,0,16.993,7.124,23.843,23.843,0,0,0,17.294-7.185,22.9,22.9,0,0,0,6.9-16.968,23.319,23.319,0,0,0-7.015-17.152A23.378,23.378,0,0,0,1748.243-1309.486Zm.061,4.346a18.928,18.928,0,0,1,13.969,5.8,18.939,18.939,0,0,1,5.8,14.01,18.424,18.424,0,0,1-5.683,13.828,19.392,19.392,0,0,1-14.089,5.917,19.082,19.082,0,0,1-13.969-5.857,18.96,18.96,0,0,1-5.867-13.889,19.268,19.268,0,0,1,5.928-14.01A18.725,18.725,0,0,1,1748.3-1305.14Z" transform="translate(-1724.115 1309.486)"/>
      </g>
    </g>
  </g>
</svg>
