<svg xmlns="http://www.w3.org/2000/svg" width="505" height="339" viewBox="0 0 505 339">
  <g id="t5-i2" transform="translate(-2499 1124)">
    <g id="Rectángulo_5389" data-name="Rectángulo 5389">
      <rect id="Rectangle_5514" data-name="Rectangle 5514" width="505" height="339" transform="translate(2499 -1124)" fill="none"/>
      <rect id="Rectangle_5515" data-name="Rectangle 5515" width="504" height="338" transform="translate(2499.5 -1123.5)" fill="none"/>
    </g>
    <circle id="Ellipse_4120" data-name="Ellipse 4120" cx="159.5" cy="159.5" r="159.5" transform="translate(2592 -1114)" fill="#c7f9cc"/>
    <circle id="Ellipse_4121" data-name="Ellipse 4121" cx="116.102" cy="116.102" r="116.102" transform="translate(2635.398 -1064.204)" fill="#d6a636"/>
    <circle id="Ellipse_4122" data-name="Ellipse 4122" cx="116.102" cy="116.102" r="116.102" transform="translate(2635.398 -1071)" fill="#ffc94a"/>
    <g id="Group_53869" data-name="Group 53869">
      <path id="Path_100775" data-name="Path 100775" d="M2751.5-1025.692a77.59,77.59,0,0,0-77.59,77.59,77.59,77.59,0,0,0,77.59,77.59,77.59,77.59,0,0,0,77.59-77.59A77.59,77.59,0,0,0,2751.5-1025.692Zm0,140.085A62.5,62.5,0,0,1,2689-948.1a62.5,62.5,0,0,1,62.5-62.495A62.5,62.5,0,0,1,2814-948.1,62.5,62.5,0,0,1,2751.5-885.607Z" fill="#d6a636"/>
      <path id="Path_100776" data-name="Path 100776" d="M2768.456-931.332h0a23.77,23.77,0,0,1-16.956,7.082,23.852,23.852,0,0,1-23.851-23.851,23.852,23.852,0,0,1,23.851-23.851,23.762,23.762,0,0,1,16.485,6.624l10.421-10.915a38.8,38.8,0,0,0-26.906-10.8,38.946,38.946,0,0,0-38.946,38.946,38.946,38.946,0,0,0,38.946,38.946,38.825,38.825,0,0,0,27.555-11.424Z" fill="#d6a636"/>
    </g>
    <g id="Group_53870" data-name="Group 53870">
      <path id="Path_100777" data-name="Path 100777" d="M2751.5-1032.488a77.59,77.59,0,0,0-77.59,77.59,77.59,77.59,0,0,0,77.59,77.59,77.59,77.59,0,0,0,77.59-77.59A77.59,77.59,0,0,0,2751.5-1032.488Zm0,140.085A62.5,62.5,0,0,1,2689-954.9a62.5,62.5,0,0,1,62.5-62.495A62.5,62.5,0,0,1,2814-954.9,62.5,62.5,0,0,1,2751.5-892.4Z" fill="#22577a"/>
      <path id="Path_100778" data-name="Path 100778" d="M2768.456-938.128h0a23.774,23.774,0,0,1-16.956,7.082,23.852,23.852,0,0,1-23.851-23.851,23.852,23.852,0,0,1,23.851-23.851,23.762,23.762,0,0,1,16.485,6.624l10.421-10.915a38.8,38.8,0,0,0-26.906-10.8,38.946,38.946,0,0,0-38.946,38.946,38.946,38.946,0,0,0,38.946,38.946,38.825,38.825,0,0,0,27.555-11.424Z" fill="#22577a"/>
    </g>
  </g>
</svg>
